<?xml version="1.0" encoding="UTF-8" ?>
<!DOCTYPE svg PUBLIC "-//W3C//DTD SVG 1.1//EN" "http://www.w3.org/Graphics/SVG/1.1/DTD/svg11.dtd">
<svg width="640pt" height="640pt" viewBox="0 0 640 640" version="1.1" xmlns="http://www.w3.org/2000/svg">
<path fill="#ffffff" d=" M 0.00 0.00 L 640.00 0.00 L 640.00 640.00 L 626.08 640.00 C 630.81 622.33 628.38 603.38 621.35 586.66 C 616.66 574.13 606.43 564.72 595.56 557.42 C 582.07 548.41 567.15 541.83 552.15 535.79 C 530.19 527.06 507.69 519.80 485.70 511.16 C 468.95 504.66 452.91 496.46 437.28 487.64 C 429.49 482.91 421.14 478.79 414.53 472.40 C 409.24 467.76 403.66 463.46 398.00 459.29 C 397.61 459.74 396.82 460.66 396.42 461.12 C 396.01 451.62 396.40 442.11 396.19 432.61 C 418.95 408.85 434.66 378.73 442.90 346.98 C 443.95 340.88 445.59 334.92 446.74 328.84 C 451.89 317.12 454.89 304.56 457.61 292.08 C 463.26 264.16 464.41 234.96 457.79 207.11 C 450.72 176.65 433.01 148.82 408.55 129.39 C 387.68 112.87 361.40 104.06 334.99 102.48 C 311.69 101.05 288.27 104.25 265.85 110.53 C 255.27 113.70 244.56 117.78 236.16 125.18 C 233.56 127.32 231.95 130.31 230.09 133.05 C 219.26 136.18 208.64 140.57 199.56 147.38 C 189.12 155.01 180.79 165.69 176.77 178.05 C 173.40 188.32 172.84 199.24 172.77 209.97 C 172.93 249.62 180.09 288.81 187.44 327.64 C 192.82 365.21 209.57 401.14 234.85 429.44 C 234.46 438.60 235.18 447.78 234.45 456.92 C 228.71 460.96 225.53 467.67 220.17 472.18 C 209.72 481.09 198.04 488.47 186.04 495.11 C 154.83 512.51 120.12 521.88 87.10 535.06 C 70.96 541.51 54.86 548.50 40.47 558.37 C 31.36 564.75 22.74 572.54 17.81 582.68 C 10.97 597.67 7.15 614.49 9.61 630.96 C 10.13 634.00 10.21 637.24 11.76 640.00 L 0.00 640.00 L 0.00 0.00 Z" />
<path fill="#673424" d=" M 265.85 110.53 C 288.27 104.25 311.69 101.05 334.99 102.48 C 361.40 104.06 387.68 112.87 408.55 129.39 C 433.01 148.82 450.72 176.65 457.79 207.11 C 464.41 234.96 463.26 264.16 457.61 292.08 C 454.89 304.56 451.89 317.12 446.74 328.84 C 447.78 318.93 448.21 308.97 449.03 299.04 C 449.21 295.93 449.27 292.80 448.91 289.70 L 448.93 289.32 C 449.72 285.14 448.43 281.03 447.33 277.05 C 443.63 263.30 434.40 251.27 422.43 243.64 C 409.57 235.30 394.17 231.84 379.04 230.98 C 366.00 230.58 352.93 231.49 339.92 230.29 C 325.66 229.63 311.37 227.39 298.04 222.15 L 297.62 222.00 C 297.21 221.82 296.40 221.47 295.99 221.30 L 295.55 221.09 C 295.18 220.87 294.43 220.43 294.06 220.21 L 293.68 219.96 C 291.90 218.51 289.93 217.31 287.93 216.21 L 287.66 216.03 C 284.26 212.90 281.10 209.53 277.77 206.33 C 277.67 206.23 277.48 206.04 277.38 205.94 L 277.22 205.67 C 276.51 204.44 275.73 203.27 274.87 202.14 L 274.65 201.84 C 274.59 201.74 274.45 201.55 274.38 201.45 C 273.58 200.31 272.76 199.20 271.91 198.11 L 271.69 197.79 C 271.62 197.69 271.47 197.50 271.40 197.40 C 270.96 196.80 270.06 195.61 269.61 195.01 L 269.35 194.64 C 269.26 194.52 269.09 194.28 269.01 194.16 C 268.90 194.02 268.70 193.73 268.59 193.59 C 267.69 192.37 266.75 191.18 265.77 190.02 L 265.36 189.51 C 265.22 189.35 264.95 189.03 264.81 188.87 C 264.60 188.65 264.20 188.21 264.00 187.99 C 263.78 187.75 263.33 187.27 263.11 187.03 C 262.90 186.82 262.49 186.40 262.29 186.18 C 262.13 186.02 261.83 185.70 261.67 185.53 C 260.63 184.44 259.56 183.38 258.47 182.34 C 258.31 182.19 257.98 181.89 257.82 181.73 C 257.61 181.54 257.20 181.15 256.99 180.95 C 256.77 180.75 256.33 180.35 256.11 180.15 C 255.94 180.02 255.60 179.77 255.44 179.64 L 254.99 179.34 C 254.38 178.89 253.16 178.00 252.55 177.56 C 252.45 177.50 252.25 177.37 252.16 177.31 L 251.84 177.12 C 251.41 176.88 250.56 176.39 250.13 176.15 L 249.78 175.96 C 249.34 175.78 248.45 175.41 248.01 175.22 L 247.55 175.01 C 247.11 174.77 246.23 174.29 245.79 174.06 C 245.38 173.91 244.55 173.63 244.13 173.48 C 241.42 172.82 238.62 172.92 235.92 173.49 C 235.24 173.61 233.89 173.86 233.22 173.99 C 232.10 174.19 230.98 174.41 229.87 174.65 L 229.19 174.92 C 228.61 175.16 227.45 175.64 226.86 175.88 L 225.96 176.29 C 225.76 176.40 225.36 176.60 225.16 176.70 L 224.05 177.32 C 223.89 177.42 223.57 177.64 223.42 177.74 C 222.91 178.14 221.89 178.93 221.38 179.33 C 221.20 179.47 220.84 179.77 220.66 179.92 L 220.00 180.28 C 219.75 180.49 219.25 180.91 219.00 181.11 C 218.78 181.33 218.34 181.77 218.12 181.99 C 217.91 182.23 217.49 182.73 217.28 182.97 L 216.91 183.63 C 216.75 183.79 216.44 184.12 216.28 184.28 C 215.31 185.25 214.44 186.30 213.67 187.44 C 213.60 187.54 213.47 187.75 213.40 187.85 L 213.19 188.18 C 212.81 188.75 212.04 189.89 211.65 190.46 C 211.59 190.56 211.46 190.76 211.40 190.87 L 211.20 191.21 C 210.95 191.63 210.44 192.47 210.19 192.89 L 209.99 193.21 C 209.65 193.77 208.97 194.89 208.63 195.45 C 208.57 195.56 208.46 195.77 208.40 195.87 L 208.23 196.22 C 208.00 196.68 207.54 197.58 207.31 198.04 L 207.09 198.45 C 206.88 198.84 206.45 199.62 206.24 200.01 L 206.02 200.42 C 205.82 200.80 205.42 201.57 205.23 201.96 L 205.02 202.38 C 204.83 202.78 204.45 203.58 204.26 203.99 L 204.07 204.39 C 203.87 204.80 203.48 205.62 203.28 206.03 L 203.08 206.42 C 202.82 206.89 202.30 207.81 202.04 208.27 L 201.67 209.03 C 201.48 209.50 201.10 210.44 200.91 210.92 C 200.71 211.42 200.33 212.44 200.14 212.94 L 199.97 213.39 C 199.75 214.02 199.33 215.28 199.11 215.90 L 198.93 216.44 C 198.71 217.07 198.25 218.32 198.03 218.95 L 197.87 219.40 C 197.63 220.11 197.14 221.54 196.90 222.25 L 196.65 223.04 C 196.35 224.10 196.08 225.16 195.82 226.24 L 195.62 227.02 C 195.33 228.31 195.11 229.63 194.92 230.95 L 194.80 231.41 C 194.29 232.95 194.04 234.54 193.92 236.15 L 193.81 236.61 C 189.74 255.39 189.28 274.71 188.09 293.83 C 187.59 305.09 188.71 316.43 187.44 327.64 C 180.09 288.81 172.93 249.62 172.77 209.97 C 172.84 199.24 173.40 188.32 176.77 178.05 C 180.79 165.69 189.12 155.01 199.56 147.38 C 208.64 140.57 219.26 136.18 230.09 133.05 C 231.95 130.31 233.56 127.32 236.16 125.18 C 244.56 117.78 255.27 113.70 265.85 110.53 Z" />
<path fill="#eaa98b" d=" M 235.92 173.49 C 238.62 172.92 241.42 172.82 244.13 173.48 C 242.00 175.14 245.27 176.17 245.79 174.06 C 246.23 174.29 247.11 174.77 247.55 175.01 C 247.67 175.06 247.90 175.17 248.01 175.22 C 248.45 175.41 249.34 175.78 249.78 175.96 L 249.56 176.14 C 249.70 176.14 249.99 176.15 250.13 176.15 C 250.56 176.39 251.41 176.88 251.84 177.12 C 251.91 177.25 252.05 177.50 252.12 177.63 L 252.39 178.16 L 252.81 178.04 L 252.55 177.56 C 253.16 178.00 254.38 178.89 254.99 179.34 C 255.11 179.51 255.37 179.87 255.50 180.04 C 255.69 180.25 256.08 180.65 256.27 180.85 C 256.49 181.05 256.93 181.44 257.16 181.64 C 257.35 181.81 257.73 182.17 257.92 182.35 C 258.12 182.49 258.50 182.78 258.69 182.92 L 258.47 182.34 C 259.56 183.38 260.63 184.44 261.67 185.53 L 261.08 185.32 C 261.23 185.51 261.52 185.90 261.66 186.09 C 261.85 186.28 262.21 186.67 262.40 186.86 C 262.61 187.09 263.04 187.56 263.26 187.79 C 263.48 188.02 263.92 188.49 264.14 188.72 C 264.32 188.92 264.68 189.31 264.86 189.51 L 265.28 189.99 L 265.77 190.02 C 266.75 191.18 267.69 192.37 268.59 193.59 L 268.07 193.28 L 267.93 193.74 L 268.48 194.12 C 268.63 194.23 268.92 194.47 269.07 194.58 C 269.20 194.69 269.47 194.91 269.61 195.01 C 270.06 195.61 270.96 196.80 271.40 197.40 L 270.86 197.31 C 271.00 197.42 271.29 197.66 271.43 197.78 C 271.55 197.86 271.79 198.02 271.91 198.11 C 272.76 199.20 273.58 200.31 274.38 201.45 L 273.84 201.37 C 273.98 201.48 274.26 201.71 274.40 201.82 C 274.51 201.90 274.75 202.06 274.87 202.14 C 275.73 203.27 276.51 204.44 277.22 205.67 L 276.97 205.55 C 277.07 205.65 277.28 205.84 277.38 205.94 C 277.48 206.04 277.67 206.23 277.77 206.33 C 281.10 209.53 284.26 212.90 287.66 216.03 L 287.73 216.10 C 287.78 216.13 287.88 216.18 287.93 216.21 C 289.93 217.31 291.90 218.51 293.68 219.96 L 293.77 220.13 C 293.84 220.15 293.99 220.19 294.06 220.21 C 294.43 220.43 295.18 220.87 295.55 221.09 L 295.71 221.19 C 295.78 221.22 295.92 221.27 295.99 221.30 C 296.40 221.47 297.21 221.82 297.62 222.00 L 297.74 222.14 C 297.81 222.15 297.96 222.15 298.04 222.15 C 311.37 227.39 325.66 229.63 339.92 230.29 C 352.93 231.49 366.00 230.58 379.04 230.98 C 394.17 231.84 409.57 235.30 422.43 243.64 C 434.40 251.27 443.63 263.30 447.33 277.05 C 448.43 281.03 449.72 285.14 448.93 289.32 C 448.92 289.38 448.91 289.51 448.90 289.57 L 448.91 289.70 C 449.27 292.80 449.21 295.93 449.03 299.04 C 448.21 308.97 447.78 318.93 446.74 328.84 C 445.59 334.92 443.95 340.88 442.90 346.98 C 434.66 378.73 418.95 408.85 396.19 432.61 C 387.24 440.62 378.36 448.86 367.98 455.04 C 352.73 464.38 335.00 470.33 316.98 469.95 C 294.83 470.34 273.36 461.37 255.95 448.09 C 248.38 442.50 241.78 435.78 234.85 429.44 C 209.57 401.14 192.82 365.21 187.44 327.64 C 188.71 316.43 187.59 305.09 188.09 293.83 C 189.28 274.71 189.74 255.39 193.81 236.61 L 194.12 236.55 C 194.07 236.45 193.97 236.25 193.92 236.15 C 194.04 234.54 194.29 232.95 194.80 231.41 L 195.14 231.39 C 195.08 231.28 194.97 231.06 194.92 230.95 C 195.11 229.63 195.33 228.31 195.62 227.02 C 197.02 229.20 198.25 225.70 195.82 226.24 C 196.08 225.16 196.35 224.10 196.65 223.04 C 197.97 225.21 199.30 221.71 196.90 222.25 C 197.14 221.54 197.63 220.11 197.87 219.40 L 198.17 219.35 C 198.13 219.25 198.06 219.05 198.03 218.95 C 198.25 218.32 198.71 217.07 198.93 216.44 C 198.98 216.31 199.07 216.04 199.11 215.90 C 199.33 215.28 199.75 214.02 199.97 213.39 L 200.21 213.32 C 200.19 213.23 200.15 213.04 200.14 212.94 C 200.33 212.44 200.71 211.42 200.91 210.92 C 201.06 211.04 201.36 211.29 201.52 211.42 C 201.36 211.29 201.06 211.04 200.91 210.92 C 201.10 210.44 201.48 209.50 201.67 209.03 C 202.88 211.19 204.49 207.77 202.04 208.27 C 202.30 207.81 202.82 206.89 203.08 206.42 L 203.18 206.26 C 203.20 206.20 203.26 206.08 203.28 206.03 C 203.48 205.62 203.87 204.80 204.07 204.39 L 204.20 204.27 C 204.21 204.20 204.24 204.06 204.26 203.99 C 204.45 203.58 204.83 202.78 205.02 202.38 L 205.22 202.29 C 205.22 202.21 205.22 202.04 205.23 201.96 C 205.42 201.57 205.82 200.80 206.02 200.42 L 206.18 200.31 C 206.20 200.24 206.22 200.09 206.24 200.01 C 206.45 199.62 206.88 198.84 207.09 198.45 L 207.19 198.29 C 207.22 198.23 207.28 198.10 207.31 198.04 C 207.54 197.58 208.00 196.68 208.23 196.22 C 208.33 196.12 208.55 195.93 208.65 195.83 C 208.78 195.70 209.03 195.44 209.15 195.32 L 208.63 195.45 C 208.97 194.89 209.65 193.77 209.99 193.21 L 210.15 193.44 C 210.16 193.30 210.18 193.03 210.19 192.89 C 210.44 192.47 210.95 191.63 211.20 191.21 C 211.32 191.11 211.54 190.93 211.66 190.83 C 211.79 190.71 212.05 190.46 212.18 190.33 L 211.65 190.46 C 212.04 189.89 212.81 188.75 213.19 188.18 C 213.31 188.09 213.55 187.91 213.67 187.82 C 213.80 187.70 214.07 187.45 214.21 187.32 L 213.67 187.44 C 214.44 186.30 215.31 185.25 216.28 184.28 C 216.44 184.12 216.75 183.79 216.91 183.63 C 217.16 183.42 217.68 182.99 217.93 182.78 C 218.16 182.55 218.62 182.08 218.85 181.85 C 219.09 181.62 219.56 181.16 219.80 180.93 C 220.01 180.68 220.44 180.17 220.66 179.92 C 220.84 179.77 221.20 179.47 221.38 179.33 C 221.89 178.93 222.91 178.14 223.42 177.74 C 223.41 177.89 223.41 178.19 223.41 178.34 L 223.83 178.02 C 224.33 177.76 225.33 177.24 225.83 176.97 C 227.55 177.43 227.90 177.06 226.86 175.88 C 227.45 175.64 228.61 175.16 229.19 174.92 C 229.81 178.10 233.61 175.19 229.87 174.65 C 230.98 174.41 232.10 174.19 233.22 173.99 C 233.82 175.85 237.92 175.63 235.92 173.49 Z" />
<path fill="#ffffff" d=" M 233.22 173.99 C 233.89 173.86 235.24 173.61 235.92 173.49 C 237.92 175.63 233.82 175.85 233.22 173.99 Z" />
<path fill="#ffffff" d=" M 245.79 174.06 C 245.27 176.17 242.00 175.14 244.13 173.48 C 244.55 173.63 245.38 173.91 245.79 174.06 Z" />
<path fill="#ffffff" d=" M 229.19 174.92 L 229.87 174.65 C 233.61 175.19 229.81 178.10 229.19 174.92 Z" />
<path fill="#ffffff" d=" M 247.55 175.01 L 248.01 175.22 C 247.90 175.17 247.67 175.06 247.55 175.01 Z" />
<path fill="#eaa98b" d=" M 225.16 176.70 C 225.36 176.60 225.76 176.40 225.96 176.29 L 225.83 176.97 L 225.16 176.70 Z" />
<path fill="#ffffff" d=" M 225.96 176.29 L 226.86 175.88 C 227.90 177.06 227.55 177.43 225.83 176.97 L 225.96 176.29 Z" />
<path fill="#ffffff" d=" M 249.78 175.96 L 250.13 176.15 C 249.99 176.15 249.70 176.14 249.56 176.14 L 249.78 175.96 Z" />
<path fill="#eaa98b" d=" M 223.42 177.74 C 223.57 177.64 223.89 177.42 224.05 177.32 L 223.83 178.02 L 223.42 177.74 Z" />
<path fill="#ffffff" d=" M 224.05 177.32 L 225.16 176.70 L 225.83 176.97 C 225.33 177.24 224.33 177.76 223.83 178.02 L 224.05 177.32 Z" />
<path fill="#ffffff" d=" M 251.84 177.12 L 252.16 177.31 L 252.12 177.63 C 252.05 177.50 251.91 177.25 251.84 177.12 Z" />
<path fill="#eaa98b" d=" M 252.16 177.31 C 252.25 177.37 252.45 177.50 252.55 177.56 L 252.12 177.63 L 252.16 177.31 Z" />
<path fill="#ffffff" d=" M 223.42 177.74 L 223.83 178.02 L 223.41 178.34 C 223.41 178.19 223.41 177.89 223.42 177.74 Z" />
<path fill="#ffffff" d=" M 252.12 177.63 L 252.55 177.56 L 252.81 178.04 L 252.39 178.16 L 252.12 177.63 Z" />
<path fill="#ffffff" d=" M 220.66 179.92 C 220.84 179.77 221.20 179.47 221.38 179.33 C 221.20 179.47 220.84 179.77 220.66 179.92 Z" />
<path fill="#ffffff" d=" M 254.99 179.34 L 255.44 179.64 L 255.50 180.04 C 255.37 179.87 255.11 179.51 254.99 179.34 Z" />
<path fill="#eaa98b" d=" M 255.44 179.64 C 255.60 179.77 255.94 180.02 256.11 180.15 L 255.50 180.04 L 255.44 179.64 Z" />
<path fill="#eaa98b" d=" M 219.00 181.11 C 219.25 180.91 219.75 180.49 220.00 180.28 L 219.80 180.93 L 219.00 181.11 Z" />
<path fill="#ffffff" d=" M 220.00 180.28 L 220.66 179.92 C 220.44 180.17 220.01 180.68 219.80 180.93 L 220.00 180.28 Z" />
<path fill="#ffffff" d=" M 255.50 180.04 L 256.11 180.15 L 256.27 180.85 C 256.08 180.65 255.69 180.25 255.50 180.04 Z" />
<path fill="#eaa98b" d=" M 256.11 180.15 C 256.33 180.35 256.77 180.75 256.99 180.95 L 256.27 180.85 L 256.11 180.15 Z" />
<path fill="#eaa98b" d=" M 218.12 181.99 C 218.34 181.77 218.78 181.33 219.00 181.11 L 218.85 181.85 L 218.12 181.99 Z" />
<path fill="#ffffff" d=" M 219.00 181.11 L 219.80 180.93 C 219.56 181.16 219.09 181.62 218.85 181.85 L 219.00 181.11 Z" />
<path fill="#ffffff" d=" M 256.27 180.85 L 256.99 180.95 L 257.16 181.64 C 256.93 181.44 256.49 181.05 256.27 180.85 Z" />
<path fill="#eaa98b" d=" M 256.99 180.95 C 257.20 181.15 257.61 181.54 257.82 181.73 L 257.16 181.64 L 256.99 180.95 Z" />
<path fill="#eaa98b" d=" M 217.28 182.97 C 217.49 182.73 217.91 182.23 218.12 181.99 L 217.93 182.78 L 217.28 182.97 Z" />
<path fill="#ffffff" d=" M 218.12 181.99 L 218.85 181.85 C 218.62 182.08 218.16 182.55 217.93 182.78 L 218.12 181.99 Z" />
<path fill="#ffffff" d=" M 257.16 181.64 L 257.82 181.73 L 257.92 182.35 C 257.73 182.17 257.35 181.81 257.16 181.64 Z" />
<path fill="#eaa98b" d=" M 257.82 181.73 C 257.98 181.89 258.31 182.19 258.47 182.34 L 257.92 182.35 L 257.82 181.73 Z" />
<path fill="#ffffff" d=" M 217.28 182.97 L 217.93 182.78 C 217.68 182.99 217.16 183.42 216.91 183.63 L 217.28 182.97 Z" />
<path fill="#ffffff" d=" M 257.92 182.35 L 258.47 182.34 L 258.69 182.92 C 258.50 182.78 258.12 182.49 257.92 182.35 Z" />
<path fill="#ffffff" d=" M 216.28 184.28 C 216.44 184.12 216.75 183.79 216.91 183.63 C 216.75 183.79 216.44 184.12 216.28 184.28 Z" />
<path fill="#ffffff" d=" M 261.08 185.32 L 261.67 185.53 L 261.66 186.09 C 261.52 185.90 261.23 185.51 261.08 185.32 Z" />
<path fill="#eaa98b" d=" M 261.67 185.53 C 261.83 185.70 262.13 186.02 262.29 186.18 L 261.66 186.09 L 261.67 185.53 Z" />
<path fill="#ffffff" d=" M 261.66 186.09 L 262.29 186.18 L 262.40 186.86 C 262.21 186.67 261.85 186.28 261.66 186.09 Z" />
<path fill="#eaa98b" d=" M 262.29 186.18 C 262.49 186.40 262.90 186.82 263.11 187.03 L 262.40 186.86 L 262.29 186.18 Z" />
<path fill="#eaa98b" d=" M 213.40 187.85 C 213.47 187.75 213.60 187.54 213.67 187.44 L 213.67 187.82 L 213.40 187.85 Z" />
<path fill="#ffffff" d=" M 213.67 187.44 L 214.21 187.32 C 214.07 187.45 213.80 187.70 213.67 187.82 L 213.67 187.44 Z" />
<path fill="#ffffff" d=" M 262.40 186.86 L 263.11 187.03 L 263.26 187.79 C 263.04 187.56 262.61 187.09 262.40 186.86 Z" />
<path fill="#eaa98b" d=" M 263.11 187.03 C 263.33 187.27 263.78 187.75 264.00 187.99 L 263.26 187.79 L 263.11 187.03 Z" />
<path fill="#ffffff" d=" M 213.40 187.85 L 213.67 187.82 C 213.55 187.91 213.31 188.09 213.19 188.18 L 213.40 187.85 Z" />
<path fill="#ffffff" d=" M 263.26 187.79 L 264.00 187.99 L 264.14 188.72 C 263.92 188.49 263.48 188.02 263.26 187.79 Z" />
<path fill="#eaa98b" d=" M 264.00 187.99 C 264.20 188.21 264.60 188.65 264.81 188.87 L 264.14 188.72 L 264.00 187.99 Z" />
<path fill="#ffffff" d=" M 264.14 188.72 L 264.81 188.87 L 264.86 189.51 C 264.68 189.31 264.32 188.92 264.14 188.72 Z" />
<path fill="#eaa98b" d=" M 264.81 188.87 C 264.95 189.03 265.22 189.35 265.36 189.51 L 264.86 189.51 L 264.81 188.87 Z" />
<path fill="#eaa98b" d=" M 211.40 190.87 C 211.46 190.76 211.59 190.56 211.65 190.46 L 211.66 190.83 L 211.40 190.87 Z" />
<path fill="#ffffff" d=" M 211.65 190.46 L 212.18 190.33 C 212.05 190.46 211.79 190.71 211.66 190.83 L 211.65 190.46 Z" />
<path fill="#ffffff" d=" M 264.86 189.51 L 265.36 189.51 L 265.77 190.02 L 265.28 189.99 L 264.86 189.51 Z" />
<path fill="#ffffff" d=" M 211.40 190.87 L 211.66 190.83 C 211.54 190.93 211.32 191.11 211.20 191.21 L 211.40 190.87 Z" />
<path fill="#ffffff" d=" M 210.19 192.89 C 210.18 193.03 210.16 193.30 210.15 193.44 L 209.99 193.21 L 210.19 192.89 Z" />
<path fill="#ffffff" d=" M 268.07 193.28 L 268.59 193.59 L 268.48 194.12 L 267.93 193.74 L 268.07 193.28 Z" />
<path fill="#eaa98b" d=" M 268.59 193.59 C 268.70 193.73 268.90 194.02 269.01 194.16 L 268.48 194.12 L 268.59 193.59 Z" />
<path fill="#ffffff" d=" M 268.48 194.12 L 269.01 194.16 L 269.07 194.58 C 268.92 194.47 268.63 194.23 268.48 194.12 Z" />
<path fill="#eaa98b" d=" M 269.01 194.16 C 269.09 194.28 269.26 194.52 269.35 194.64 L 269.07 194.58 L 269.01 194.16 Z" />
<path fill="#eaa98b" d=" M 208.40 195.87 C 208.46 195.77 208.57 195.56 208.63 195.45 L 208.65 195.83 L 208.40 195.87 Z" />
<path fill="#ffffff" d=" M 208.63 195.45 L 209.15 195.32 C 209.03 195.44 208.78 195.70 208.65 195.83 L 208.63 195.45 Z" />
<path fill="#ffffff" d=" M 269.07 194.58 L 269.35 194.64 L 269.61 195.01 C 269.47 194.91 269.20 194.69 269.07 194.58 Z" />
<path fill="#ffffff" d=" M 208.40 195.87 L 208.65 195.83 C 208.55 195.93 208.33 196.12 208.23 196.22 L 208.40 195.87 Z" />
<path fill="#ffffff" d=" M 270.86 197.31 L 271.40 197.40 L 271.43 197.78 C 271.29 197.66 271.00 197.42 270.86 197.31 Z" />
<path fill="#eaa98b" d=" M 271.40 197.40 C 271.47 197.50 271.62 197.69 271.69 197.79 L 271.43 197.78 L 271.40 197.40 Z" />
<path fill="#ffffff" d=" M 207.31 198.04 C 207.28 198.10 207.22 198.23 207.19 198.29 L 207.09 198.45 L 207.31 198.04 Z" />
<path fill="#ffffff" d=" M 271.43 197.78 L 271.69 197.79 L 271.91 198.11 C 271.79 198.02 271.55 197.86 271.43 197.78 Z" />
<path fill="#ffffff" d=" M 206.24 200.01 C 206.22 200.09 206.20 200.24 206.18 200.31 L 206.02 200.42 L 206.24 200.01 Z" />
<path fill="#ffffff" d=" M 273.84 201.37 L 274.38 201.45 L 274.40 201.82 C 274.26 201.71 273.98 201.48 273.84 201.37 Z" />
<path fill="#eaa98b" d=" M 274.38 201.45 C 274.45 201.55 274.59 201.74 274.65 201.84 L 274.40 201.82 L 274.38 201.45 Z" />
<path fill="#ffffff" d=" M 205.23 201.96 C 205.22 202.04 205.22 202.21 205.22 202.29 L 205.02 202.38 L 205.23 201.96 Z" />
<path fill="#ffffff" d=" M 274.40 201.82 L 274.65 201.84 L 274.87 202.14 C 274.75 202.06 274.51 201.90 274.40 201.82 Z" />
<path fill="#ffffff" d=" M 204.26 203.99 C 204.24 204.06 204.21 204.20 204.20 204.27 L 204.07 204.39 L 204.26 203.99 Z" />
<path fill="#ffffff" d=" M 276.97 205.55 L 277.22 205.67 L 277.38 205.94 C 277.28 205.84 277.07 205.65 276.97 205.55 Z" />
<path fill="#ffffff" d=" M 203.28 206.03 C 203.26 206.08 203.20 206.20 203.18 206.26 L 203.08 206.42 L 203.28 206.03 Z" />
<path fill="#ffffff" d=" M 277.38 205.94 C 277.48 206.04 277.67 206.23 277.77 206.33 C 277.67 206.23 277.48 206.04 277.38 205.94 Z" />
<path fill="#ffffff" d=" M 202.04 208.27 C 204.49 207.77 202.88 211.19 201.67 209.03 L 202.04 208.27 Z" />
<path fill="#ffffff" d=" M 200.91 210.92 C 201.06 211.04 201.36 211.29 201.52 211.42 C 201.36 211.29 201.06 211.04 200.91 210.92 Z" />
<path fill="#ffffff" d=" M 200.14 212.94 C 200.15 213.04 200.19 213.23 200.21 213.32 L 199.97 213.39 L 200.14 212.94 Z" />
<path fill="#ffffff" d=" M 199.11 215.90 C 199.07 216.04 198.98 216.31 198.93 216.44 L 199.11 215.90 Z" />
<path fill="#ffffff" d=" M 287.66 216.03 L 287.93 216.21 C 287.88 216.18 287.78 216.13 287.73 216.10 L 287.66 216.03 Z" />
<path fill="#ffffff" d=" M 198.03 218.95 C 198.06 219.05 198.13 219.25 198.17 219.35 L 197.87 219.40 L 198.03 218.95 Z" />
<path fill="#ffffff" d=" M 293.68 219.96 L 294.06 220.21 C 293.99 220.19 293.84 220.15 293.77 220.13 L 293.68 219.96 Z" />
<path fill="#ffffff" d=" M 295.55 221.09 L 295.99 221.30 C 295.92 221.27 295.78 221.22 295.71 221.19 L 295.55 221.09 Z" />
<path fill="#ffffff" d=" M 196.90 222.25 C 199.30 221.71 197.97 225.21 196.65 223.04 L 196.90 222.25 Z" />
<path fill="#ffffff" d=" M 297.62 222.00 L 298.04 222.15 C 297.96 222.15 297.81 222.15 297.74 222.14 L 297.62 222.00 Z" />
<path fill="#ffffff" d=" M 195.82 226.24 C 198.25 225.70 197.02 229.20 195.62 227.02 L 195.82 226.24 Z" />
<path fill="#ffffff" d=" M 194.92 230.95 C 194.97 231.06 195.08 231.28 195.14 231.39 L 194.80 231.41 L 194.92 230.95 Z" />
<path fill="#ffffff" d=" M 193.92 236.15 C 193.97 236.25 194.07 236.45 194.12 236.55 L 193.81 236.61 L 193.92 236.15 Z" />
<path fill="#ffffff" d=" M 448.90 289.57 C 448.91 289.51 448.92 289.38 448.93 289.32 L 448.91 289.70 L 448.90 289.57 Z" />
<path fill="#d29073" d=" M 234.85 429.44 C 241.78 435.78 248.38 442.50 255.95 448.09 C 273.36 461.37 294.83 470.34 316.98 469.95 C 335.00 470.33 352.73 464.38 367.98 455.04 C 378.36 448.86 387.24 440.62 396.19 432.61 C 396.40 442.11 396.01 451.62 396.42 461.12 C 390.15 468.93 383.29 476.24 376.15 483.26 C 372.56 486.86 368.43 489.95 365.43 494.10 C 365.36 494.17 365.22 494.30 365.16 494.36 C 357.55 500.62 351.15 508.22 344.34 515.32 C 341.71 518.10 339.01 520.83 336.71 523.90 C 324.56 525.24 312.19 525.91 300.11 523.56 L 300.00 523.46 C 293.27 514.79 285.22 507.24 277.64 499.33 C 263.59 484.84 248.04 471.84 234.45 456.92 C 235.18 447.78 234.46 438.60 234.85 429.44 Z" />
<path fill="#338ae6" d=" M 220.17 472.18 C 225.53 467.67 228.71 460.96 234.45 456.92 C 248.04 471.84 263.59 484.84 277.64 499.33 C 285.22 507.24 293.27 514.79 300.00 523.46 C 292.51 516.15 285.74 508.13 278.24 500.82 C 263.78 486.10 248.25 472.49 233.95 457.62 C 226.45 465.96 219.18 474.58 212.93 483.89 C 212.36 484.84 211.84 485.83 211.26 486.78 C 203.79 496.71 195.31 505.87 187.44 515.49 C 176.65 528.63 164.88 541.00 155.16 554.99 C 151.95 559.49 149.54 564.48 147.52 569.61 C 145.88 572.37 146.45 575.67 145.74 578.69 C 145.05 581.92 143.66 585.23 144.50 588.58 C 145.50 591.29 147.96 593.12 150.25 594.73 C 163.72 603.29 179.43 607.11 193.77 613.85 C 193.76 614.78 193.76 615.71 193.75 616.65 C 184.45 625.43 173.97 632.84 163.40 640.00 L 11.76 640.00 C 10.21 637.24 10.13 634.00 9.61 630.96 C 7.15 614.49 10.97 597.67 17.81 582.68 C 22.74 572.54 31.36 564.75 40.47 558.37 C 54.86 548.50 70.96 541.51 87.10 535.06 C 120.12 521.88 154.83 512.51 186.04 495.11 C 198.04 488.47 209.72 481.09 220.17 472.18 Z" />
<path fill="#ffffff" d=" M 233.95 457.62 C 248.25 472.49 263.78 486.10 278.24 500.82 C 285.74 508.13 292.51 516.15 300.00 523.46 L 300.11 523.56 C 299.75 524.07 299.03 525.07 298.67 525.58 C 297.48 527.25 296.30 528.95 295.15 530.66 C 292.90 533.75 290.63 536.83 288.36 539.91 C 282.56 547.38 277.00 555.07 272.45 563.37 C 269.35 569.14 265.56 574.67 263.61 580.97 C 261.30 579.80 261.12 576.86 260.03 574.77 C 252.78 557.66 245.46 540.55 236.81 524.09 C 231.37 513.62 223.20 505.00 216.24 495.58 C 214.04 492.20 211.11 488.07 212.93 483.89 C 219.18 474.58 226.45 465.96 233.95 457.62 Z" />
<path fill="#1b69c7" d=" M 396.42 461.12 C 396.82 460.66 397.61 459.74 398.00 459.29 C 403.66 463.46 409.24 467.76 414.53 472.40 C 421.14 478.79 429.49 482.91 437.28 487.64 C 452.91 496.46 468.95 504.66 485.70 511.16 C 507.69 519.80 530.19 527.06 552.15 535.79 C 567.15 541.83 582.07 548.41 595.56 557.42 C 606.43 564.72 616.66 574.13 621.35 586.66 C 628.38 603.38 630.81 622.33 626.08 640.00 L 624.23 640.00 C 625.99 631.44 627.38 622.66 626.37 613.92 C 625.41 603.48 622.48 593.28 618.15 583.75 C 612.58 572.28 602.44 563.94 591.98 557.10 C 573.08 545.32 552.14 537.44 531.37 529.70 C 513.75 523.38 496.06 517.21 478.71 510.18 C 462.77 503.38 447.31 495.45 432.36 486.70 C 429.55 485.17 427.04 482.75 423.73 482.47 C 416.37 473.68 407.12 466.83 398.08 459.91 C 388.42 472.40 377.15 483.56 365.43 494.10 C 368.43 489.95 372.56 486.86 376.15 483.26 C 383.29 476.24 390.15 468.93 396.42 461.12 Z" />
<path fill="#ffffff" d=" M 365.43 494.10 C 377.15 483.56 388.42 472.40 398.08 459.91 C 407.12 466.83 416.37 473.68 423.73 482.47 C 424.46 484.03 424.93 485.70 425.37 487.37 C 436.25 499.01 446.33 511.41 456.74 523.48 C 465.99 534.55 475.89 545.18 483.77 557.31 C 486.57 561.70 488.97 566.42 490.11 571.53 C 491.34 576.81 487.02 580.69 482.97 583.12 C 469.49 591.37 453.92 595.11 439.70 601.77 C 437.86 602.80 434.44 604.23 435.72 606.91 C 437.92 611.77 442.23 615.23 446.02 618.84 C 454.75 626.67 464.31 633.54 474.08 640.00 L 395.58 640.00 C 404.52 606.04 410.08 571.19 412.68 536.18 C 413.54 530.14 412.86 524.01 413.58 517.95 C 413.69 514.26 415.10 509.99 412.20 506.97 C 407.28 512.45 402.69 518.31 399.54 525.01 C 396.09 532.63 391.61 539.77 388.77 547.66 C 384.68 556.03 380.67 564.50 377.71 573.34 C 376.82 575.99 375.75 578.58 374.57 581.12 C 371.39 575.26 368.46 569.26 365.04 563.52 C 360.18 554.57 354.08 546.39 347.85 538.36 C 346.31 536.20 344.72 534.08 343.18 531.94 C 341.58 529.58 339.89 527.30 338.24 524.99 C 338.17 524.56 338.02 523.71 337.95 523.28 C 346.56 513.24 356.16 504.06 365.16 494.36 C 365.22 494.30 365.36 494.17 365.43 494.10 Z" />
<path fill="#1075e1" d=" M 423.73 482.47 C 427.04 482.75 429.55 485.17 432.36 486.70 C 447.31 495.45 462.77 503.38 478.71 510.18 C 496.06 517.21 513.75 523.38 531.37 529.70 C 552.14 537.44 573.08 545.32 591.98 557.10 C 602.44 563.94 612.58 572.28 618.15 583.75 C 622.48 593.28 625.41 603.48 626.37 613.92 C 627.38 622.66 625.99 631.44 624.23 640.00 L 474.08 640.00 C 464.31 633.54 454.75 626.67 446.02 618.84 C 444.93 617.33 443.95 615.75 442.96 614.18 C 454.04 609.31 465.58 605.59 476.61 600.60 C 481.91 598.22 487.36 595.66 491.39 591.35 C 493.60 589.20 493.61 585.84 492.91 583.05 C 491.97 579.21 490.92 575.39 490.11 571.53 C 488.97 566.42 486.57 561.70 483.77 557.31 C 475.89 545.18 465.99 534.55 456.74 523.48 C 446.33 511.41 436.25 499.01 425.37 487.37 C 424.93 485.70 424.46 484.03 423.73 482.47 Z" />
<path fill="#1b69c7" d=" M 211.26 486.78 C 211.84 485.83 212.36 484.84 212.93 483.89 C 211.11 488.07 214.04 492.20 216.24 495.58 C 223.20 505.00 231.37 513.62 236.81 524.09 C 245.46 540.55 252.78 557.66 260.03 574.77 C 261.12 576.86 261.30 579.80 263.61 580.97 C 263.22 581.33 262.84 581.70 262.47 582.08 C 255.25 564.78 247.88 547.52 239.56 530.72 C 236.07 523.63 232.17 516.69 227.10 510.60 C 227.13 549.06 231.46 587.49 239.63 625.06 C 240.67 630.04 242.17 634.93 242.75 640.00 L 242.39 640.00 C 238.26 621.62 234.30 603.17 231.78 584.48 C 228.26 559.78 226.55 534.84 226.36 509.91 C 221.45 502.14 213.84 495.93 211.26 486.78 Z" />
<path fill="#ffffff" d=" M 187.44 515.49 C 195.31 505.87 203.79 496.71 211.26 486.78 C 213.84 495.93 221.45 502.14 226.36 509.91 C 226.55 534.84 228.26 559.78 231.78 584.48 C 234.30 603.17 238.26 621.62 242.39 640.00 L 163.40 640.00 C 173.97 632.84 184.45 625.43 193.75 616.65 C 196.69 613.61 200.05 610.69 201.69 606.70 C 202.83 604.25 199.60 603.04 197.98 602.00 C 184.43 595.61 169.71 591.88 156.59 584.52 C 153.28 582.56 149.81 580.41 147.82 577.00 C 146.49 574.74 147.33 572.04 147.52 569.61 C 149.54 564.48 151.95 559.49 155.16 554.99 C 164.88 541.00 176.65 528.63 187.44 515.49 Z" />
<path fill="#1b69c7" d=" M 344.34 515.32 C 351.15 508.22 357.55 500.62 365.16 494.36 C 356.16 504.06 346.56 513.24 337.95 523.28 C 338.02 523.71 338.17 524.56 338.24 524.99 L 337.67 525.62 C 330.44 526.10 323.21 527.01 315.94 526.76 C 310.16 526.72 304.45 525.62 298.67 525.58 C 299.03 525.07 299.75 524.07 300.11 523.56 C 312.19 525.91 324.56 525.24 336.71 523.90 C 339.01 520.83 341.71 518.10 344.34 515.32 Z" />
<path fill="#eaa98b" d=" M 283.95 496.13 C 287.59 496.61 291.26 496.75 294.94 496.65 C 312.97 496.65 330.99 496.62 349.02 496.64 C 350.11 496.49 353.12 496.83 351.54 498.50 C 344.28 504.85 335.68 510.17 325.97 511.53 C 319.39 512.12 312.58 512.07 306.36 509.60 C 298.19 506.51 290.34 502.11 283.95 496.13 Z" />
<path fill="#d9e8f8" d=" M 399.54 525.01 C 402.69 518.31 407.28 512.45 412.20 506.97 C 415.10 509.99 413.69 514.26 413.58 517.95 C 412.86 524.01 413.54 530.14 412.68 536.18 C 410.08 571.19 404.52 606.04 395.58 640.00 L 349.07 640.00 C 347.95 633.53 347.16 627.01 345.98 620.55 C 343.82 604.85 341.15 589.21 338.94 573.52 C 343.51 569.27 345.62 563.21 346.69 557.22 C 355.98 565.59 365.67 573.52 374.79 582.08 C 376.16 579.31 377.56 576.48 377.71 573.34 C 380.67 564.50 384.68 556.03 388.77 547.66 C 391.61 539.77 396.09 532.63 399.54 525.01 Z" />
<path fill="#d9e8f8" d=" M 227.10 510.60 C 232.17 516.69 236.07 523.63 239.56 530.72 C 247.88 547.52 255.25 564.78 262.47 582.08 C 262.84 581.70 263.22 581.33 263.61 580.97 C 272.80 572.52 282.44 564.57 291.77 556.27 C 292.93 563.48 295.75 570.79 301.78 575.33 C 297.62 596.88 293.82 618.50 289.45 640.00 L 242.75 640.00 C 242.17 634.93 240.67 630.04 239.63 625.06 C 231.46 587.49 227.13 549.06 227.10 510.60 Z" />
<path fill="#1075e1" d=" M 338.24 524.99 C 339.89 527.30 341.58 529.58 343.18 531.94 C 347.35 543.05 346.36 555.53 341.90 566.39 C 336.63 563.89 330.65 564.67 325.01 564.49 C 319.96 564.30 315.04 565.89 309.99 565.56 C 305.87 565.43 301.20 565.22 298.13 568.49 C 291.66 557.08 292.01 543.05 295.15 530.66 C 296.30 528.95 297.48 527.25 298.67 525.58 C 304.45 525.62 310.16 526.72 315.94 526.76 C 323.21 527.01 330.44 526.10 337.67 525.62 L 338.24 524.99 Z" />
<path fill="#1b69c7" d=" M 288.36 539.91 C 290.63 536.83 292.90 533.75 295.15 530.66 C 292.01 543.05 291.66 557.08 298.13 568.49 C 301.20 565.22 305.87 565.43 309.99 565.56 C 315.04 565.89 319.96 564.30 325.01 564.49 C 330.65 564.67 336.63 563.89 341.90 566.39 C 346.36 555.53 347.35 543.05 343.18 531.94 C 344.72 534.08 346.31 536.20 347.85 538.36 C 346.90 543.30 348.33 548.35 347.67 553.37 C 353.41 558.68 359.61 563.51 365.46 568.71 C 365.34 566.97 365.21 565.24 365.04 563.52 C 368.46 569.26 371.39 575.26 374.57 581.12 C 375.75 578.58 376.82 575.99 377.71 573.34 C 377.56 576.48 376.16 579.31 374.79 582.08 C 365.67 573.52 355.98 565.59 346.69 557.22 C 345.62 563.21 343.51 569.27 338.94 573.52 C 341.15 589.21 343.82 604.85 345.98 620.55 L 344.69 619.74 C 342.10 604.85 340.13 589.85 337.76 574.92 C 327.30 581.05 313.81 581.48 302.90 576.25 C 298.76 597.48 295.16 618.82 290.74 640.00 L 289.45 640.00 C 293.82 618.50 297.62 596.88 301.78 575.33 C 295.75 570.79 292.93 563.48 291.77 556.27 C 282.44 564.57 272.80 572.52 263.61 580.97 C 265.56 574.67 269.35 569.14 272.45 563.37 C 272.52 564.85 272.59 566.33 272.65 567.82 C 278.63 563.13 284.54 558.27 290.05 553.03 C 291.63 548.75 290.57 543.87 290.57 539.37 C 289.83 539.54 289.09 539.72 288.36 539.91 Z" />
<path fill="#1075e1" d=" M 288.36 539.91 C 289.09 539.72 289.83 539.54 290.57 539.37 C 290.57 543.87 291.63 548.75 290.05 553.03 C 284.54 558.27 278.63 563.13 272.65 567.82 C 272.59 566.33 272.52 564.85 272.45 563.37 C 277.00 555.07 282.56 547.38 288.36 539.91 Z" />
<path fill="#1075e1" d=" M 347.67 553.37 C 348.33 548.35 346.90 543.30 347.85 538.36 C 354.08 546.39 360.18 554.57 365.04 563.52 C 365.21 565.24 365.34 566.97 365.46 568.71 C 359.61 563.51 353.41 558.68 347.67 553.37 Z" />
<path fill="#1b69c7" d=" M 145.74 578.69 C 146.45 575.67 145.88 572.37 147.52 569.61 C 147.33 572.04 146.49 574.74 147.82 577.00 C 149.81 580.41 153.28 582.56 156.59 584.52 C 169.71 591.88 184.43 595.61 197.98 602.00 C 199.60 603.04 202.83 604.25 201.69 606.70 C 200.05 610.69 196.69 613.61 193.75 616.65 C 193.76 615.71 193.76 614.78 193.77 613.85 C 179.43 607.11 163.72 603.29 150.25 594.73 C 147.96 593.12 145.50 591.29 144.50 588.58 C 143.66 585.23 145.05 581.92 145.74 578.69 Z" />
<path fill="#1b69c7" d=" M 490.11 571.53 C 490.92 575.39 491.97 579.21 492.91 583.05 C 493.61 585.84 493.60 589.20 491.39 591.35 C 487.36 595.66 481.91 598.22 476.61 600.60 C 465.58 605.59 454.04 609.31 442.96 614.18 C 443.95 615.75 444.93 617.33 446.02 618.84 C 442.23 615.23 437.92 611.77 435.72 606.91 C 434.44 604.23 437.86 602.80 439.70 601.77 C 453.92 595.11 469.49 591.37 482.97 583.12 C 487.02 580.69 491.34 576.81 490.11 571.53 Z" />
<path fill="#338ae6" d=" M 302.90 576.25 C 313.81 581.48 327.30 581.05 337.76 574.92 C 340.13 589.85 342.10 604.85 344.69 619.74 C 344.68 622.88 345.57 626.61 343.28 629.22 C 340.36 632.81 337.03 636.07 334.52 640.00 L 290.74 640.00 C 295.16 618.82 298.76 597.48 302.90 576.25 Z" />
<path fill="#1075e1" d=" M 344.69 619.74 L 345.98 620.55 C 347.16 627.01 347.95 633.53 349.07 640.00 L 334.52 640.00 C 337.03 636.07 340.36 632.81 343.28 629.22 C 345.57 626.61 344.68 622.88 344.69 619.74 Z" />
</svg>
