<?xml version="1.0" encoding="utf-8"?>
<!-- Generator: Adobe Illustrator 16.0.0, SVG Export Plug-In . SVG Version: 6.00 Build 0)  -->
<!DOCTYPE svg PUBLIC "-//W3C//DTD SVG 1.1//EN" "http://www.w3.org/Graphics/SVG/1.1/DTD/svg11.dtd">
<svg version="1.1" id="Layer_1" xmlns="http://www.w3.org/2000/svg" xmlns:xlink="http://www.w3.org/1999/xlink" x="0px" y="0px"
	 width="144.667px" height="246.542px" viewBox="0 0 144.667 246.542" enable-background="new 0 0 144.667 246.542"
	 xml:space="preserve">
<path fill="#EB544B" d="M65.542,122.771c-0.3-0.5-0.2-1,0.2-1.2c1.3-0.7,3.3-0.3,3.6,0.601
	C69.642,123.371,66.242,123.871,65.542,122.771z"/>
<path fill="#EB544B" d="M78.542,121.871c-0.7-1.199,1.2-2.399,2.4-1.6c0.5,0.3,1.199,0.1,1.6-0.5s1.1-0.8,1.6-0.4
	c0.5,0.301,0.7,1,0.301,1.5c-0.301,0.5-0.9,0.7-1.4,0.4s-1.1-0.1-1.5,0.5C80.742,123.071,79.342,123.071,78.542,121.871z"/>
<path fill="#EB544B" d="M55.942,119.071c-0.101-0.5-0.101-1.2,0-1.7c0.1-0.5-0.5-0.6-1.301-0.3c-0.699,0.3-2.399-0.5-3.6-1.8
	c-2.1-2.2-2.1-2.5-0.6-3.1c1-0.4,2.199-0.2,2.899,0.5c0.601,0.6,1.5,1.1,2,1.1s-0.5-1.1-2.1-2.5c-3.101-2.6-4.3-3.1-4.101-1.7
	c0.4,2.2-0.399,2.3-2.5,0.3c-1.5-1.399-2.199-2.899-1.899-3.899c0.399-1,0.2-1.3-0.5-0.8c-1.3,0.8-3.2-3.101-2.5-5
	c0.2-0.7-0.101-1.5-0.601-1.9c-0.6-0.3-0.899-1.1-0.5-1.6c0.301-0.5,4.301,1,9,3.6l8.4,4.6v-2.8c0-3.2,2.2-6.8,5-8.3
	c1.5-0.8,2.8-0.7,4.9,0.5c3.8,1.9,6,1.9,8.199-0.1c1.7-1.601,2.101-1.4,5.5,2c2.7,2.699,3.5,4.199,3.2,6.1c-0.3,1.4-0.3,2.5-0.1,2.5
	s3.8-1.6,7.899-3.5c5.9-2.7,7.601-3.1,8-2c0.9,2.2-0.1,5-1.6,4.7c-0.7-0.2-2.9,1.2-4.9,3.1c-7.6,7.2-12.899,10-20,10.5
	c-6,0.4-10.3-0.3-15.5-2.3c-1.6-0.7-1.699-0.5-0.8,1.2c1.101,2,0.7,3.3-1,3.3C56.442,119.771,55.942,119.471,55.942,119.071z
	 M75.242,104.771c2-0.6,3.899-1.7,4.2-2.5c0.699-1.9-0.801-1.9-2.4,0c-1.7,2-8.8,1.9-11.2-0.2c-1-0.899-1.8-1.1-1.8-0.6
	c0,1.8,2.2,3.1,7,4.2C71.342,105.671,73.142,105.271,75.242,104.771z"/>
<path fill="#EB544B" d="M85.542,118.871c-0.6-1.1,2.9-3.3,3.9-2.399c0.699,0.7-1.2,3.3-2.5,3.3
	C86.542,119.771,85.942,119.371,85.542,118.871z"/>
<path fill="#EB544B" d="M89.742,116.071c-1.3-1.2-0.7-2.1,2.8-4.2c4.4-2.5,5.3-1.3,1.5,2.2
	C91.042,116.971,90.742,117.071,89.742,116.071z"/>
<path fill="#EB544B" d="M96.542,108.771c-0.4-0.6-0.3-1.6,0.3-2.2c0.601-0.6,1.2-0.6,1.7,0.2c0.4,0.6,0.3,1.6-0.3,2.2
	C97.642,109.571,97.042,109.571,96.542,108.771z"/>
<path fill="#EB544B" d="M48.942,73.571c-1.7-0.6-2-1.5-1.7-5l0.3-4.3h8h8v4.5v4.5l-6.3,0.5
	C53.742,74.071,50.042,73.971,48.942,73.571z"/>
<path fill="#EB544B" d="M104.942,74.571c0-0.2-0.301-2.5-0.5-5.3c-0.301-2.7-1.4-8.4-2.5-12.6c-1.9-7.2-2-7.9-0.4-10.801
	c0.9-1.8,2-2.899,2.5-2.6c3.1,1.9,5.7,26.3,3,28c-0.6,0.4-0.8,1-0.5,1.5s0.1,1.1-0.5,1.5
	C105.542,74.571,105.042,74.771,104.942,74.571z"/>
<path fill="#EB544B" d="M35.942,71.671c-1.2-2.4-0.9-20.5,0.5-22.7c0.6-0.9,1.399-0.8,3.6,0.8c2.9,2.1,2.9,2.1,1.4,6.3
	c-0.801,2.3-1.801,7-2.101,10.5C38.642,73.471,37.742,74.971,35.942,71.671z"/>
<path fill="#EB544B" d="M78.442,72.371c-0.301-0.8-0.4-2.899-0.2-4.8l0.3-3.3h8.5h8.5v4.5v4.5l-8.3,0.3
	C80.842,73.771,78.842,73.571,78.442,72.371z"/>
<path fill="#EB544B" d="M52.842,51.871c-7.899-2.6-15.2-10.699-17.7-19.6c-1.8-6.4-1.3-8,3.301-13.2l4.399-4.8l1.3,3
	c3.5,8.2,7.301,8.5,18.4,1.5c8.9-5.6,11.9-6.5,21.3-5.8c7,0.5,13.3,3,16.5,6.6c1.9,2,1.8,2.2-0.8,7.1c-4.1,7.5-16,18.5-24,22.2
	C68.442,52.271,58.142,53.571,52.842,51.871z"/>
<path fill="#AF3D27" d="M67.542,123.771c-0.3-0.5,0-1.3,0.9-1.6c2.1-0.801,7.1-0.101,7.1,1.1
	C75.542,124.671,68.342,125.171,67.542,123.771z"/>
<path fill="#AF3D27" d="M59.242,121.771c-2.4-1.1-4.101-2.4-3.8-2.9c0.699-1.1,9.199,1.9,9.5,3.4
	C65.342,123.971,63.642,123.771,59.242,121.771z"/>
<path fill="#AF3D27" d="M77.542,122.771c-0.6-0.9-0.4-1.1,2-1.5c2.2-0.3,9.6-4.7,12.9-7.5c1.899-1.7,3.699-2.6,4-2.1
	c0.3,0.5-1,2.3-2.9,4c-3.8,3.3-11.5,7.6-11.5,6.399c0-0.399-0.5-0.2-1.2,0.5C79.342,124.071,78.342,124.071,77.542,122.771z"/>
<path fill="#AF3D27" d="M52.142,117.371c-0.699-0.8-0.8-1.699-0.3-2c0.601-0.3,1.5,0.101,2.101,0.801c0.699,0.8,0.8,1.699,0.3,2
	C53.642,118.471,52.742,118.071,52.142,117.371z"/>
<path fill="#AF3D27" d="M45.842,110.971c-2.899-3.3-6-10.4-5-11.4c0.7-0.7,1.7,0.601,3.101,3.8c1.199,2.7,2.899,5.601,3.699,6.5
	c0.9,1,1.101,2,0.601,2.301C47.742,112.471,46.642,111.971,45.842,110.971z"/>
<path fill="#AF3D27" d="M96.742,110.171c-0.3-0.4,0.399-2.301,1.7-4.301c1.3-2,2.399-3.899,2.5-4.3c0-0.5,0.3-0.8,0.6-0.8
	s0.8,0,1.1,0c0.4,0,0.101,0.7-0.6,1.5s-1,1.5-0.6,1.5c0.8,0-2.101,5.7-3.301,6.4C97.742,110.471,97.042,110.471,96.742,110.171z"/>
<path fill="#AF3D27" d="M65.742,105.671c-0.9-0.601-1.5-1.5-1.101-2c0.301-0.5,0-0.801-0.699-0.7c-1.2,0.3-1.9-1.9-1.2-3.4
	c0.2-0.399,2.2,0.2,4.399,1.4c3.801,2,3.9,2.1,2.301,3.899c-0.9,1.101-1.801,1.9-1.801,1.9
	C67.542,106.771,66.742,106.271,65.742,105.671z"/>
<path fill="#AF3D27" d="M75.942,106.071c-0.101-0.399-0.101-1.1,0-1.5c0-0.399-0.5-0.5-1.301-0.2c-2.899,1.101-2.5-1.5,0.4-2.899
	c2.8-1.4,5.4-0.7,2.9,0.8c-0.5,0.4-0.801,1.3-0.5,2.1c0.3,0.7,0.1,1.601-0.4,1.9C76.442,106.671,75.942,106.571,75.942,106.071z"/>
<path fill="#AF3D27" d="M83.842,105.671c-1-0.5-1.399-1.7-1.1-3.301c0.7-3.6-3.9-8.1-6.7-6.6c-1.1,0.6-2,0.8-2,0.4
	c0-0.301-0.6-0.101-1.3,0.5c-0.8,0.6-1.7,0.699-2.101,0.3c-0.399-0.4-1.199-0.7-1.699-0.7s-0.9-0.3-0.9-0.7c0-0.5,0-1.1,0-1.399
	c0-0.4,0.6-0.2,1.3,0.3c1.5,1.1,2.601,1.1,5.2-0.4c2.4-1.2,5-1,7.1,0.8c2.2,1.801,4.601,6.801,3.9,7.9c-0.9,1.5-0.2,1.3,8.6-3
	c7.7-3.7,10.5-4.2,9.601-1.7c-0.101,0.5-1.3,1.2-2.5,1.4c-1.2,0.1-5.3,1.8-9,3.7C87.542,105.571,84.942,106.271,83.842,105.671z"/>
<path fill="#AF3D27" d="M57.442,103.271c-0.801-1.9,1.199-6.8,2.399-6.1c1.101,0.6,0.3,6.399-0.899,7.199
	C58.442,104.671,57.742,104.171,57.442,103.271z"/>
<path fill="#AF3D27" d="M47.042,100.871c-3-1.6-5.8-2.699-6.2-2.5c-1,0.601-2-1.399-1.3-2.6c0.3-0.6,3.5,0.5,7.6,2.5
	c3.801,2,6.7,4,6.4,4.5C52.842,103.971,53.542,104.171,47.042,100.871z"/>
<path fill="#AF3D27" d="M36.042,75.271c-0.7-2-0.8-3.1,0-3.9c1.4-1.399,1.3-3.699-0.2-3.3c-0.899,0.101-1.3-1.6-1.3-6
	c0-7.399,1.8-8.5,2.5-1.6l0.5,4.8l1.3-5.6c2.4-10.301,2.5-11.4,0.9-10.101c-0.8,0.7-1.7,0.9-2.101,0.5c-0.399-0.399-0.399,0-0.1,0.9
	c0.7,1.8-1,3.399-2,1.8c-0.4-0.6,0.1-2,1-3c1.6-1.8,1.6-2.1-0.4-4.9c-3.699-5.1-5.3-10-4.6-14.1c0.7-4.4,4.2-10.3,5.5-9.5
	c0.6,0.4,0.5,1.3-0.2,2.4c-1.7,2.8-0.1,10.2,3.5,16.2c2.5,4.2,4.4,6,8.7,8.2c4.9,2.601,6.3,2.8,13,2.5c5.9-0.399,9-1.2,14.4-3.7
	c8.5-4.1,17.899-13.3,22-21.5c2.699-5.3,3.1-5.7,4.3-4c3.2,4.4,3.399,13.7,0.2,19.5c-0.7,1.4-0.7,1.9,0,1.5
	c0.5-0.399,1.699,0.7,2.6,2.4c0.8,1.6,1.3,3,0.9,3c-0.4,0-0.101,0.7,0.6,1.5c0.6,0.8,0.9,1.9,0.5,2.5c-0.8,1.4-2.8,0.2-2.2-1.4
	c0.3-0.6-0.1-2-0.899-3c-1.301-1.8-1.4-1.8-2-0.1c-1.101,2.6,2.899,17,4.699,17c0.801,0,1.4,1,1.4,2.5s-0.5,2.4-1.2,2.2
	c-1.6-0.3-1.7,1-0.3,2.399c0.8,0.801,0.7,1.9,0,3.9c-0.6,1.6-1.4,2.4-1.9,1.9c-0.699-0.801-6.8-22.5-7.3-26
	c-0.1-0.601-2.1,0.399-4.5,2.199c-6.3,4.801-13.899,6.801-23.3,6.101c-7.5-0.601-19.9-4.4-25-7.601c-2.3-1.399-2.4-1.399-1.2,0
	c0.9,1.301,1,2.301,0.101,4.5c-0.601,1.601-1.9,6.7-2.9,11.301C38.842,77.471,37.642,79.371,36.042,75.271z"/>
<path fill="#AF3D27" d="M46.542,72.571c-0.9-2.3-0.2-8.3,1-8.3c1.4,0,1.9,7.5,0.6,8.8C47.442,73.771,46.942,73.571,46.542,72.571z"
	/>
<path fill="#AF3D27" d="M94.542,72.571c-0.9-2.2-0.2-6.8,1-7.1c1.4-0.3,1.9,6.3,0.6,7.6C95.442,73.771,94.942,73.571,94.542,72.571z
	"/>
<path fill="#AF3D27" d="M106.442,58.371c-0.801-2.1,0.3-4.899,1.6-4.1c0.5,0.3,1,1.5,1,2.5
	C109.042,59.271,107.242,60.371,106.442,58.371z"/>
<path fill="#AF3D27" d="M43.542,19.671c-1.2-2.2-1.4-3.4-0.6-4.2c0.699-0.7,1.3-0.2,2.1,1.8c0.6,1.5,1.3,3.1,1.5,3.6
	c0.3,0.4,0.1,1-0.4,1.4C45.542,22.571,44.442,21.371,43.542,19.671z"/>
<path fill="#D46730" d="M28.542,229.471c-0.9-2.2-0.2-6.2,1-6c0.6,0.1,1.1,1.399,1.3,2.899
	C31.242,229.571,29.442,231.971,28.542,229.471z"/>
<path fill="#D46730" d="M105.542,229.771c-0.3-0.5,0-1.3,0.9-1.6c2.1-0.801,6.1-0.101,6.1,1.1
	C112.542,230.671,106.342,231.171,105.542,229.771z"/>
<path fill="#D46730" d="M111.542,225.571c-1-2.399-0.1-12.3,1-12.1c1.4,0.399,1.9,11.3,0.6,12.6
	C112.442,226.771,111.942,226.571,111.542,225.571z"/>
<path fill="#D46730" d="M129.542,225.771c-0.4-0.6-0.3-1.6,0.3-2.2c0.601-0.6,1.2-0.6,1.7,0.2c0.4,0.6,0.3,1.6-0.3,2.2
	C130.642,226.571,130.042,226.571,129.542,225.771z"/>
<path fill="#D46730" d="M13.542,224.771c-0.4-0.6-0.3-1.6,0.3-2.2c0.601-0.6,1.2-0.6,1.7,0.2c0.4,0.6,0.3,1.6-0.3,2.2
	C14.642,225.571,14.042,225.571,13.542,224.771z"/>
<path fill="#D46730" d="M30.542,222.571c-1-2.399-0.1-12.3,1-12.1c1.4,0.399,1.9,11.3,0.6,12.6
	C31.442,223.771,30.942,223.571,30.542,222.571z"/>
<path fill="#D46730" d="M14.542,215.771c-0.4-0.6-0.3-1.6,0.3-2.2c0.601-0.6,1.2-0.6,1.7,0.2c0.4,0.6,0.3,1.6-0.3,2.2
	C15.642,216.571,15.042,216.571,14.542,215.771z"/>
<path fill="#D46730" d="M127.542,208.771c-0.4-0.6-0.3-1.6,0.3-2.2c0.601-0.6,1.2-0.6,1.7,0.2c0.4,0.6,0.3,1.6-0.3,2.2
	C128.642,209.571,128.042,209.571,127.542,208.771z"/>
<path fill="#D46730" d="M15.542,206.771c-0.4-0.6-0.3-1.6,0.3-2.2c0.601-0.6,1.2-0.6,1.7,0.2c0.4,0.6,0.3,1.6-0.3,2.2
	C16.642,207.571,16.042,207.571,15.542,206.771z"/>
<path fill="#D46730" d="M114.542,198.571c-1-2.399-0.1-12.3,1-12.1c1.4,0.399,1.9,11.3,0.6,12.6
	C115.442,199.771,114.942,199.571,114.542,198.571z"/>
<path fill="#D46730" d="M125.542,191.771c-0.4-0.6-0.3-1.6,0.3-2.2c0.601-0.6,1.2-0.6,1.7,0.2c0.4,0.6,0.3,1.6-0.3,2.2
	C126.642,192.571,126.042,192.571,125.542,191.771z"/>
<path fill="#D46730" d="M17.542,187.771c-0.4-0.6-0.3-1.6,0.3-2.2c0.601-0.6,1.2-0.6,1.7,0.2c0.4,0.6,0.3,1.6-0.3,2.2
	C18.642,188.571,18.042,188.571,17.542,187.771z"/>
<path fill="#D46730" d="M27.542,185.571c-0.9-2.399-0.1-11.3,1-11.1c1.4,0.399,1.9,10.3,0.6,11.6
	C28.442,186.771,27.942,186.571,27.542,185.571z"/>
<path fill="#D46730" d="M124.542,182.771c-0.4-0.6-0.3-1.6,0.3-2.2c0.601-0.6,1.2-0.6,1.7,0.2c0.4,0.6,0.3,1.6-0.3,2.2
	C125.642,183.571,125.042,183.571,124.542,182.771z"/>
<path fill="#D46730" d="M63.542,180.471c-1-2.4-0.1-20.7,1-20.7c0.6,0,1.2,4.1,1.5,9.2l0.5,9.3h4.5h4.5l0.5-9.3
	c0.3-5.101,0.9-9.2,1.5-9.2c1.1,0,2,18.3,1,20.7c-0.2,0.8-1,1.1-1.6,0.7c-0.601-0.4-3.301-0.7-5.9-0.7s-5.3,0.3-5.9,0.7
	C64.542,181.571,63.742,181.271,63.542,180.471z"/>
<path fill="#D46730" d="M18.542,178.771c-0.4-0.6-0.3-1.6,0.3-2.2c0.601-0.6,1.2-0.6,1.7,0.2c0.4,0.6,0.3,1.6-0.3,2.2
	C19.642,179.571,19.042,179.571,18.542,178.771z"/>
<path fill="#D46730" d="M112.542,176.571c-1-2.399-0.1-12.3,1-12.1c1.4,0.399,1.9,11.3,0.6,12.6
	C113.442,177.771,112.942,177.571,112.542,176.571z"/>
<path fill="#D46730" d="M29.542,173.571c-1-2.399-0.1-12.3,1-12.1c1.4,0.399,1.9,11.3,0.6,12.6
	C30.442,174.771,29.942,174.571,29.542,173.571z"/>
<path fill="#D46730" d="M19.542,169.771c-0.4-0.6-0.3-1.6,0.3-2.2c0.601-0.6,1.2-0.6,1.7,0.2c0.4,0.6,0.3,1.6-0.3,2.2
	C20.642,170.571,20.042,170.571,19.542,169.771z"/>
<path fill="#D46730" d="M122.542,165.771c-0.4-0.6-0.3-1.6,0.3-2.2c0.601-0.6,1.2-0.6,1.7,0.2c0.4,0.6,0.3,1.6-0.3,2.2
	C123.642,166.571,123.042,166.571,122.542,165.771z"/>
<path fill="#D46730" d="M20.542,160.771c-0.4-0.6-0.3-1.6,0.3-2.2c0.601-0.6,1.2-0.6,1.7,0.2c0.4,0.6,0.3,1.6-0.3,2.2
	C21.642,161.571,21.042,161.571,20.542,160.771z"/>
<path fill="#D46730" d="M121.542,156.771c-0.4-0.6-0.3-1.6,0.3-2.2c0.601-0.6,1.2-0.6,1.7,0.2c0.4,0.6,0.3,1.6-0.3,2.2
	C122.642,157.571,122.042,157.571,121.542,156.771z"/>
<path fill="#D46730" d="M115.442,149.471c-0.301-0.8-0.4-3.2-0.2-5.3c0.2-2.601,0.8-3.801,2-4c2.1-0.301,3.3,1.199,1.8,2.1
	c-0.5,0.3-1,2.1-1,4C118.042,149.871,116.442,151.871,115.442,149.471z"/>
<path fill="#D46730" d="M120.542,148.771c-0.4-0.6-0.3-1.6,0.3-2.2c0.601-0.6,1.2-0.6,1.7,0.2c0.4,0.6,0.3,1.6-0.3,2.2
	C121.642,149.571,121.042,149.571,120.542,148.771z"/>
<path fill="#D46730" d="M98.542,141.771c-0.4-0.6-0.3-1.6,0.3-2.2c0.601-0.6,1.2-0.6,1.7,0.2c0.4,0.6,0.3,1.6-0.3,2.2
	C99.642,142.571,99.042,142.571,98.542,141.771z"/>
<path fill="#D46730" d="M31.542,140.871c-0.7-1.199,1.2-2.399,2.5-1.6c1.1,0.7,0.4,2.5-1,2.5
	C32.542,141.771,31.942,141.371,31.542,140.871z"/>
<path fill="#D46730" d="M104.542,139.871c-0.7-1.199,1.2-2.399,2.5-1.6c1.1,0.7,0.4,2.5-1,2.5
	C105.542,140.771,104.942,140.371,104.542,139.871z"/>
<path fill="#FFD058" d="M67.142,173.871c-1.3-2.399-0.5-4.8,2.101-6.199c1.5-0.801,2.3-0.801,3.1,0c0.9,0.899,0.601,1.3-1.2,1.8
	c-1.8,0.399-2.199,1.1-1.8,3C69.942,175.471,68.442,176.371,67.142,173.871z"/>
<path fill="#FFD058" d="M67.642,163.871c-1-1.1-1.6-2.699-1.199-3.6c0.8-2.1,2.899-0.8,2.3,1.4c-0.3,1.199,0.2,1.699,1.399,1.699
	c2.101-0.1,2.7,1.801,0.601,2.2C70.042,165.671,68.642,164.971,67.642,163.871z"/>
<path fill="#FFD058" d="M55.542,146.771l-8.9-9l3.9-4c2.1-2.2,4.6-4,5.4-4c0.899,0,4.3,2.8,7.699,6.1c5.5,5.5,6.101,6.4,5.2,8.4
	c-0.7,1.5-0.7,2.9,0.101,4.2c0.8,1.7,0.5,2.5-1.7,4.6l-2.8,2.7L55.542,146.771z"/>
<path fill="#FFD058" d="M73.242,151.371c-2.3-2.5-4.2-4.8-4.2-5.199c0-1.4,15.5-16.4,17-16.4c0.9,0,3.4,1.8,5.5,4l3.9,4l-9,9.1l-9,9
	L73.242,151.371z"/>
<path fill="#F1B83F" d="M17.042,229.871c-4.2-0.699-4.4,4.601,1.4-47.899c3.399-30.5,4.6-38.601,5.899-39.9c3.7-3.7,4-1,5,43.2
	c0.5,23.5,0.601,43.3,0.3,44.1C29.042,230.871,23.742,231.071,17.042,229.871z"/>
<path fill="#F1B83F" d="M31.542,229.371c-0.7-2-2.3-88.1-1.6-88.8c0.3-0.3,3.199-0.899,6.3-1.3l5.7-0.7l1.899,3.8
	c2.8,5.301,15.101,17.2,18.2,17.601c2.5,0.3,2.5,0.5,2.8,10.6l0.3,10.2h5.9h5.9l0.3-10.2c0.3-10.1,0.3-10.3,2.8-10.6
	c3.4-0.5,17.8-14.8,18.9-18.7c0.699-3,0.8-3,6.699-2.6c9.9,0.6,9.5-0.301,8.9,18.399c-0.3,8.9-0.8,28.7-1.1,44
	c-0.4,19.4-1,28-1.801,28.2c-0.6,0.2-18.8,0.6-40.399,0.8C42.742,230.371,31.742,230.171,31.542,229.371z"/>
<path fill="#F1B83F" d="M114.642,228.871c-0.899-1.3,1.301-87.399,2.301-88.399c0.399-0.4,1.699,0.3,2.8,1.5
	c1.899,2,2.6,6.8,6.7,42.8c2.6,22.3,4.8,41.4,4.899,42.5c0.2,1.8-0.5,2-8,2.3C118.842,229.671,114.942,229.471,114.642,228.871z"/>
<path fill="#F1B83F" d="M66.742,179.071c-0.7-1.1-0.7-15.5-0.101-16.5c0.301-0.5,1.2-0.399,2,0.3c1.9,1.601,4.4,0.4,4.4-2.1
	c0-2.2-2.8-2.8-4.8-0.8c-0.9,0.899-1.3,0.7-1.8-0.601c-0.5-1.199,0.199-2.6,1.899-4.399l2.601-2.601l2.6,2.4
	c2.5,2.3,2.6,2.7,2.3,13.5l-0.3,11l-4.2,0.3C69.142,179.771,67.042,179.471,66.742,179.071z M73.042,171.871
	c0-2.699-1.9-3.6-3.7-1.8s-0.899,3.7,1.8,3.7C72.342,173.771,73.042,173.071,73.042,171.871z"/>
<path fill="#F1B83F" d="M66.342,147.171c-0.7-2,0.4-3.101,2.9-2.9c3.2,0.2,3.1,3.8,0,4
	C67.942,148.371,66.642,147.871,66.342,147.171z"/>
<path fill="#F1B83F" d="M54.542,130.871c-0.7-1.199,1.2-2.399,2.5-1.6c1.1,0.7,0.4,2.5-1,2.5
	C55.542,131.771,54.942,131.371,54.542,130.871z"/>
<path fill="#A3A565" d="M70.742,141.071c-0.3-0.5,1.8-3.3,4.7-6.2c3-2.899,5.6-4.899,5.899-4.399s-1.8,3.3-4.7,6.2
	C73.642,139.571,71.042,141.571,70.742,141.071z"/>
<path fill="#A3A565" d="M94.542,98.871c-0.3-0.6,0.3-1.5,1.4-2.1c1.199-0.6,2.199-0.6,2.6-0.1c0.3,0.6-0.3,1.5-1.4,2.1
	C95.942,99.371,94.942,99.371,94.542,98.871z"/>
<path fill="#A3A565" d="M69.542,93.771c-0.3-0.5-0.2-1,0.2-1.2c1.3-0.7,3.3-0.3,3.6,0.601
	C73.642,94.371,70.242,94.871,69.542,93.771z"/>
<path fill="#A3A565" d="M62.742,63.071c-0.4-0.6,0-1.8,0.7-2.8c0.8-1.1,1.6-1.4,1.899-0.8c0.4,0.6,0,1.8-0.7,2.8
	C63.842,63.371,63.042,63.671,62.742,63.071z"/>
<path fill="#A3A565" d="M78.642,63.071c-0.399-0.399,0.301-1.5,1.5-2.399c1.9-1.4,2.5-1.4,5-0.2c1.601,0.8,2.7,1.899,2.4,2.399
	C86.842,63.971,79.742,64.071,78.642,63.071z"/>
<path fill="#A3A565" d="M87.542,58.871c-0.3-0.6,0.3-1.5,1.4-2.1c1.199-0.6,2.199-0.6,2.6-0.1c0.3,0.6-0.3,1.5-1.4,2.1
	C88.942,59.371,87.942,59.371,87.542,58.871z"/>
<path fill="#DCB993" d="M76.142,74.871c-0.6-1.1-1.1-3.8-1.1-6c0-3.899-0.1-4.1-3.2-4.3c-3-0.1-4.3-0.3-7.3-0.7
	c-0.5-0.1-4.7-0.3-9.2-0.399c-8.899-0.2-11.6-1.9-4.399-2.7l4.399-0.5l-3.7-1.8c-5.699-2.7-3.3-3.9,3.2-1.5
	c7.2,2.5,24.2,3.6,29.8,1.8c2.101-0.7,5.601-2.3,7.801-3.7c2.899-1.899,4.1-2.2,5-1.3c0.8,0.9,0.3,1.9-2.301,4
	c-3.1,2.6-3.199,2.9-1.199,3.2c1.199,0.1,2,0.8,1.899,1.3c-0.2,0.6-3.3,0.9-7.3,0.7c-11.1-0.4-11.2-0.3-10.5,6.8
	C78.642,76.171,77.842,78.171,76.142,74.871z"/>
<path fill="#F2933D" d="M13.942,230.371c-0.4-2.199-0.2-4.6,0.399-4.6c0.4,0,0.601,0.3,0.5,0.8c-0.1,0.4,1.101,0.9,2.8,1.2
	c1.601,0.3,2.9,1,2.9,1.5C20.542,230.271,14.142,231.371,13.942,230.371z"/>
<path fill="#F2933D" d="M48.542,229.771c-0.3-0.6,0-1.2,0.7-1.5c2.6-1,57.3,0,57.3,1C106.542,230.671,49.442,231.171,48.542,229.771
	z"/>
<path fill="#F2933D" d="M114.742,230.171c-1.601-1.601,0.899-2.4,7.3-2.4c3.8,0,7.2-0.5,7.5-1c0.9-1.5,2.4-0.3,2.1,1.8
	c-0.199,1.4-1.6,1.7-8.199,2C119.042,230.671,115.142,230.571,114.742,230.171z"/>
<path fill="#F2933D" d="M128.542,219.771c-0.4-0.6-0.3-1.6,0.3-2.2c0.601-0.6,1.2-0.6,1.7,0.2c0.4,0.6,0.3,1.6-0.3,2.2
	C129.642,220.571,129.042,220.571,128.542,219.771z"/>
<path fill="#F2933D" d="M14.542,217.771c-0.4-0.6-0.3-1.6,0.3-2.2c0.601-0.6,1.2-0.6,1.7,0.2c0.4,0.6,0.3,1.6-0.3,2.2
	C15.642,218.571,15.042,218.571,14.542,217.771z"/>
<path fill="#F2933D" d="M111.442,213.471c-0.801-2.2,0-12.2,0.899-11.9c0.5,0.2,1.5-0.5,2.2-1.5c1.2-1.6,1.4-1.6,2-0.2
	c1.1,2.9,0.1,11.4-1.2,11.2c-0.7-0.2-1.3,0.3-1.3,1.101C114.042,214.271,112.142,215.171,111.442,213.471z"/>
<path fill="#F2933D" d="M127.542,210.771c-0.4-0.6-0.3-1.6,0.3-2.2c0.601-0.6,1.2-0.6,1.7,0.2c0.4,0.6,0.3,1.6-0.3,2.2
	C128.642,211.571,128.042,211.571,127.542,210.771z"/>
<path fill="#F2933D" d="M30.542,209.571c-0.9-2.399-0.1-11.3,1-11.1c1.4,0.399,1.9,10.3,0.6,11.6
	C31.442,210.771,30.942,210.571,30.542,209.571z"/>
<path fill="#F2933D" d="M15.542,208.771c-0.4-0.6-0.3-1.6,0.3-2.2c0.601-0.6,1.2-0.6,1.7,0.2c0.4,0.6,0.3,1.6-0.3,2.2
	C16.642,209.571,16.042,209.571,15.542,208.771z"/>
<path fill="#F2933D" d="M16.542,199.771c-0.4-0.6-0.3-1.6,0.3-2.2c0.601-0.6,1.2-0.6,1.7,0.2c0.4,0.6,0.3,1.6-0.3,2.2
	C17.642,200.571,17.042,200.571,16.542,199.771z"/>
<path fill="#F2933D" d="M27.542,198.571c-1-2.399-0.1-12.3,1-12.1c1.4,0.399,1.9,11.3,0.6,12.6
	C28.442,199.771,27.942,199.571,27.542,198.571z"/>
<path fill="#F2933D" d="M125.542,193.771c-0.4-0.6-0.3-1.6,0.3-2.2c0.601-0.6,1.2-0.6,1.7,0.2c0.4,0.6,0.3,1.6-0.3,2.2
	C126.642,194.571,126.042,194.571,125.542,193.771z"/>
<path fill="#F2933D" d="M124.542,184.771c-0.4-0.6-0.3-1.6,0.3-2.2c0.601-0.6,1.2-0.6,1.7,0.2c0.4,0.6,0.3,1.6-0.3,2.2
	C125.642,185.571,125.042,185.571,124.542,184.771z"/>
<path fill="#F2933D" d="M18.542,180.771c-0.4-0.6-0.3-1.6,0.3-2.2c0.601-0.6,1.2-0.6,1.7,0.2c0.4,0.6,0.3,1.6-0.3,2.2
	C19.642,181.571,19.042,181.571,18.542,180.771z"/>
<path fill="#F2933D" d="M123.542,176.771c-0.4-0.6-0.3-1.6,0.3-2.2c0.601-0.6,1.2-0.6,1.7,0.2c0.4,0.6,0.3,1.6-0.3,2.2
	C124.642,177.571,124.042,177.571,123.542,176.771z"/>
<path fill="#F2933D" d="M19.542,171.771c-0.4-0.6-0.3-1.6,0.3-2.2c0.601-0.6,1.2-0.6,1.7,0.2c0.4,0.6,0.3,1.6-0.3,2.2
	C20.642,172.571,20.042,172.571,19.542,171.771z"/>
<path fill="#F2933D" d="M122.542,167.771c-0.4-0.6-0.3-1.6,0.3-2.2c0.601-0.6,1.2-0.6,1.7,0.2c0.4,0.6,0.3,1.6-0.3,2.2
	C123.642,168.571,123.042,168.571,122.542,167.771z"/>
<path fill="#F2933D" d="M112.542,164.671c-0.9-2.301-0.2-12.5,0.8-12.101c0.5,0.2,1.5-0.5,2.2-1.5c1.2-1.6,1.4-1.6,2-0.2
	c0.8,2.101,0.2,12.5-0.7,11.9c-0.399-0.3-1.399,0.4-2.2,1.5C113.342,166.071,113.142,166.071,112.542,164.671z"/>
<path fill="#F2933D" d="M20.542,162.771c-0.4-0.6-0.3-1.6,0.3-2.2c0.601-0.6,1.2-0.6,1.7,0.2c0.4,0.6,0.3,1.6-0.3,2.2
	C21.642,163.571,21.042,163.571,20.542,162.771z"/>
<path fill="#F2933D" d="M29.542,160.571c-0.9-2.399-0.1-11.3,1-11.1c1.4,0.399,1.9,10.3,0.6,11.6
	C30.442,161.771,29.942,161.571,29.542,160.571z"/>
<path fill="#F2933D" d="M21.542,153.771c-0.4-0.6-0.3-1.6,0.3-2.2c0.601-0.6,1.2-0.6,1.7,0.2c0.4,0.6,0.3,1.6-0.3,2.2
	C22.642,154.571,22.042,154.571,21.542,153.771z"/>
<path fill="#F2933D" d="M120.542,150.771c-0.4-0.6-0.3-1.6,0.3-2.2c0.601-0.6,1.2-0.6,1.7,0.2c0.4,0.6,0.3,1.6-0.3,2.2
	C121.642,151.571,121.042,151.571,120.542,150.771z"/>
<path fill="#F2933D" d="M26.542,149.571c-0.9-2.3-0.2-8.3,1-8.3c1.4,0,1.9,7.5,0.6,8.8
	C27.442,150.771,26.942,150.571,26.542,149.571z"/>
<path fill="#F2933D" d="M41.542,141.771c-0.4-0.6-0.3-1.6,0.3-2.2c0.601-0.6,1.2-0.6,1.7,0.2c0.4,0.6,0.3,1.6-0.3,2.2
	C42.642,142.571,42.042,142.571,41.542,141.771z"/>
<path fill="#F2933D" d="M33.542,140.871c-0.7-1.199,1.2-2.399,2.5-1.6c1.1,0.7,0.4,2.5-1,2.5
	C34.542,141.771,33.942,141.371,33.542,140.871z"/>
<path fill="#F2933D" d="M111.542,140.871c-0.7-1.199,1.2-2.399,2.5-1.6c1.1,0.7,0.4,2.5-1,2.5
	C112.542,141.771,111.942,141.371,111.542,140.871z"/>
<path fill="#F2933D" d="M102.542,139.871c-0.7-1.199,1.2-2.399,2.5-1.6c1.1,0.7,0.4,2.5-1,2.5
	C103.542,140.771,102.942,140.371,102.542,139.871z"/>
<path fill="#CD7D50" d="M66.642,156.971c-0.3-0.5,0.601-2,1.9-3.2l2.5-2.3l2.5,2.3c2.8,2.6,2.3,5-0.6,2.4
	c-1.801-1.601-2-1.601-3.801,0C68.142,157.171,66.942,157.471,66.642,156.971z"/>
<path fill="#CD7D50" d="M97.742,145.071c-0.4-0.6,0-1.8,0.7-2.8c0.8-1.1,1.6-1.4,1.899-0.8c0.4,0.6,0,1.8-0.7,2.8
	C98.842,145.371,98.042,145.671,97.742,145.071z"/>
<path fill="#CD7D50" d="M90.142,134.371c-2.399-2.399-3.899-4.6-3.399-4.899c0.6-0.4,2.899,1.3,5.2,3.7
	c2.399,2.399,3.899,4.6,3.399,4.899C94.742,138.471,92.442,136.771,90.142,134.371z"/>
<path fill="#CD7D50" d="M60.542,127.571c-0.9-2.399,0-3.399,2.9-3.3c2.5,0,3.8,2,1.399,2c-0.7,0-1.8,0.7-2.5,1.5
	C61.342,129.071,61.142,129.071,60.542,127.571z"/>
<path fill="#CD7D50" d="M86.042,101.871c-0.6-1.199-0.6-2.199-0.1-2.6c0.6-0.3,1.5,0.3,2.1,1.4c0.6,1.199,0.6,2.199,0.1,2.6
	C87.542,103.571,86.642,102.971,86.042,101.871z"/>
<path fill="#CD7D50" d="M48.542,99.371c-1.1-0.8-1.4-1.6-0.8-1.899c0.6-0.4,1.8,0,2.8,0.7c1.1,0.8,1.4,1.6,0.8,1.899
	C50.742,100.471,49.542,100.071,48.542,99.371z"/>
<path fill="#CD7D50" d="M33.542,93.971c-1.2-1.3-0.4-11,1-12.2c2.8-2.3,4.6,0.6,4.3,6.8c-0.3,4.9-0.5,5.601-2.6,5.7
	C35.042,94.371,33.842,94.171,33.542,93.971z"/>
<path fill="#CD7D50" d="M104.542,93.571c-0.9-2.399-0.1-10.3,1-10.3c1.4,0,1.9,9.5,0.6,10.8
	C105.442,94.771,104.942,94.571,104.542,93.571z"/>
<path fill="#CD7D50" d="M60.542,92.871c-0.3-0.6,0.3-1.5,1.4-2.1c1.199-0.6,2.199-0.6,2.6-0.1c0.3,0.6-0.3,1.5-1.4,2.1
	C61.942,93.371,60.942,93.371,60.542,92.871z"/>
<path fill="#CD7D50" d="M54.142,83.371c-0.699-0.8-0.8-1.699-0.3-2c0.601-0.3,1.5,0.101,2.101,0.801c0.699,0.8,0.8,1.699,0.3,2
	C55.642,84.471,54.742,84.071,54.142,83.371z"/>
<path fill="#CD7D50" d="M96.442,73.471c-0.301-0.8-0.4-3.2-0.2-5.3c0.2-3.2,0.7-3.9,2.6-3.801c1.2,0,2.101,0.4,2,0.9
	c-0.2,0.6-0.6,0.9-1,0.8c-0.5-0.2-0.8,1.5-0.8,3.601C99.042,73.771,97.442,76.071,96.442,73.471z"/>
<path fill="#CD7D50" d="M55.542,58.771c-0.4-0.6-1-0.8-1.5-0.5s-1.1,0.1-1.4-0.4c-0.399-0.5-0.199-1.199,0.301-1.5
	c0.5-0.399,1.199-0.199,1.6,0.4s1,0.8,1.5,0.5s1.1-0.1,1.4,0.4c0.399,0.5,0.199,1.199-0.301,1.5
	C56.642,59.571,55.942,59.371,55.542,58.771z"/>
<path fill="#CD7D50" d="M44.542,55.971c-0.3-0.3,0-1.101,0.6-1.8c0.801-1,1.601-1.101,3.101-0.301c1.1,0.601,1.7,1.301,1.399,1.7
	C48.842,56.271,45.242,56.571,44.542,55.971z"/>
<path fill="#CD7D50" d="M96.042,54.871c-0.6-1.199-0.6-2.199-0.1-2.6c0.6-0.3,1.5,0.3,2.1,1.4c0.6,1.199,0.6,2.199,0.1,2.6
	C97.542,56.571,96.642,55.971,96.042,54.871z"/>
<path fill="#CD7D50" d="M99.142,20.371c-0.699-0.8-0.8-1.7-0.3-2c0.601-0.3,1.5,0.1,2.101,0.8c0.699,0.8,0.8,1.7,0.3,2
	C100.642,21.471,99.742,21.071,99.142,20.371z"/>
<path fill="#CD7D50" d="M77.542,13.771c-0.8-1.3,2-2.4,4.1-1.6c2,0.8,0.9,2.6-1.6,2.6C79.042,14.771,77.842,14.271,77.542,13.771z"
	/>
<path fill="#E9583F" d="M61.542,122.071c-4.9-1.7-11.7-6.6-14.8-10.7c-2.3-3-4.8-7.899-4.9-9.6c0-0.3-0.399-1-1-1.7
	c-0.5-0.7-0.7-1.7-0.3-2.399c0.5-0.7,2.9,1.3,6.6,5.399c3.2,3.601,8,7.8,10.601,9.3c4.3,2.601,5.7,2.9,13.8,2.9c8.9,0,9.1,0,15-4.1
	c5.8-4,11.6-9.4,10.1-9.4c-0.399,0-2,0.7-3.6,1.5c-1.7,0.9-3.1,1.1-3.5,0.5c-0.3-0.5,1.7-2.1,4.5-3.5c2.7-1.4,5-2.2,5-1.9
	c0,0.4,0.7,0.101,1.5-0.6c2.5-2.1,2.9,1.3,0.7,6.2c-2.101,4.8-8.601,12.5-11.7,13.899c-1.1,0.5-3.3,1.801-5,2.801
	c-1.6,1-3.4,1.6-3.8,1.399c-0.4-0.3-1.4,0-2.2,0.7C76.942,124.171,66.342,123.771,61.542,122.071z"/>
<path fill="#E9583F" d="M69.942,107.371c-0.7-3.399-0.101-5.1,1.6-5.1c2.6,0,2.8,4.8,0.2,5.3
	C70.842,107.771,70.042,107.671,69.942,107.371z"/>
<path fill="#E9583F" d="M51.542,103.371c-1.1-0.8-1.4-1.6-0.8-1.899c0.6-0.4,1.8,0,2.8,0.7c1.1,0.8,1.4,1.6,0.8,1.899
	C53.742,104.471,52.542,104.071,51.542,103.371z"/>
<path fill="#E9583F" d="M69.442,96.671c-0.2-0.4,0-1,0.6-1.4c0.5-0.3,1-0.4,1-0.1c0,0.3,1.1,0.1,2.5-0.4c2.7-1,4.2,0.2,2.2,1.8
	C74.342,97.771,70.142,97.771,69.442,96.671z"/>
<path fill="#E9583F" d="M62.442,94.571c-0.601-0.899-0.4-1,2.6-1.1c1.1-0.101,1.9,0.3,1.8,0.8
	C66.442,95.471,63.142,95.671,62.442,94.571z"/>
<path fill="#E9583F" d="M36.542,74.771c-0.4-0.6-0.3-1.6,0.3-2.2c0.601-0.6,1.2-0.6,1.7,0.2c0.4,0.6,0.3,1.6-0.3,2.2
	C37.642,75.571,37.042,75.571,36.542,74.771z"/>
<path fill="#E9583F" d="M104.942,75.571c-1.101-4.5-0.2-6.7,2.1-5.3c0.8,0.5,0.8,1.1,0.1,1.9c-0.6,0.699-0.8,1.5-0.5,1.8
	c0.301,0.3,0.101,0.899-0.5,1.3C105.542,75.571,105.042,75.771,104.942,75.571z"/>
<path fill="#E9583F" d="M47.442,73.671c-0.5-0.9,1.6-2.101,3.199-1.801c0.5,0.101,3.2,0.101,6.101,0l5.2-0.1l0.3-3.7
	c0.399-4.899,2.2-4.899,2.6,0c0.5,5.8-0.899,6.8-9.5,6.601C51.342,74.571,47.742,74.171,47.442,73.671z"/>
<path fill="#E9583F" d="M79.542,73.771c-0.3-0.5,0-1.3,0.8-1.6c2.3-0.9,15.2,0,15.2,1.1C95.542,74.671,80.442,75.171,79.542,73.771z
	"/>
<path fill="#E9583F" d="M103.442,63.671c-0.2-0.4,0-1,0.6-1.4c0.5-0.3,1-0.3,1.1,0.2c0.101,0.399,0.4-0.2,0.7-1.5
	c0.9-3.101,2.7-2.8,2.7,0.5c0,2-0.5,2.7-2.3,2.8C104.942,64.371,103.742,64.071,103.442,63.671z"/>
<path fill="#E9583F" d="M38.542,60.771c-0.4-0.6-0.1-1.8,0.7-2.7c0.7-0.899,1.2-1.8,1.1-2c-0.2-0.1-0.1-0.3,0.2-0.3s0.8,0,1.2,0
	c0.399,0,0.2,0.5-0.4,1.1c-0.6,0.601-0.899,1.7-0.7,2.4C41.342,60.871,39.442,62.171,38.542,60.771z"/>
<path fill="#E9583F" d="M101.942,56.371c-0.101-0.3-0.2-0.899-0.301-1.3c-0.1-0.5-0.5-1.3-0.899-2c-0.4-0.6-0.3-1.399,0.3-1.8
	c0.5-0.3,1.1-0.4,1.1-0.1c0.101,0.3,0.2,0.899,0.301,1.399c0.1,0.4,0.5,1.2,0.899,1.9c0.4,0.6,0.3,1.399-0.3,1.8
	C102.542,56.571,101.942,56.671,101.942,56.371z"/>
<path fill="#E9583F" d="M74.542,48.771c-0.3-0.5,0.8-1.6,2.4-2.5c1.8-0.9,3.199-1.1,3.6-0.5c0.3,0.5-0.8,1.6-2.4,2.5
	C76.342,49.171,74.942,49.371,74.542,48.771z"/>
<path fill="#E9583F" d="M100.742,48.071c-0.4-0.6,0-1.8,0.7-2.8c0.8-1.1,1.6-1.4,1.899-0.8c0.4,0.6,0,1.8-0.7,2.8
	C101.842,48.371,101.042,48.671,100.742,48.071z"/>
<path fill="#E9583F" d="M85.742,42.071c-0.4-0.6,1.3-2.899,3.7-5.2c2.399-2.399,4.6-3.899,4.899-3.399c0.4,0.6-1.3,2.899-3.7,5.2
	C88.242,41.071,86.042,42.571,85.742,42.071z"/>
<path fill="#E9583F" d="M38.042,39.871c-0.6-1.199-0.6-2.199-0.1-2.6c0.6-0.3,1.5,0.3,2.1,1.4c0.6,1.199,0.6,2.199,0.1,2.6
	C39.542,41.571,38.642,40.971,38.042,39.871z"/>
<path fill="#E9583F" d="M98.742,26.071c-0.4-0.6,0-1.8,0.7-2.8c0.8-1.1,1.6-1.4,1.899-0.8c0.4,0.6,0,1.8-0.7,2.8
	C99.842,26.371,99.042,26.671,98.742,26.071z"/>
<path fill="#FFE1AE" d="M68.542,174.971c-0.9-0.9,0.6-2.101,1.9-1.601c1.899,0.7,3-1.399,1.6-3.1c-0.7-0.8-0.7-1.5-0.1-1.9
	c0.5-0.399,1.3-0.1,1.699,0.601c1.2,1.899,1.2,4.8,0,5.5C72.342,175.371,69.242,175.571,68.542,174.971z"/>
<path fill="#FFE1AE" d="M72.942,163.071c-0.101-0.399-0.2-1.5-0.301-2.3c0-0.8-1-1.5-2.1-1.5c-2.8,0-2.5-1.8,0.3-2
	c2.5-0.2,3.5,0.9,3.7,3.8C74.742,162.771,73.142,164.671,72.942,163.071z"/>
<path fill="#FFE1AE" d="M77.742,155.071c-0.3-0.5,3.399-4.899,8.2-9.7c4.899-4.899,9.1-8.399,9.399-7.899s-3.399,4.899-8.2,9.7
	C82.242,152.071,78.042,155.571,77.742,155.071z"/>
<path fill="#FFE1AE" d="M65.642,135.871c-7.199-7.399-9-12.351,3.4-12.25c6.8,0.1,15.412,0.184,15.612,0.984
	c0.4,1.1-12.212,16.167-13.612,16.167C70.742,140.771,68.342,138.571,65.642,135.871z"/>
<path fill="#FFE1AE" d="M85.142,98.471c-1.199-2.4-3.199-4.9-4.6-5.5c-1.4-0.601-2.5-2-2.5-2.9c0-1.399-0.5-1.2-2.3,1
	c-1.601,2-3,2.8-4.601,2.5c-2-0.2-2.899-1.1-4.8-4.7c-0.5-0.899-9.3,8.9-9.3,10.301c0,0.899-0.6,1.899-1.4,2.199
	c-1.899,0.7-14.3-6.199-15.6-8.6c-1.7-3.2-1.1-13,1.4-24.2c3.6-15.6,3.199-15.2,10.8-11.3c3.5,1.7,6.399,3.5,6.6,4.1
	c0.101,0.5-2.6,1.101-6,1.4l-6.3,0.5l-0.3,5.7l-0.3,5.6l5.8,0.4c3.2,0.1,7.5,0.1,9.6-0.101l3.7-0.3v-5.7c0-3.199,0.2-6,0.4-6.199
	c0.3-0.301,2.899-0.2,5.8,0.1l5.3,0.5l0.5,5.5c0.5,5.4,0.6,5.5,4,6c1.9,0.3,6.3,0.4,9.8,0.2l6.3-0.4l-0.3-5.6
	c-0.3-5.5-0.399-5.7-3.3-6c-4.7-0.5-4.8-1.601-0.4-5.101c2.2-1.8,4.4-2.899,4.9-2.5c1.9,2.101,5.2,18.7,5.7,28.601l0.6,10.7l-8.2,4
	c-4.399,2.3-8.3,4.1-8.5,4.1C87.442,102.771,86.242,100.771,85.142,98.471z M60.042,80.371c0-3-3-4.3-4.7-2.1
	c-1.6,2.3-0.5,4.5,2.3,4.5C59.542,82.771,60.042,82.271,60.042,80.371z M88.042,80.371c0-2.8-2.8-4.199-4.7-2.3
	c-1.899,1.9-0.5,4.7,2.3,4.7C87.542,82.771,88.042,82.271,88.042,80.371z"/>
<path fill="#FFE1AE" d="M105.442,94.471c-0.301-0.8-0.4-3.9-0.2-6.8c0.2-4,0.7-5.4,1.8-5.4c2,0,2.2,12.6,0.3,13.2
	C106.642,95.771,105.842,95.271,105.442,94.471z"/>
<path fill="#FFE1AE" d="M34.442,93.471c-0.301-0.8-0.4-3.601-0.2-6.3c0.2-3.601,0.7-4.9,1.8-4.9c2,0,2.2,11.6,0.3,12.2
	C35.642,94.771,34.742,94.271,34.442,93.471z"/>
<path d="M11.442,231.471c-0.7-2,8.399-84.601,9.699-87.9c1.7-4.2,4.9-5.6,14.4-6.399c8.8-0.7,8.8-0.7,14.2-5.601
	c4-3.6,6-4.7,7.399-4.3c1.4,0.5,1.9,0.2,1.9-1.3c0-1.3-1.8-3.2-5.1-5.3c-6.2-4-12.301-11.4-14.601-17.801
	c-1.2-3.6-2.399-5.1-4.5-5.899c-2.7-1-2.8-1.2-2.8-8.601c0-5.899,0.3-7.699,1.7-8.399c1.399-0.8,1.5-1.5,0.5-5.5
	c-1.5-5.7-1.601-20.4-0.2-24.4c0.9-2.5,0.7-3.6-1.4-7.399c-3.1-5.2-3.399-12.4-0.899-17.601c0.899-1.9,3.899-5.9,6.6-8.9
	c5.5-6,6.4-6,8.2,0.4c0.9,3.3,1.5,3.7,4.6,4c2.7,0.2,4.801-0.5,9-3.4c8.301-5.6,13.4-7.6,19.801-7.6c11.399,0,20.3,4.3,24.8,11.9
	c2.2,3.9,2.5,5.1,1.899,10.6c-0.899,9-1,8.7,1.5,15.2c2.5,6.9,3,20.1,1,27.3c-1.1,3.7-1,4.7,0.301,6.101
	c1.1,1.199,1.6,3.8,1.6,8.199c0,6.7-1,8.9-4.1,8.9c-1.2,0-2,1.1-2.4,3.3c-1.6,7-11.6,19.3-17.3,21.101c-2.2,0.699-3.2,4.6-1.2,4.6
	c0.6,0,3.2,2,5.8,4.3c4.7,4.4,4.7,4.4,15.601,5.5c11.1,1.2,13.5,2.2,15.699,6.5c1.2,2,11.101,86.601,10.5,88.3
	c-0.3,0.9-16.399,1.2-61,1.301C22.142,232.771,11.942,232.571,11.442,231.471z M28.542,205.571c-1.5-61.899-1.6-64.1-3.2-62.5
	c-1.2,1.101-2.7,11.601-5.899,41.4c-2.4,21.899-4.4,40.8-4.4,42.1c0,2.101,0.4,2.2,7,2.2h7.1L28.542,205.571z M112.342,198.571
	c0.4-16.6,0.7-36.3,0.7-43.8c0-15.6,0.3-15-8.7-15c-3.5,0-4.3,0.4-4.3,1.8c0,0.9-3.8,5.5-8.4,10.101c-6.199,6.1-9.1,8.399-11,8.399
	h-2.5l-0.3,10.601l-0.3,10.6h-6.5h-6.5l-0.3-10.7l-0.3-10.8h-2.801c-2.1,0-4.5-1.8-10.899-8.4c-4.5-4.6-8.2-9.1-8.2-9.899
	c0-1.3-0.9-1.5-5.2-1c-2.899,0.3-5.5,0.7-5.7,0.899c-0.199,0.2,0,19.9,0.4,43.9l0.7,43.5h39.8h39.7L112.342,198.571z
	 M130.042,227.571c0-4.2-9.3-81.7-10-83.5c-0.5-1.3-1.4-2.3-1.9-2.3s-1.1,14.7-1.5,33.8c-0.3,18.5-0.8,38.101-1,43.5l-0.399,9.7
	h7.399C127.842,228.771,130.042,228.371,130.042,227.571z M75.042,168.071c-0.1-9.399-0.3-11.1-2.1-13.3l-2.101-2.5l-1.899,2.4
	c-1.601,2-1.9,4-1.9,13.199v10.9h4h4V168.071z M65.542,153.671c2.5-2.301,3.3-3.5,2.6-4.2c-1.399-1.4-1.399-5.4,0-6.3
	c1.4-0.801-9.899-12.4-12.1-12.4c-2,0-10,8.1-10,10c0,1.5,13.8,16,15.2,16C61.642,156.771,63.542,155.371,65.542,153.671z
	 M89.542,149.471c4.1-4.101,7.5-7.8,7.5-8.3c0-1.4-9.3-10.4-10.8-10.4c-2.101,0-15.2,13.1-15.2,15.2c0,2.2,7.7,10.8,9.6,10.8
	C81.442,156.771,85.442,153.471,89.542,149.471z M76.242,135.071c3.399-3.3,4.8-5.5,4.8-7.399c0-2.601,0-2.7-4.6-1.7
	c-3,0.7-6.4,0.7-9.5,0.1l-4.9-1v3.101c0,2.199,1.1,4.199,4.2,7.3c2.3,2.399,4.399,4.3,4.7,4.3
	C71.242,139.771,73.642,137.671,76.242,135.071z M85.842,118.671c4.2-2.101,7.3-4.5,9.7-7.5c3.3-4.4,6.2-11,5.2-12
	c-0.3-0.301-4.101,1.3-8.5,3.5c-7.9,3.899-10.2,4.1-8.8,0.5c0.699-2-1.801-7-4-7.801c-0.9-0.3-3.2-0.1-5.101,0.601
	c-2.899,1.1-3.899,1-6.5-0.5c-2.899-1.7-3-1.7-6,1.3c-2.399,2.5-2.899,3.6-2.399,6c0.699,3.8-0.801,4.6-4.2,2.2
	c-1.5-1.101-5.101-3.101-7.9-4.601c-6.2-3.1-6.7-2.3-2.899,5.2C52.242,120.971,69.842,126.471,85.842,118.671z M95.042,98.271l7-3.5
	v-10.4c0-7.699-0.6-12.8-2.5-20.1c-1.3-5.4-2.7-10-3-10.3s-1.3,0.2-2.3,1.1c-7.7,7-24.4,8.2-39.4,3l-8.7-3l-1.5,5.101
	c-2.699,9.699-3.6,15.699-3.6,24.6v8.8l6.6,3.601c6.4,3.6,8.4,3.8,8.4,1.199c0-0.8,1.7-2.899,3.8-4.8c2.101-1.899,4.2-4.3,4.5-5.3
	c0.601-1.4,1-1.5,2.2-0.5c0.8,0.6,1.7,2,2,3.1c0.9,2.801,5.3,2.5,6.5-0.5c1.3-3.5,2.9-4.1,3.9-1.3c0.5,1.3,2.1,3.101,3.399,4
	c1.4,0.9,3.101,3.2,3.8,5.2c0.7,1.9,1.4,3.5,1.601,3.5S91.242,100.171,95.042,98.271z M108.042,88.771c0-3.3-0.4-6-1-6s-1,2.7-1,6
	s0.4,6,1,6S108.042,92.071,108.042,88.771z M37.042,88.271c0-3-0.4-5.5-1-5.5c-0.5,0-1,2.5-1,5.5s0.5,5.5,1,5.5
	C36.642,93.771,37.042,91.271,37.042,88.271z M42.542,54.671c0.4-1.101-0.2-2.2-1.9-3.2c-1.399-0.9-2.699-1.3-3-0.9
	c-1.199,1.9-1.8,10.9-1.1,17l0.8,6.7l2.2-9C40.842,60.371,42.142,55.571,42.542,54.671z M106.742,58.771c-0.3-4.1-1.101-9-1.9-10.9
	l-1.399-3.399l-2.101,3.3c-1.8,2.9-1.899,3.6-0.8,6.4c0.7,1.699,2.1,6.8,3.1,11.399c1.9,8.2,1.9,8.2,2.7,4.5
	C106.842,67.971,107.042,62.871,106.742,58.771z M88.342,54.371c12.101-5.899,18.5-22.1,12.8-32.3c-2.899-5.1-9.199-8.3-18.1-9
	c-8.1-0.7-11.7,0.4-20.6,6.2c-10.7,7-15.301,7.1-18.4,0.3l-1.7-3.9l-3.3,4.1c-3.4,4.3-5.9,10-6,13.6c-0.1,4.4,5,12.2,9.8,15.2
	c5.2,3.2,14.601,6.9,20.7,8.2C71.142,58.471,82.242,57.371,88.342,54.371z"/>
<path d="M65.942,105.271c-3.2-1.7-4.2-4-2.5-5.4c0.899-0.699,1.699-0.5,2.899,0.9c2.3,2.7,8,2.7,10.601-0.1c2-2.101,4.1-1.9,4.1,0.5
	C81.042,105.371,70.942,108.171,65.942,105.271z"/>
<path d="M53.942,82.171c-1-1.2-1-2-0.101-3.5c1.101-1.7,0.9-1.9-2.6-1.9c-5,0-6.2-1.4-6.2-7.5c0-2.8,0.5-5.6,1.2-6.3
	s4.399-1.2,9.8-1.2s9.1,0.5,9.8,1.2s1.2,3.3,1.2,5.8c0,5-2.1,8-5.4,8c-1.3,0-1.5,0.4-0.699,1.7
	C63.142,82.571,57.042,85.871,53.942,82.171z M63.042,69.271v-3.5h-7.5h-7.5v3.5v3.5h7.5h7.5V69.271z"/>
<path d="M82.042,82.271c-1.1-1.3-1.1-2.1-0.2-3.6c1-1.601,0.9-1.9-0.6-1.9c-3.101,0-5.2-3.3-5.2-8.1c0-2.5,0.5-5,1.2-5.7
	s4.399-1.2,9.8-1.2s9.1,0.5,9.8,1.2s1.2,3.6,1.2,6.5c0,5.8-1.4,7.3-6.7,7.3c-2.5,0-2.8,0.3-2.8,3.3c0,2.7-0.4,3.2-2.6,3.5
	C84.442,83.771,82.842,83.171,82.042,82.271z M95.042,69.271v-3.5h-7.5h-7.5v3.5v3.5h7.5h7.5V69.271z"/>
<path fill="#FFFFFF" d="M68.642,174.471c-2.1-1.601-1.8-4.5,0.601-6.101c1.399-0.8,2.2-0.6,4,1.101c2.1,2.2,2.1,2.3,0.3,4.3
	C71.442,176.171,71.042,176.171,68.642,174.471z"/>
<path fill="#FFFFFF" d="M68.242,163.571c-1.9-1.899-1.4-4.6,0.899-5.899c1.801-0.9,2.5-0.7,4.101,0.899
	c1.6,1.601,1.8,2.3,0.899,4.101C72.842,164.971,70.142,165.471,68.242,163.571z"/>
<path fill="#FFFFFF" d="M52.742,149.971c-7.7-7.7-8.9-10-6.4-12c1-0.9,3.4,0.899,10.2,7.8c7.6,7.6,8.7,9.1,7.5,10.4
	c-0.7,0.899-1.8,1.6-2.4,1.6C61.042,157.771,57.042,154.271,52.742,149.971z"/>
<path fill="#FFFFFF" d="M78.742,156.471c-1.601-1.101-0.8-2.101,7.3-10.2c8.5-8.5,9.1-8.9,10.7-7.2c1.7,1.601,1.3,2.2-6.7,10.2
	c-4.7,4.7-8.7,8.5-9,8.5C80.642,157.771,79.642,157.171,78.742,156.471z"/>
<g>
</g>
<g>
</g>
<g>
</g>
<g>
</g>
<g>
</g>
<g>
</g>
</svg>
