<?xml version="1.0" encoding="UTF-8" ?>
<!DOCTYPE svg PUBLIC "-//W3C//DTD SVG 1.1//EN" "http://www.w3.org/Graphics/SVG/1.1/DTD/svg11.dtd">
<svg width="611pt" height="640pt" viewBox="0 0 611 640" version="1.1" xmlns="http://www.w3.org/2000/svg">
<path fill="#fffffe" d=" M 0.00 0.00 L 611.00 0.00 L 611.00 226.35 C 610.98 216.83 601.52 208.44 592.00 210.78 C 581.51 213.53 571.39 217.54 560.98 220.59 C 544.05 226.17 527.06 231.57 510.12 237.14 C 505.49 238.71 501.80 242.64 500.46 247.33 C 498.36 253.82 501.23 261.50 507.06 265.04 C 510.99 267.58 516.04 268.07 520.46 266.61 C 546.92 258.01 573.37 249.36 599.86 240.85 C 605.78 239.03 609.67 233.49 611.00 227.65 L 611.00 640.00 L 0.00 640.00 L 0.00 0.00 Z" />
<path fill="#f9b303" d=" M 302.13 1.18 C 311.25 -1.32 321.37 6.59 321.09 16.06 C 321.10 44.02 321.08 71.98 321.10 99.94 C 321.42 107.80 314.74 115.13 306.87 115.51 C 299.99 116.32 293.05 111.71 290.89 105.17 C 289.73 102.26 290.16 99.07 290.10 96.01 C 290.10 69.35 290.12 42.68 290.09 16.02 C 289.92 9.03 295.41 2.67 302.13 1.18 Z" />
<path fill="#f9b303" d=" M 122.38 59.57 C 128.64 57.66 135.87 60.09 139.59 65.50 C 154.64 86.18 169.69 106.86 184.75 127.52 C 187.85 131.86 192.05 136.24 191.64 142.00 C 192.10 151.15 182.96 159.17 173.94 157.64 C 169.63 157.10 165.67 154.54 163.18 151.01 C 147.00 128.84 130.88 106.62 114.73 84.42 C 111.80 80.74 110.40 75.69 111.64 71.08 C 112.67 65.63 117.11 61.10 122.38 59.57 Z" />
<path fill="#f9b303" d=" M 478.53 59.77 C 486.97 56.04 497.70 61.59 499.60 70.59 C 501.41 76.14 498.62 81.86 495.12 86.09 C 479.52 107.54 463.89 128.98 448.29 150.43 C 445.36 154.79 440.25 157.63 434.98 157.55 C 429.22 157.42 423.63 153.97 421.16 148.71 C 418.43 143.64 419.20 137.15 422.63 132.59 C 438.88 110.24 455.17 87.91 471.42 65.56 C 473.26 63.09 475.61 60.89 478.53 59.77 Z" />
<path fill="#f9b303" d=" M 286.49 153.75 C 306.13 151.48 326.12 152.87 345.36 157.35 C 374.82 164.55 402.26 179.87 423.73 201.29 C 442.48 219.80 456.83 242.80 464.93 267.88 C 476.85 303.80 475.97 343.78 462.48 379.14 C 449.55 413.77 424.53 443.64 393.01 462.87 C 356.69 485.30 311.63 492.69 269.97 483.64 C 227.43 474.61 189.01 448.13 165.29 411.71 C 142.85 377.90 133.60 335.60 139.73 295.51 C 144.84 259.34 162.54 225.15 188.91 199.90 C 215.09 174.23 250.05 157.75 286.49 153.75 Z" />
<path fill="#f9b303" d=" M 13.15 211.23 C 16.76 210.12 20.46 211.34 23.91 212.40 C 49.71 220.86 75.57 229.15 101.37 237.58 C 107.34 239.62 111.73 245.64 111.68 251.97 C 111.94 257.55 108.67 263.04 103.88 265.82 C 99.80 268.26 94.64 268.25 90.21 266.79 C 63.96 258.30 37.75 249.66 11.47 241.27 C 7.10 239.78 3.47 236.33 1.88 231.99 C -2.07 223.64 4.24 212.80 13.15 211.23 Z" />
<path fill="#f9b303" d=" M 560.98 220.59 C 571.39 217.54 581.51 213.53 592.00 210.78 C 601.52 208.44 610.98 216.83 611.00 226.35 L 611.00 227.65 C 609.67 233.49 605.78 239.03 599.86 240.85 C 573.37 249.36 546.92 258.01 520.46 266.61 C 516.04 268.07 510.99 267.58 507.06 265.04 C 501.23 261.50 498.36 253.82 500.46 247.33 C 501.80 242.64 505.49 238.71 510.12 237.14 C 527.06 231.57 544.05 226.17 560.98 220.59 Z" />
<path fill="#f9b303" d=" M 511.48 372.71 C 514.77 372.08 518.27 372.18 521.46 373.28 C 547.72 381.83 573.98 390.40 600.27 398.84 C 604.65 400.36 608.25 403.98 609.89 408.31 C 610.06 411.81 610.06 415.34 609.89 418.85 C 608.25 423.80 603.88 427.64 598.81 428.77 C 594.47 430.08 590.08 428.37 585.97 427.09 C 560.79 418.85 535.58 410.71 510.39 402.54 C 505.02 400.72 500.85 395.72 500.10 390.09 C 498.84 382.53 504.00 374.54 511.48 372.71 Z" />
<path fill="#f9b303" d=" M 92.17 373.18 C 99.50 370.93 107.89 375.17 110.65 382.27 C 113.34 388.16 111.53 395.54 106.72 399.79 C 104.16 402.41 100.51 403.30 97.14 404.37 C 72.24 412.44 47.37 420.55 22.46 428.57 C 17.51 430.40 11.67 429.84 7.38 426.69 C 3.56 424.03 1.47 419.52 0.86 415.01 C 0.53 408.02 5.30 401.09 12.08 399.13 C 38.79 390.54 65.45 381.77 92.17 373.18 Z" />
<path fill="#f9b303" d=" M 431.56 482.80 C 438.75 480.69 446.29 484.77 449.93 490.99 C 465.73 512.88 481.71 534.64 497.53 556.51 C 501.38 561.68 501.42 569.38 497.53 574.54 C 491.62 583.66 476.62 583.01 471.32 573.60 C 455.21 551.38 439.02 529.22 422.89 507.02 C 420.44 503.54 419.26 499.04 420.25 494.84 C 421.30 489.11 425.95 484.28 431.56 482.80 Z" />
<path fill="#f9b303" d=" M 171.35 483.45 C 179.66 480.12 189.88 485.93 191.64 494.60 C 192.72 498.87 191.81 503.59 189.23 507.17 C 172.94 529.58 156.59 551.96 140.33 574.40 C 137.91 577.85 134.25 580.57 129.99 581.15 C 123.02 582.57 115.51 578.45 112.80 571.90 C 110.79 566.94 111.32 560.88 114.62 556.59 C 130.92 534.21 147.17 511.81 163.48 489.45 C 165.39 486.67 168.16 484.54 171.35 483.45 Z" />
<path fill="#f9b303" d=" M 301.23 525.20 C 310.44 521.96 321.30 529.18 321.61 538.99 C 321.65 567.33 321.62 595.67 321.62 624.01 C 321.72 632.27 314.15 639.45 305.98 639.31 C 300.03 639.21 294.17 635.58 291.84 630.05 C 290.20 626.60 290.63 622.70 290.59 619.01 C 290.62 592.37 290.58 565.73 290.61 539.09 C 290.67 532.78 295.34 527.14 301.23 525.20 Z" />
</svg>
