<?xml version="1.0" encoding="utf-8"?>
<!-- Generator: Adobe Illustrator 16.0.0, SVG Export Plug-In . SVG Version: 6.00 Build 0)  -->
<!DOCTYPE svg PUBLIC "-//W3C//DTD SVG 1.1//EN" "http://www.w3.org/Graphics/SVG/1.1/DTD/svg11.dtd">
<svg version="1.1" id="Layer_1" xmlns="http://www.w3.org/2000/svg" xmlns:xlink="http://www.w3.org/1999/xlink" x="0px" y="0px"
	 width="143.625px" height="238.208px" viewBox="0 0 143.625 238.208" enable-background="new 0 0 143.625 238.208"
	 xml:space="preserve">
<path fill="#CF8F32" d="M66.942,33.667c-2.601-1.7-4.801-6.9-4-9c0.8-2.3,2.6-0.9,2.6,2c0,4,5.3,5.7,10.5,3.3
	c1.6-0.7,2.5-1.899,2.5-3.399c0-2.801,1.8-4.101,2.6-1.9c0.9,2.2-1.399,7.1-4.199,9C74.042,35.567,69.641,35.567,66.942,33.667z"/>
<path fill="#E7CAA2" d="M66.042,131.167c-0.4-0.6-1-0.8-1.5-0.5s-1.1,0.1-1.4-0.4c-0.399-0.5-0.199-1.199,0.301-1.5
	c0.5-0.399,1.199-0.199,1.6,0.4s1,0.8,1.5,0.5s1.1-0.1,1.4,0.4c0.399,0.5,0.199,1.199-0.301,1.5
	C67.141,131.967,66.442,131.767,66.042,131.167z"/>
<path fill="#E7CAA2" d="M44.542,109.267c-0.6-1.199-0.6-2.199-0.1-2.6c0.6-0.3,1.5,0.3,2.1,1.4c0.6,1.199,0.6,2.199,0.1,2.6
	C46.042,110.967,45.141,110.367,44.542,109.267z"/>
<path fill="#E7CAA2" d="M80.141,104.267c-2.1-2.3-0.6-3.6,2-1.6c1.4,1,1.601,1.7,0.801,2.5
	C82.242,105.867,81.442,105.667,80.141,104.267z"/>
<path fill="#E7CAA2" d="M68.742,99.567c-1.2-0.801-2-2-1.601-2.601c0.4-0.6,1-0.6,1.7,0.101c1.601,1.6,5.8,1.3,7.8-0.5
	c1-0.9,1.9-1.101,2.301-0.5c0.8,1.199-4.101,5.1-6.301,5.1C71.742,101.167,69.942,100.467,68.742,99.567z"/>
<path fill="#E7CAA2" d="M69.841,95.867c-1.899-2.4-2.3-3.601-1.399-4.101c0.5-0.3,1.6,0.5,2.5,1.9
	C72.542,96.067,71.542,98.167,69.841,95.867z"/>
<path fill="#E7CAA2" d="M55.442,84.467c-0.4-3-0.301-4,1-5.5c0.699-1,1.8-1.5,2.3-1.2c0.5,0.301,0.2,1.4-0.7,2.4s-1.4,2.3-1.1,2.9
	c0.399,0.5,0.199,1.199-0.4,1.6C56.042,84.967,55.442,84.967,55.442,84.467z"/>
<path fill="#E7CAA2" d="M87.542,80.567c-0.7-0.801-1.9-1.301-2.6-1c-1.7,0.6-3.9-3-2.4-3.9c0.6-0.3,1.3,0.1,1.6,1
	c0.4,0.9,1.2,1.4,1.9,1.1c1.6-0.6,5,3,3.7,3.801C89.242,81.867,88.242,81.467,87.542,80.567z"/>
<path fill="#E7CAA2" d="M60.042,70.167c-0.8-1.2,2-2.4,3.5-1.5c0.6,0.3,0.8,1.1,0.5,1.6C63.242,71.467,60.841,71.467,60.042,70.167z
	"/>
<path fill="#E7CAA2" d="M76.042,70.167c-0.8-1.2,2-2.4,3.5-1.5c0.6,0.3,0.8,1.1,0.5,1.6C79.242,71.467,76.841,71.467,76.042,70.167z
	"/>
<path fill="#E7CAA2" d="M84.042,69.267c-0.7-1.199,1.2-2.399,2.5-1.6c1.1,0.7,0.4,2.5-1,2.5
	C85.042,70.167,84.442,69.767,84.042,69.267z"/>
<path fill="#517797" d="M69.141,225.267c-1-1.1-1.3-2.199-0.8-2.5c0.5-0.3,1.7,0.301,2.601,1.301c1,1.1,1.3,2.199,0.8,2.5
	C71.242,226.867,70.042,226.267,69.141,225.267z"/>
<path fill="#517797" d="M127.042,226.167c-0.4-0.6-0.3-1.6,0.3-2.2c0.601-0.6,1.2-0.6,1.7,0.2c0.4,0.6,0.3,1.6-0.3,2.2
	C128.141,226.967,127.542,226.967,127.042,226.167z"/>
<path fill="#517797" d="M18.042,225.167c-0.4-0.6-0.3-1.6,0.3-2.2c0.601-0.6,1.2-0.6,1.7,0.2c0.4,0.6,0.3,1.6-0.3,2.2
	C19.141,225.967,18.542,225.967,18.042,225.167z"/>
<path fill="#517797" d="M74.242,225.467c-0.3-0.5,2.1-3.6,5.399-6.899l6-5.9l-0.6-5c-0.3-2.7-1.7-10.5-3.1-17.2
	c-1.301-6.7-2.4-12.5-2.301-13c0.101-0.399-0.1-1.6-0.6-2.6c-0.4-1-0.2-2.4,0.6-3.3c1-1.2,1-1.5-0.199-1.2
	c-0.801,0.2-1.4-0.5-1.4-1.7c0-1.1,0.6-1.9,1.3-1.7c0.601,0.101,1.2-0.8,1.2-2c0-2.1,0-2.1-1.4-0.2
	c-1.399,1.801-1.5,1.801-2.199,0.101c-1.101-3,1.8-5.101,5.3-4l2.8,1l0.6,13c1,18.399,3.801,24.3,11.801,24.3
	c4.8,0,8-1.7,10.199-5.5c3-5.1,3.9-3.4,1.801,3.2c-2.101,6.2-4,8.8-8.101,10.899c-3.1,1.601-10.399,1.9-11.3,0.4
	c-1.2-1.9-2.2-1-1.8,1.8c0.399,2.3-0.7,3.8-6.5,9.601C77.942,223.267,74.542,225.967,74.242,225.467z"/>
<path fill="#517797" d="M59.042,216.167c-2.5-2.5-3.6-4.4-3.1-5.5c0.8-2.2,2.899-0.8,2.3,1.6c-0.3,1.101-0.2,1.7,0.2,1.4
	c0.5-0.2,2,0.9,3.5,2.4c1.5,1.6,2.399,3.1,1.8,3.399C63.242,219.867,61.141,218.367,59.042,216.167z"/>
<path fill="#517797" d="M126.042,217.167c-0.4-0.6-0.3-1.6,0.3-2.2c0.601-0.6,1.2-0.6,1.7,0.2c0.4,0.6,0.3,1.6-0.3,2.2
	C127.141,217.967,126.542,217.967,126.042,217.167z"/>
<path fill="#517797" d="M18.942,215.767c-0.4-1-0.2-2.199,0.399-2.8c0.8-0.8,1.3-0.7,1.8,0.601c0.4,1,0.2,2.199-0.399,2.8
	C19.942,217.167,19.442,217.067,18.942,215.767z"/>
<path fill="#517797" d="M109.942,211.867c-0.801-2.3,0-12.7,1.1-12.601c0.5,0,1.3-1,1.7-2.199c1.5-4,2.899-0.601,2.6,6.199
	c-0.2,4.5-0.7,6.301-1.5,6.2c-0.7-0.2-1.3,0.3-1.3,1.101C112.542,212.667,110.641,213.567,109.942,211.867z"/>
<path fill="#517797" d="M124.942,208.767c-0.4-1-0.2-2.199,0.399-2.8c0.8-0.8,1.3-0.7,1.8,0.601c0.4,1,0.2,2.199-0.399,2.8
	C125.942,210.167,125.442,210.067,124.942,208.767z"/>
<path fill="#517797" d="M19.942,206.767c-0.4-1-0.2-2.199,0.399-2.8c0.8-0.8,1.3-0.7,1.8,0.601c0.4,1,0.2,2.199-0.399,2.8
	C20.942,208.167,20.442,208.067,19.942,206.767z"/>
<path fill="#517797" d="M34.042,206.967c-1-2.399-0.1-12.3,1-12.1c1.4,0.399,1.9,11.3,0.6,12.6
	C34.942,208.167,34.442,207.967,34.042,206.967z"/>
<path fill="#517797" d="M57.042,207.167c-0.4-0.6-0.3-1.6,0.3-2.2c0.601-0.6,1.2-0.6,1.7,0.2c0.4,0.6,0.3,1.6-0.3,2.2
	C58.141,207.967,57.542,207.967,57.042,207.167z"/>
<path fill="#517797" d="M124.042,200.167c-0.4-0.6-0.3-1.6,0.3-2.2c0.601-0.6,1.2-0.6,1.7,0.2c0.4,0.6,0.3,1.6-0.3,2.2
	C125.141,200.967,124.542,200.967,124.042,200.167z"/>
<path fill="#517797" d="M21.042,197.167c-0.4-0.6-0.3-1.6,0.3-2.2c0.601-0.6,1.2-0.6,1.7,0.2c0.4,0.6,0.3,1.6-0.3,2.2
	C22.141,197.967,21.542,197.967,21.042,197.167z"/>
<path fill="#517797" d="M31.042,194.967c-1-2.399-0.1-12.3,1-12.1c1.4,0.399,1.9,11.3,0.6,12.6
	C31.942,196.167,31.442,195.967,31.042,194.967z"/>
<path fill="#517797" d="M122.942,191.767c-0.4-1-0.2-2.199,0.399-2.8c0.8-0.8,1.3-0.7,1.8,0.601c0.4,1,0.2,2.199-0.399,2.8
	C123.942,193.167,123.442,193.067,122.942,191.767z"/>
<path fill="#517797" d="M60.042,191.167c-0.4-0.6-0.3-1.6,0.3-2.2c0.601-0.6,1.2-0.6,1.7,0.2c0.4,0.6,0.3,1.6-0.3,2.2
	C61.141,191.967,60.542,191.967,60.042,191.167z"/>
<path fill="#517797" d="M22.042,188.167c-0.4-0.6-0.3-1.6,0.3-2.2c0.601-0.6,1.2-0.6,1.7,0.2c0.4,0.6,0.3,1.6-0.3,2.2
	C23.141,188.967,22.542,188.967,22.042,188.167z"/>
<path fill="#517797" d="M109.942,186.767c-0.801-2.1,0.3-4.899,1.6-4.1c0.5,0.3,1,1.5,1,2.5
	C112.542,187.667,110.742,188.767,109.942,186.767z"/>
<path fill="#517797" d="M61.042,186.167c-0.4-0.6-0.3-1.6,0.3-2.2c0.601-0.6,1.2-0.6,1.7,0.2c0.4,0.6,0.3,1.6-0.3,2.2
	C62.141,186.967,61.542,186.967,61.042,186.167z"/>
<path fill="#517797" d="M122.042,183.167c-0.4-0.6-0.3-1.6,0.3-2.2c0.601-0.6,1.2-0.6,1.7,0.2c0.4,0.6,0.3,1.6-0.3,2.2
	C123.141,183.967,122.542,183.967,122.042,183.167z"/>
<path fill="#517797" d="M22.942,178.767c-0.4-1-0.2-2.199,0.399-2.8c0.8-0.8,1.3-0.7,1.8,0.601c0.4,1,0.2,2.199-0.399,2.8
	C23.942,180.167,23.442,180.067,22.942,178.767z"/>
<path fill="#517797" d="M121.042,174.167c-0.4-0.6-0.3-1.6,0.3-2.2c0.601-0.6,1.2-0.6,1.7,0.2c0.4,0.6,0.3,1.6-0.3,2.2
	C122.141,174.967,121.542,174.967,121.042,174.167z"/>
<path fill="#517797" d="M23.942,169.767c-0.4-1-0.2-2.199,0.399-2.8c0.8-0.8,1.3-0.7,1.8,0.601c0.4,1,0.2,2.199-0.399,2.8
	C24.942,171.167,24.442,171.067,23.942,169.767z"/>
<path fill="#517797" d="M64.042,170.167c-0.4-0.6-0.3-1.6,0.3-2.2c0.601-0.6,1.2-0.6,1.7,0.2c0.4,0.6,0.3,1.6-0.3,2.2
	C65.141,170.967,64.542,170.967,64.042,170.167z"/>
<path fill="#517797" d="M119.942,165.767c-0.4-1-0.2-2.199,0.399-2.8c0.8-0.8,1.3-0.7,1.8,0.601c0.4,1,0.2,2.199-0.399,2.8
	C120.942,167.167,120.442,167.067,119.942,165.767z"/>
<path fill="#517797" d="M64.942,164.867c-0.301-0.9-1.301-1.7-2.2-1.7c-0.9,0-4.7-3-8.5-6.7c-4.601-4.7-7.5-6.8-9.2-6.8
	c-1.4,0-2.5-0.4-2.5-1c0-0.5,1.3-1,2.8-1c2,0,4.5,1.7,9.4,6.2c3.7,3.5,7.5,6.3,8.7,6.3c2.5,0,4.8,3.7,3.199,5.3
	C65.942,166.167,65.442,165.967,64.942,164.867z"/>
<path fill="#517797" d="M110.942,162.867c-0.801-2.3,0-12.7,1.1-12.601c0.5,0,1.3-1,1.7-2.199c1.5-4,2.899-0.601,2.6,6.199
	c-0.2,4.5-0.7,6.301-1.5,6.2c-0.7-0.2-1.3,0.3-1.3,1.101C113.542,163.667,111.641,164.567,110.942,162.867z"/>
<path fill="#517797" d="M24.942,160.767c-0.4-1-0.2-2.199,0.399-2.8c0.8-0.8,1.3-0.7,1.8,0.601c0.4,1,0.2,2.199-0.399,2.8
	C25.942,162.167,25.442,162.067,24.942,160.767z"/>
<path fill="#517797" d="M33.141,158.467c-0.3-0.3-0.6-2.3-0.6-4.3c0-4.1,2.3-7.1,4.1-5.3c0.801,0.8,0.7,1.3,0,1.7
	c-0.6,0.399-1.1,2.199-1.1,4.1C35.542,157.967,34.442,159.767,33.141,158.467z"/>
<path fill="#517797" d="M75.042,154.267c-2.6-2.5-4.5-4.1-4.1-3.399c0.3,0.6,0.199,1.399-0.301,1.8c-0.6,0.3-1.399-0.2-1.899-1.2
	c-1.5-3.2-0.2-9,1.899-7.7c0.5,0.301,0.601,1.101,0.2,1.7c-0.399,0.7,2.2-1.399,5.601-4.6c3.8-3.5,6.699-5.5,7.3-4.9
	c0.5,0.5,0.7,5.8,0.6,11.8c-0.3,10.4-0.399,10.9-2.5,11C80.542,158.867,77.841,157.067,75.042,154.267z M80.141,153.367
	c-0.199-1.5-0.5-4.9-0.5-7.7l-0.1-5l-3.7,3.8l-3.7,3.7l3.7,3.8c2.101,2.101,3.4,4.2,3,4.7c-0.5,0.4-0.2,0.5,0.5,0.1
	C80.042,156.367,80.442,154.867,80.141,153.367z"/>
<path fill="#517797" d="M119.042,157.167c-0.4-0.6-0.3-1.6,0.3-2.2c0.601-0.6,1.2-0.6,1.7,0.2c0.4,0.6,0.3,1.6-0.3,2.2
	C120.141,157.967,119.542,157.967,119.042,157.167z"/>
<path fill="#517797" d="M26.042,151.167c-0.4-0.6-0.3-1.6,0.3-2.2c0.601-0.6,1.2-0.6,1.7,0.2c0.4,0.6,0.3,1.6-0.3,2.2
	C27.141,151.967,26.542,151.967,26.042,151.167z"/>
<path fill="#517797" d="M118.042,149.167c-0.4-0.6-0.3-1.6,0.3-2.2c0.601-0.6,1.2-0.6,1.7,0.2c0.4,0.6,0.3,1.6-0.3,2.2
	C119.141,149.967,118.542,149.967,118.042,149.167z"/>
<path fill="#517797" d="M28.942,145.667c-1-0.8-1.7-1.5-1.4-1.5c3.1-0.7,4.1-0.7,4.6,0.2
	C33.341,146.267,31.042,147.267,28.942,145.667z"/>
<path fill="#517797" d="M47.042,144.167c-0.4-0.6-0.3-1.6,0.3-2.2c0.601-0.6,1.2-0.6,1.7,0.2c0.4,0.6,0.3,1.6-0.3,2.2
	C48.141,144.967,47.542,144.967,47.042,144.167z"/>
<path fill="#517797" d="M56.042,134.167c-0.3-0.5-0.2-1,0.2-1.2c1.3-0.7,3.3-0.3,3.6,0.601
	C60.141,134.767,56.742,135.267,56.042,134.167z"/>
<path fill="#517797" d="M105.542,57.967c-12.7-4.8-39.2-5.7-57.3-1.899c-6,1.199-11.5,2-12.3,1.699c-1.5-0.6-1.9-3.699-0.7-5
	c1.3-1.199,1.1-3.6-0.2-3.6c-1.9,0-7.1-6.3-8.5-10.4c-1.2-3.899-1-9.699,0.5-9.6c0.6,0,1,0.5,1,1.2c0,2,8.5,4.6,18.8,5.7
	c12,1.399,20.4,1.399,21.2,0.1c0.4-0.6,1.3-0.5,2.5,0.2c1.5,1,2.2,1,3.1,0.1c0.9-0.899,1.601-0.899,2.9-0.1
	c1.3,0.899,5.2,0.8,14.4-0.101c15.6-1.5,26.199-4.399,25.3-6.899c-0.101-0.4,0.2-0.7,0.8-0.7c1.5,0,1.8,5.1,0.5,9
	c-0.6,1.8-2.5,5.2-4.1,7.5c-2.4,3.4-3.5,4.1-5.301,3.6c-1.6-0.399-2.3-0.1-2.3,1c0,0.9,0.8,1.4,2.101,1.2c1.8-0.3,2.1,0.101,1.8,3.2
	C109.242,58.567,108.641,59.167,105.542,57.967z M40.242,49.567c0-1.9-2-1.2-2.3,0.8c-0.101,1,0.3,1.5,1,1.2
	C39.641,51.267,40.242,50.367,40.242,49.567z M44.242,48.667c0-0.8-0.601-1.5-1.3-1.5c-0.7,0-1.2,0.9-1.101,1.9
	C41.942,51.267,44.242,50.867,44.242,48.667z M48.242,47.667c0-0.8-0.601-1.5-1.4-1.5c-1.399,0-1.7,1.2-0.6,2.3
	C47.341,49.567,48.242,49.267,48.242,47.667z M101.341,47.367c0.2-0.7-0.3-1.2-1-1.2c-0.8,0-1.5,0.7-1.5,1.5
	C98.841,49.467,100.742,49.167,101.341,47.367z M53.242,46.667c0-0.8-0.601-1.5-1.4-1.5c-1.399,0-1.7,1.2-0.6,2.3
	C52.341,48.567,53.242,48.267,53.242,46.667z M97.341,46.367c0.2-0.7-0.3-1.2-1-1.2c-0.8,0-1.5,0.7-1.5,1.5
	C94.841,48.467,96.742,48.167,97.341,46.367z M60.242,45.667c0-1.6-3.2-2.1-4.101-0.6c-0.699,1.1,0.4,2.1,2.4,2.1
	C59.442,47.167,60.242,46.467,60.242,45.667z M92.042,45.667c0-0.5-0.9-1.1-2.1-1.3c-1.301-0.2-2.101,0.3-2.101,1.3
	s0.8,1.5,2.101,1.3C91.141,46.767,92.042,46.267,92.042,45.667z M84.942,45.267c1-1.5-2.101-2.1-10.4-2.1s-11.4,0.6-10.4,2.1
	c0.301,0.5,5,0.9,10.4,0.9S84.641,45.767,84.942,45.267z"/>
<path fill="#517797" d="M63.341,34.367c-2.3-2.7-2.899-4-2-4.601c0.5-0.3,1.8,0.801,3,2.4
	C66.641,35.267,65.742,37.267,63.341,34.367z"/>
<path fill="#517797" d="M78.141,35.367c-0.3-0.601,0.101-1.5,0.801-2.101c0.8-0.699,1.699-0.8,2-0.3
	c0.3,0.601-0.101,1.5-0.801,2.101C79.341,35.767,78.442,35.867,78.141,35.367z"/>
<path fill="#FDDCAD" d="M72.242,142.567c-0.4-0.4,0.8-2.4,2.7-4.301c1.899-2,3.6-4.399,3.8-5.399c0.399-2.2,2.2-2.4,2.6-0.3
	C81.742,134.467,73.341,143.667,72.242,142.567z"/>
<path fill="#FDDCAD" d="M69.042,132.067c-0.4-0.5,0-1.101,0.7-1.301c2.2-0.8,6.8-0.1,7.1,0.9
	C77.141,132.967,69.841,133.367,69.042,132.067z"/>
<path fill="#FDDCAD" d="M76.141,106.367c-0.3-0.5,0.301-1.7,1.301-2.601c1.1-1,2.199-1.3,2.5-0.8c0.3,0.5-0.301,1.7-1.301,2.601
	C77.542,106.567,76.442,106.867,76.141,106.367z"/>
<path fill="#FDDCAD" d="M46.742,101.867c-2.8-3-2.8-6.8,0.1-9.5c3.8-3.601,8.8-2.8,11.2,1.899
	C61.841,101.467,52.341,107.867,46.742,101.867z"/>
<path fill="#FDDCAD" d="M90.742,103.467c-0.7-0.3-1.9-1.8-2.7-3.3c-3.9-7.5,6.2-14,11.4-7.4c1.199,1.5,2.1,3.4,2.1,4.4
	c0,3-3.9,7-6.8,6.9C93.242,104.067,91.442,103.767,90.742,103.467z"/>
<path fill="#FDDCAD" d="M80.141,80.267c-1-1.1-1.3-2.199-0.8-2.5c0.5-0.3,1.7,0.301,2.601,1.301c1,1.1,1.3,2.199,0.8,2.5
	C82.242,81.867,81.042,81.267,80.141,80.267z"/>
<path fill="#FDDCAD" d="M66.141,73.667c-1.6-1.3-2.399-2.5-1.8-2.9c0.601-0.3,2.3,0.4,3.8,1.7
	C71.742,75.567,69.942,76.667,66.141,73.667z"/>
<path fill="#FDDCAD" d="M79.542,73.167c-0.7-3.1-0.7-4.1,0.2-4.6c1.899-1.2,2.899,1.1,1.3,3.199
	C80.242,72.767,79.542,73.467,79.542,73.167z"/>
<path fill="#FDDCAD" d="M58.042,70.267c-0.7-1.199,1.2-2.399,2.5-1.6c1.1,0.7,0.4,2.5-1,2.5
	C59.042,71.167,58.442,70.767,58.042,70.267z"/>
<path fill="#538FCB" d="M18.341,226.467c-0.3-0.399,1.5-18.6,3.9-40.3c3.7-33.7,4.6-39.7,6.2-41.4c1.899-1.8,1.899-1.8,2.899,0
	c0.5,1.101,1.101,18.7,1.3,41.9l0.4,40l-7.2,0.3C21.942,227.167,18.542,226.867,18.341,226.467z"/>
<path fill="#538FCB" d="M35.141,226.367c-0.3-0.5-0.8-17.7-1.199-38.4c-0.601-31.6-0.5-37.6,0.699-38.399
	c0.801-0.4,3.9-1.101,6.9-1.5l5.5-0.7l7,6.899c4.9,4.801,7.9,6.9,10,7.101c3.6,0.399,3.8-2.3-2.1,28.3l-4.4,23l7.1,6.5
	c3.9,3.6,6.7,6.8,6.301,7.3C69.942,227.467,35.742,227.367,35.141,226.367z"/>
<path fill="#538FCB" d="M73.341,226.567c-0.399-0.301,2.5-3.601,6.4-7.2c6.899-6.601,7-6.601,6.3-10.8c-0.7-4.9,0.5-6.2,3-3.4
	c2.4,2.6,8.9,2.6,13.2,0.1c2.5-1.6,3.5-3.3,5.3-9.3c1.2-4,2.4-7.899,2.6-8.7c0.301-0.899,0.801-1.1,1.4-0.5
	c0.6,0.601,0.7,8.601,0.2,20.4l-0.7,19.5l-18.6,0.3C82.242,227.067,73.641,226.967,73.341,226.567z"/>
<path fill="#538FCB" d="M113.141,226.267c-1-1.6,1.301-81.399,2.4-82.5c0.7-0.699,1.5-0.5,2.6,0.5c1.2,1.2,2.7,11.2,6.101,40.7
	c2.5,21.5,4.3,39.8,4,40.601c-0.5,1.199-2.2,1.6-7.601,1.6C116.841,227.167,113.442,226.767,113.141,226.267z"/>
<path fill="#538FCB" d="M80.742,178.467c-1.9-3.6-3.5-15.399-2.3-16.6c2.3-2.3,3.899,1.399,4.199,9.5
	C83.042,179.367,82.341,181.667,80.742,178.467z"/>
<path fill="#538FCB" d="M54.742,151.867c-3.9-4-7.2-8-7.2-8.8c0-0.9,2.2-3.7,5-6.301c5.8-5.399,6-5.399,13.1,2.101
	c4.2,4.399,4.601,5.2,4.5,9.5c-0.1,3.7-0.699,5.3-3,7.7c-1.699,1.699-3.5,3.1-4.1,3.1S58.742,155.867,54.742,151.867z"/>
<path fill="#538FCB" d="M79.942,158.367c-0.601-0.4-3-2.9-5.4-5.5l-4.3-4.8l4.8-4.9c2.7-2.8,5.2-4.7,5.6-4.2
	c1,1.101,2,19,1.101,19.601C81.341,158.867,80.542,158.767,79.942,158.367z"/>
<path fill="#538FCB" d="M34.942,52.967c-1.2-1.899,2.199-3.5,13.399-5.899c14.8-3.301,38.7-3.301,50.7,0c8,2.1,11.3,4.1,10.1,5.899
	c-0.3,0.5-3.899-0.1-8.8-1.5c-15.399-4.5-37.399-4.2-56.1,0.7C35.641,54.467,35.841,54.467,34.942,52.967z"/>
<path fill="#538FCB" d="M45.542,38.067c-8.9-1.101-16.2-3.301-18.4-5.7c-1.399-1.7-1.399-2.101,0.301-5.3
	c3.5-6.601,17.3-11.4,34.8-12.101c4.899-0.2,8.3,0.101,8.5,0.7s-0.7,1.1-1.9,1.3c-3.3,0.5-6.3,4.9-6.3,9.3c0,5.101,0.8,6.7,4.1,8.4
	c4.9,2.6,10.601,1.5,13.601-2.4c3.3-4.3-0.101-15.1-4.7-15.1c-2.5,0-3.6-1.8-1.6-2.6c2.3-0.9,23.199,1.399,28.699,3
	c8.301,2.5,13.601,6.3,15.2,10.699c1.5,4.301-7.899,8.101-24.5,9.9C82.042,39.367,56.341,39.267,45.542,38.067z"/>
<path fill="#413E41" d="M64.641,217.767c-0.699-0.8-0.8-1.699-0.3-2c0.601-0.3,1.5,0.101,2.101,0.801c0.699,0.8,0.8,1.699,0.3,2
	C66.141,218.867,65.242,218.467,64.641,217.767z"/>
<path fill="#413E41" d="M78.141,217.067c-0.199-0.801-1.8-12.2-3.5-25.301c-2.899-22.399-3-24.1-1.399-25.8c0.899-1,2-1.5,2.399-1.1
	c0.4,0.5,1.7,5.8,2.801,11.8c3.6,18.7,4.199,21.5,4.899,21.2c0.4-0.101,0.8,0.3,0.9,0.8c0,0.6-0.2,0.9-0.601,0.8
	c-0.399-0.1-0.3,2.8,0.301,6.3c0.899,6.5,0.899,6.5-2.2,9.601C79.442,217.767,78.542,218.167,78.141,217.067z"/>
<path fill="#413E41" d="M74.141,157.267c-1.5-1.6-2.3-3.1-1.8-3.5c0.5-0.3,2.101,0.801,3.601,2.301c1.5,1.6,2.3,3.1,1.8,3.5
	C77.242,159.867,75.641,158.767,74.141,157.267z"/>
<path fill="#413E41" d="M36.042,147.267c-0.7-1.199,1.2-2.399,2.5-1.6c1.1,0.7,0.4,2.5-1,2.5
	C37.042,148.167,36.442,147.767,36.042,147.267z"/>
<path fill="#413E41" d="M33.042,144.167c-1-1.7,2.2-4.7,3.5-3.4c0.7,0.7,0.4,1.601-0.9,2.801
	C34.242,144.767,33.542,144.967,33.042,144.167z"/>
<path fill="#413E41" d="M43.042,141.267c-0.7-1.199,1.2-2.399,2.5-1.6c1.1,0.7,0.4,2.5-1,2.5
	C44.042,142.167,43.442,141.767,43.042,141.267z"/>
<path fill="#413E41" d="M57.042,63.167c-0.8-1.3,2-2.4,4.1-1.6c2,0.8,0.9,2.6-1.6,2.6C58.542,64.167,57.341,63.667,57.042,63.167z"
	/>
<path fill="#413E41" d="M76.042,63.067c-0.7-1.101,0.5-1.601,3.5-1.5c1.4,0.1,2.6,0.6,2.8,1.1
	C82.542,63.867,76.742,64.267,76.042,63.067z"/>
<path fill="#413E41" d="M90.042,62.267c-0.7-1.199,1.2-2.399,2.5-1.6c1.1,0.7,0.4,2.5-1,2.5
	C91.042,63.167,90.442,62.767,90.042,62.267z"/>
<path fill="#413E41" d="M42.042,61.267c-0.7-1.199,1.2-2.399,2.5-1.6c1.1,0.7,0.4,2.5-1,2.5
	C43.042,62.167,42.442,61.767,42.042,61.267z"/>
<path fill="#413E41" d="M99.341,61.467c-0.7-1.399-0.3-3.3,0.601-3.3c1.199-0.1,1.699,2.8,0.6,3.5
	C100.042,61.967,99.542,61.867,99.341,61.467z"/>
<path fill="#413E41" d="M88.042,57.267c-0.7-1.199,1.2-2.399,2.5-1.6c1.1,0.7,0.4,2.5-1,2.5
	C89.042,58.167,88.442,57.767,88.042,57.267z"/>
<path fill="#413E41" d="M65.042,56.167c-0.3-0.5,0-1.3,0.8-1.5c2.3-0.9,15.7-0.1,16,1C82.141,57.067,65.942,57.567,65.042,56.167z"
	/>
<path fill="#DCB993" d="M79.942,133.467c-0.4-1.5-1.5-1.8-6.2-1.5c-6.101,0.3-10.7-1.399-10.7-3.8c0-1.1,1-1.4,4.3-1.2
	c3.2,0.3,4.2,0,4-1c-0.2-0.7,0.601-1.3,1.7-1.3s1.9,0.6,1.8,1.3c-0.2,0.7,0.8,1.2,2.5,1.2c4,0,6.7,3.1,5.2,5.9
	C81.242,135.667,80.542,135.667,79.942,133.467z"/>
<path fill="#DCB993" d="M58.042,122.767c-1.1-0.8-1.4-1.6-0.8-1.899c0.6-0.4,1.8,0,2.8,0.7c1.1,0.8,1.4,1.6,0.8,1.899
	C60.242,123.867,59.042,123.467,58.042,122.767z"/>
<path fill="#DCB993" d="M70.442,110.467c-0.101-0.5-0.2-1.2-0.301-1.8c0-0.5-0.5-1.2-1.1-1.3c-1.9-0.7-3.5-2.4-2.9-3.3
	c0.301-0.5,0.101-0.801-0.399-0.7c-0.9,0.3-1.2-0.2-1.2-1.9c0-0.3,1.1,0.4,2.5,1.7s3.8,2.4,5.3,2.5c1.5,0,2.7,0.5,2.7,1.2
	c0,0.6,0.3,1.5,0.7,1.899c0.399,0.4,0.5,1.101,0.2,1.5C75.341,111.367,70.542,111.467,70.442,110.467z"/>
<path fill="#DCB993" d="M79.141,108.367c-0.3-0.601,0.101-1.5,0.801-2.101c0.8-0.699,1.699-0.8,2-0.3
	c0.3,0.601-0.101,1.5-0.801,2.101C80.341,108.767,79.442,108.867,79.141,108.367z"/>
<path fill="#DCB993" d="M100.242,107.467c-0.4-0.6,0-1.8,0.7-2.8c0.8-1.1,1.6-1.4,1.899-0.8c0.4,0.6,0,1.8-0.7,2.8
	C101.341,107.767,100.542,108.067,100.242,107.467z"/>
<path fill="#DCB993" d="M41.042,99.167c-0.4-0.6-0.3-1.6,0.3-2.2c0.601-0.6,1.2-0.6,1.7,0.2c0.4,0.6,0.3,1.6-0.3,2.2
	C42.141,99.967,41.542,99.967,41.042,99.167z"/>
<path fill="#DCB993" d="M103.042,98.167c-0.4-0.6-0.3-1.6,0.3-2.2c0.601-0.6,1.2-0.6,1.7,0.2c0.4,0.6,0.3,1.6-0.3,2.2
	C104.141,98.967,103.542,98.967,103.042,98.167z"/>
<path fill="#DCB993" d="M78.442,95.767c-0.5-2.3-0.2-4.6,0.5-4.8c1.199-0.399,1.5,4.101,0.399,4.8
	C78.942,96.067,78.542,96.067,78.442,95.767z"/>
<path fill="#DCB993" d="M107.042,95.267c-0.7-1.199,1.2-2.399,2.5-1.6c1.1,0.7,0.4,2.5-1,2.5
	C108.042,96.167,107.442,95.767,107.042,95.267z"/>
<path fill="#DCB993" d="M57.242,86.067c-2.4-1.4-1.3-2.7,1.899-2.101c2.5,0.4,2.601,0.3,2.2-2.2c-0.6-3.3,0.7-4.399,2.101-1.699
	c1.3,2.399,0.5,4.8-2,6.1C59.341,87.367,59.442,87.367,57.242,86.067z"/>
<path fill="#DCB993" d="M82.542,85.167c-2.2-2.2-2.5-3.6-0.9-4.5c0.601-0.4,1.301,0.2,1.601,1.4c0.3,1.199,1.3,2.1,2.3,2.1
	s2-0.9,2.3-2.1c0.5-2,2.7-1.9,2.7,0.199c0,1.2-3.7,4.9-5,4.9C85.042,87.167,83.641,86.267,82.542,85.167z"/>
<path fill="#DCB993" d="M35.242,82.467c-1.101-1.3-1.3-2.3-0.601-3.6c1.4-2.4,3.2-1.2,1.9,1.2c-0.7,1.399-0.6,1.8,0.3,1.699
	c1.4-0.1,2.3,1.7,1,2.101C37.341,84.067,36.141,83.367,35.242,82.467z"/>
<path fill="#DCB993" d="M100.042,80.267c-0.3-0.6-1-0.899-1.5-0.6s-2.4-0.2-4.2-1.2c-1.8-0.899-3.6-1.7-4-1.8
	c-0.5,0-0.8-0.3-0.8-0.7c0-0.7,0.5-1,1.3-0.7c0.101,0,0.9,0.2,1.7,0.4s2.9,0.9,4.5,1.6c1.7,0.7,3.3,1.301,3.8,1.301
	c0.8,0.1,1.101,1.5,0.4,2.199C100.942,81.067,100.442,80.767,100.042,80.267z"/>
<path fill="#DCB993" d="M77.042,79.267c-0.7-1.199,1.2-2.399,2.5-1.6c1.1,0.7,0.4,2.5-1,2.5
	C78.042,80.167,77.442,79.767,77.042,79.267z"/>
<path fill="#DCB993" d="M55.042,76.167c-0.8-1.2,2-2.4,3.5-1.5c0.6,0.3,0.8,1.1,0.5,1.6C58.242,77.467,55.841,77.467,55.042,76.167z
	"/>
<path fill="#DCB993" d="M52.933,71.167c-2-1.5,2.708-2.8,3.909-4.4c1.2-1.6,3.101-1.8,15.5-2.1c11-0.2,14.4,0,15.2,1.1
	c1.3,1.5,0.5,3.4-1.5,3.4c-0.7,0-1.6,0.7-1.9,1.6c-0.399,1.101-1,1.301-1.899,0.7c-1.2-1-19.5-0.8-20.5,0.2
	C60.942,72.467,55.433,73.066,52.933,71.167z"/>
<path fill="#EEB037" d="M66.141,31.067c-3.8-3-3.6-7.9,0.5-11.301c1.7-1.399,4.101-2.6,5.4-2.6s3.7,1.2,5.4,2.6
	c4.399,3.7,4.399,8.7-0.101,11.4C73.141,33.767,69.442,33.667,66.141,31.067z"/>
<path fill="#75655C" d="M93.442,200.467c-0.101-0.399-0.101-1.2,0-1.6c0.1-0.5-0.9-2.2-2.301-3.8c-1.3-1.5-2.699-4.301-3.1-6.101
	c-1.1-5.7-1.6-6.8-2.7-6.5c-0.7,0.101-1.2-1.2-1.2-3c-0.1-1.8,0.4-3.3,0.9-3.2c1.4,0,2.3-4.3,1.3-6.3c-0.399-0.899-0.8-4.2-0.8-7.2
	c0-4-0.4-5.5-1.2-5.3c-0.899,0.101-1.3-1.1-1.3-3.5c0-2.1,0.4-3.8,0.9-3.7c1.6,0.101,2.399-2.399,1.5-4.8
	c-0.5-1.3-0.801-6.2-0.801-10.8l0.101-8.5l5.8-4.5c6.2-4.8,12.9-13.8,14.5-19.7c0.2-0.5,0.4-1.1,0.5-1.5c0.1-0.5,0.3-1.5,0.4-2.3
	c0-0.8,0.8-1.5,1.6-1.5c1.9,0,1.9,1.2,2.1,46.2c0.101,25.5,0.5,35.2,1.301,35c0.6-0.101,1.1,1.1,1.1,2.8c0,1.9-0.5,2.9-1.2,2.8
	c-0.7-0.2-1.3,0.3-1.3,1.101c0,0.8-0.3,2.199-0.6,3.1c-0.4,1-0.2,1.5,0.699,1.3c0.801-0.2,1.4,0.4,1.4,1.2s-0.7,1.4-1.6,1.2
	c-0.9-0.101-2.101,0.899-2.7,2.2c-0.601,1.3-2,2.699-3.2,3.1c-1.1,0.4-1.9,1.3-1.8,2c0.2,0.8-0.101,1.3-0.7,1.2
	c-0.5-0.101-0.9-0.5-0.7-0.9c0.101-0.5-1.2-0.8-2.899-0.8c-1.601,0-2.801,0.4-2.4,0.9c0.3,0.5,0.1,1.199-0.5,1.6
	C94.042,200.967,93.442,200.967,93.442,200.467z"/>
<path fill="#75655C" d="M38.141,138.467c-0.3-0.399-0.6-9-0.6-19.2c0.1-10.3-0.1-19.3-0.5-20.199c-0.7-1.9,1.2-3.601,2.5-2.301
	c0.5,0.5,1,2.301,1.1,3.9c0.2,1.7,0.7,3.6,1.301,4.3c0.5,0.7,0.6,1.5,0.3,1.9c-1.4,1.3,8.6,12.5,13.899,15.5
	c5,2.8,5.5,3.3,5.101,6.2c-0.2,2.399-0.8,3.1-2.5,3.199c-1.2,0.101-4,1.801-6.2,3.801c-3.4,3.1-4.7,3.6-8.8,3.6
	C41.042,139.167,38.542,138.867,38.141,138.467z"/>
<path fill="#75655C" d="M38.442,79.767c-0.101-0.3-0.2-0.899-0.301-1.3c-0.1-0.5-0.399-1.3-0.8-1.8c-0.399-0.6-0.899-4.1-1.3-7.8
	c-0.5-5.101-0.3-6.8,0.7-7.2c2.1-0.7,18.1,2.9,18.5,4.1c0.5,1.601-7.5,9.4-12.5,12.2C40.442,79.267,38.442,80.067,38.442,79.767z"/>
<path fill="#75655C" d="M99.841,76.267c-12.899-10.6-13.1-12.1-1.8-13.6c12.3-1.8,12.1-1.9,11.6,4c-0.1,2.8-0.6,5.5-0.899,6
	c-0.4,0.6-0.5,1.8-0.4,2.8c0.4,1.9-1.399,4.7-2.899,4.7C105.042,80.167,102.542,78.367,99.841,76.267z"/>
<path fill="#AB6B46" d="M62.442,133.067c-0.601-2.801-0.5-5.601,0.1-6.4c0.5-0.5,0.9-1.3,0.9-1.7c0.1-0.5,0.3-0.8,0.6-0.8
	c0.5,0,0.7,0.6,0.4,1.3c-0.101,0.101-0.2,1.601-0.301,3.4C64.042,131.467,62.742,134.567,62.442,133.067z"/>
<path fill="#AB6B46" d="M66.141,128.367c-0.3-0.5,0.301-1.7,1.301-2.601c1.1-1,2.199-1.3,2.5-0.8c0.3,0.5-0.301,1.7-1.301,2.601
	C67.542,128.567,66.442,128.867,66.141,128.367z"/>
<path fill="#AB6B46" d="M76.542,127.267c-0.6-1.199-0.6-2.199-0.1-2.6c0.6-0.3,1.5,0.3,2.1,1.4c0.6,1.199,0.6,2.199,0.1,2.6
	C78.042,128.967,77.141,128.367,76.542,127.267z"/>
<path fill="#AB6B46" d="M91.141,119.367c-0.3-0.5,0.801-2.101,2.301-3.601c1.6-1.5,3.1-2.3,3.5-1.8c0.3,0.5-0.801,2.101-2.301,3.601
	C93.042,119.067,91.542,119.867,91.141,119.367z"/>
<path fill="#AB6B46" d="M49.641,116.767c-1.3-1.3-1.8-2.6-1.3-3c0.5-0.3,1.9,0.5,3.101,1.801c1.3,1.3,1.8,2.6,1.3,3
	C52.242,118.867,50.841,118.067,49.641,116.767z"/>
<path fill="#AB6B46" d="M43.542,108.267c-0.6-1.199-0.6-2.199-0.1-2.6c0.6-0.3,1.5,0.3,2.1,1.4c0.6,1.199,0.6,2.199,0.1,2.6
	C45.042,109.967,44.141,109.367,43.542,108.267z"/>
<path fill="#AB6B46" d="M75.641,108.267c-0.899-1.5-0.6-2.199,1.4-3.5c2.6-1.699,4.4-0.6,2,1.4c-0.8,0.7-1.3,1.6-1,2
	c0.3,0.5,0.1,1.1-0.4,1.5C77.042,109.967,76.141,109.367,75.641,108.267z"/>
<path fill="#AB6B46" d="M64.141,107.267c-0.399-0.5-0.199-1.199,0.4-1.6s0.8-1,0.5-1.5s-0.1-1.1,0.4-1.4
	c0.5-0.399,1.199-0.199,1.5,0.301c0.399,0.5,0.199,1.199-0.4,1.6s-0.8,1-0.5,1.5s0.1,1.1-0.4,1.4
	C65.141,107.967,64.442,107.767,64.141,107.267z"/>
<path fill="#AB6B46" d="M69.042,98.967c-2.4-1.399-0.8-3,1.7-1.7c1.3,0.7,1.8,0.7,1.399,0c-0.399-0.5,0.2-1.5,1.2-2
	c2.2-1.199,3.601-0.3,2.3,1.301c-0.5,0.6-1.1,1.5-1.3,2.1C73.942,99.867,71.042,100.067,69.042,98.967z"/>
<path fill="#AB6B46" d="M67.141,93.267c-1.5-1.699-1.3-3.1,0.5-3.1c1.301,0,3,3.8,2,4.4C69.242,94.867,68.042,94.267,67.141,93.267z
	"/>
<path fill="#AB6B46" d="M76.442,78.467c-0.4-2.899-0.301-3.899,0.399-5c0.5-0.7,1.3-1,1.9-0.7c0.5,0.301,0.399,1.101-0.2,1.9
	c-0.7,0.8-0.9,1.9-0.6,2.4c0.399,0.5,0.199,1.199-0.4,1.6C77.042,78.967,76.442,78.967,76.442,78.467z"/>
<path fill="#444B54" d="M65.341,217.867l-6.7-6.2l4.5-23c2.5-12.6,4.801-23.3,5.2-23.7c0.4-0.399,1.7,0.101,3,1
	c2,1.601,2.5,3.9,5.4,26l3.2,24.3l-3.9,3.9l-4,3.9L65.341,217.867z"/>
<path fill="#444B54" d="M69.042,162.167l-2.9-3l2.9-3l2.9-3l3,3l3.1,3l-3.1,3l-3,3L69.042,162.167z"/>
<path fill="#444B54" d="M34.042,147.367c-0.3-0.3-0.5-1.601-0.5-2.8c0-3,3.1-4.601,8.3-4.2c3.8,0.3,4.2,0.6,4.5,3.1
	c0.2,1.601-0.2,2.9-1,3.101C42.942,147.367,34.641,147.967,34.042,147.367z"/>
<path d="M24.742,229.367c-5.3-0.2-8.5-0.7-8.7-1.5c-0.3-0.7,1.5-19.3,3.9-41.5c4.199-38.5,4.5-40.4,7-43.7
	c1.6-2.1,3.6-3.5,5.399-3.7l2.7-0.3l-0.1-20c-0.101-11-0.5-23.7-0.9-28.2c-0.5-5.899-0.4-8.7,0.4-9.7c0.899-1.1,1-3,0.199-7.3
	c-0.5-3.2-1.3-9.5-1.6-14c-0.6-7.1-1.1-8.8-3.7-12c-4.5-5.7-6-10.1-5.5-15.7c0.4-4.399,1-5.5,5.4-9.699
	c3.8-3.601,6.6-5.2,11.7-6.801c18.5-5.699,55.6-4.8,68.199,1.7c6,3.101,10.5,8.3,11.101,13c0.7,4.9-1.601,12.101-5.4,17
	c-2.3,3.101-2.7,4.5-2.5,9.7c0.101,3.4-0.5,10-1.2,14.6c-1.1,6.9-1.199,8.7-0.1,9.9s1.2,6.5,0.8,25.6
	c-0.7,28.301-0.399,30.301,3.9,32.5c5.6,2.7,6.2,5.301,11.2,48.4c2.5,22,4.199,40.3,3.8,40.7
	C130.042,229.067,40.542,229.967,24.742,229.367z M31.841,194.467c-0.3-17.5-0.8-36.1-1.2-41.3c-0.6-8.4-0.899-9.2-1.899-7
	c-1,2-9.2,71.8-9.2,78.1c0,1.7,0.8,1.9,6.5,1.9h6.4L31.841,194.467z M63.742,219.267l-7.3-6.8l4.5-23.7
	c2.5-13.1,4.6-24.6,4.6-25.699c0-1.301-0.7-1.9-2.3-1.9c-1.4,0-4.5-2.2-8.5-6.3l-6.3-6.3l-6.601,0.8c-3.6,0.399-6.8,1-7,1.2
	c-0.3,0.199-0.1,17.3,0.3,38l0.7,37.6h17.601l17.6-0.1L63.742,219.267z M110.542,208.967c-0.1-15.899-0.2-17.1-1.6-14.6
	c-1.9,3.7-6.301,5.8-11.7,5.8c-3.5,0-4.9-0.6-7.101-2.9c-3.399-3.5-5.6-10.699-5.6-18.1c0-3.1-0.3-8.5-0.6-11.9
	c-0.601-5.5-0.9-6.1-3-6.1c-1.2,0-2.5,0.3-2.7,0.8c-0.3,0.4,1.7,11.8,4.2,25.4l4.699,24.7l-7,7l-7.1,7.1h18.8h18.7V208.967z
	 M127.542,224.967c0-0.7-2-18.8-4.5-40.3c-4.1-34.8-5.3-42-6.9-40.4c-0.3,0.2-0.699,16-1.1,34.9c-0.3,19-0.8,37.3-1.1,40.8l-0.5,6.2
	h7.1C125.442,226.167,127.542,225.767,127.542,224.967z M78.341,216.867l5.2-5.2l-4.2-22.3c-3.399-18-4.5-22.2-5.6-21.7
	c-0.8,0.3-2.2-0.1-3.101-0.9c-1.5-1.399-2-0.1-5,16.2c-1.899,9.7-3.8,20.2-4.399,23.3l-0.9,5.5l5.3,5.2c3,2.8,5.9,5.2,6.4,5.2
	C72.641,222.167,75.442,219.767,78.341,216.867z M104.742,194.467c1-1.1,2.3-4.5,2.8-7.8c1.4-8.6,1.2-89.8-0.2-86.5
	c-4.1,9.4-5.899,12.2-11.7,18.1c-3.699,3.7-7.3,7-8.199,7.5c-1.5,0.801-1.5,3.5-0.4,30.9c1.3,31.2,2.1,36.1,6.3,39.3
	C95.641,197.767,102.341,196.867,104.742,194.467z M75.042,161.167c1.8-2,1.8-2.1-0.6-4.6l-2.5-2.5l-2.4,2.6
	c-2.3,2.4-2.3,2.5-0.5,4.5C71.341,163.667,72.742,163.667,75.042,161.167z M66.641,155.567c1.801-1.9,2.4-3.7,2.5-7.2
	c0.101-4.2-0.399-5.2-4-9c-6.399-6.8-6.899-6.9-12.1-2.101c-2.5,2.301-4.5,4.9-4.5,5.9c0,1.7,13,15,14.7,15
	C63.742,158.167,65.242,156.967,66.641,155.567z M83.341,154.567c0.2-1.601,0.101-6.2-0.3-10.301l-0.7-7.399l-5.6,5.6l-5.7,5.7l5,5
	c2.7,2.8,5.4,4.9,6,4.7C82.542,157.667,83.242,156.167,83.341,154.567z M43.542,145.367c2.1-1,2.2-4.2,0.1-4.2
	c-5.3,0-9.1,1.4-9.1,3.1c0,1.5,0.7,1.9,3.8,1.801C40.341,146.067,42.742,145.767,43.542,145.367z M77.742,137.467
	c3.3-3.3,4.8-5.5,4.8-7.399c0-2.601,0-2.601-5.1-1.7c-3.101,0.6-6.801,0.6-9.5,0l-4.4-1v3.1c0,2.3,1.1,4.2,4.2,7.4
	c2.3,2.399,4.399,4.3,4.7,4.3C72.742,142.167,75.141,140.067,77.742,137.467z M52.542,133.567c2-1.9,4.6-3.4,5.8-3.4
	c3.101,0,2.9-3.4-0.3-4.8c-3.5-1.601-12.1-9.7-14.6-13.9c-1.2-1.899-2.7-5.3-3.5-7.6c-1.301-4.2-1.301-4.2-1.301,4.399
	c-0.1,4.7,0.2,13.4,0.5,19.2l0.7,10.601l4.601-0.601C47.841,137.067,49.942,135.967,52.542,133.567z M82.341,123.667
	c6.7-2,15.2-10.2,18.8-17.9c2.2-4.8,2.4-6.5,2.2-15.199l-0.3-9.801l-5-1.899c-7.5-2.9-12.3-3.3-16.2-1.101
	c-3.2,1.601-3.5,1.601-5.1,0.101c-1.5-1.601-1.5-1.9,0.899-4.3c1.7-1.601,4.2-2.801,7.301-3.2c4.5-0.7,4.6-0.8,3.199-2.8
	c-1.399-1.9-2.199-2-15.8-1.601c-11.6,0.4-14.5,0.8-15.5,2.101c-1,1.399-8.871,4.842,2.7,3.1c0,0,10,2.6,10,5.1
	c0,2.801-2.5,3.4-6.4,1.5c-4.3-2-7.899-2-11.699-0.1c-1.601,0.9-3.5,1.5-4.2,1.3c-0.601-0.1-2.3,0.4-3.601,1.101
	c-2.3,1.3-2.3,1.5-1.6,11.399c1.2,17.7,7.4,27.2,20.8,31.8C69.242,125.567,75.641,125.667,82.341,123.667z M38.542,88.667
	c0-3-0.4-5.5-1-5.5c-0.5,0-1,2.5-1,5.5s0.5,5.5,1,5.5C38.141,94.167,38.542,91.667,38.542,88.667z M109.542,88.667
	c0-3-0.4-5.5-1-5.5c-0.5,0-1,2.5-1,5.5s0.5,5.5,1,5.5C109.141,94.167,109.542,91.667,109.542,88.667z M43.141,76.267
	c1.7-1,5.101-3.8,7.5-6.199l4.4-4.2l-9-1.7c-4.9-0.9-9.1-1.5-9.3-1.4c-0.5,0.301,2.1,15.4,2.7,15.4
	C39.742,78.167,41.442,77.267,43.141,76.267z M106.942,75.867c0.3-1.3,0.8-4.9,1.199-8c0.7-5.7,0.7-5.8-1.699-5.3
	c-1.301,0.3-5.301,1-8.801,1.6c-3.5,0.5-6.6,1.1-6.8,1.4c-0.899,0.8,12.601,12.6,14.3,12.6
	C105.841,78.167,106.542,77.167,106.942,75.867z M99.042,60.367l4-0.8l-7-1.5c-9-1.801-36.4-1.9-46.3,0c-4,0.699-7.101,1.5-6.9,1.8
	C45.042,62.067,89.141,62.467,99.042,60.367z M53.042,54.067c15.1-2.7,34.6-2.2,46.9,1c4.399,1.199,8.1,2.1,8.3,2.1
	c0.1,0,0.3-1.3,0.3-3c0-2.7-0.4-3-6.6-4.9c-9.5-3-23.301-4.399-34.7-3.6c-8.601,0.6-30.2,4.7-31.5,5.9
	c-0.2,0.3-0.101,1.699,0.2,3.199c0.6,2.101,1.1,2.5,2.899,2C40.042,56.367,46.442,55.167,53.042,54.067z M42.242,46.167
	c19.1-5,43.7-5.3,59.3-0.6c9.6,2.8,9.1,3,13.2-4.9c6.3-12.2-0.4-20.7-18.9-24c-8.5-1.6-23.2-1.9-19.8-0.6c5,2.1,8.1,8.699,6.5,13.6
	c-2.2,6.8-11.8,9.8-17.3,5.5c-5.8-4.6-5.601-12.4,0.5-17.5l3-2.5h-4.9c-6.8,0-16.7,1.7-24,4.1c-11.1,3.601-15.399,11.4-11.399,20.5
	c2.1,4.7,4.8,8.4,6,8.4C34.742,48.167,38.242,47.267,42.242,46.167z M77.841,31.067c4.101-5,0.7-11.9-5.8-11.9
	c-7.1,0-10,7.6-4.9,12.7c2,2,3.101,2.399,5.7,1.899C74.641,33.467,76.841,32.167,77.841,31.067z"/>
<path d="M68.042,109.167c-3-1.1-4.8-3.7-4.1-5.6c0.6-1.5,0.899-1.5,2.899,0.5c3.101,2.899,8.9,2.8,11.7-0.101
	c2.2-2.399,4.5-1.399,3.4,1.601C80.542,109.167,72.942,111.167,68.042,109.167z"/>
<path d="M67.542,96.767c-1.3-1.5-2-3.199-1.7-4c0.9-2.3,2.2-2,4.101,0.9c2.1,3.2,3.899,3.2,6,0c1.699-2.6,3.6-2.6,3.6,0.1
	c0,2.4-3.8,5.4-6.8,5.4C71.042,99.167,68.942,98.167,67.542,96.767z"/>
<path d="M56.742,84.967c-2.601-2.6-0.2-7.3,3.399-6.6c3.101,0.6,4,3.399,2,5.7C59.942,86.467,58.442,86.667,56.742,84.967z"/>
<path d="M82.542,84.667c-2.6-3.2,1.3-8.1,4.8-5.9c3.4,2.2,2.2,7.4-1.8,7.4C84.542,86.167,83.242,85.467,82.542,84.667z"/>
<path fill="#FFE1AE" d="M67.141,138.267c-5-5.1-6-8.899-2.1-8.3c1.1,0.2,4.9,0.5,8.5,0.601c8.4,0.3,9,2.199,2.7,8.399l-4.3,4.2
	L67.141,138.267z"/>
<path fill="#FFE1AE" d="M61.742,124.067c-6.8-2.7-14.5-10.2-17.9-17.601c-2.1-4.5-2.7-7.7-3.1-15.399l-0.5-9.7l2.899-1.8
	c1.5-1.101,3.601-1.7,4.601-1.601c1,0.2,2.8-0.399,4-1.2c2.8-2,8.8-2.1,11.399-0.1c3,2.3,5.601,1.9,5.2-0.7
	c-0.2-1.5-1.3-2.6-3.399-3.3c-6.301-2-4-3,8.699-3.6c7-0.301,13.101-0.9,13.7-1.301c0.5-0.3,1.5,0.101,2.2,0.9
	c1.4,1.7,0.9,2-5.3,2.9c-4.601,0.6-6.7,2.1-6.7,4.699c0,2.4,0.4,2.4,5.8-0.199l4.4-2.2l5.7,2.2c3.1,1.199,7.1,2.899,9,3.699
	l3.399,1.5l-0.5,9.4c-0.6,11.7-3.5,18.2-11.8,26.5C84.641,126.067,73.442,128.567,61.742,124.067z M77.341,108.067
	c1.7-0.601,3.3-1.7,3.601-2.601c1-2.5,0-2.7-2.301-0.399c-2.899,2.899-8.699,2.8-11.8-0.101c-1.8-1.7-2.3-1.8-2.3-0.6
	C64.542,108.167,71.341,110.167,77.341,108.067z M56.641,99.567c1.301-3.7-1.1-7.4-4.899-7.4c-3.5,0-5.2,1.6-5.2,5
	c0,3.5,1.7,5,5.7,5C54.942,102.167,55.742,101.667,56.641,99.567z M98.742,99.667c1.8-4.1-0.3-7.5-4.7-7.5c-2.9,0-3.7,0.5-4.6,2.6
	C87.141,100.867,96.042,105.567,98.742,99.667z M76.942,96.967c2.399-3.5,1.899-5.8-0.5-2.5c-2.601,3.4-4.2,3.4-6.7,0.2
	c-1.101-1.4-2.3-2.5-2.7-2.5c-0.8,0,0.4,4.1,1.7,5.8C70.442,99.967,75.242,99.367,76.942,96.967z M61.442,83.767
	c1.699-2,0.199-4.8-2.301-4.399c-2.399,0.3-3.399,3.7-1.399,4.899C59.542,85.467,60.141,85.367,61.442,83.767z M87.341,84.267
	c2.101-1.3,1-4.6-1.6-4.899c-2.7-0.4-4,2.2-2.2,4.3C84.942,85.367,85.542,85.467,87.341,84.267z"/>
<path fill="#FFE1AE" d="M35.942,93.867c-0.301-0.8-0.4-3.601-0.2-6.3c0.2-3.601,0.7-4.9,1.8-4.9c2,0,2.2,11.6,0.3,12.2
	C37.141,95.167,36.242,94.667,35.942,93.867z"/>
<path fill="#FFE1AE" d="M106.942,93.867c-0.301-0.8-0.4-3.601-0.2-6.3c0.2-3.601,0.7-4.9,1.8-4.9c2,0,2.2,11.6,0.3,12.2
	C108.141,95.167,107.242,94.667,106.942,93.867z"/>
<path fill="#517797" d="M41.891,59.408c0,0,29.567-7.342,62.15,0C104.042,59.408,64.058,67.667,41.891,59.408z"/>
<g>
</g>
<g>
</g>
<g>
</g>
<g>
</g>
<g>
</g>
<g>
</g>
</svg>
