<?xml version="1.0" encoding="utf-8"?>
<!-- Generator: Adobe Illustrator 16.0.0, SVG Export Plug-In . SVG Version: 6.00 Build 0)  -->
<!DOCTYPE svg PUBLIC "-//W3C//DTD SVG 1.1//EN" "http://www.w3.org/Graphics/SVG/1.1/DTD/svg11.dtd">
<svg version="1.1" id="Layer_1" xmlns="http://www.w3.org/2000/svg" xmlns:xlink="http://www.w3.org/1999/xlink" x="0px" y="0px"
	 width="195px" height="243px" viewBox="0 0 195 243" enable-background="new 0 0 195 243" xml:space="preserve">
<g>
	<path fill="#FBD26F" d="M140.183,39.039c-1.3-1.3-1.8-2.6-1.3-3c0.5-0.3,1.9,0.5,3.101,1.801c1.3,1.3,1.8,2.6,1.3,3
		C142.784,41.139,141.383,40.339,140.183,39.039z"/>
	<path fill="#FBD26F" d="M52.683,31.639c-0.3-0.5,0.2-2,1.2-3.3c2.4-2.9,3.601-1.101,1.3,2
		C54.083,31.739,53.083,32.239,52.683,31.639z"/>
	<path fill="#FBD26F" d="M63.683,19.639c-0.3-0.601,0.101-1.5,0.801-2.101c0.8-0.699,1.699-0.8,2-0.3
		c0.3,0.601-0.101,1.5-0.801,2.101C64.883,20.039,63.984,20.139,63.683,19.639z"/>
	<path fill="#FBD26F" d="M114.583,17.039c-1.1-0.8-1.4-1.6-0.8-1.899c0.6-0.4,1.8,0,2.8,0.7c1.1,0.8,1.4,1.6,0.8,1.899
		C116.784,18.139,115.583,17.739,114.583,17.039z"/>
	<path fill="#FBD26F" d="M67.583,16.439c-0.3-0.5,1.2-1.8,3.5-3c2.2-1.1,4-1.8,4-1.4c0,0.4,0.7,0.101,1.5-0.6s1.5-0.9,1.5-0.5
		s0.6,0.2,1.4-0.4c1-0.8,1.6-0.899,2.1-0.1c0.3,0.5,0.4,1.1,0.1,1.1c-1.6,0.4-2.6,0.7-3.1,0.9c-0.3,0.1-0.8,0.3-1.2,0.4
		c-0.5,0.1-2.7,1.199-5,2.399C69.984,16.539,67.984,17.039,67.583,16.439z"/>
	<path fill="#FBD26F" d="M109.683,14.739c-0.399-0.5-1.199-0.899-1.699-0.899c-0.5-0.101-1.101-0.301-1.4-0.4s-0.9-0.3-1.5-0.4
		c-0.5,0-1-0.399-1-0.8c0-0.5,0-1.1,0-1.399c0-0.4,0.7-0.101,1.5,0.6s1.5,0.9,1.5,0.5s0.6-0.3,1.3,0.3
		c0.601,0.601,1.5,1.101,2,1.101c0.8,0.1,1.101,1.1,0.5,1.699C110.583,15.239,110.083,15.139,109.683,14.739z"/>
	<path fill="#FBD26F" d="M84.583,10.539c-0.7-1.199,1.2-2.399,2.5-1.6c1.1,0.7,0.4,2.5-1,2.5
		C85.583,11.439,84.984,11.039,84.583,10.539z"/>
	<path fill="#CF8F32" d="M151.484,165.039c-0.4-1-0.2-2.199,0.399-2.8c0.8-0.8,1.3-0.7,1.8,0.601c0.4,1,0.2,2.199-0.399,2.8
		C152.484,166.439,151.984,166.339,151.484,165.039z"/>
	<path fill="#CF8F32" d="M23.183,161.039c-1.3-1.3-1.8-2.6-1.3-3c0.5-0.3,1.9,0.5,3.101,1.801c1.3,1.3,1.8,2.6,1.3,3
		C25.784,163.139,24.383,162.339,23.183,161.039z"/>
	<path fill="#CF8F32" d="M173.683,158.639c-0.3-0.601,0.101-1.5,0.801-2.101c0.8-0.699,1.699-0.8,2-0.3
		c0.3,0.601-0.101,1.5-0.801,2.101C174.883,159.039,173.984,159.139,173.683,158.639z"/>
	<path fill="#CF8F32" d="M150.583,156.439c-0.4-0.6-0.3-1.6,0.3-2.2c0.601-0.6,1.2-0.6,1.7,0.2c0.4,0.6,0.3,1.6-0.3,2.2
		C151.683,157.239,151.083,157.239,150.583,156.439z"/>
	<path fill="#CF8F32" d="M176.784,154.739c-0.4-0.6,0-1.8,0.7-2.8c0.8-1.1,1.6-1.4,1.899-0.8c0.4,0.6,0,1.8-0.7,2.8
		C177.883,155.039,177.083,155.339,176.784,154.739z"/>
	<path fill="#CF8F32" d="M45.583,153.439c-0.4-0.6-0.3-1.6,0.3-2.2c0.601-0.6,1.2-0.6,1.7,0.2c0.4,0.6,0.3,1.6-0.3,2.2
		C46.683,154.239,46.083,154.239,45.583,153.439z"/>
	<path fill="#CF8F32" d="M46.784,146.739c-0.4-0.6,0-1.8,0.7-2.8c0.8-1.1,1.6-1.4,1.899-0.8c0.4,0.6,0,1.8-0.7,2.8
		C47.883,147.039,47.083,147.339,46.784,146.739z"/>
	<path fill="#CF8F32" d="M14.583,144.439c-0.4-0.6-0.3-1.6,0.3-2.2c0.601-0.6,1.2-0.6,1.7,0.2c0.4,0.6,0.3,1.6-0.3,2.2
		C15.683,145.239,15.083,145.239,14.583,144.439z"/>
	<path fill="#CF8F32" d="M144.484,141.039c-1-0.8-2.2-1.399-2.601-1.5c-0.5,0-0.8-0.3-0.8-0.6c0-0.4,0.6-0.6,1.3-0.4
		c0.101,0,1,0.2,2.101,0.4c2.399,0.5,4.1,2.1,2.899,2.8C146.784,142.139,145.583,141.739,144.484,141.039z"/>
	<path fill="#CF8F32" d="M180.484,141.039c-0.4-1-0.2-2.199,0.399-2.8c0.8-0.8,1.3-0.7,1.8,0.601c0.4,1,0.2,2.199-0.399,2.8
		C181.484,142.439,180.984,142.339,180.484,141.039z"/>
	<path fill="#CF8F32" d="M56.683,139.539c-0.399-0.5-0.199-1.199,0.4-1.6c0.5-0.3,1-0.3,1,0.1c0,0.301,0.6,0.101,1.4-0.5
		c1-0.8,1.6-0.899,2.1-0.1c0.3,0.5,0.4,1.1,0.1,1.1c-0.3,0.101-0.899,0.2-1.3,0.301c-0.5,0.1-1.3,0.5-2,0.899
		C57.784,140.139,56.984,140.039,56.683,139.539z"/>
	<path fill="#CF8F32" d="M135.683,138.739c-0.399-0.5-1.199-0.899-1.699-0.899c-0.5-0.101-1.101-0.301-1.4-0.4s-0.9-0.3-1.5-0.4
		c-0.5,0-1-0.399-1-0.8c0-0.5,0-1.1,0-1.399c0-0.4,0.7-0.101,1.5,0.6s1.5,0.9,1.5,0.5s0.6-0.3,1.3,0.3
		c0.601,0.601,1.5,1.101,2,1.101c0.8,0.1,1.101,1.1,0.5,1.699C136.583,139.239,136.083,139.139,135.683,138.739z"/>
	<path fill="#CF8F32" d="M180.484,135.039c-0.4-1-0.2-2.199,0.399-2.8c0.8-0.8,1.3-0.7,1.8,0.601c0.4,1,0.2,2.199-0.399,2.8
		C181.484,136.439,180.984,136.339,180.484,135.039z"/>
	<path fill="#CF8F32" d="M73.784,134.739c-0.4-0.6,1.1-2.7,3.2-4.7c2.1-2.1,4.1-3.399,4.399-2.899c0.4,0.6-1.1,2.7-3.2,4.7
		C76.083,133.939,74.083,135.239,73.784,134.739z"/>
	<path fill="#CF8F32" d="M14.583,132.439c-0.4-0.6-0.3-1.6,0.3-2.2c0.601-0.6,1.2-0.6,1.7,0.2c0.4,0.6,0.3,1.6-0.3,2.2
		C15.683,133.239,15.083,133.239,14.583,132.439z"/>
	<path fill="#CF8F32" d="M108.484,132.039c-0.801-2.199,0-8.1,1.1-8.1c0.5,0,1.2,1.3,1.5,2.9c0.4,2.6,0.6,2.699,1.9,1.3
		c0.699-0.9,1.8-1.4,2.3-1.101c1,0.601-3.9,6.4-5.4,6.4C109.383,133.439,108.784,132.839,108.484,132.039z"/>
	<path fill="#CF8F32" d="M179.583,127.439c-0.4-0.6-0.3-1.6,0.3-2.2c0.601-0.6,1.2-0.6,1.7,0.2c0.4,0.6,0.3,1.6-0.3,2.2
		C180.683,128.239,180.083,128.239,179.583,127.439z"/>
	<path fill="#CF8F32" d="M66.583,124.539c-0.7-1.199,1.2-2.399,2.5-1.6c1.1,0.7,0.4,2.5-1,2.5
		C67.583,125.439,66.984,125.039,66.583,124.539z"/>
	<path fill="#CF8F32" d="M80.984,123.739c-0.101-0.399-0.101-1.2,0-1.6c0.1-0.5-0.301-0.601-0.801-0.3
		c-0.5,0.399-1.199,0.199-1.6-0.301c-0.3-0.6,0.4-1.5,1.5-2.1s2-0.9,2.1-0.8c0.5,1.899,0.4,5-0.3,5.399
		C81.484,124.339,80.984,124.239,80.984,123.739z"/>
	<path fill="#CF8F32" d="M58.984,121.939c-2.2-1.2-2.9-3.3-2-6.3c0.1-0.101,2,0.8,4.399,2c2.3,1.2,4.5,2.2,5,2.3
		c0.4,0,0.7,0.3,0.7,0.8c0,0.601-0.5,0.9-1.2,0.601c-2.1-0.601-3.7-0.5-3.3,0.1C63.583,123.039,61.583,123.239,58.984,121.939z"/>
	<path fill="#CF8F32" d="M71.583,122.439c-0.8-1.2,2-2.4,3.5-1.5c0.6,0.3,0.8,1.1,0.5,1.6
		C74.784,123.739,72.383,123.739,71.583,122.439z"/>
	<path fill="#CF8F32" d="M119.683,118.639c-0.3-0.5,0.5-1.9,1.801-3.101c1.3-1.3,2.6-1.8,3-1.3c0.3,0.5-0.5,1.9-1.801,3.101
		C121.383,118.639,120.083,119.139,119.683,118.639z"/>
	<path fill="#CF8F32" d="M48.683,114.539c-1.199-1.3-1.399-2.1-0.6-2.6s0.8-1,0-2c-0.7-0.8-0.7-1.6-0.2-1.9
		c0.601-0.3,1.5,0.101,2.101,0.801c0.899,1,0.899,1.6,0.1,2.1s-0.8,1.1,0.1,2.1c0.801,1,1.5,1.101,2.4,0.4s1.6-0.6,2.4,0.4
		c0.8,0.899,0.8,1.6,0.199,2c-0.5,0.399-1.3,0.199-1.6-0.4c-0.5-0.8-1.1-0.8-1.9-0.1C50.784,116.139,49.883,115.939,48.683,114.539z
		"/>
	<path fill="#CF8F32" d="M175.083,112.539c-0.6-1.199-0.6-2.199-0.1-2.6c0.6-0.3,1.5,0.3,2.1,1.4c0.6,1.199,0.6,2.199,0.1,2.6
		C176.583,114.239,175.683,113.639,175.083,112.539z"/>
	<path fill="#CF8F32" d="M84.984,111.039c-0.101-0.3-0.2-0.899-0.301-1.3c-0.1-0.5-0.5-1.399-0.899-2c-0.5-0.7-0.5-1.3-0.101-1.3
		c0.301,0,0.101-0.6-0.5-1.4c-0.8-1-0.899-1.6-0.1-2.1c0.5-0.3,1.1-0.4,1.1-0.1c0.4,1.6,0.7,2.6,0.9,3.1c0.1,0.3,0.3,0.8,0.4,1.3
		c0.1,0.4,0.5,1.2,0.899,1.9c0.4,0.6,0.3,1.399-0.3,1.8C85.583,111.239,84.984,111.339,84.984,111.039z"/>
	<path fill="#CF8F32" d="M22.583,109.539c-0.5-0.899,1.9-3.3,5.2-5c3.899-2,3.3,0.5-0.7,3.2
		C24.883,109.139,22.883,109.939,22.583,109.539z"/>
	<path fill="#CF8F32" d="M43.683,108.639c-0.3-0.5,0.301-1.7,1.301-2.601c1.1-1,2.199-1.3,2.5-0.8c0.3,0.5-0.301,1.7-1.301,2.601
		C45.083,108.839,43.984,109.139,43.683,108.639z"/>
	<path fill="#CF8F32" d="M127.683,106.539c-0.399-0.5-0.199-1.199,0.4-1.6s0.8-1,0.5-1.5s-0.1-1.1,0.4-1.4
		c0.5-0.399,1.199-0.199,1.5,0.301c0.399,0.5,0.199,1.199-0.4,1.6s-0.8,1-0.5,1.5s0.1,1.1-0.4,1.4
		C128.683,107.239,127.984,107.039,127.683,106.539z"/>
	<path fill="#CF8F32" d="M36.683,103.539c-0.3-0.5,0.5-1.6,1.9-2.5c2.4-1.6,4.5-0.6,2.2,1.101
		C38.383,104.039,37.183,104.439,36.683,103.539z"/>
	<path fill="#CF8F32" d="M133.583,102.439c-0.7-1.2,2-2.5,3.3-1.6c0.601,0.3,1.5-0.101,2.2-0.9s1.6-1.2,2.2-0.9
		c0.5,0.301,0.399,1.2-0.3,2c-0.601,0.7-1.5,1.2-1.9,0.9c-0.5-0.3-1.1-0.1-1.5,0.5C136.784,103.739,134.383,103.739,133.583,102.439
		z"/>
	<path fill="#CF8F32" d="M157.583,102.039c-1.1-0.8-1.4-1.6-0.8-1.899c0.6-0.4,1.8,0,2.8,0.7c1.1,0.8,1.4,1.6,0.8,1.899
		C159.784,103.139,158.583,102.739,157.583,102.039z"/>
	<path fill="#CF8F32" d="M41.984,99.039c-0.101-0.3-0.2-0.899-0.301-1.3c-0.1-0.5-0.5-1.3-0.899-2c-0.4-0.6-0.3-1.399,0.3-1.8
		c0.5-0.3,1.1-0.4,1.1-0.1c0.101,0.3,0.2,0.899,0.301,1.399c0.1,0.4,0.5,1.2,0.899,1.9c0.4,0.6,0.3,1.399-0.3,1.8
		C42.583,99.239,41.984,99.339,41.984,99.039z"/>
	<path fill="#CF8F32" d="M79.583,91.439c-0.4-0.6-0.3-1.6,0.3-2.2c0.601-0.6,1.2-0.6,1.7,0.2c0.4,0.6,0.3,1.6-0.3,2.2
		C80.683,92.239,80.083,92.239,79.583,91.439z"/>
	<path fill="#CF8F32" d="M136.784,89.639c-0.5-0.7-1-10.4-0.8-12.7c0.1-0.5,0.8-0.1,1.6,0.9c1.6,2.199,2.1,11.1,0.6,12.1
		C137.683,90.239,136.984,90.139,136.784,89.639z"/>
	<path fill="#CF8F32" d="M152.484,89.139c-0.7-2-0.2-4.7,1.1-5c1.4-0.3,1.9,4.3,0.6,5.6
		C153.484,90.439,152.984,90.339,152.484,89.139z"/>
	<path fill="#CF8F32" d="M38.583,84.239c-0.9-2.399-0.1-10.3,1-10.3c1.4,0,1.9,9.5,0.6,10.8
		C39.484,85.439,38.984,85.239,38.583,84.239z"/>
	<path fill="#CF8F32" d="M151.484,72.039c-0.4-1-0.2-2.199,0.399-2.8c0.8-0.8,1.3-0.7,1.8,0.601c0.4,1,0.2,2.199-0.399,2.8
		C152.484,73.439,151.984,73.339,151.484,72.039z"/>
	<path fill="#CF8F32" d="M130.583,66.439c-0.4-0.6-0.3-1.6,0.3-2.2c0.601-0.6,1.2-0.6,1.7,0.2c0.4,0.6,0.3,1.6-0.3,2.2
		C131.683,67.239,131.083,67.239,130.583,66.439z"/>
	<path fill="#CF8F32" d="M101.683,65.539c-0.6-1,1.601-3.1,3.601-3.5c0.7-0.199,2.1-0.6,3-1c0.899-0.399,2.2-0.5,2.8-0.1
		c1.6,1,0,2.7-2.1,2.2c-1-0.3-2.5,0.3-3.5,1.399C103.583,66.639,102.484,66.939,101.683,65.539z"/>
	<path fill="#CF8F32" d="M89.583,64.039c-1-0.699-2.6-1.1-3.6-0.899c-0.9,0.3-2,0-2.4-0.601c-0.8-1.399,2-2.5,3.7-1.5
		c0.7,0.5,1.899,0.9,2.7,1.101c0.699,0.1,1.8,0.6,2.3,1.1C93.883,64.839,91.583,65.539,89.583,64.039z"/>
	<path fill="#CF8F32" d="M117.183,63.839c-2.3-1.101-3.1-1.801-2.399-2.5c1.3-1.301,7.7,1.699,6.8,3.1c-0.4,0.6-0.7,1-0.8,0.9
		C120.683,65.339,119.083,64.639,117.183,63.839z"/>
	<path fill="#CF8F32" d="M150.583,64.439c-0.4-0.6-0.3-1.6,0.3-2.2c0.601-0.6,1.2-0.6,1.7,0.2c0.4,0.6,0.3,1.6-0.3,2.2
		C151.683,65.239,151.083,65.239,150.583,64.439z"/>
	<path fill="#CF8F32" d="M80.583,61.439c-0.4-0.6-0.1-1.7,0.5-2.5c0.7-0.8,0.9-1.5,0.5-1.5s-0.2-0.7,0.5-1.5s0.9-1.5,0.5-1.5
		s-0.2-0.7,0.5-1.5s1-1.5,0.6-1.5c-0.399,0,0.101-1.4,0.9-3c0.9-1.7,2-2.8,2.5-2.5c0.6,0.4,0.3,1.9-0.7,3.8
		c-0.899,1.8-1.8,3.5-1.899,4c-0.101,0.4-0.301,0.9-0.4,1.2s-0.3,0.9-0.4,1.4c0,0.5-0.399,1.199-0.8,1.6c-0.399,0.4-0.399,1.3-0.2,2
		C83.383,61.539,81.484,62.839,80.583,61.439z"/>
	<path fill="#CF8F32" d="M129.984,61.039c-0.101-0.3-0.2-0.899-0.301-1.3c-0.1-0.5-1-2.2-1.899-4c-1-1.899-1.3-3.399-0.7-3.8
		c0.5-0.3,1.6,0.8,2.5,2.5c0.8,1.6,1.3,3,0.9,3c-0.4,0-0.101,0.6,0.5,1.4c0.8,1,0.899,1.6,0.1,2.1
		C130.583,61.239,129.984,61.339,129.984,61.039z"/>
	<path fill="#CF8F32" d="M42.784,53.839c-0.4-0.4-0.3-1.2,0.1-1.801c0.4-0.6,0.7-1.399,0.8-1.8c0.101-0.5,0.301-1,0.4-1.3
		s0.4-0.9,0.5-1.5c0.1-0.5,0.4-1.2,0.5-1.5s0.3-0.9,0.4-1.5c0-0.5,0.399-1,0.899-1c0.7,0,0.8,0.4,0.601,1.5
		c-0.101,0.3-0.301,1-0.4,1.5c-0.1,0.6-0.4,1.2-0.5,1.5s-0.4,1-0.5,1.5c-0.1,0.6-0.4,1.2-0.5,1.5s-0.3,0.9-0.4,1.4
		C44.484,53.739,43.484,54.539,42.784,53.839z"/>
	<path fill="#CF8F32" d="M121.683,48.639c-0.399-0.4-1.199-0.7-1.699-0.7s-0.801-0.4-0.7-1c0.1-0.5,0.8-0.9,1.399-0.7
		c0.601,0.101,1.4-0.5,1.801-1.3c0.8-2.3,2.5-0.9,1.899,1.5C123.784,48.839,122.683,49.639,121.683,48.639z"/>
	<path fill="#CF8F32" d="M145.083,45.539c-0.6-1.199-0.6-2.199-0.1-2.6c0.6-0.3,1.5,0.3,2.1,1.4c0.6,1.199,0.6,2.199,0.1,2.6
		C146.583,47.239,145.683,46.639,145.083,45.539z"/>
	<path fill="#CF8F32" d="M114.083,44.539c-0.6-1.199-0.6-2.199-0.1-2.6c0.6-0.3,1.5,0.3,2.1,1.4c0.6,1.199,0.6,2.199,0.1,2.6
		C115.583,46.239,114.683,45.639,114.083,44.539z"/>
	<path fill="#CF8F32" d="M120.784,42.839c-0.4-0.4-0.3-1.2,0.1-1.801c0.4-0.6,0.7-1.5,0.7-2.1c0-0.5,1-0.9,2.3-0.9
		c1.2,0,2.2,0.4,2.2,0.9s-0.8,1-1.8,1c-0.9,0-1.7,0.5-1.7,1.2C122.583,42.639,121.583,43.639,120.784,42.839z"/>
	<path fill="#CF8F32" d="M90.683,40.639c-0.3-0.601,0.101-1.5,0.801-2.101c0.8-0.699,1.699-0.8,2-0.3
		c0.3,0.601-0.101,1.5-0.801,2.101C91.883,41.039,90.984,41.139,90.683,40.639z"/>
	<path fill="#CF8F32" d="M109.183,36.039c-0.699-0.8-0.8-1.699-0.3-2c0.601-0.3,1.5,0.101,2.101,0.801c0.699,0.8,0.8,1.699,0.3,2
		C110.683,37.139,109.784,36.739,109.183,36.039z"/>
	<path fill="#CF8F32" d="M125.484,34.039c-0.4-1-0.2-2.199,0.399-2.8c0.8-0.8,1.3-0.7,1.8,0.601c0.4,1,0.2,2.199-0.399,2.8
		C126.484,35.439,125.984,35.339,125.484,34.039z"/>
	<path fill="#517797" d="M94.484,180.339c-0.601-1.101-0.801-2.2-1.301-6.7c0-0.7-0.5-1.101-1-0.7c-0.6,0.3-1.5-0.3-2.1-1.4
		c-0.7-1.3-0.7-2.199,0-2.6c0.6-0.3,1.3,0.1,1.6,1c0.5,1.2,1,1.3,2,0.4c1.7-1.4,2.9,1.1,2.101,4.3c-0.3,1.2-0.2,2.899,0.399,3.899
		C97.183,180.539,95.683,182.239,94.484,180.339z"/>
	<path fill="#517797" d="M101.583,172.439c-0.4-0.6-0.3-1.6,0.3-2.2c0.601-0.6,1.2-0.6,1.7,0.2c0.4,0.6,0.3,1.6-0.3,2.2
		C102.683,173.239,102.083,173.239,101.583,172.439z"/>
	<path fill="#517797" d="M103.583,167.439c-0.4-0.6-0.3-1.6,0.3-2.2c0.601-0.6,1.2-0.6,1.7,0.2c0.4,0.6,0.3,1.6-0.3,2.2
		C104.683,168.239,104.083,168.239,103.583,167.439z"/>
	<path fill="#517797" d="M91.484,165.139c-0.7-2-0.2-4.7,1.1-5c1.4-0.3,1.9,4.3,0.6,5.6
		C92.484,166.439,91.984,166.339,91.484,165.139z"/>
	<path fill="#517797" d="M98.683,164.539c-0.899-1.5,2.301-3.6,3.5-2.399c0.801,0.8,0.5,1.399-0.899,2.2
		C100.083,164.939,98.984,165.039,98.683,164.539z"/>
	<path fill="#517797" d="M86.083,162.539c-0.6-1.199-0.6-2.199-0.1-2.6c0.6-0.3,1.5,0.3,2.1,1.4c0.6,1.199,0.6,2.199,0.1,2.6
		C87.583,164.239,86.683,163.639,86.083,162.539z"/>
	<path fill="#517797" d="M109.784,162.739c-0.4-0.6,0-1.8,0.7-2.8c0.8-1.1,1.6-1.4,1.899-0.8c0.4,0.6,0,1.8-0.7,2.8
		C110.883,163.039,110.083,163.339,109.784,162.739z"/>
	<path fill="#517797" d="M103.683,159.639c-0.3-0.5,0.301-1.7,1.4-2.7c1.6-1.4,2.2-1.5,3.5-0.5c1.6,1.3,1.1,3.5-0.6,2.4
		c-0.5-0.301-1.601-0.101-2.4,0.6C104.883,160.039,103.984,160.139,103.683,159.639z"/>
	<path fill="#517797" d="M83.183,153.039c-1.8-1.899-2.899-3.6-2.3-4c0.5-0.3,2,0.601,3.3,2c1.2,1.301,2.801,2.301,3.5,2
		c1.801-0.699,2.5,0.5,1.301,2.101C87.383,157.039,86.883,156.839,83.183,153.039z"/>
	<path fill="#517797" d="M101.284,152.439c-1.7-2.1-2.8-4.1-2.4-4.4c1.4-0.8,7.7,6.301,6.601,7.301
		C104.984,155.939,103.383,154.839,101.284,152.439z"/>
	<path fill="#517797" d="M77.583,143.539c-0.9-1.8-1.1-3.199-0.5-3.6c0.5-0.3,1.6,0.8,2.5,2.4c0.9,1.8,1.1,3.199,0.5,3.6
		C79.583,146.239,78.484,145.139,77.583,143.539z"/>
	<path fill="#517797" d="M87.683,138.539c-4.3-4.3-7.399-8.1-6.899-8.399s4.399,2.899,8.7,7.2c4.3,4.3,7.399,8.1,6.899,8.399
		S91.984,142.839,87.683,138.539z"/>
	<path fill="#517797" d="M117.784,144.839c-0.9-1,3.2-8.601,4.3-7.9c0.6,0.4,0.1,2.3-1,4.6
		C118.883,145.639,118.784,145.839,117.784,144.839z"/>
	<path fill="#D6722B" d="M41.284,171.239c-0.7-0.7-1.2-0.8-1.2-0.399c0,0.5-0.7,0.3-1.5-0.4s-1.5-1-1.5-0.6c0,0.399-1.4-0.101-3-0.9
		c-1.7-0.9-2.8-2-2.5-2.5c0.4-0.6,1.9-0.3,3.8,0.7c1.8,0.899,3.5,1.8,4,1.899c0.4,0.101,0.9,0.301,1.2,0.4s1,0.3,1.5,0.4
		c0.6,0,1,0.5,1.1,0.899C43.284,172.239,42.484,172.439,41.284,171.239z"/>
	<path fill="#D6722B" d="M155.583,170.439c-0.3-0.5-0.4-1.1-0.1-1.1c0.3-0.101,0.899-0.2,1.399-0.301c0.4-0.1,2.601-1.199,4.9-2.399
		c2.399-1.3,4.399-1.8,4.8-1.2c0.3,0.5-1.2,1.8-3.5,3c-2.2,1.1-4,1.8-4,1.4c0-0.4-0.6-0.101-1.4,0.5
		C156.683,171.139,156.083,171.239,155.583,170.439z"/>
	<path fill="#D6722B" d="M178.683,150.539c-0.399-0.5-0.199-1.199,0.4-1.6s0.8-1,0.5-1.5s-0.1-1.1,0.4-1.4
		c0.5-0.399,1.199-0.199,1.5,0.301c0.399,0.5,0.199,1.199-0.4,1.6s-0.8,1-0.5,1.5s0.1,1.1-0.4,1.4
		C179.683,151.239,178.984,151.039,178.683,150.539z"/>
	<path fill="#D6722B" d="M16.683,121.539c-0.399-0.5-0.199-1.199,0.4-1.6s0.8-1,0.5-1.5s-0.1-1.1,0.4-1.4
		c0.5-0.399,1.199-0.199,1.5,0.301c0.399,0.5,0.199,1.199-0.4,1.6s-0.8,1-0.5,1.5s0.1,1.1-0.4,1.4
		C17.683,122.239,16.984,122.039,16.683,121.539z"/>
	<path fill="#D6722B" d="M177.984,119.039c-0.101-0.3-0.2-0.899-0.301-1.3c-0.1-0.5-0.5-1.3-0.899-2c-0.4-0.6-0.3-1.399,0.3-1.8
		c0.5-0.3,1.1-0.4,1.1-0.1c0.101,0.3,0.2,0.899,0.301,1.399c0.1,0.4,0.5,1.2,0.899,1.9c0.4,0.6,0.3,1.399-0.3,1.8
		C178.583,119.239,177.984,119.339,177.984,119.039z"/>
	<path fill="#D6722B" d="M171.683,107.539c-1-1.1-1.3-2.199-0.8-2.5c0.5-0.3,1.7,0.301,2.601,1.301c1,1.1,1.3,2.199,0.8,2.5
		C173.784,109.139,172.583,108.539,171.683,107.539z"/>
	<path fill="#AA673A" d="M89.784,129.339c-0.9-0.601-1.5-1.4-1.2-1.9c0.7-1.1,5.4,0.2,5.5,1.5
		C94.183,130.339,91.883,130.639,89.784,129.339z"/>
	<path fill="#AA673A" d="M100.583,129.439c-0.6-1,0.1-1.4,4.2-2.3c3-0.7,3.899,0.899,1.399,2.2
		C103.683,130.739,101.383,130.739,100.583,129.439z"/>
	<path fill="#AA673A" d="M90.583,117.539c-0.7-1.199,1.2-2.399,2.5-1.6c1.1,0.7,0.4,2.5-1,2.5
		C91.583,118.439,90.984,118.039,90.583,117.539z"/>
	<path fill="#AA673A" d="M102.583,117.539c-0.7-1.199,1.2-2.399,2.5-1.6c1.1,0.7,0.4,2.5-1,2.5
		C103.583,118.439,102.984,118.039,102.583,117.539z"/>
	<path fill="#AA673A" d="M107.683,116.539c-0.399-0.5,1.4-2.1,3.9-3.399c4.1-2.3,7.2-2.3,4.2,0.1
		C113.083,115.339,108.183,117.339,107.683,116.539z"/>
	<path fill="#AA673A" d="M117.683,110.639c-0.3-0.5,0.5-1.9,1.801-3.101c1.3-1.3,2.6-1.8,3-1.3c0.3,0.5-0.5,1.9-1.801,3.101
		C119.383,110.639,118.083,111.139,117.683,110.639z"/>
	<path fill="#AA673A" d="M103.683,105.639c-0.3-0.601,0.101-1.5,0.801-2.101c0.8-0.699,1.699-0.8,2-0.3
		c0.3,0.601-0.101,1.5-0.801,2.101C104.883,106.039,103.984,106.139,103.683,105.639z"/>
	<path fill="#AA673A" d="M99.583,103.539c-0.3-0.6,0.3-1.5,1.4-2.1c1.199-0.6,2.199-0.6,2.6-0.1c0.3,0.6-0.3,1.5-1.4,2.1
		C100.984,104.039,99.984,104.039,99.583,103.539z"/>
	<path fill="#AD7850" d="M112.683,102.239c-2.199-3.1-2-6.399,0.4-8.8c4-4,11-1.1,11,4.8l0.1,2.7l1.5-2.8c2-3.7,3.801-2.5,1.9,1.3
		c-0.9,1.7-2.1,2.7-2.8,2.4c-0.8-0.301-2,0.199-2.7,1.1C120.183,105.239,114.484,104.839,112.683,102.239z"/>
	<path fill="#AA673A" d="M131.583,80.439c-0.3-0.5-0.2-1,0.2-1.2c1.3-0.7,3.3-0.3,3.6,0.601
		C135.683,81.039,132.284,81.539,131.583,80.439z"/>
	<path fill="#AA673A" d="M83.484,72.039c-0.4-1-0.2-2.199,0.399-2.8c0.8-0.8,1.3-0.7,1.8,0.601c0.4,1,0.2,2.199-0.399,2.8
		C84.484,73.439,83.984,73.339,83.484,72.039z"/>
	<path fill="#AA673A" d="M87.583,67.039c-1.1-0.8-1.4-1.6-0.8-1.899c0.6-0.4,1.8,0,2.8,0.7c1.1,0.8,1.4,1.6,0.8,1.899
		C89.784,68.139,88.583,67.739,87.583,67.039z"/>
	<path fill="#AA673A" d="M99.683,63.639c-0.3-0.601,0.101-1.5,0.801-2.101c0.8-0.699,1.699-0.8,2-0.3
		c0.3,0.601-0.101,1.5-0.801,2.101C100.883,64.039,99.984,64.139,99.683,63.639z"/>
	<path fill="#AA673A" d="M86.784,58.739c-0.4-0.3-0.2-1.2,0.399-2c0.601-0.7,0.801-1.3,0.5-1.3c-0.399,0-0.199-0.9,0.4-2
		s1.5-1.8,2.1-1.5c0.5,0.4,0.4,1.5-0.3,2.8c-0.7,1.2-1.2,2.5-1.3,2.9C88.583,58.739,87.484,59.439,86.784,58.739z"/>
	<path fill="#AA673A" d="M106.583,45.639c-0.3-0.3,0-1.101,0.6-1.8c0.801-1,1.601-1.101,3.101-0.301c1.1,0.601,1.7,1.301,1.399,1.7
		C110.883,45.939,107.284,46.239,106.583,45.639z"/>
	<path fill="#AA673A" d="M101.583,43.439c-0.8-1.3,2-2.4,4.1-1.6c2,0.8,0.9,2.6-1.6,2.6
		C103.083,44.439,101.883,43.939,101.583,43.439z"/>
	<path fill="#AA673A" d="M57.683,24.639c-0.3-0.5,0.301-1.7,1.301-2.601c1.1-1,2.199-1.3,2.5-0.8c0.3,0.5-0.301,1.7-1.301,2.601
		C59.083,24.839,57.984,25.139,57.683,24.639z"/>
	<path fill="#538FCB" d="M95.883,182.739c-1.7-3.8-2.1-6.399-1.899-12.3c0.3-8.1,0.6-9.4,2.399-8.3c0.7,0.5,3,0.8,5.2,0.8
		c2.9,0,4,0.4,4,1.5c0,0.8-0.6,1.4-1.4,1.2c-1.1-0.2-1.199,0.899-0.699,5.8c0.6,4.8,0.3,6.8-1.2,10.4
		C99.484,188.139,98.383,188.339,95.883,182.739z"/>
	<path fill="#538FCB" d="M107.784,166.739c-0.4-0.6,0-1.8,0.7-2.8c0.8-1.1,1.6-1.4,1.899-0.8c0.4,0.6,0,1.8-0.7,2.8
		C108.883,167.039,108.083,167.339,107.784,166.739z"/>
	<path fill="#538FCB" d="M94.083,157.939l-3.4-3.5l3.7-3.7l3.7-3.7l3.5,3.4c1.9,1.9,3.5,3.9,3.5,4.5c0,1.4-5.2,6.5-6.6,6.5
		C97.883,161.439,95.984,159.839,94.083,157.939z"/>
	<path fill="#538FCB" d="M104.183,151.039c-2.899-3-4.899-5.6-4.399-5.899s3.3,1.8,6.2,4.7c2.899,3,4.899,5.6,4.399,5.899
		S107.083,153.939,104.183,151.039z"/>
	<path fill="#538FCB" d="M80.083,148.539c-0.6-1.199-0.6-2.199-0.1-2.6c0.6-0.3,1.5,0.3,2.1,1.4c0.6,1.199,0.6,2.199,0.1,2.6
		C81.583,150.239,80.683,149.639,80.083,148.539z"/>
	<path fill="#538FCB" d="M115.784,148.739c-0.4-0.6,0-1.8,0.7-2.8c0.8-1.1,1.6-1.4,1.899-0.8c0.4,0.6,0,1.8-0.7,2.8
		C116.883,149.039,116.083,149.339,115.784,148.739z"/>
	<path fill="#538FCB" d="M117.683,134.539c-2.1-2.1-3.399-4.1-2.899-4.399c0.6-0.4,2.7,1.1,4.7,3.2c2.1,2.1,3.399,4.1,2.899,4.399
		C121.784,138.139,119.683,136.639,117.683,134.539z"/>
	<path fill="#53C1E9" d="M104.683,172.339c-0.199-0.801-0.699-3.9-1-7c-0.5-4.7-0.3-5.9,1.301-7.301c1-0.899,2.5-1.399,3.5-1
		c0.899,0.301,2.199,0.101,3-0.5c2.699-2.199,2.3,0.2-1.101,7.7C106.383,172.939,105.383,174.439,104.683,172.339z"/>
	<path fill="#53C1E9" d="M87.984,165.839l-3-6.801l2.3-1.699c2.1-1.601,2.399-1.601,4-0.2c1.399,1.2,1.8,3.2,1.8,7.899
		c0,3.5-0.5,6.601-1,6.9C91.484,172.339,89.683,169.539,87.984,165.839z"/>
	<path fill="#53C1E9" d="M83.484,152.139c-1.601-1.8-4.2-6.101-5.801-9.5l-3-6.3l3.2-3.2l3.2-3.2l8,8l8,7.9l-4.7,4.8
		c-2.6,2.6-5,4.8-5.399,4.8C86.583,155.439,84.984,153.939,83.484,152.139z"/>
	<path fill="#53C1E9" d="M104.583,150.439l-5-5l7.8-7.8l7.7-7.7l3.7,3.7l3.7,3.7l-2.5,5.3c-2.2,4.899-8.301,12.8-9.801,12.8
		C109.784,155.439,107.284,153.139,104.583,150.439z"/>
	<path fill="#AA653F" d="M92.784,123.339c-6.601-1-8.101-2.4-6.101-5.4c1.301-2.1,1.9-2.2,5.7-1.3c12,2.8,25.601-3.5,32.4-15
		c2.899-5,4.6-4.7,3.1,0.6c-1.6,5.9-3.399,8.601-8.8,13.5C111.883,122.139,102.583,124.839,92.784,123.339z"/>
	<path fill="#AA653F" d="M84.484,59.039c-1.101-2.8,5.199-14,10.6-18.899c5.8-5.2,9.3-6.4,12.4-4.4c2.8,1.9,9,13.3,7.6,14.2
		c-0.5,0.3-1.5-0.5-2.1-1.8c-2.301-5-9.801-6.101-16.4-2.4c-2.8,1.601-4.7,3.8-6.6,7.5C86.583,60.039,85.383,61.339,84.484,59.039z"
		/>
	<path fill="#281610" d="M35.284,168.939c-2.9-1.3-7.7-4.7-10.601-7.5c-9.3-8.8-12.1-19.3-9.199-33.8c2.1-10.2,4.5-15.9,8.399-19.5
		c2.9-2.8,10-5.9,11.4-5.101c0.399,0.301-0.4,2.101-1.7,4c-5.7,8.4-8.2,21.801-5.4,29.101c2.2,5.8,7.7,9.899,15.2,11.2l4.2,0.699
		l-0.3,4.9c-0.2,2.8-0.9,7.9-1.5,11.5C44.383,172.239,43.183,172.739,35.284,168.939z"/>
	<path fill="#281610" d="M152.583,170.239c-0.2-0.7-0.8-5.5-1.5-10.7c-1.2-10.1-0.6-12.1,3.3-12.1c4.4,0,10.7-4.1,13.3-8.6
		c2.4-4.101,2.601-5.2,2.2-12.5c-0.399-6.7-1.1-9.101-4.5-15.9c-2.1-4.4-3.8-8.2-3.5-8.4c0.9-1,8,1.9,10.5,4.2
		c5.101,4.7,7.8,11.601,9.601,24.2c2.399,17-4.601,30.2-19.9,37.8C155.183,171.739,153.183,172.139,152.583,170.239z"/>
	<path fill="#281610" d="M149.984,148.039c-0.101-0.3-0.2-0.899-0.301-1.3c-0.1-0.5-0.5-1.3-0.899-2c-0.4-0.6-0.3-1.399,0.3-1.8
		c0.5-0.3,1.1-0.4,1.1-0.1c0.101,0.3,0.2,0.899,0.301,1.399c0.1,0.4,0.5,1.2,0.899,1.9c0.4,0.6,0.3,1.399-0.3,1.8
		C150.583,148.239,149.984,148.339,149.984,148.039z"/>
	<path fill="#281610" d="M136.583,138.439c-0.4-0.6-1-0.8-1.5-0.5s-1.1,0.1-1.4-0.4c-0.399-0.5-0.199-1.199,0.301-1.5
		c0.5-0.399,1.199-0.199,1.6,0.4s1,0.8,1.5,0.5s1.1-0.1,1.4,0.4c0.399,0.5,0.199,1.199-0.301,1.5
		C137.683,139.239,136.984,139.039,136.583,138.439z"/>
	<path fill="#281610" d="M71.583,134.539c-0.7-1.199,1.2-2.399,2.5-1.6c1.1,0.7,0.4,2.5-1,2.5
		C72.583,135.439,71.984,135.039,71.583,134.539z"/>
	<path fill="#281610" d="M118.083,130.939c-3.8-3.9-2.7-5.6,1.2-1.8c1.6,1.5,3.6,2.8,4.3,2.8c2.2,0,1.8,2-0.4,2.1
		C122.083,134.139,119.784,132.739,118.083,130.939z"/>
	<path fill="#281610" d="M83.183,130.039c-1.3-1.3-1.8-2.6-1.3-3c0.5-0.3,1.9,0.5,3.101,1.801c1.3,1.3,1.8,2.6,1.3,3
		C85.784,132.139,84.383,131.339,83.183,130.039z"/>
	<path fill="#281610" d="M78.683,124.539c-0.699-1.1-0.6-1.199,1.301-1.5c0.5,0,1.3-0.399,1.6-0.8c1-1,4.7,1.101,4,2.3
		c-0.4,0.601-1.3,0.601-2.4-0.1c-1.199-0.6-2.199-0.5-2.8,0.1C79.583,125.339,79.083,125.239,78.683,124.539z"/>
	<path fill="#281610" d="M62.284,119.939c-15.7-7.3-23.2-20.5-23.2-40.5c0-8.6,1-17,2.6-21.9c0.7-2.1,3.4,0.601,3.4,3.4
		c0,4.9,6,25.8,9.2,31.7c3.6,6.899,7,9.5,11,8.5c3.8-1,6-7.601,9.6-29.2c3.7-21.2,5.101-26.4,9.2-32.8c3.8-6,10.2-9.3,15.9-8.101
		c2,0.4,4.1,0.801,4.6,0.9c0.6,0.1,1.3,0.3,1.8,0.5c0.4,0.1,1.2,0.3,1.7,0.4c0.6,0,1,0.399,1,0.899c0,0.4,0,1,0,1.3
		c0,0.4-0.6,0.2-1.2-0.3c-2.5-1.899-9,0-13.899,3.9c-3.301,2.7-7.9,10.2-10.101,16.6c-2,5.9-2.3,8.601-2.3,22.7
		c0,14.7,0.2,16.8,2.9,25.8c2.3,8,2.6,10.3,1.8,12.3C83.284,122.539,71.984,124.439,62.284,119.939z"/>
	<path fill="#281610" d="M51.183,117.039c-0.699-0.8-0.8-1.699-0.3-2c0.601-0.3,1.5,0.101,2.101,0.801c0.699,0.8,0.8,1.699,0.3,2
		C52.683,118.139,51.784,117.739,51.183,117.039z"/>
	<path fill="#281610" d="M46.183,112.039c-0.699-0.8-0.8-1.699-0.3-2c0.601-0.3,1.5,0.101,2.101,0.801c0.699,0.8,0.8,1.699,0.3,2
		C47.683,113.139,46.784,112.739,46.183,112.039z"/>
	<path fill="#281610" d="M125.784,111.839c-0.9-1,2.2-6.601,3.3-5.9c0.6,0.4,0.4,1.8-0.5,3.6
		C126.883,112.639,126.784,112.739,125.784,111.839z"/>
	<path fill="#281610" d="M37.484,103.239c-0.601-0.899-0.4-1,2.6-1.1c1.1-0.101,1.9,0.3,1.8,0.8
		C41.484,104.139,38.183,104.339,37.484,103.239z"/>
	<path fill="#281610" d="M152.484,92.039c-0.4-1-0.2-2.199,0.399-2.8c0.8-0.8,1.3-0.7,1.8,0.601c0.4,1,0.2,2.199-0.399,2.8
		C153.484,93.439,152.984,93.339,152.484,92.039z"/>
	<path fill="#281610" d="M136.984,79.739c-0.101-0.399-0.101-1-0.101-1.3s-0.899-0.6-2.1-0.5c-2.9,0-3.8-1.9-1.101-2.3
		c2.301-0.3,6.101,3.2,4.5,4.3C137.583,80.239,136.984,80.239,136.984,79.739z"/>
	<path fill="#281610" d="M151.583,74.439c-0.4-0.6-0.3-1.6,0.3-2.2c0.601-0.6,1.2-0.6,1.7,0.2c0.4,0.6,0.3,1.6-0.3,2.2
		C152.683,75.239,152.083,75.239,151.583,74.439z"/>
	<path fill="#281610" d="M89.784,64.839c-3.8-2-2.4-3.801,1.399-1.9c1.601,0.9,2.7,2,2.4,2.5
		C92.883,66.639,93.183,66.739,89.784,64.839z"/>
	<path fill="#281610" d="M120.183,64.539c-1.399-1.1-1.899-2.1-1.3-2.5c0.5-0.3,2,0.2,3.3,1.2
		C125.083,65.639,123.284,66.839,120.183,64.539z"/>
	<path fill="#281610" d="M103.583,64.539c-0.3-0.6,0.3-1.5,1.4-2.1c1.199-0.6,2.199-0.6,2.6-0.1c0.3,0.6-0.3,1.5-1.4,2.1
		C104.984,65.039,103.984,65.039,103.583,64.539z"/>
	<path fill="#281610" d="M110.583,62.439c-0.8-1.3,2-2.4,4.1-1.6c2,0.8,0.9,2.6-1.6,2.6
		C112.083,63.439,110.883,62.939,110.583,62.439z"/>
	<path fill="#281610" d="M148.984,56.039c-0.4-1.6-0.7-2.6-0.9-3.1c-0.1-0.3-0.3-0.8-0.4-1.2c-0.1-0.5-0.699-1.8-1.399-3
		c-0.7-1.3-0.8-2.399-0.3-2.8c0.6-0.3,1.5,0.4,2.1,1.5s0.8,2,0.4,2c-0.301,0-0.101,0.7,0.6,1.5s0.9,1.5,0.5,1.5s-0.2,0.6,0.4,1.4
		c0.8,1,0.899,1.6,0.1,2.1C149.583,56.239,148.984,56.339,148.984,56.039z"/>
	<path fill="#281610" d="M123.683,43.539c-0.399-0.5-0.199-1.199,0.4-1.6s0.8-1,0.5-1.5s-0.1-1.1,0.4-1.4
		c0.5-0.399,1.199-0.199,1.5,0.301c0.399,0.5,0.199,1.199-0.4,1.6s-0.8,1-0.5,1.5s0.1,1.1-0.4,1.4
		C124.683,44.239,123.984,44.039,123.683,43.539z"/>
	<path fill="#281610" d="M125.583,36.439c-0.4-0.6-0.3-1.6,0.3-2.2c0.601-0.6,1.2-0.6,1.7,0.2c0.4,0.6,0.3,1.6-0.3,2.2
		C126.683,37.239,126.083,37.239,125.583,36.439z"/>
	<path fill="#301B15" d="M149.984,147.739c-0.5-1.3-0.9-2.8-0.9-3.3c0-1.8-4.7-4-12.4-6c-4.3-1.2-8.899-2.8-10.1-3.6
		c-1.3-0.9-2.8-1.301-3.3-1c-0.5,0.3-2.2-0.801-3.7-2.4c-3.4-3.5-4.6-3.7-7-1c-2.4,2.6-3.5,1.7-3.5-3c0-3.7,0.2-4,5.8-6.8
		c6.7-3.4,11.7-9.3,13.3-15.8c1.301-5.2,2.101-5.9,4.801-4.2c1.399,0.899,2.8,0.899,4.8,0.2c3.7-1.2,4.399-6.5,1.399-9.801
		c-1.399-1.399-2.1-3.8-2.3-7.6c-0.3-4.8-0.6-5.5-2.8-6c-2.4-0.6-2.5-1.1-3.2-9.2c-0.6-8.899-2.3-13.399-6.5-17.899l-2.399-2.601
		l2-6.1c1.199-3.4,2.1-7.2,2.1-8.601c0-1.399,0.5-2.8,1-3.1c2-1.2,9.9,3.6,14.8,9c3.9,4.3,5.4,7,7.601,13.7
		c2.8,8.8,4.6,21,4.699,31.8c0.101,11.7,0.9,14.2,5.4,16.5c3.3,1.7,4.7,3.4,7.9,9.8c3.3,6.601,4,9,4.399,15.7
		c0.4,7.2,0.2,8.3-2.2,12.5c-3.1,5.3-8.3,9-14.399,10.4C151.183,150.239,150.883,150.139,149.984,147.739z"/>
	<path fill="#301B15" d="M37.583,147.539c-5.3-2.399-11.2-9.1-12.1-13.6c-1.301-7,0-14.8,3.8-22.8c3-6.2,4.2-7.8,6.5-8.3
		c1.5-0.4,3.3-1.101,4-1.601c0.7-0.6,2.2,1,4.7,5.101c4.199,6.8,7.699,10,15,13.899c4.5,2.4,6.3,2.7,15.199,2.8
		c5.5,0,10.601,0.4,11.2,0.801c1.4,0.8,1.601,6.199,0.3,7c-0.5,0.3-1.399-0.101-2.1-0.9c-1.8-2.2-3.3-1.9-6.3,1.3
		c-1.9,2-5.7,3.7-13.4,6.101c-13.8,4.3-13.5,4.1-15.6,8.399C46.583,150.039,43.984,150.439,37.583,147.539z"/>
	<path fill="#301B15" d="M58.083,100.839c-5.8-5-11.7-20.101-15-39.101c-1-5.7-0.8-6.8,1.6-14.399c7-21.101,22.601-35.4,41.7-38.2
		c6.601-0.9,8-0.8,16.5,1.6c9.601,2.8,15,5.601,19.2,10.2c2.2,2.3,2.5,3.5,2.4,9.3c-0.101,6.9-3.7,18.101-6.101,18.9
		c-0.7,0.3-2.6-2.4-4.3-5.9s-3.7-6.899-4.4-7.6c-0.6-0.7-3.899-1.7-7.3-2.3c-5.3-0.9-6.7-0.801-10.5,0.8
		c-7.6,3.399-10.6,11.2-15.3,39.8c-1.5,8.7-3.6,18.3-4.7,21.2C68.784,103.639,63.883,105.639,58.083,100.839z"/>
	<path d="M39.284,233.139c-0.9-1.101,1.399-30,4.3-53.8l0.5-4.601l-6.7-2.6c-15.8-6.2-25.3-19.2-25.3-34.3
		c0-6.5,2.4-18.301,4.9-23.9c2.899-6.5,8.399-11.2,14.699-12.6c7.101-1.601,7.801-2.601,6.301-8.101c-2-6.7-1.5-23.899,1-33.899
		c6.699-28.101,19.6-45.4,38.5-51.9c15.399-5.2,38.5,0.6,46.5,11.8c1.1,1.7,2.1,3.5,2.1,4.101c0,0.6,2.4,2.199,5.3,3.5
		c10.5,4.6,18.7,16.3,22.101,31.399c0.899,4,2.1,14,2.6,22.101c1,16.1,1.4,17.8,3.8,18.5c1,0.199,3.8,0.899,6.4,1.6
		c9.2,2.4,15.399,12.2,17.899,28.7c2.801,18.7-4.8,33.399-21.6,41.399c-3.3,1.601-6.6,2.9-7.2,2.9c-1.6,0-1.8-3.5,2.101,30
		c2.399,19.7,3.1,28.9,2.399,29.8C158.383,235.039,40.784,235.039,39.284,233.139z M56.784,213.739c-0.4-9.3-0.9-26.899-1.2-39.3
		c-0.6-24.8-1.1-31-2.6-31c-0.5,0-1.4,1-1.9,2.3c-0.8,1.8-9,77.7-9,83.2c0,1.2,1.4,1.5,7.6,1.5h7.7L56.784,213.739z M97.284,213.939
		l0.3-16.5l-11.9-11.8c-11.1-10.9-11.8-11.5-11.199-8.3c0.3,1.8,0.6,6.6,0.6,10.699v7.301l3.6,1.699
		c6.801,3.301,9.301,10.801,5.4,17.101c-2.4,3.899-5.3,5.6-10,5.6c-11.1,0-16.1-14.2-7.5-21.3c1.4-1.1,1.5-3.2,0.9-16.4
		c-0.601-14.5-0.801-15.199-3.301-17.899l-2.6-2.8l2.8-2.101c3.2-2.399,3.5-4.8,0.601-7.399c-1.801-1.601-2-2.601-1.4-6.801l0.6-4.8
		l-2.8,0.7c-1.5,0.3-3,0.8-3.2,1c-0.1,0.2,0.2,11.6,0.801,25.4c0.6,13.8,1.1,31.5,1.1,39.399c0,7.9,0.3,16.5,0.6,19.101l0.7,4.6
		h17.8h17.801L97.284,213.939z M138.984,216.239c0-13.6-0.101-14.1-1.301-9.399c-1.6,5.6-6.899,11.699-8.699,9.899
		c-0.801-0.8-0.4-1.6,1.5-2.8c4.199-2.8,5-7.5,3.199-18.5c-1.899-11.6-3.699-14.5-9.199-14.5c-3.2,0-4.101,0.5-5.7,3.3
		c-1.101,1.8-2.101,5.9-2.4,9.5c-0.2,3.4-0.899,7.2-1.5,8.4c-1.5,3.1-0.1,9.1,2.7,11.8c2.8,2.5,2.3,4-0.7,2.4
		c-5-2.7-8-17.301-5.5-26.801l1.5-5.3l-6.7,6.601c-6.3,6.3-6.6,6.8-6.3,10.699c0.4,3.9,0.5,4,2.4,2.2c2.1-1.899,4.2-1.2,6.2,2.101
		c0.899,1.399,0.6,2.1-1.301,3.699c-2.199,1.801-2.6,1.801-4.699,0.4c-2.7-1.8-2.9-1.2-1.801,5.7c0.601,3.1,0.9,3.6,2.4,2.8
		c1.9-1,6,1.3,6,3.4c0,2.3-3.7,4.8-5.9,4.1c-1.8-0.5-2.1-0.2-2.1,1.9v2.6h19h19L138.984,216.239z M157.083,229.739
		c-0.2-4.399-10-84.5-10.5-85.2c-2.3-3.8-2.7,1.601-4,60.7l-0.6,25.2h7.5C153.683,230.439,157.083,230.139,157.083,229.739z
		 M79.683,214.039c5.9-5,2-14.6-5.899-14.6c-3.9,0.1-6.3,1.8-7.7,5.4c-1.3,3.6-0.3,7.199,2.7,9.6
		C72.183,217.139,76.383,216.939,79.683,214.039z M93.383,183.739c-1.899-4.3-5.2-11.399-7.2-15.8s-5.3-11.5-7.199-15.7
		c-1.801-4.3-3.7-7.8-4.101-7.8c-0.5,0-0.8,5.7-0.8,12.8v12.7l11.2,10.7c6.2,5.899,11.399,10.7,11.5,10.8
		C96.883,191.439,95.383,187.939,93.383,183.739z M121.984,157.839c-0.101-11.601-0.2-12.601-1.4-9.9c-0.7,1.7-5.4,11.9-10.4,22.9
		c-5,10.899-9.1,20.1-9.1,20.5c0,0.3,4.7-4.2,10.5-10l10.5-10.601L121.984,157.839z M139.984,151.839l0.1-10.101l-3.2-0.7
		c-1.7-0.3-3.2-0.5-3.399-0.399c-0.101,0.2,0.199,2.3,0.6,4.8c0.8,4,0.6,4.8-1.6,7.1c-3.2,3.301-3,5,0.8,7.2l3.1,1.8l-3.5,3.7
		c-4.6,4.8-5.6,8.601-2.7,10.601c2.7,1.899,6.601,7.6,7.601,11.199C138.583,190.039,139.683,172.239,139.984,151.839z
		 M102.484,172.939c-0.9-8.2-1.301-9.5-2.9-8.9c-0.8,0.4-2.2,0.101-3-0.6c-1.3-1.1-1.5-0.2-1.5,6.6c0,4.9,0.6,9.5,1.7,12.2l1.7,4.4
		l2.199-4.3C102.484,178.839,102.883,176.839,102.484,172.939z M44.284,165.339c0.399-2.4,1.2-8,1.8-12.4c0.9-7.3,1.3-8.3,4.5-11.2
		c1.9-1.8,4.3-3.3,5.2-3.3c4.399,0,19.5-5.9,22.399-8.6c2.601-2.4,3.2-2.7,4.9-1.601c1.8,1.101,2,1,2-1.2c0-3.399-1-3.699-6.6-2.699
		c-5.9,1.1-14.101-0.2-19.9-3.101c-5-2.6-14.7-12.399-16.4-16.6c-1-2.3-1.699-3-2.5-2.2c-0.699,0.5-3.5,1.4-6.399,2
		c-8.8,1.9-12.4,6.3-15.7,19c-5.3,20.4,0.7,35.9,16.9,43.6c3.899,1.9,7.5,3.301,8.1,3.101
		C43.083,169.939,43.883,167.839,44.284,165.339z M90.883,157.839c-1.1-1-1.6-1-3.1,0.1c-1.7,1.2-1.601,1.6,1,7l2.8,5.7l0.3-5.8
		C92.083,161.139,91.784,158.639,90.883,157.839z M109.083,164.739c1.4-3.1,2.6-5.899,2.8-6.2c0.3-0.8-5.1-0.699-6.3,0.101
		c-1.1,0.7-0.8,11.8,0.3,11.8C106.284,170.439,107.683,167.839,109.083,164.739z M163.984,165.939c14.3-7.2,20-22.4,15.699-41.6
		c-3.199-14-7.899-20-16.899-21.301c-7.7-1.199-8.8-3.3-9.8-18.8c-1.4-21.1-3.4-30.7-8.5-40.899c-2.601-5.2-10-12.2-14.4-13.801
		c-3-1-3-1-3,3c0,2.2-0.9,6.5-2,9.5l-1.9,5.601l2.9,2.899c3.4,3.4,5.6,10,6.5,19c0.6,5.4,1.1,6.7,2.8,7.5c1.8,0.7,2.3,1.9,2.5,6.301
		c0.2,3.8,0.9,5.899,2.2,7c3,2.6,3.4,6.3,1,9.399c-2.3,2.9-6.7,3.601-8.8,1.5c-0.8-0.8-1.4-0.399-2.2,1.8
		c-3.7,10.301-7.7,15.2-16,19.4c-3.6,1.8-4,2.4-4,5.7v3.6l2.3-2.1c3-2.8,3.8-2.8,7.101,0.7c1.8,1.899,3.399,2.699,4.699,2.399
		c1.101-0.3,2.7,0.2,3.7,1c0.9,0.9,5.3,2.5,9.7,3.7c11.7,3.1,12.9,4.7,14.4,19.1c0.699,6.301,1.399,12,1.6,12.601
		C154.083,170.639,156.083,169.939,163.984,165.939z M102.383,157.639l2.7-2.8l-3.5-3.4l-3.5-3.4l-3.2,3.2l-3.2,3.2l2.9,3
		C98.083,161.139,98.984,161.139,102.383,157.639z M91.883,150.139l4.2-4.3l-7.5-7.4l-7.5-7.5l-2.6,2.6l-2.601,2.601l3.2,6.899
		c2.8,6.301,6.4,11.4,8,11.4C87.383,154.439,89.583,152.539,91.883,150.139z M113.484,151.539c2.6-2.8,7.6-12.1,7.6-14.3
		c0-1.1-4.7-5.8-5.8-5.8c-1.2,0-14.2,13.4-14.2,14.6c0,1.2,7.7,8.4,9,8.4C110.383,154.439,111.984,153.139,113.484,151.539z
		 M106.683,130.939l0.601-5h-9.101h-9.1v4c0,3.4,0.7,4.6,4.7,8.7l4.7,4.8l3.8-3.8C105.383,136.639,106.284,134.939,106.683,130.939z
		 M111.883,119.539c13.4-6.899,16.601-14.6,16.7-40.1c0-13.5-0.3-17.3-1.8-21.1c-2.3-6.101-4.9-8.4-7.5-7c-2.4,1.3-3.9-0.2-7.2-6.9
		c-3-6.1-4.9-8-7.7-8c-5.899,0-11.7,5.5-16.399,15.5l-2.9,5.9l5.3,2.6c8.601,4.2,7.3,10.4-1.399,6.4c-3.5-1.5-4.2-1.601-5-0.301
		c-1.7,2.801-1,7,1.6,9.101c3.2,2.5,3.2,4.1-0.1,6.7c-2.601,2-2.601,2-1.4,9.3c0.7,4,2.1,9.7,3.1,12.7
		c2.301,6.5,2.4,10.899,0.4,13.8c-1.4,2-1.3,2.2,1.3,3.2C93.484,123.139,106.984,122.139,111.883,119.539z M80.583,119.939
		c5.5-2.2,6-5.2,3-15.4c-6.2-21.199-5.5-41.3,1.9-55.899c4.3-8.4,13.6-16.2,19.399-16.2c3.3,0,7.3,4.1,10.3,10.4l2.801,6l2.1-4.601
		c5.4-12.2,4.4-22-2.8-27.5c-8-6.1-24-9.6-34.101-7.399c-19,4.1-32.399,19.6-39.6,46.1c-3.5,12.6-4.4,28.1-2.2,36.7
		c1.7,6.6,5.4,14.399,8.4,17.8C57.883,119.139,71.784,123.639,80.583,119.939z M138.383,97.239c1.5-2.3,0.101-4.8-2.7-4.8
		c-3.3,0-4.6,3.8-2,5.7C135.784,99.639,137.083,99.439,138.383,97.239z M135.083,84.339c0-2.101-0.4-3.9-1-3.9c-0.5,0-1,2.1-1,4.6
		c0,2.7,0.4,4.301,1,3.9C134.683,88.639,135.083,86.539,135.083,84.339z"/>
	<path d="M69.583,211.939c-2.9-2.8-3.2-5.5-0.7-8.3c2.7-3.101,5.5-3.5,8.5-1.101c3.601,2.801,3.601,7,0.101,9.801
		C74.083,215.039,72.484,214.939,69.583,211.939z M76.583,207.439c0-1.8-0.6-2.6-2.3-2.8c-2.4-0.4-3.8,1.8-2.8,4.399
		c0.3,0.9,1.5,1.4,2.8,1.2C75.984,210.039,76.583,209.239,76.583,207.439z"/>
	<path d="M91.984,104.639c-1.5-1.3-2-2.5-1.5-3.7c0.6-1.7,0.699-1.7,2.699,0.1c2.7,2.4,8.5,2.4,10.301-0.1
		c1.199-1.6,1.699-1.7,2.699-0.8c1,1,0.801,1.8-1.1,3.8C102.183,107.039,95.484,107.439,91.984,104.639z"/>
	<path d="M93.583,93.339c-1.4-1.7-2.4-3.601-2.2-4.2c0.7-2.2,2.7-1.8,3.8,0.7c1.5,3.3,4.2,3.3,6.301,0.1c1.699-2.6,3.6-2.6,3.6,0.1
		c0,2.101-4.6,6.4-6.9,6.4C97.183,96.439,95.083,95.039,93.583,93.339z"/>
	<path d="M109.284,82.239c-3.4-3.399,0.6-9,4.8-6.8c3.5,1.9,2,8-2,8C111.183,83.439,109.984,82.939,109.284,82.239z"/>
	<path d="M100.083,66.939c-2.5-3,5.3-8.5,12.1-8.5c8,0,16.601,5.2,13.9,8.5c-1.6,1.9-3.9,1.9-6.4,0c-2.6-1.9-11.5-1.9-14,0
		S101.683,68.839,100.083,66.939z"/>
	<path fill="#AD7850" d="M93.183,138.039c-4.199-4.3-5.199-5.899-4.899-8.1l0.8-4h9.1h9.101l0.6,4.6c0.2,2.9-0.399,4.101-4.5,8.101
		l-4.899,4.8L93.183,138.039z"/>
	<path fill="#AD7850" d="M91.083,117.639c-1.9-0.601-2.6-1.7-3.1-4.7c-0.4-2.2-1.601-7.6-2.801-11.9c-2.5-9.399-2.699-16.8-0.6-18.6
		c1.9-1.6,1.9-5.6,0-6.4c-1.1-0.399-1.3-1.6-0.9-5.3c0.801-6.2,1.5-6.8,5.2-4.899c4.2,2.199,6.2,2,6.2-0.5c0-1.4-1.3-2.601-4.5-4
		l-4.5-2l1.5-3.5c3.5-8.4,9.5-13.4,16.1-13.4c4.4,0,9.7,2.8,11.4,6.1c0.9,1.601,1.8,2,4,1.601c3.1-0.7,5.4,1.3,8.6,7.3
		c1.601,3,1.9,5.8,1.9,20.5c0,15.9-0.2,17.3-2.3,21.3c-6,11.2-15.9,18.101-26.9,18.7C96.583,118.139,92.484,118.039,91.083,117.639z
		 M102.883,104.839c1.3-0.4,2.2-1.4,2.2-2.601c0-1.899-0.1-1.899-2.6,0.101c-1.5,1.199-3.4,2.1-4.4,2.1s-2.9-0.9-4.4-2.1
		c-2.1-1.601-2.6-1.7-2.6-0.5C91.083,104.839,97.083,106.339,102.883,104.839z M121.883,99.139c0.4-3.601-1.5-5.9-4.6-5.5
		c-3.2,0.399-4.7,2.8-3.8,6.2c0.6,2.399,1.1,2.699,4.399,2.399C121.083,101.939,121.583,101.539,121.883,99.139z M102.484,93.239
		c2.399-3.5,1.899-5.8-0.5-2.5c-1.101,1.5-2.9,2.7-4,2.7c-1,0-2.5-1.2-3.301-2.7l-1.5-2.8l-0.1,2.6c0,1.4,0.5,3,1.2,3.7
		C96.284,96.239,100.784,95.639,102.484,93.239z M113.484,81.839c0.899-0.301,1.6-1.7,1.6-3c0-2-0.5-2.4-3-2.4s-3,0.4-3,2.4
		c0,1.3,0.6,2.699,1.3,2.899c0.601,0.3,1.3,0.601,1.4,0.601C111.883,82.439,112.583,82.139,113.484,81.839z M111.284,63.839
		c2.2-0.301,4.7,0.199,7.3,1.5c5.1,2.699,6.7,2.699,6.3-0.101c-0.399-3.1-5.1-5.2-11.8-5.2c-8.8-0.1-14.9,3.5-11.9,7
		c0.9,1.101,1.601,1,4-0.699C106.784,65.239,109.484,64.139,111.284,63.839z"/>
	<path fill="#AD7850" d="M131.784,89.739c-1.2-1.1-0.8-8.8,0.5-10.1c1.899-1.9,3.8,0.5,3.8,4.7
		C136.083,88.839,133.784,91.739,131.784,89.739z"/>
	<path fill="#FFFFFF" d="M41.383,229.839c-0.5-1.301,5.5-65.5,7.4-79.301c0.6-4.6,4.7-10.1,6.3-8.5c1,1.101,3.5,86.801,2.6,88.301
		c-0.399,0.6-3.8,1.1-8.199,1.1C43.683,231.439,41.883,231.139,41.383,229.839z"/>
	<path fill="#FFFFFF" d="M59.784,230.739c-0.5-0.899-2.2-61.5-2.2-78.7v-10.899l2.8-1c3.9-1.3,4.7,0,3.7,5.3c-0.8,4-0.6,4.8,1.6,7.1
		c3.101,3.301,3,4-0.699,7.301l-3.101,2.8l2.9,2.899c2.7,2.9,2.8,3.601,3.899,17.2l1,14.2l-2.699,2.6
		c-9.2,8.9,0.899,24.101,12.5,18.801c2.899-1.4,5.6-6.4,5.6-10.601c0-4.3-3.4-9.1-7.2-10.1l-3.3-0.8l-0.8-9.9
		c-0.5-5.4-0.4-10.2,0-10.6c0.399-0.4,6.1,4.199,12.6,10.399l11.8,11.2l-0.3,16.5l-0.3,16.5l-18.7,0.3
		C68.583,231.339,59.984,231.139,59.784,230.739z"/>
	<path fill="#FFFFFF" d="M99.784,230.839c-1-1-0.9-7.2,0.2-7.801c0.5-0.3,1.399,0.101,2.1,0.9s1.8,1.5,2.6,1.5
		c1.601,0,3.301-3,2.7-4.7c-0.6-1.5-4.899-1.7-5.8-0.3c-1.7,2.7-2.5-1.1-2.4-11.2l0.101-11l6.2-5.8c3.3-3.2,6.399-5.5,6.8-5.2
		c0.3,0.4,0.2,3.101-0.4,6.101c-1,5.899-0.2,13.699,1.2,11.1c0.4-0.8,1.1-4.4,1.5-8c1.3-12.1,6.1-18.6,12.2-16.4
		c5.1,1.801,6.7,5.801,8.899,21.9c0.5,3.8,0.801,4.4,1.301,2.7c0.3-1.3,1.1-2.3,1.6-2.3c0.6,0.1,1,5.6,1,14.399v14.2l-19.6,0.3
		C109.284,231.339,100.183,231.139,99.784,230.839z M129.083,216.939c1.5-1.8-0.8-3.2-5-3.2c-1.9,0-4.1,0.4-4.8,1
		c-2.101,1.601,0.399,3.4,4.8,3.4C126.284,218.139,128.484,217.639,129.083,216.939z M107.583,208.439c1.1-1.7-0.5-5-2.4-5
		c-2.399,0-4.3,2.3-3.5,4.4C102.383,209.639,106.583,210.039,107.583,208.439z"/>
	<path fill="#FFFFFF" d="M141.484,230.039c-1-2.699,1.1-86.5,2.3-87.699c0.7-0.7,1.6-0.301,2.899,1.399c1.601,2,2.7,9.4,6.7,44
		c2.7,22.9,4.601,42.101,4.2,42.7C156.583,232.139,142.083,231.739,141.484,230.039z"/>
	<path fill="#FFFFFF" d="M67.883,214.539c-4.5-4-4.5-9.199,0-13.199s8.4-3.9,12.8,0.5c4.2,4.199,4.4,7.5,0.601,11.8
		C77.284,218.039,72.183,218.439,67.883,214.539z M79.083,207.339c0-5.601-7.4-7.5-9.9-2.5c-1.899,4.1-0.199,7.399,4.101,7.8
		C77.183,213.039,79.083,211.239,79.083,207.339z"/>
	<path fill="#FFFFFF" d="M84.784,180.639l-11.8-11.8l0.3-13.4c0.2-8.3,0.7-13.5,1.3-13.4c0.6,0.101,4.7,8.2,9.2,18
		c12.899,28.301,14.2,31.301,13.399,31.801C96.784,192.139,91.183,187.039,84.784,180.639z"/>
	<path fill="#FFFFFF" d="M100.784,190.739c-0.601-1.1,19.899-45.8,21-45.8c0.399,0,0.899,5.8,1.1,12.9l0.3,13l-9.3,9.399
		C104.383,189.739,101.583,192.039,100.784,190.739z"/>
	<path fill="#FFFFFF" d="M137.583,189.839c-1.8-5.5-4.7-10.5-7.5-12.5c-4-3-3.8-5.101,1-10.301c4.4-4.699,4.4-4.399-1-8.5l-2.4-1.8
		l3.301-3c3.199-3,3.199-3.1,2.3-8.399c-0.601-3-0.8-5.7-0.601-6.101c0.301-0.399,2.101-0.1,4.2,0.601l3.7,1.3v24.1
		c0,17.601-0.3,24.4-1.2,25.3C138.383,191.539,137.984,191.339,137.583,189.839z"/>
	<path fill="#FFFFFF" d="M128.583,163.439c-1-1.7,1.2-3.7,2.5-2.4c0.8,0.801,0.6,1.5-0.4,2.301
		C129.683,164.239,129.083,164.239,128.583,163.439z"/>
	<path fill="#FFFFFF" d="M129.183,150.039c-1.399-1.699-1.1-11.6,0.4-11.699c1.4,0,3,11,1.8,12.199
		C130.784,151.139,129.984,151.039,129.183,150.039z"/>
	<path fill="#FFFFFF" d="M65.683,149.639c-0.899-1.4,0.801-9.8,1.9-9.2c0.6,0.3,0.9,2.3,0.8,4.4
		C68.183,148.839,66.784,151.339,65.683,149.639z"/>
	<path fill="#FFFFFF" d="M132.683,98.539c-2.199-2.399-1.8-4.899,0.9-6.699c1.8-1.2,2.4-1.101,4.3,0.199c2.7,1.9,2.9,6,0.3,7.4
		C135.484,100.839,134.683,100.739,132.683,98.539z"/>
	<path fill="#7A3318" d="M131.284,32.139c-3.7-2-5.101-3.2-4.4-3.9s2.5-0.2,5.601,1.601
		C140.683,34.639,139.583,36.739,131.284,32.139z"/>
	<path fill="#7A3318" d="M109.083,14.039c-3-1.199-6-2.399-6.5-2.699c-0.6-0.301-5-0.7-10-0.801c-7.2-0.1-10.4,0.301-15.8,2.2
		c-6.9,2.4-10.101,2-5-0.6c8.2-4.3,22-6,28-3.5c1.5,0.6,3.1,1.1,3.5,1c1.2-0.3,11.7,3.8,12.3,4.8
		C116.683,16.139,114.484,16.039,109.083,14.039z"/>
</g>
<g>
</g>
<g>
</g>
<g>
</g>
<g>
</g>
<g>
</g>
<g>
</g>
</svg>
