<?xml version="1.0" encoding="UTF-8" ?>
<!DOCTYPE svg PUBLIC "-//W3C//DTD SVG 1.1//EN" "http://www.w3.org/Graphics/SVG/1.1/DTD/svg11.dtd">
<svg width="50pt" height="50pt" viewBox="0 0 50 50" version="1.1" xmlns="http://www.w3.org/2000/svg">
<path fill="#3b579d" d=" M 0.00 0.00 L 50.00 0.00 L 50.00 50.00 L 33.00 50.00 C 33.00 43.67 33.00 37.33 33.00 31.00 C 35.63 31.03 38.27 30.97 40.90 31.00 C 41.28 28.67 41.66 26.33 42.04 24.00 C 39.02 24.03 36.01 23.96 32.99 24.00 C 33.22 21.33 32.33 18.21 33.87 15.85 C 36.22 14.32 39.35 15.20 42.02 15.00 C 41.99 12.74 41.96 10.49 41.97 8.23 C 37.50 7.87 32.28 7.44 28.87 10.97 C 25.38 14.36 25.99 19.57 26.00 24.00 C 23.67 23.99 21.33 24.00 19.00 24.00 C 19.01 26.33 19.01 28.67 19.00 31.00 C 21.33 31.00 23.67 31.01 26.00 31.00 C 26.00 37.34 26.00 43.67 26.00 50.00 L 0.00 50.00 L 0.00 0.00 Z" />
<path fill="#ffffff" d=" M 28.87 10.97 C 32.28 7.44 37.50 7.87 41.97 8.23 C 41.96 10.49 41.99 12.74 42.02 15.00 C 39.35 15.20 36.22 14.32 33.87 15.85 C 32.33 18.21 33.22 21.33 32.99 24.00 C 36.01 23.96 39.02 24.03 42.04 24.00 C 41.66 26.33 41.28 28.67 40.90 31.00 C 38.27 30.97 35.63 31.03 33.00 31.00 C 33.00 37.33 33.00 43.67 33.00 50.00 L 26.00 50.00 C 26.00 43.67 26.00 37.34 26.00 31.00 C 23.67 31.01 21.33 31.00 19.00 31.00 C 19.01 28.67 19.01 26.33 19.00 24.00 C 21.33 24.00 23.67 23.99 26.00 24.00 C 25.99 19.57 25.38 14.36 28.87 10.97 Z" />
</svg>
