<?xml version="1.0" encoding="utf-8"?>
<!-- Generator: Adobe Illustrator 16.0.0, SVG Export Plug-In . SVG Version: 6.00 Build 0)  -->
<!DOCTYPE svg PUBLIC "-//W3C//DTD SVG 1.1//EN" "http://www.w3.org/Graphics/SVG/1.1/DTD/svg11.dtd">
<svg version="1.1" id="Layer_1" xmlns="http://www.w3.org/2000/svg" xmlns:xlink="http://www.w3.org/1999/xlink" x="0px" y="0px"
	 width="153px" height="247.583px" viewBox="0 0 153 247.583" enable-background="new 0 0 153 247.583" xml:space="preserve">
<path fill="#B3CC98" d="M61.792,18.6c-0.3-0.6,0.3-1.5,1.4-2.1c1.2-0.6,2.2-0.6,2.6-0.1c0.3,0.6-0.3,1.5-1.4,2.1
	C63.191,19.1,62.191,19.1,61.792,18.6z"/>
<path fill="#557B8E" d="M136.692,232.1c-0.4-1-0.2-2.199,0.399-2.8c0.8-0.8,1.3-0.7,1.8,0.601c0.4,1,0.2,2.199-0.399,2.8
	C137.692,233.5,137.192,233.4,136.692,232.1z"/>
<path fill="#557B8E" d="M19.691,227.1c-0.4-1-0.2-2.199,0.4-2.8c0.8-0.8,1.3-0.7,1.8,0.601c0.4,1,0.2,2.199-0.4,2.8
	C20.691,228.5,20.191,228.4,19.691,227.1z"/>
<path fill="#557B8E" d="M36.792,226.3c-0.9-2.399-0.1-12.8,1-13.1c1.3-0.3,1.9,12.3,0.6,13.6
	C37.691,227.5,37.191,227.3,36.792,226.3z"/>
<path fill="#557B8E" d="M135.792,223.5c-0.4-0.6-0.3-1.6,0.3-2.2c0.601-0.6,1.2-0.6,1.7,0.2c0.4,0.6,0.3,1.6-0.3,2.2
	C136.891,224.3,136.292,224.3,135.792,223.5z"/>
<path fill="#557B8E" d="M118.792,221.3c-1-2.399-0.1-12.3,1-12.1c1.4,0.399,1.9,11.3,0.6,12.6
	C119.692,222.5,119.192,222.3,118.792,221.3z"/>
<path fill="#557B8E" d="M20.691,218.1c-0.4-1-0.2-2.199,0.4-2.8c0.8-0.8,1.3-0.7,1.8,0.601c0.4,1,0.2,2.199-0.4,2.8
	C21.691,219.5,21.191,219.4,20.691,218.1z"/>
<path fill="#557B8E" d="M134.792,214.5c-0.4-0.6-0.3-1.6,0.3-2.2c0.601-0.6,1.2-0.6,1.7,0.2c0.4,0.6,0.3,1.6-0.3,2.2
	C135.891,215.3,135.292,215.3,134.792,214.5z"/>
<path fill="#557B8E" d="M33.792,213.3c-1-2.399-0.1-12.3,1-12.1c1.4,0.399,1.9,11.3,0.6,12.6
	C34.691,214.5,34.191,214.3,33.792,213.3z"/>
<path fill="#557B8E" d="M68.691,212.1c-0.8-2.1,0.3-4.899,1.6-4.1c0.5,0.3,1,1.5,1,2.5C71.292,213,69.492,214.1,68.691,212.1z"/>
<path fill="#557B8E" d="M86.692,210.1c-0.801-2.1,0.3-4.899,1.6-4.1c0.5,0.3,1,1.5,1,2.5C89.292,211,87.492,212.1,86.692,210.1z"/>
<path fill="#557B8E" d="M121.792,209.3c-1-2.399-0.1-12.3,1-12.1c1.4,0.399,1.9,11.3,0.6,12.6
	C122.692,210.5,122.192,210.3,121.792,209.3z"/>
<path fill="#557B8E" d="M21.792,208.5c-0.4-0.6-0.3-1.6,0.3-2.2c0.6-0.6,1.2-0.6,1.7,0.2c0.4,0.6,0.3,1.6-0.3,2.2
	C22.892,209.3,22.292,209.3,21.792,208.5z"/>
<path fill="#557B8E" d="M133.792,206.5c-0.4-0.6-0.3-1.6,0.3-2.2c0.601-0.6,1.2-0.6,1.7,0.2c0.4,0.6,0.3,1.6-0.3,2.2
	C134.891,207.3,134.292,207.3,133.792,206.5z"/>
<path fill="#557B8E" d="M22.792,199.5c-0.4-0.6-0.3-1.6,0.3-2.2c0.6-0.6,1.2-0.6,1.7,0.2c0.4,0.6,0.3,1.6-0.3,2.2
	C23.892,200.3,23.292,200.3,22.792,199.5z"/>
<path fill="#557B8E" d="M67.792,199.5c-0.4-0.6-0.3-1.6,0.3-2.2c0.6-0.6,1.2-0.6,1.7,0.2c0.4,0.6,0.3,1.6-0.3,2.2
	C68.892,200.3,68.292,200.3,67.792,199.5z"/>
<path fill="#557B8E" d="M87.792,198.5c-0.4-0.6-0.3-1.6,0.3-2.2c0.601-0.6,1.2-0.6,1.7,0.2c0.4,0.6,0.3,1.6-0.3,2.2
	C88.891,199.3,88.292,199.3,87.792,198.5z"/>
<path fill="#557B8E" d="M132.792,197.5c-0.4-0.6-0.3-1.6,0.3-2.2c0.601-0.6,1.2-0.6,1.7,0.2c0.4,0.6,0.3,1.6-0.3,2.2
	C133.891,198.3,133.292,198.3,132.792,197.5z"/>
<path fill="#557B8E" d="M66.792,191.5c-0.4-0.6-0.3-1.6,0.3-2.2c0.6-0.6,1.2-0.6,1.7,0.2c0.4,0.6,0.3,1.6-0.3,2.2
	C67.892,192.3,67.292,192.3,66.792,191.5z"/>
<path fill="#557B8E" d="M23.691,190.1c-0.4-1-0.2-2.199,0.4-2.8c0.8-0.8,1.3-0.7,1.8,0.601c0.4,1,0.2,2.199-0.4,2.8
	C24.691,191.5,24.191,191.4,23.691,190.1z"/>
<path fill="#557B8E" d="M131.792,188.5c-0.4-0.6-0.3-1.6,0.3-2.2c0.601-0.6,1.2-0.6,1.7,0.2c0.4,0.6,0.3,1.6-0.3,2.2
	C132.891,189.3,132.292,189.3,131.792,188.5z"/>
<path fill="#557B8E" d="M65.792,185.5c-0.4-0.6-0.3-1.6,0.3-2.2c0.6-0.6,1.2-0.6,1.7,0.2c0.4,0.6,0.3,1.6-0.3,2.2
	C66.892,186.3,66.292,186.3,65.792,185.5z"/>
<path fill="#557B8E" d="M24.691,181.1c-0.4-1-0.2-2.199,0.4-2.8c0.8-0.8,1.3-0.7,1.8,0.601c0.4,1,0.2,2.199-0.4,2.8
	C25.691,182.5,25.191,182.4,24.691,181.1z"/>
<path fill="#557B8E" d="M130.792,180.5c-0.4-0.6-0.3-1.6,0.3-2.2c0.601-0.6,1.2-0.6,1.7,0.2c0.4,0.6,0.3,1.6-0.3,2.2
	C131.891,181.3,131.292,181.3,130.792,180.5z"/>
<path fill="#557B8E" d="M97.891,179.6c-0.399-0.6-0.199-1.899,0.601-2.8c0.7-0.899,1.2-1.8,1.1-2c-0.2-0.1,0-0.2,0.4,0
	c1.3,0.4,1.2,2.5-0.101,4.3C98.891,180.3,98.391,180.5,97.891,179.6z"/>
<path fill="#557B8E" d="M117.391,178.7c-0.699-1.4-0.6-2.4,0.4-3.8c0.8-1.101,1.5-1.7,1.5-1.4
	C120.492,179.2,119.292,182.3,117.391,178.7z"/>
<path fill="#557B8E" d="M35.792,177.3c-0.9-2.399-0.1-12.8,1-13.1c1.3-0.3,1.9,12.3,0.6,13.6
	C36.691,178.5,36.191,178.3,35.792,177.3z"/>
<path fill="#557B8E" d="M119.792,172.3c-1-2.399-0.1-12.3,1-12.1c1.4,0.399,1.9,11.3,0.6,12.6
	C120.692,173.5,120.192,173.3,119.792,172.3z"/>
<path fill="#557B8E" d="M25.792,171.5c-0.4-0.6-0.3-1.6,0.3-2.2c0.6-0.6,1.2-0.6,1.7,0.2c0.4,0.6,0.3,1.6-0.3,2.2
	C26.892,172.3,26.292,172.3,25.792,171.5z"/>
<path fill="#557B8E" d="M129.792,171.5c-0.4-0.6-0.3-1.6,0.3-2.2c0.601-0.6,1.2-0.6,1.7,0.2c0.4,0.6,0.3,1.6-0.3,2.2
	C130.891,172.3,130.292,172.3,129.792,171.5z"/>
<path fill="#557B8E" d="M98.792,170.5c-0.4-0.6-0.3-1.6,0.3-2.2c0.601-0.6,1.2-0.6,1.7,0.2c0.4,0.6,0.3,1.6-0.3,2.2
	C99.891,171.3,99.292,171.3,98.792,170.5z"/>
<path fill="#557B8E" d="M62.191,169.1c-0.4-1.6-0.7-2.6-0.9-3.1c-0.1-0.3-0.4-0.9-0.5-1.5c-0.1-0.5-0.4-1.3-0.5-1.7
	c-0.1-0.5-0.2-1.1-0.1-1.5c0-0.399-1.4-1.399-3.3-2.2c-3-1.199-6.9-5.6-5-5.6c0.3,0,0.1-0.7-0.6-1.5c-0.6-0.8-0.9-1.9-0.5-2.5
	c0.8-1.3,2.6-0.3,2.4,1.3c-0.4,2.5,1.5,4.8,4.9,6.3c1.9,0.801,3.2,1.7,2.9,2.101c-0.4,0.3-0.2,1.2,0.4,2c0.6,0.7,0.8,1.3,0.4,1.3
	s-0.2,0.7,0.5,1.5s0.9,1.5,0.5,1.5s-0.2,0.6,0.4,1.4c0.8,1,0.9,1.6,0.1,2.1C62.792,169.3,62.191,169.4,62.191,169.1z"/>
<path fill="#557B8E" d="M32.792,164.3c-1-2.399-0.1-12.3,1-12.1c1.4,0.399,1.9,11.3,0.6,12.6
	C33.691,165.5,33.191,165.3,32.792,164.3z"/>
<path fill="#557B8E" d="M128.692,163.1c-0.4-1-0.2-2.199,0.399-2.8c0.8-0.8,1.3-0.7,1.8,0.601c0.4,1,0.2,2.199-0.399,2.8
	C129.692,164.5,129.192,164.4,128.692,163.1z"/>
<path fill="#557B8E" d="M26.792,162.5c-0.4-0.6-0.3-1.6,0.3-2.2c0.6-0.6,1.2-0.6,1.7,0.2c0.4,0.6,0.3,1.6-0.3,2.2
	C27.892,163.3,27.292,163.3,26.792,162.5z"/>
<path fill="#557B8E" d="M122.792,160.3c-1-2.399-0.1-12.3,1-12.1c1.4,0.399,1.9,11.3,0.6,12.6
	C123.692,161.5,123.192,161.3,122.792,160.3z"/>
<path fill="#557B8E" d="M96.891,159.8c-1-1,1.5-3.3,3.5-3.3c1,0,2.101-0.5,2.4-1c0.4-0.6,1.1-0.8,1.6-0.4
	c0.601,0.4,0.601,1.101-0.1,1.9C102.992,158.6,97.692,160.6,96.891,159.8z"/>
<path fill="#557B8E" d="M127.792,154.5c-0.4-0.6-0.3-1.6,0.3-2.2c0.601-0.6,1.2-0.6,1.7,0.2c0.4,0.6,0.3,1.6-0.3,2.2
	C128.891,155.3,128.292,155.3,127.792,154.5z"/>
<path fill="#557B8E" d="M27.792,153.5c-0.4-0.6-0.3-1.6,0.3-2.2c0.6-0.6,1.2-0.6,1.7,0.2c0.4,0.6,0.3,1.6-0.3,2.2
	C28.892,154.3,28.292,154.3,27.792,153.5z"/>
<path fill="#557B8E" d="M104.792,150.5c-0.4-0.6-0.3-1.6,0.3-2.2c0.601-0.6,1.2-0.6,1.7,0.2c0.4,0.6,0.3,1.6-0.3,2.2
	C105.891,151.3,105.292,151.3,104.792,150.5z"/>
<path fill="#557B8E" d="M28.892,147.7c-0.3-0.5,0.3-1.7,1.3-2.601c1.1-1,2.2-1.3,2.5-0.8c0.3,0.5-0.3,1.7-1.3,2.601
	C30.292,147.9,29.191,148.2,28.892,147.7z"/>
<path fill="#557B8E" d="M41.792,143.6c-0.7-1.199,1.2-2.399,2.5-1.6c1.1,0.7,0.4,2.5-1,2.5C42.792,144.5,42.191,144.1,41.792,143.6z
	"/>
<path fill="#557B8E" d="M117.792,143.6c-0.7-1.199,1.2-2.399,2.5-1.6c1.1,0.7,0.4,2.5-1,2.5
	C118.792,144.5,118.192,144.1,117.792,143.6z"/>
<path fill="#557B8E" d="M109.792,142.6c-0.7-1.199,1.2-2.399,2.5-1.6c1.1,0.7,0.4,2.5-1,2.5
	C110.792,143.5,110.192,143.1,109.792,142.6z"/>
<path fill="#557B8E" d="M56.892,74.7c-0.3-0.601,0.1-1.5,0.9-2.2c1.8-1.5,6.4-2,7.1-0.8c0.3,0.5,1.4,0.6,2.4,0.3s2.1-0.1,2.5,0.5
	c1.2,1.9-6,3.4-8.2,1.7c-0.8-0.601-1.8-0.5-2.7,0.2C58.091,75.1,57.191,75.2,56.892,74.7z"/>
<path fill="#E9CAA2" d="M72.892,133.8c-0.4-0.5-1.2-0.8-1.7-0.8s-0.9-0.3-0.9-0.7c0-0.8,0.3-0.899,1.5-0.7c3,0.301,12.5,0,13.3-0.5
	c0.601-0.3,1.3-0.199,1.7,0.4c0.6,1,0.5,1.1-1.4,1.4c-0.5,0-1.3,0.399-1.699,0.899c-0.4,0.4-2.801,0.7-5.4,0.7
	C75.691,134.5,73.292,134.2,72.892,133.8z"/>
<path fill="#E9CAA2" d="M76.792,120.6c-0.7-1.199,1.2-2.399,2.5-1.6c1.1,0.7,0.4,2.5-1,2.5C77.792,121.5,77.191,121.1,76.792,120.6z
	"/>
<path fill="#E9CAA2" d="M70.492,119.3c-0.7-0.7-1.2-0.899-1.2-0.5c0,0.8-5.5-1.8-7.7-3.5c-0.7-0.6-1-1.399-0.8-1.899
	c0.3-0.4,2.7,0.399,5.3,1.899c2.6,1.5,5.3,2.7,6,2.7c1.4,0,1.8,1.8,0.5,2.2C72.091,120.4,71.191,120,70.492,119.3z"/>
<path fill="#E9CAA2" d="M82.792,119.5c-0.6-1,0.9-1.9,3.7-2.4c0.7-0.1,1.8-0.5,2.5-0.899c0.6-0.4,1.399-0.3,1.7,0.2
	c0.399,0.5,0.199,1.199-0.4,1.6c-0.5,0.3-1,0.3-1,0s-1,0.1-2.2,0.9C84.492,120.8,83.591,120.9,82.792,119.5z"/>
<path fill="#E9CAA2" d="M91.992,115.7c-0.7-1,11.5-11.2,12.6-10.5c1.3,0.8-4.5,6.399-6.1,5.8c-0.7-0.2-1.101-0.1-0.8,0.4
	c0.3,0.399-0.2,1.5-1.2,2.3C93.891,116,92.492,116.6,91.992,115.7z"/>
<path fill="#E9CAA2" d="M52.892,107.7c-1.5-1.7-2.3-3.3-1.8-3.601c0.5-0.3,1.5,0.101,2.2,1c0.7,0.801,1.9,1.301,2.6,1
	c1.9-0.699,2.5,0.801,1.1,2.801C55.892,110.4,55.492,110.3,52.892,107.7z"/>
<path fill="#E9CAA2" d="M87.792,109.6c-0.3-0.6,0.3-1.5,1.4-2.1c1.199-0.6,2.199-0.6,2.6-0.1c0.3,0.6-0.3,1.5-1.4,2.1
	C89.192,110.1,88.192,110.1,87.792,109.6z"/>
<path fill="#E9CAA2" d="M69.292,107.6c-0.6-1.199-0.6-2.199-0.1-2.6c0.6-0.3,1.5,0.3,2.1,1.4c0.6,1.199,0.6,2.199,0.1,2.6
	C70.792,109.3,69.892,108.7,69.292,107.6z"/>
<path fill="#E9CAA2" d="M104.891,103.7c-0.3-0.5,0.301-1.7,1.301-2.601c1.1-1,2.199-1.3,2.5-0.8c0.3,0.5-0.301,1.7-1.301,2.601
	C106.292,103.9,105.192,104.2,104.891,103.7z"/>
<path fill="#E9CAA2" d="M47.492,100.8c-3-4.399-3.3-5.1-2.3-5.7c0.5-0.3,2,1.2,3.5,3.4C51.591,102.9,50.492,105.1,47.492,100.8z"/>
<path fill="#E9CAA2" d="M108.891,98.7c-0.3-0.601,0.101-1.5,0.801-2.101c0.8-0.699,1.699-0.8,2-0.3c0.3,0.601-0.101,1.5-0.801,2.101
	C110.091,99.1,109.192,99.2,108.891,98.7z"/>
<path fill="#E9CAA2" d="M71.292,96.6c-0.6-1.199-0.6-2.199-0.1-2.6c0.6-0.3,1.5,0.3,2.1,1.4c0.6,1.199,0.6,2.199,0.1,2.6
	C72.792,98.3,71.892,97.7,71.292,96.6z"/>
<path fill="#E9CAA2" d="M65.792,92.6c-0.3-0.6,0.3-1.5,1.4-2.1c1.2-0.6,2.2-0.6,2.6-0.1c0.3,0.6-0.3,1.5-1.4,2.1
	C67.191,93.1,66.191,93.1,65.792,92.6z"/>
<path fill="#E9CAA2" d="M50.292,88.6c-0.6-1.199-0.6-2.199-0.1-2.6c0.6-0.3,1.5,0.3,2.1,1.4c0.6,1.199,0.6,2.199,0.1,2.6
	C51.792,90.3,50.892,89.7,50.292,88.6z"/>
<path fill="#E9CAA2" d="M64.892,85.7c-0.3-0.601,0.1-1.5,0.8-2.101c0.8-0.699,1.7-0.8,2-0.3c0.3,0.601-0.1,1.5-0.8,2.101
	C66.091,86.1,65.191,86.2,64.892,85.7z"/>
<path fill="#E9CAA2" d="M102.891,52.6c-2.1-2.1-3.399-4.1-2.899-4.399c0.6-0.4,2.7,1.1,4.7,3.2c2.1,2.1,3.399,4.1,2.899,4.399
	C106.992,56.2,104.891,54.7,102.891,52.6z"/>
<path fill="#E9CAA2" d="M93.792,46.2c-2.3-1.3-4.6-2.2-5.2-2c-1.5,0.5-2.6-1.4-1.3-2.2c0.6-0.4,1.7-0.1,2.5,0.5
	c0.8,0.7,1.5,1,1.5,0.6c0-0.399,1.8,0.301,4,1.4c2.3,1.2,3.8,2.5,3.5,3C97.992,48.7,98.492,48.9,93.792,46.2z"/>
<path fill="#E9CAA2" d="M58.792,43.2c-1-0.8-1.4-1.601-0.9-1.9c1.4-0.899,5.6,1.101,4.9,2.2C61.992,44.8,60.992,44.8,58.792,43.2z"
	/>
<path fill="#E9CAA2" d="M68.792,43.6c-0.7-1.3,1.7-2.399,4-1.899c0.9,0.1,1.6,0.8,1.6,1.3C74.392,44.4,69.591,44.9,68.792,43.6z"/>
<path fill="#4C423E" d="M64.392,105.1c-0.7-0.8-0.8-1.699-0.3-2c0.6-0.3,1.5,0.101,2.1,0.801c0.7,0.8,0.8,1.699,0.3,2
	C65.892,106.2,64.992,105.8,64.392,105.1z"/>
<path fill="#4C423E" d="M89.891,105.7c-0.3-0.601,0.101-1.5,0.801-2.101c0.8-0.699,1.699-0.8,2-0.3c0.3,0.601-0.101,1.5-0.801,2.101
	C91.091,106.1,90.192,106.2,89.891,105.7z"/>
<path fill="#4C423E" d="M67.892,103.6c-0.8-1.199,3.1-4.399,4.4-3.6c1.5,0.9,0.1,2.7-1.7,2.1c-0.8-0.3-1.1-0.199-0.8,0.301
	s0.1,1.199-0.4,1.5C68.892,104.3,68.191,104.1,67.892,103.6z"/>
<path fill="#4C423E" d="M87.192,103.8c-0.101-0.399-0.101-1.1,0-1.5c0-0.399-0.5-0.5-1.301-0.2c-1.699,0.7-3-1.199-1.5-2.199
	c0.601-0.301,2,0.3,3.101,1.399c1.3,1.3,1.6,2.2,0.899,2.601C87.792,104.3,87.192,104.3,87.192,103.8z"/>
<path fill="#4C423E" d="M112.992,80.8c-0.2-0.399-0.3-1.7,0-2.8c0.7-3.6,0.899-9.5,0.399-10.1c-0.3-0.301-0.6-1.101-0.6-1.7
	c0-0.7-0.8-3.8-1.8-6.9c-1-3.2-1.7-6-1.7-6.3c0.1-1.5-11.8-10.6-15.9-12.1c-2.5-1-5-2.101-5.6-2.5c-0.5-0.4-3.5-0.5-6.5-0.2
	c-14.4,1.2-19.5,1.2-22.4-0.2c-1.5-0.8-3.4-1.1-4-0.7c-0.6,0.3-1.5,0.7-2.1,0.7c-0.5,0-1,0.5-1,1c-0.1,0.6-1.1,2.9-2.3,5.2
	c-3.4,6.399-6,18.399-6.5,29.8c-0.1,2.2-0.6,4.2-1.1,4.5c-1.3,0.7-3.7-6.8-2.5-7.6c0.6-0.301,0.3-1.101-0.7-1.801
	c-1.6-1.199-1.6-1.5-0.1-3.699c1-1.301,1.7-3,1.6-3.9c0-0.8-0.5-0.4-1,0.9c-0.7,1.699-1.3,2.1-2,1.399c-1.2-1.2-0.8-5,0.5-4.5
	c1.1,0.5,3.5-3,2.9-4.3c-0.2-0.7,0.3-1.8,1.2-2.5c0.8-0.7,1.5-2.3,1.5-3.6c0-4.101,9.1-17.101,11.2-15.801
	c0.8,0.5,1.2-1.699,0.9-4.3c-0.1-0.7,0.5-2.899,1.4-4.899c1.6-3.801,2.9-3.9,3-0.2c0,1.7,1.3,2.7,6,4.6c4.9,2,7.9,2.5,16.2,2.601
	c8.899,0.1,10.6,0.399,13.3,2.399c1.7,1.3,3.6,2,4.2,1.601c0.6-0.4,1.7,0.1,2.399,1c0.7,1,1.4,1.6,1.601,1.5
	c1.5-1.2,11.7,10.1,11.1,12.3c-0.2,0.3,0.4,1.1,1.2,1.8c1.1,0.9,1.2,1.7,0.4,3.1c-0.7,1.4-0.7,1.9,0.1,1.7
	c0.7-0.2,1.3,1.4,1.5,3.601c0.3,2.1,1.1,4.699,2,5.6c1.1,1.2,1.3,2,0.6,2.5c-1.1,0.6-1.5-0.1-1.1-2c0.1-0.5-0.2-0.6-0.6-0.2
	c-1.4,1.4-1.2,3.5,0.3,4.101c0.8,0.3,1.1,1,0.8,1.6c-0.4,0.6-1.2,0.7-1.8,0.3c-0.8-0.399-0.7-0.1,0.1,0.9c0.9,1.1,1,1.8,0.2,2.3
	c-0.6,0.3-0.8,1-0.5,1.5s-0.1,1.2-0.9,1.7c-0.8,0.399-1.5,1.2-1.5,1.8C115.492,81.2,113.591,81.9,112.992,80.8z"/>
<path fill="#4C423E" d="M86.792,75.5c-0.3-0.5,0-1.3,0.8-1.6c2.3-0.9,14.2,0,14.2,1.1C101.792,76.4,87.591,76.9,86.792,75.5z"/>
<path fill="#4C423E" d="M55.792,70.5c-0.7-1.2,3.2-3.3,4.5-2.5c0.6,0.4,0.8,1,0.5,1.4C60.091,70.7,56.392,71.4,55.792,70.5z"/>
<path fill="#4C423E" d="M67.792,70.1c-1.1-0.8-1.4-1.6-0.8-1.899c0.6-0.4,1.8,0,2.8,0.7c1.1,0.8,1.4,1.6,0.8,1.899
	C69.992,71.2,68.792,70.8,67.792,70.1z"/>
<path fill="#4C423E" d="M119.792,61.3c-0.8-2.399,0-13.8,1-14.1c1.3-0.3,1.7,14,0.4,14.8C120.692,62.4,120.091,62,119.792,61.3z"/>
<path fill="#4C423E" d="M36.691,52.1c-0.4-1-0.2-2.199,0.4-2.8c0.8-0.8,1.3-0.7,1.8,0.601c0.4,1,0.2,2.199-0.4,2.8
	C37.691,53.5,37.191,53.4,36.691,52.1z"/>
<path fill="#4C423E" d="M37.792,46.5c-0.4-0.6-0.3-1.6,0.3-2.2c0.6-0.6,1.2-0.6,1.7,0.2c0.4,0.6,0.3,1.6-0.3,2.2
	C38.892,47.3,38.292,47.3,37.792,46.5z"/>
<path fill="#4C423E" d="M118.192,39.1c-0.101-0.3-0.2-0.899-0.301-1.3c-0.1-0.5-0.5-1.3-0.899-2c-0.4-0.6-0.3-1.399,0.3-1.8
	c0.5-0.3,1.1-0.4,1.1-0.1c0.101,0.3,0.2,0.899,0.301,1.399c0.1,0.4,0.5,1.2,0.899,1.9c0.4,0.6,0.3,1.399-0.3,1.8
	C118.792,39.3,118.192,39.4,118.192,39.1z"/>
<path fill="#AF3D27" d="M108.792,177.5c-0.7-1.1,1.5-2.3,3.4-1.8c1.3,0.3,2.5-1.2,3.6-4.601c0.4-1.5,0.8-1.699,1.8-0.699
	c0.9,0.899,0.8,1.8-0.399,3.899c-0.801,1.5-2,2.7-2.601,2.7c-0.6,0-1.5,0.3-1.899,0.8C111.591,178.8,109.492,178.7,108.792,177.5z"
	/>
<path fill="#AF3D27" d="M100.792,173.5c-0.4-0.6-0.1-1.8,0.7-2.7c0.7-0.899,1.2-1.8,1.1-2c-0.2-0.1-0.1-0.3,0.2-0.3s0.8,0,1.2,0
	c0.399,0,0.2,0.5-0.4,1.1c-0.6,0.601-0.899,1.7-0.7,2.4C103.591,173.6,101.692,174.9,100.792,173.5z"/>
<path fill="#AF3D27" d="M106.692,173.3c-0.5-0.7-0.9-2.2-0.9-3.2c0-1.6,0.7-2,3.5-2s3.5,0.4,3.5,2c-0.1,1-0.6,1.801-1.3,1.7
	c-0.7-0.2-1.101,0.2-0.9,0.9C110.891,174.4,107.792,174.9,106.692,173.3z"/>
<path fill="#AF3D27" d="M102.891,166.6c-0.899-1.3,6.101-5.399,8-4.699c1.9,0.699,0.9,2.6-1.5,2.6c-1,0-2.399,0.7-3.1,1.5
	C104.891,167.7,103.692,167.9,102.891,166.6z"/>
<path fill="#AF3D27" d="M54.591,153.9c-1.1-1.801-1.7-4.7-1.7-8.9c0-7.3,2.1-11.5,5.8-11.5c3.3,0,3.7,0.9,2.1,4.1
	c-2.9,5.4-1.2,16.2,2.4,15.601c0.9-0.2,2.6-0.9,3.9-1.5c1.2-0.7,2.6-1.101,3-0.8c0.4,0.199,0.7-2.2,0.7-5.4s-0.2-5.7-0.4-5.5
	c-0.8,0.8-8.1-3.6-7.6-4.5c0.6-1,5.4,1,8.3,3.3c0.7,0.601,4.2,1,7.7,1s7-0.399,7.7-1c2.3-1.8,7.8-4.399,7.8-3.6
	c0,0.399,0.5,0.2,1.2-0.5c1.899-1.9,4.5-1.4,6.7,1.399c2.5,3.101,2.899,13.2,0.8,17.4c-1.4,2.8-5.101,3.8-7.3,1.9
	c-0.801-0.601-1.7-0.9-2.101-0.601c-0.3,0.4-1.2,0.2-2-0.399c-0.7-0.601-1.3-0.9-1.3-0.5c0,0.399-1.3,0-3-0.9c-2.7-1.4-3-2-3-6.3
	V142h-5.5c-5.2,0-6.7,0.6-4.5,2c3,1.9-2,9-7,9.9c-1.4,0.199-2.6,0.5-2.7,0.699c-0.2,0.101-0.7,0.2-1.2,0.301
	c-0.5,0-1.3,0.399-1.7,0.899C60.091,157.4,56.292,156.4,54.591,153.9z M96.192,150.9c1.399-3.101,1.399-9.9,0.1-12.5
	c-1.1-1.9-1.1-1.9-4.9,0.1c-2.1,1-4,1.7-4.199,1.5c-0.2-0.2-0.2,2-0.101,4.8c0.3,3.7,0.9,5.601,2.3,6.7
	C92.391,153.9,94.891,153.7,96.192,150.9z"/>
<path fill="#AF3D27" d="M73.792,151.5c-0.3-0.5,0-1.3,0.8-1.6c2.3-0.801,8.2,0,8.2,1.1C82.792,152.4,74.591,152.9,73.792,151.5z"/>
<path fill="#D46730" d="M103.492,177c-1.2-0.9-2-2.1-1.601-2.6c0.4-0.601,1-0.7,1.7,0c0.7,0.5,2.3,1.1,3.7,1.3
	c1.4,0.1,2.5,0.8,2.5,1.3C109.792,178.7,105.891,178.7,103.492,177z"/>
<path fill="#D46730" d="M105.692,168.3c-1-1.5,3.5-2.899,5.699-1.8c1.101,0.7,1.801,1.4,1.5,1.7
	C112.091,169.1,106.192,169.1,105.692,168.3z"/>
<path fill="#D46730" d="M59.292,152.3c-2.2-3.7-2.4-4.399-1.1-5.2c0.5-0.3,1.8,1.2,2.9,3.4C63.492,155.4,62.091,156.9,59.292,152.3z
	"/>
<path fill="#D46730" d="M81.792,150.2c-0.9-2.2-0.2-6.2,1-6c0.6,0.1,1.1,1.399,1.3,2.899C84.492,150.3,82.692,152.7,81.792,150.2z"
	/>
<path fill="#D46730" d="M57.992,140.8c-0.4-0.6,0-1.8,0.7-2.8c0.8-1.1,1.6-1.4,1.9-0.8c0.4,0.6,0,1.8-0.7,2.8
	C59.091,141.1,58.292,141.4,57.992,140.8z"/>
<path fill="#D46730" d="M95.492,138.6c-2-2.699-2-4.1-0.101-4.1c1.301,0,4,5.8,3.101,6.4C97.992,141.2,96.692,140.1,95.492,138.6z"
	/>
<path fill="#6E5F5D" d="M22.792,234.5c-0.8-1.4,1-1.9,7.5-2.2c5.2-0.3,5.5-0.399,6-3.2c0.7-4,2.4-3.899,2.8,0.101l0.3,3.2l6.5,0.3
	c3.5,0.2,6.5,0.8,6.7,1.3c0.3,1.4-13.2,1.9-14.8,0.5c-0.9-0.8-1.5-0.8-2,0C34.992,235.8,23.591,235.8,22.792,234.5z"/>
<path fill="#6E5F5D" d="M18.792,233.5c-0.4-0.6-0.3-1.6,0.3-2.2c0.6-0.6,1.2-0.6,1.7,0.2c0.4,0.6,0.3,1.6-0.3,2.2
	C19.892,234.3,19.292,234.3,18.792,233.5z"/>
<path fill="#6E5F5D" d="M118.792,233.3c-1-2.399-0.1-12.3,1-12.1c1.4,0.399,1.9,11.3,0.6,12.6
	C119.692,234.5,119.192,234.3,118.792,233.3z"/>
<path fill="#6E5F5D" d="M136.792,229.5c-0.4-0.6-0.3-1.6,0.3-2.2c0.601-0.6,1.2-0.6,1.7,0.2c0.4,0.6,0.3,1.6-0.3,2.2
	C137.891,230.3,137.292,230.3,136.792,229.5z"/>
<path fill="#6E5F5D" d="M19.792,224.5c-0.4-0.6-0.3-1.6,0.3-2.2c0.6-0.6,1.2-0.6,1.7,0.2c0.4,0.6,0.3,1.6-0.3,2.2
	C20.892,225.3,20.292,225.3,19.792,224.5z"/>
<path fill="#6E5F5D" d="M135.692,221.1c-0.801-2.1,0.3-4.899,1.6-4.1c0.5,0.3,1,1.5,1,2.5C138.292,222,136.492,223.1,135.692,221.1z
	"/>
<path fill="#6E5F5D" d="M20.792,215.5c-0.4-0.6-0.3-1.6,0.3-2.2c0.6-0.6,1.2-0.6,1.7,0.2c0.4,0.6,0.3,1.6-0.3,2.2
	C21.892,216.3,21.292,216.3,20.792,215.5z"/>
<path fill="#6E5F5D" d="M134.792,212.5c-0.4-0.6-0.3-1.6,0.3-2.2c0.601-0.6,1.2-0.6,1.7,0.2c0.4,0.6,0.3,1.6-0.3,2.2
	C135.891,213.3,135.292,213.3,134.792,212.5z"/>
<path fill="#6E5F5D" d="M68.691,208.1c-0.8-2.1,0.3-4.899,1.6-4.1c0.5,0.3,1,1.5,1,2.5C71.292,209,69.492,210.1,68.691,208.1z"/>
<path fill="#6E5F5D" d="M21.691,206.1c-0.4-1-0.2-2.199,0.4-2.8c0.8-0.8,1.3-0.7,1.8,0.601c0.4,1,0.2,2.199-0.4,2.8
	C22.691,207.5,22.191,207.4,21.691,206.1z"/>
<path fill="#6E5F5D" d="M86.692,206.1c-0.4-1-0.2-2.199,0.399-2.8c0.8-0.8,1.3-0.7,1.8,0.601c0.4,1,0.2,2.199-0.399,2.8
	C87.692,207.5,87.192,207.4,86.692,206.1z"/>
<path fill="#6E5F5D" d="M133.692,204.1c-0.4-1-0.2-2.199,0.399-2.8c0.8-0.8,1.3-0.7,1.8,0.601c0.4,1,0.2,2.199-0.399,2.8
	C134.692,205.5,134.192,205.4,133.692,204.1z"/>
<path fill="#6E5F5D" d="M33.892,201.8c-1-1-0.7-11.8,0.3-12.8c0.6-0.6,1.1-3.5,1.3-6.5c0.2-3,0.8-5.5,1.3-5.5
	c1.4,0,1.9,11.5,0.6,12.8c-0.6,0.601-1.1,3.5-1.1,6.3C36.292,201.1,35.392,203.3,33.892,201.8z"/>
<path fill="#6E5F5D" d="M22.691,197.1c-0.4-1-0.2-2.199,0.4-2.8c0.8-0.8,1.3-0.7,1.8,0.601c0.4,1,0.2,2.199-0.4,2.8
	C23.691,198.5,23.191,198.4,22.691,197.1z"/>
<path fill="#6E5F5D" d="M67.691,197.1c-0.4-1-0.2-2.199,0.4-2.8c0.8-0.8,1.3-0.7,1.8,0.601c0.4,1,0.2,2.199-0.4,2.8
	C68.691,198.5,68.191,198.4,67.691,197.1z"/>
<path fill="#6E5F5D" d="M120.992,196.8c-1.2-1.2-1.3-2-0.5-3.3c0.7-1,0.8-2.5,0.3-3.6c-1-2.301-1.2-3.101-1.3-6.601
	c-0.101-1.6-0.5-2.7-0.9-2.5c-0.5,0.101-0.8-0.2-0.8-0.8c0-0.5,0.3-0.9,0.8-0.7c0.4,0.101,0.7-0.5,0.7-1.399
	c0-0.801-0.4-1.301-0.9-0.9c-2,1.2-2.1-1.5-0.1-3.5c2.9-2.9,4-1.7,4,4.5c0,3,0.5,5.7,1,6c1.2,0.7,1.4,13.2,0.2,13.9
	C122.992,198.2,121.891,197.7,120.992,196.8z"/>
<path fill="#6E5F5D" d="M87.792,196.5c-0.4-0.6-0.3-1.6,0.3-2.2c0.601-0.6,1.2-0.6,1.7,0.2c0.4,0.6,0.3,1.6-0.3,2.2
	C88.891,197.3,88.292,197.3,87.792,196.5z"/>
<path fill="#6E5F5D" d="M132.792,195.5c-0.4-0.6-0.3-1.6,0.3-2.2c0.601-0.6,1.2-0.6,1.7,0.2c0.4,0.6,0.3,1.6-0.3,2.2
	C133.891,196.3,133.292,196.3,132.792,195.5z"/>
<path fill="#6E5F5D" d="M66.792,189.5c-0.4-0.6-0.3-1.6,0.3-2.2c0.6-0.6,1.2-0.6,1.7,0.2c0.4,0.6,0.3,1.6-0.3,2.2
	C67.892,190.3,67.292,190.3,66.792,189.5z"/>
<path fill="#6E5F5D" d="M88.792,189.5c-0.4-0.6-0.3-1.6,0.3-2.2c0.601-0.6,1.2-0.6,1.7,0.2c0.4,0.6,0.3,1.6-0.3,2.2
	C89.891,190.3,89.292,190.3,88.792,189.5z"/>
<path fill="#6E5F5D" d="M23.892,187.7c-0.7-1.2-0.1-4.7,0.9-4.7c1.2,0,1.6,4.3,0.6,5C24.892,188.3,24.191,188.2,23.892,187.7z"/>
<path fill="#6E5F5D" d="M131.792,186.5c-0.4-0.6-0.3-1.6,0.3-2.2c0.601-0.6,1.2-0.6,1.7,0.2c0.4,0.6,0.3,1.6-0.3,2.2
	C132.891,187.3,132.292,187.3,131.792,186.5z"/>
<path fill="#6E5F5D" d="M89.792,183.5c-0.4-0.6-0.3-1.6,0.3-2.2c0.601-0.6,1.2-0.6,1.7,0.2c0.4,0.6,0.3,1.6-0.3,2.2
	C90.891,184.3,90.292,184.3,89.792,183.5z"/>
<path fill="#6E5F5D" d="M98.891,180.6c-0.399-0.5-0.199-1.199,0.301-1.5c0.699-0.5,0.8-4.1,0.1-4.1s-0.5-8.4,0.2-9.8
	c1.3-2.5,2.899-1.101,1.899,1.6c-1,2.601-0.899,7.7,0.2,9.4c0.4,0.6,0.3,1.399-0.3,1.8s-0.8,1-0.5,1.5s0.1,1.1-0.4,1.4
	C99.891,181.3,99.192,181.1,98.891,180.6z"/>
<path fill="#6E5F5D" d="M64.792,179.5c-0.4-0.6-0.3-1.6,0.3-2.2c0.6-0.6,1.2-0.6,1.7,0.2c0.4,0.6,0.3,1.6-0.3,2.2
	C65.892,180.3,65.292,180.3,64.792,179.5z"/>
<path fill="#6E5F5D" d="M24.792,178.5c-0.4-0.6-0.3-1.6,0.3-2.2c0.6-0.6,1.2-0.6,1.7,0.2c0.4,0.6,0.3,1.6-0.3,2.2
	C25.892,179.3,25.292,179.3,24.792,178.5z"/>
<path fill="#6E5F5D" d="M130.692,178.1c-0.4-1-0.2-2.199,0.399-2.8c0.8-0.8,1.3-0.7,1.8,0.601c0.4,1,0.2,2.199-0.399,2.8
	C131.692,179.5,131.192,179.4,130.692,178.1z"/>
<path fill="#6E5F5D" d="M64.191,175.1c-0.1-0.3-0.2-0.899-0.3-1.3c-0.1-0.5-0.5-1.399-1-2.1c-0.4-0.7-0.5-1.601-0.2-1.9
	c0.3-0.3,0.1-1.2-0.5-2c-0.6-0.7-0.8-1.3-0.4-1.3s0.2-0.7-0.5-1.5s-0.9-1.5-0.5-1.5s0.2-0.6-0.4-1.4c-0.8-0.899-0.8-1.6-0.2-2
	c0.5-0.399,1.2-0.199,1.6,0.4c0.3,0.5,0.3,1-0.1,1c-0.3,0-0.1,0.7,0.6,1.5s0.9,1.5,0.5,1.5s-0.2,0.7,0.5,1.5s0.9,1.5,0.5,1.5
	s-0.2,0.7,0.5,1.5c0.7,0.9,1,1.8,0.7,2.2c-0.4,0.3-0.2,1.2,0.4,1.899c0.7,0.801,0.7,1.4-0.1,1.9
	C64.792,175.3,64.191,175.4,64.191,175.1z"/>
<path fill="#6E5F5D" d="M92.891,170.6c-0.399-0.5-0.199-1.199,0.4-1.6s0.8-1,0.5-1.5s-0.1-1.1,0.4-1.4
	c0.5-0.399,1.199-0.199,1.5,0.301c0.399,0.5,0.199,1.199-0.4,1.6s-0.8,1-0.5,1.5s0.1,1.1-0.4,1.4
	C93.891,171.3,93.192,171.1,92.891,170.6z"/>
<path fill="#6E5F5D" d="M116.891,169c-1.6-2.4-0.6-4.5,1.101-2.2c1.899,2.4,2.3,3.601,1.399,4.101
	C118.891,171.2,117.792,170.4,116.891,169z"/>
<path fill="#6E5F5D" d="M25.792,169.5c-0.4-0.6-0.3-1.6,0.3-2.2c0.6-0.6,1.2-0.6,1.7,0.2c0.4,0.6,0.3,1.6-0.3,2.2
	C26.892,170.3,26.292,170.3,25.792,169.5z"/>
<path fill="#6E5F5D" d="M129.792,169.5c-0.4-0.6-0.3-1.6,0.3-2.2c0.601-0.6,1.2-0.6,1.7,0.2c0.4,0.6,0.3,1.6-0.3,2.2
	C130.891,170.3,130.292,170.3,129.792,169.5z"/>
<path fill="#6E5F5D" d="M94.992,163.9c-0.3-0.4-0.101-1.601,0.5-2.801c0.7-1.1,1.2-2.399,1.3-2.8c0-0.5,0.3-0.8,0.8-0.8
	c0.601,0,0.9,0.5,0.601,1.3c0,0.101-0.2,1-0.4,2.101C97.391,163.2,95.891,164.8,94.992,163.9z"/>
<path fill="#6E5F5D" d="M112.091,162.8c-2-1-3.3-1.1-4.7-0.3c-1.199,0.6-2.199,0.6-2.6,0.1c-1.6-2.6,6.6-3.6,9.6-1.199
	C117.192,163.7,115.692,164.6,112.091,162.8z"/>
<path fill="#6E5F5D" d="M26.691,160.1c-0.4-1-0.2-2.199,0.4-2.8c0.8-0.8,1.3-0.7,1.8,0.601c0.4,1,0.2,2.199-0.4,2.8
	C27.691,161.5,27.191,161.4,26.691,160.1z"/>
<path fill="#6E5F5D" d="M128.792,160.5c-0.4-0.6-0.3-1.6,0.3-2.2c0.601-0.6,1.2-0.6,1.7,0.2c0.4,0.6,0.3,1.6-0.3,2.2
	C129.891,161.3,129.292,161.3,128.792,160.5z"/>
<path fill="#6E5F5D" d="M32.792,152.3c-0.9-2.3-0.2-8.3,1-8.3c1.4,0,1.9,7.5,0.6,8.8C33.691,153.5,33.191,153.3,32.792,152.3z"/>
<path fill="#6E5F5D" d="M127.692,152.1c-0.4-1-0.2-2.199,0.399-2.8c0.8-0.8,1.3-0.7,1.8,0.601c0.4,1,0.2,2.199-0.399,2.8
	C128.692,153.5,128.192,153.4,127.692,152.1z"/>
<path fill="#6E5F5D" d="M27.792,151.5c-0.4-0.6-0.3-1.6,0.3-2.2c0.6-0.6,1.2-0.6,1.7,0.2c0.4,0.6,0.3,1.6-0.3,2.2
	C28.892,152.3,28.292,152.3,27.792,151.5z"/>
<path fill="#6E5F5D" d="M50.792,149.5c-0.4-0.6-0.3-1.6,0.3-2.2c0.6-0.6,1.2-0.6,1.7,0.2c0.4,0.6,0.3,1.6-0.3,2.2
	C51.892,150.3,51.292,150.3,50.792,149.5z"/>
<path fill="#6E5F5D" d="M104.792,148.3c-0.9-2.2-0.2-6.8,1-7.1c1.4-0.3,1.9,6.3,0.6,7.6C105.692,149.5,105.192,149.3,104.792,148.3z
	"/>
<path fill="#6E5F5D" d="M122.692,148.2c-0.7-2-0.2-4.7,1.1-5c1.4-0.3,1.9,4.3,0.6,5.6C123.692,149.5,123.192,149.4,122.692,148.2z"
	/>
<path fill="#6E5F5D" d="M38.792,143.5c-0.8-1.2,2-2.4,3.5-1.5c0.6,0.3,0.8,1.1,0.5,1.6C41.992,144.8,39.591,144.8,38.792,143.5z"/>
<path fill="#6E5F5D" d="M47.792,142.6c-0.7-1.199,1.2-2.399,2.5-1.6c1.1,0.7,0.4,2.5-1,2.5C48.792,143.5,48.191,143.1,47.792,142.6z
	"/>
<path fill="#6E5F5D" d="M111.792,142.6c-0.7-1.199,1.2-2.399,2.5-1.6c1.1,0.7,0.4,2.5-1,2.5
	C112.792,143.5,112.192,143.1,111.792,142.6z"/>
<path fill="#444A54" d="M54.691,75.4c-0.9-1.5,3.3-4.7,7.2-5.5c2-0.4,4.3,0,6.3,1c3.4,1.8,3.7,2.6,1.9,4.399
	C68.492,76.9,55.691,76.9,54.691,75.4z"/>
<path fill="#6E5F5D" d="M49.792,32.6c-0.3-0.6,0.3-1.5,1.4-2.1c1.2-0.6,2.2-0.6,2.6-0.1c0.3,0.6-0.3,1.5-1.4,2.1
	C51.191,33.1,50.191,33.1,49.792,32.6z"/>
<path fill="#6E5F5D" d="M109.891,24.6c-1-1.1-1.3-2.199-0.8-2.5c0.5-0.3,1.7,0.301,2.601,1.301c1,1.1,1.3,2.199,0.8,2.5
	C111.992,26.2,110.792,25.6,109.891,24.6z"/>
<path fill="#6E5F5D" d="M58.892,21.7c-0.3-0.601,0.1-1.5,0.8-2.101c0.8-0.699,1.7-0.8,2-0.3c0.3,0.601-0.1,1.5-0.8,2.101
	C60.091,22.1,59.191,22.2,58.892,21.7z"/>
<path fill="#6E5F5D" d="M62.792,18.6c-0.3-0.6,0.4-1.5,1.5-2.1s2-0.8,2-0.4c0,0.301,0.6,0.101,1.4-0.5c1-0.8,1.6-0.899,2.1-0.1
	c0.3,0.5,0.4,1.1,0.1,1.1c-0.3,0.101-0.9,0.2-1.3,0.301c-0.5,0.1-1.8,0.699-3,1.399C64.292,19,63.191,19.1,62.792,18.6z"/>
<path fill="#A3A565" d="M76.191,131.3c-1.1-4.5,0.4-6.7,3.9-5.3c1.601,0.6,1.601,0.8-0.3,2.1c-1.1,0.801-1.9,1.801-1.7,2.2
	c0.2,0.3-0.1,0.8-0.7,1S76.292,131.5,76.191,131.3z"/>
<path fill="#A3A565" d="M48.292,109.6c-0.6-1.199-0.6-2.199-0.1-2.6c0.6-0.3,1.5,0.3,2.1,1.4c0.6,1.199,0.6,2.199,0.1,2.6
	C49.792,111.3,48.892,110.7,48.292,109.6z"/>
<path fill="#A3A565" d="M44.792,98.5c-0.4-0.6-0.3-1.6,0.3-2.2c0.6-0.6,1.2-0.6,1.7,0.2c0.4,0.6,0.3,1.6-0.3,2.2
	C45.892,99.3,45.292,99.3,44.792,98.5z"/>
<path fill="#A3A565" d="M51.992,90.8c-0.4-0.3-0.2-1.2,0.4-2c1.1-1.3,1-1.399-1.1-1.7c-0.5,0-1-0.399-1-0.8c0-0.5,0-1.1,0-1.399
	c0-0.4,0.7,0,1.7,0.699c0.9,0.801,1.8,1.301,2,1.2c1.2-0.899,1.3,0,0.2,1.4c-0.8,0.899-1.2,1.8-1.1,2
	C53.691,91,52.691,91.5,51.992,90.8z"/>
<path fill="#A3A565" d="M82.992,66.8c-0.4-0.6,0-1.8,0.7-2.8c0.8-1.1,1.6-1.4,1.899-0.8c0.4,0.6,0,1.8-0.7,2.8
	C84.091,67.1,83.292,67.4,82.992,66.8z"/>
<path fill="#A3A565" d="M61.792,41.5c-0.3-0.5,0-1.3,0.9-1.6c2.1-0.801,7.1-0.101,7.1,1.1C69.792,42.4,62.591,42.9,61.792,41.5z"/>
<path fill="#A3A565" d="M78.792,40.6c-0.7-1.3,1.7-2.399,4-1.899c0.9,0.1,1.6,0.8,1.6,1.3C84.391,41.4,79.591,41.9,78.792,40.6z"/>
<path d="M60.992,84.7c-1-1-1.7-2.2-1.7-2.7s0.7-1.7,1.7-2.7c1.3-1.399,1.3-1.8,0.2-1.899c-5.8-0.4-7.7-0.4-7.3,0.3
	c0.3,0.399-0.4,1.2-1.5,1.8c-3.1,1.6-3.3-0.5-0.3-2.7c2-1.5,4.3-2,9.4-2c3.8,0,7.4-0.6,8.1-1.2c1.1-0.8,1.9-0.5,3.6,1.301
	c1.4,1.5,1.9,2.6,1.2,3.1c-1.1,0.6-1.5-0.1-1.2-1.9c0.1-0.5-0.5-0.399-1.3,0.301c-0.8,0.699-2,1.1-2.8,1c-3.1-0.4-4.2,0.1-3,1.3
	c1.8,1.8,1.4,5.6-0.7,6.8C62.892,86.8,62.892,86.8,60.992,84.7z"/>
<path fill="#DCB993" d="M77.792,166.6c-0.3-0.6,0.3-1.5,1.4-2.1c1.2-0.6,2.2-0.6,2.6-0.1c0.3,0.6-0.3,1.5-1.4,2.1
	C79.191,167.1,78.191,167.1,77.792,166.6z"/>
<path fill="#DCB993" d="M61.892,157.6c-0.4-0.5-0.2-1.199,0.4-1.6c0.5-0.3,1-0.3,1,0.1c0,0.301,0.6,0.101,1.4-0.5
	c1-0.8,1.6-0.899,2.1-0.1c0.3,0.5,0.4,1.1,0.1,1.1c-0.3,0.101-0.9,0.2-1.3,0.301c-0.5,0.1-1.3,0.5-2,0.899
	C62.992,158.2,62.191,158.1,61.892,157.6z"/>
<path fill="#DCB993" d="M127.391,144.1c-0.699-0.8-0.8-1.699-0.3-2c0.601-0.3,1.5,0.101,2.101,0.801c0.699,0.8,0.8,1.699,0.3,2
	C128.891,145.2,127.992,144.8,127.391,144.1z"/>
<path fill="#DCB993" d="M69.492,132.4c-2.9-1.101-2.6-4.5,0.3-4.101c2.4,0.3,14.2,0.3,17-0.1c3.1-0.3,3.1,3.1,0,4.3
	C83.492,133.7,72.591,133.7,69.492,132.4z"/>
<path fill="#DCB993" d="M91.192,127.8c-0.101-0.399-0.101-1.2,0-1.7c0.1-0.5-0.601-0.5-1.601-0.1c-3.899,1.8-17.3,1.8-21.8,0.1
	c-5.7-2.199-12.8-7.399-12.2-8.899c1.9-4.601,1.9-5.2,0.2-2.9c-2.2,3-3.9,1.7-7.7-6.3c-4.8-10.2-3.2-13.5,2.7-5.5c3.4,4.7,6,6,6,3.2
	c0-0.7,0.3-1.2,0.8-1.2c0.6,0,0.9,0.4,0.6,1.3c0,0.101-0.2,1.5-0.4,3.101c-0.4,2.6-0.3,2.699,1,1c1.4-1.801,1.6-1.7,1.9,1.6
	c0,0.8,2.7,2.8,5.8,4.4c8,3.899,15.5,3.899,23.5-0.2c5.3-2.601,7.7-5.7,4.6-5.7c-0.7,0-1.3-0.3-1.3-0.7c0-0.7,0.5-1,1.3-0.7
	c1.8,0.601,4.5,0.301,4.4-0.5c-0.101-0.5,0.5-1,1.5-1.1c0.899,0,3.5-2.4,5.8-5.3c4.4-5.5,6.1-6,5.2-1.7c-0.2,1.5,0,2.5,0.6,2.3
	c0.5-0.2,0.9,0.101,0.9,0.7c-0.101,0.5-0.7,0.9-1.2,0.7c-0.6-0.101-1.7,1.3-2.3,3.2c-1.9,5.199-7.601,12-12.7,15.199
	c-2.5,1.601-4.3,3.4-4.1,4.101c0.3,0.7,0.1,1.5-0.4,1.8C91.692,128.4,91.192,128.3,91.192,127.8z"/>
<path fill="#DCB993" d="M81.792,114.6c-0.3-0.6,0.3-1.5,1.4-2.1c1.199-0.6,2.199-0.6,2.6-0.1c0.3,0.6-0.3,1.5-1.4,2.1
	C83.192,115.1,82.192,115.1,81.792,114.6z"/>
<path fill="#DCB993" d="M69.091,111.7c-2.3-2.7-2.9-4-2-4.601c0.5-0.3,1.8,0.801,3,2.4C72.392,112.6,71.492,114.6,69.091,111.7z"/>
<path fill="#DCB993" d="M45.292,109.6c-0.6-1.199-0.6-2.199-0.1-2.6c0.6-0.3,1.5,0.3,2.1,1.4c0.6,1.199,0.6,2.199,0.1,2.6
	C46.792,111.3,45.892,110.7,45.292,109.6z"/>
<path fill="#DCB993" d="M96.391,105.1c-0.699-0.8-0.8-1.699-0.3-2c0.601-0.3,1.5,0.101,2.101,0.801c0.699,0.8,0.8,1.699,0.3,2
	C97.891,106.2,96.992,105.8,96.391,105.1z"/>
<path fill="#DCB993" d="M59.792,103.6c-0.3-0.6,0.3-1.5,1.4-2.1c1.2-0.6,2.2-0.6,2.6-0.1c0.3,0.6-0.3,1.5-1.4,2.1
	C61.191,104.1,60.191,104.1,59.792,103.6z"/>
<path fill="#DCB993" d="M91.792,102.1c-1.1-0.8-1.4-1.6-0.8-1.899c0.6-0.4,1.8,0,2.8,0.7c1.1,0.8,1.4,1.6,0.8,1.899
	C93.992,103.2,92.792,102.8,91.792,102.1z"/>
<path fill="#DCB993" d="M37.992,99.8c-0.4-0.3-0.4-1,0-1.6c0.3-0.601,0.5-3.8,0.4-7.3c-0.1-3.4,0.2-6.5,0.8-6.801
	c1.4-0.899,4.4,5.5,3.1,6.801c-0.5,0.5-1,2-1,3.199c0,1.301-0.5,2.601-1,2.9c-0.6,0.4-0.8,1-0.5,1.5
	C40.392,99.5,38.792,100.7,37.992,99.8z"/>
<path fill="#DCB993" d="M75.792,99.5c-0.8-1.3,2-2.4,4.1-1.6c2,0.8,0.9,2.6-1.6,2.6C77.292,100.5,76.091,100,75.792,99.5z"/>
<path fill="#DCB993" d="M85.692,99c-1-0.8-1.5-1.5-1-1.5s0.3-0.6-0.301-1.4c-0.8-1-0.899-1.6-0.1-2.1c1-0.6,1.1-0.5,1.4,1.5
	c0,0.5,1,1.5,2,2.3c1.1,0.8,1.5,1.7,0.899,2C87.992,100.2,86.692,99.8,85.692,99z"/>
<path fill="#DCB993" d="M72.591,97.2c-1.9-2.4-2.3-3.601-1.4-4.101c0.5-0.3,1.6,0.5,2.5,1.9C75.292,97.4,74.292,99.5,72.591,97.2z"
	/>
<path fill="#DCB993" d="M115.792,96.3c-1-2.399-0.1-12.3,1-12.1c1.4,0.399,1.9,11.3,0.6,12.6
	C116.692,97.5,116.192,97.3,115.792,96.3z"/>
<path fill="#DCB993" d="M54.892,93.8c-0.3-0.3,0.1-1.399,1-2.399c1.3-1.4,2.1-1.601,3.6-0.801c1,0.5,1.6,1.4,1.3,2
	c-0.4,0.5-1.4,0.5-2.7-0.199c-1.3-0.7-1.8-0.7-1.4-0.101C57.392,93.5,55.892,94.8,54.892,93.8z"/>
<path fill="#DCB993" d="M81.891,91.6c-0.899-1.5,2.301-3.6,3.5-2.399c0.801,0.8,0.5,1.399-0.899,2.2
	C83.292,92,82.192,92.1,81.891,91.6z"/>
<path fill="#DCB993" d="M72.892,85.6c-0.4-0.5-0.2-1.199,0.4-1.6c0.5-0.3,1-0.3,1,0.1c0,0.301,0.6,0.101,1.4-0.5
	c1-0.8,1.6-0.899,2.1-0.1c0.3,0.5,0.4,1.1,0.1,1.1c-0.3,0.101-0.9,0.2-1.3,0.301c-0.5,0.1-1.3,0.5-2,0.899
	C73.992,86.2,73.191,86.1,72.892,85.6z"/>
<path fill="#DCB993" d="M51.992,84.8c-0.8-1.399-0.2-5.3,0.8-5.6c1.2-0.3,1.7,5.1,0.5,5.8C52.792,85.3,52.191,85.2,51.992,84.8z"/>
<path d="M59.091,83.8c-0.2-0.399-0.3-1.399-0.2-2c0.1-0.7,0.2-1.7,0.3-2.3c0.2-1.8,4.2-3.3,5.4-2.1c0.9,0.899,0.6,1.3-1.1,1.699
	c-1.2,0.4-2.3,1-2.3,1.5c-0.1,0.5-0.2,1.301-0.3,1.801C60.691,83.8,59.492,84.7,59.091,83.8z"/>
<path fill="#DCB993" d="M95.692,81.7c-0.4-1.2-1-2.3-1.5-2.3c-0.5-0.101-1.301-0.2-1.9-0.301c-0.5,0-1-0.5-1-1.1c0-0.9,0.8-1,4-0.6
	c1.8,0.199,3.3,4.199,2.1,5.399C96.492,83.7,96.091,83.4,95.692,81.7z"/>
<path fill="#DCB993" d="M109.792,81.3c-0.9-2.399-0.1-12.8,1-13.1c1.3-0.3,1.9,12.3,0.6,13.6
	C110.692,82.5,110.192,82.3,109.792,81.3z"/>
<path fill="#DCB993" d="M76.191,80.1c-0.1-0.3-0.2-0.899-0.3-1.3c-0.1-0.5-0.5-1.3-0.9-2c-0.4-0.6-0.3-1.399,0.3-1.8
	c0.5-0.3,1.1-0.4,1.1-0.1c0.1,0.3,0.2,0.899,0.3,1.399c0.1,0.4,0.5,1.2,0.9,1.9c0.4,0.6,0.3,1.399-0.3,1.8
	C76.792,80.3,76.191,80.4,76.191,80.1z"/>
<path fill="#DCB993" d="M50.091,77.8c-0.7-1.399-0.3-3.3,0.6-3.3c1.2-0.1,1.7,2.8,0.6,3.5C50.792,78.3,50.292,78.2,50.091,77.8z"/>
<path fill="#DCB993" d="M104.891,75.8c-0.3-0.3-0.6-3-0.6-5.899V64.6l-9-0.3c-11.5-0.399-11.9-2.2-0.5-2.6c10.5-0.3,12.5,1,12.5,8.7
	C107.292,75.1,106.391,77.2,104.891,75.8z"/>
<path fill="#DCB993" d="M72.292,72.5c-1.3-2.4-1-7.5,0.5-7.5c1.2,0,2.5,8.4,1.4,9.1C73.691,74.3,72.892,73.6,72.292,72.5z"/>
<path fill="#DCB993" d="M44.792,64.5c-0.4-0.6-0.3-1.6,0.3-2.2c0.6-0.6,1.2-0.6,1.7,0.2c0.4,0.6,0.3,1.6-0.3,2.2
	C45.892,65.3,45.292,65.3,44.792,64.5z"/>
<path fill="#DCB993" d="M50.691,64.3c-0.3-0.399,0.5-1.2,1.6-1.8c2.5-1.3,18-0.9,18,0.5C70.292,64.1,51.292,65.4,50.691,64.3z"/>
<path fill="#DCB993" d="M109.192,62.1c-0.101-0.3-0.2-0.899-0.301-1.3c-1.199-5.3-7.5-11.399-15.5-15.1c-5.1-2.4-6.1-2.5-18-1.9
	c-12.6,0.5-17.8-0.3-19.5-3.2c-1.4-2.199,0.4-3,3.7-1.6c2.4,1,6.4,1.2,15.7,0.8c11.4-0.5,13-0.399,17.4,1.5
	c8.1,3.7,16.199,11.4,17,16.5c0.1,0.601,0.5,1.7,0.899,2.4c0.4,0.6,0.3,1.399-0.3,1.8C109.792,62.3,109.192,62.4,109.192,62.1z"/>
<path fill="#DCB993" d="M48.992,47.8c-0.4-0.6,0-1.8,0.7-2.8c0.8-1.1,1.6-1.4,1.9-0.8c0.4,0.6,0,1.8-0.7,2.8
	C50.091,48.1,49.292,48.4,48.992,47.8z"/>
<path fill="#DCB993" d="M42.892,36.7c-0.3-0.5,0.5-1.9,1.8-3.101c1.3-1.3,2.6-1.8,3-1.3c0.3,0.5-0.5,1.9-1.8,3.101
	C44.591,36.7,43.292,37.2,42.892,36.7z"/>
<path fill="#DCB993" d="M104.192,20.1c-0.5-2.3-0.2-4.6,0.5-4.8c1.199-0.399,1.5,4.101,0.399,4.8
	C104.692,20.4,104.292,20.4,104.192,20.1z"/>
<path fill="#DCB993" d="M99.792,17.5c-0.4-0.6-1-0.8-1.5-0.5s-1.1,0.1-1.4-0.4c-0.399-0.5-0.199-1.199,0.301-1.5
	c0.5-0.399,1.199-0.199,1.6,0.4s1,0.8,1.5,0.5s1.1-0.1,1.4,0.4c0.399,0.5,0.199,1.199-0.301,1.5
	C100.891,18.3,100.192,18.1,99.792,17.5z"/>
<path d="M65.792,82.5c-0.4-0.6-0.3-1.6,0.3-2.2c0.6-0.6,1.2-0.6,1.7,0.2c0.4,0.6,0.3,1.6-0.3,2.2
	C66.892,83.3,66.292,83.3,65.792,82.5z"/>
<path d="M59.892,80.7c-0.3-0.601,0.1-1.5,0.8-2.101c0.8-0.699,1.7-0.8,2-0.3c0.3,0.601-0.1,1.5-0.8,2.101
	C61.091,81.1,60.191,81.2,59.892,80.7z"/>
<path d="M49.892,78.6c-0.4-0.5-0.2-1.199,0.4-1.6c0.5-0.3,1-0.3,1,0.1c0,0.301,0.7,0.101,1.5-0.6s1.5-0.9,1.5-0.5s0.6,0.3,1.3-0.2
	c1.6-1.2,3.7-1.1,3.7,0.2c0,0.6-0.9,1.1-2,1.1c-1.1,0.101-2.2,0.301-2.5,0.4s-0.8,0.3-1.2,0.4c-0.5,0.1-1.3,0.5-2,0.899
	C50.992,79.2,50.191,79.1,49.892,78.6z"/>
<path d="M66.792,76.5c-0.7-1.2,3.2-3.3,4.5-2.5c0.6,0.4,0.8,1,0.5,1.4C71.091,76.7,67.392,77.4,66.792,76.5z"/>
<path d="M64.591,79.4c-0.4-0.4-3-0.9-5.8-1.101c-2.7-0.2-5-0.7-5-1.3c0-1.1,18.5-2.4,19.1-1.3C73.591,76.8,65.591,80.4,64.591,79.4z
	"/>
<path fill="#5386C6" d="M19.792,233.5c-0.3-0.5,1.5-20,4-43.2c4.2-38.3,4.8-42.5,6.7-44.5c1.2-1.3,2.5-2,3-1.5
	c0.9,0.9,3.1,87.9,2.3,89.3C34.992,234.8,20.591,234.8,19.792,233.5z"/>
<path fill="#5386C6" d="M37.892,233.6c-0.9-1.399-2.7-89.399-1.9-90.199c0.5-0.4,4.2-0.9,8.3-1.101l7.5-0.3l0.6,5.5
	c0.4,3,1,6.3,1.4,7.3c0.7,1.601,1.2,1.9,4.5,2.101c5.3,0.399,14,47.8,12.8,70.6l-0.3,6.5l-16.2,0.3
	C45.691,234.4,38.191,234.1,37.892,233.6z"/>
<path fill="#5386C6" d="M86.992,233.9c-1-1.101-0.8-17.301,0.399-30.4c1.2-13.4,4.101-28.7,7.2-38c1.8-5.4,2.7-6.7,5.4-7.9
	c3.3-1.399,5-5.399,5.5-13.1l0.3-3.5l6,0.4c3.2,0.1,6.9,0.699,8.2,1.199l2.2,0.801l-0.601,28.8c-0.3,15.8-0.8,36.2-1.2,45.3
	l-0.6,16.5l-16.1,0.3C94.891,234.4,87.391,234.2,86.992,233.9z M118.091,175c0.2-5.8-3-12.3-6.6-13.2c-2.4-0.6-8.7,1.9-10.5,4.2
	c-0.4,0.5-0.601,3.1-0.5,5.7c0.1,2.6-0.101,5.1-0.5,5.399c-1.8,1.9,0,2.4,8.6,2.4h9.3L118.091,175z"/>
<path fill="#5386C6" d="M121.692,233.2c-1-2.7,1.5-88,2.6-89.101c1.4-1.399,5,2.7,5.1,5.801c0,1.1,2.2,20.3,4.801,42.6
	c2.6,22.3,4.6,40.8,4.399,41.3c-0.2,0.4-4,0.7-8.399,0.7C124.492,234.5,122.091,234.1,121.692,233.2z"/>
<path fill="#CD7D50" d="M66.792,135.3c-0.3-0.7-0.3-2.6-0.1-4.3c0.2-2.2,0.8-2.9,2.5-2.9c1.1,0,2.1,0.4,2,0.9c0,0.6-0.7,0.9-1.4,0.7
	c-1.1-0.2-1.3,0.399-0.9,2.6C69.492,135.3,67.691,137.8,66.792,135.3z"/>
<path fill="#CD7D50" d="M62.792,124.1c-1.1-0.8-1.4-1.6-0.8-1.899c0.6-0.4,1.8,0,2.8,0.7c1.1,0.8,1.4,1.6,0.8,1.899
	C64.992,125.2,63.792,124.8,62.792,124.1z"/>
<path fill="#CD7D50" d="M53.892,115.6c-0.4-0.5-0.2-1.199,0.4-1.6c0.5-0.3,1-0.3,1,0.1c0,0.301,0.6,0.101,1.4-0.5
	c1-0.8,1.6-0.899,2.1-0.1c0.3,0.5,0.4,1.1,0.1,1.1c-0.3,0.101-0.9,0.2-1.3,0.301c-0.5,0.1-1.3,0.5-2,0.899
	C54.992,116.2,54.191,116.1,53.892,115.6z"/>
<path fill="#CD7D50" d="M106.992,109.8c-0.4-0.6,0-1.8,0.7-2.8c0.8-1.1,1.6-1.4,1.899-0.8c0.4,0.6,0,1.8-0.7,2.8
	C108.091,110.1,107.292,110.4,106.992,109.8z"/>
<path fill="#CD7D50" d="M58.792,102.1c-1.1-0.8-1.4-1.6-0.8-1.899c0.6-0.4,1.8,0,2.8,0.7c1.1,0.8,1.4,1.6,0.8,1.899
	C60.992,103.2,59.792,102.8,58.792,102.1z"/>
<path fill="#CD7D50" d="M63.792,101.5c-0.3-0.5,0.8-1.6,2.5-2.5c1.6-0.8,3-1.3,3-0.9c0,0.4,0.6,0.101,1.4-0.5
	c1-0.8,1.6-0.899,2.1-0.1c0.3,0.5,0.4,1.1,0.1,1.1c-0.3,0.101-0.9,0.2-1.3,0.301c-0.5,0.1-2.2,1-4,1.899
	C65.691,101.8,64.191,102.1,63.792,101.5z"/>
<path fill="#CD7D50" d="M75.792,101.5c-0.8-1.3,2-2.4,4.1-1.6c2,0.8,0.9,2.6-1.6,2.6C77.292,102.5,76.091,102,75.792,101.5z"/>
<path fill="#CD7D50" d="M83.292,97.6c-0.6-1.199-0.6-2.199-0.1-2.6c0.6-0.3,1.5,0.3,2.1,1.4c0.6,1.199,0.6,2.199,0.1,2.6
	C84.792,99.3,83.891,98.7,83.292,97.6z"/>
<path fill="#CD7D50" d="M39.792,97.6c-0.7-1.199,1.2-2.399,2.5-1.6c1.1,0.7,0.4,2.5-1,2.5C40.792,98.5,40.191,98.1,39.792,97.6z"/>
<path fill="#CD7D50" d="M59.691,96.4c-0.9-1-1.5-2-1.3-2c0.2-0.101,2.2-0.2,4.4-0.301c2.2-0.199,5.1-0.8,6.4-1.5
	c1.6-0.899,2.6-1,3.4-0.199c1,1-0.3,2-3.5,2.5c-0.7,0.1-2.7,0.899-4.5,1.8C61.591,98.2,61.292,98.2,59.691,96.4z"/>
<path fill="#CD7D50" d="M79.992,95.9c-0.3-0.5,0.3-2,1.2-3.301c1.1-1.399,2.1-1.899,2.5-1.3c0.3,0.5-0.2,2-1.2,3.3
	C81.391,95.8,80.391,96.4,79.992,95.9z"/>
<path fill="#CD7D50" d="M73.992,89.8c-0.4-0.6,0-1.8,0.7-2.8c0.8-1.1,1.6-1.4,1.9-0.8c0.4,0.6,0,1.8-0.7,2.8
	C75.091,90.1,74.292,90.4,73.992,89.8z"/>
<path fill="#CD7D50" d="M89.391,85.1c-0.699-0.8-0.8-1.699-0.3-2c0.601-0.3,1.5,0.101,2.101,0.801c0.699,0.8,0.8,1.699,0.3,2
	C90.891,86.2,89.992,85.8,89.391,85.1z"/>
<path fill="#CD7D50" d="M75.691,83.1c-0.4-1-0.2-2.199,0.4-2.8c0.8-0.8,1.3-0.7,1.8,0.601c0.4,1,0.2,2.199-0.4,2.8
	C76.691,84.5,76.191,84.4,75.691,83.1z"/>
<path fill="#CD7D50" d="M49.792,74.3c-0.9-2.399-0.2-9.3,1-9.3c1.4,0,1.9,8.5,0.6,9.8C50.691,75.5,50.191,75.3,49.792,74.3z"/>
<path fill="#CD7D50" d="M82.792,74.3c-0.9-2.3-0.2-8.3,1-8.3c1.4,0,1.9,7.5,0.6,8.8C83.692,75.5,83.192,75.3,82.792,74.3z"/>
<path fill="#CD7D50" d="M109.792,67.5c-0.4-0.6-0.3-1.6,0.3-2.2c0.601-0.6,1.2-0.6,1.7,0.2c0.4,0.6,0.3,1.6-0.3,2.2
	C110.891,68.3,110.292,68.3,109.792,67.5z"/>
<path fill="#CD7D50" d="M44.792,62.5c-0.4-0.6-0.3-1.6,0.3-2.2c0.6-0.6,1.2-0.6,1.7,0.2c0.4,0.6,0.3,1.6-0.3,2.2
	C45.892,63.3,45.292,63.3,44.792,62.5z"/>
<path fill="#CD7D50" d="M46.892,52.6c-0.4-0.5-0.2-1.199,0.4-1.6s0.8-1,0.5-1.5s-0.1-1.1,0.4-1.4c0.5-0.399,1.2-0.199,1.5,0.301
	c0.4,0.5,0.2,1.199-0.4,1.6s-0.8,1-0.5,1.5s0.1,1.1-0.4,1.4C47.892,53.3,47.191,53.1,46.892,52.6z"/>
<path fill="#444A54" d="M61.792,106.5c-0.9-1.4,7.4-6.5,8.6-5.3c0.7,0.7,0.3,1.5-1.3,2.5C64.392,106.7,62.392,107.5,61.792,106.5z"
	/>
<path fill="#444A54" d="M89.492,104.9c-3.101-1.801-4.101-2.9-3.3-3.7c1.199-1.2,9.5,3.8,8.6,5.3
	C93.992,107.8,94.492,107.9,89.492,104.9z"/>
<path fill="#444A54" d="M112.992,79.8c-0.7-1.2-0.601-14.6,0.1-15.7c0.8-1.399,0.9-5.5,0-5c-0.399,0.301-1.2-0.5-1.8-1.6
	s-0.8-2-0.4-2c0.4,0-0.3-1.1-1.6-2.5s-2-2.5-1.5-2.5c0.4,0-0.4-0.9-1.8-2c-1.4-1.1-2.9-2.9-3.2-4c-0.4-1.1-1-1.8-1.5-1.5
	c-0.4,0.3-1.3-0.2-2-1s-1.6-1.3-2-1c-0.5,0.3-1.1,0.1-1.5-0.5c-0.3-0.5-1.7-1-3-1c-2.9,0-4.3-1.8-2.1-2.6
	c0.899-0.301,1.399-1,1.1-1.5c-0.8-1.101-3.5,0-3.2,1.399c0.3,1.5-4.2,2.2-5.5,0.9c-0.6-0.601-2-0.7-3.2-0.4
	c-2.7,0.9-4.8,0.9-6.399-0.2c-0.7-0.399-1.9-0.199-2.7,0.4c-0.8,0.7-1.5,0.9-1.5,0.5s-0.6-0.2-1.4,0.4c-0.9,0.8-2.1,0.8-4,0.1
	c-1.4-0.5-2.6-0.7-2.6-0.3c0,0.399-1.1-0.4-2.5-1.7c-1.3-1.2-2.3-2.6-2-2.9c0.2-0.399,0-1.3-0.5-2.1s-0.4-2.2,0.3-3.4
	c0.6-1.199,1-2.8,0.9-3.699c-0.7-4.5,12.2-10.9,21.899-10.9c6.801,0,19.5,2.6,24.5,5.1c6.7,3.2,13,10.9,15.4,18.7
	c3.8,12.101,2.4,33.101-2.6,41C115.192,80.5,113.792,81.1,112.992,79.8z M86.992,34c0-0.8-0.601-1.5-1.3-1.5
	c-0.801,0-1.101,0.6-0.801,1.5c0.4,0.8,0.9,1.5,1.301,1.5C86.591,35.5,86.992,34.8,86.992,34z"/>
<path fill="#444A54" d="M40.792,76.4c-0.4-0.5-0.4-1.301-0.1-1.601c0.3-0.399,0-1.3-0.8-2.2c-2.4-2.699-3.9-15.899-2.6-23.3
	c0.9-5.2,1.9-7.3,5.2-11.1c4-4.8,9.1-8.2,10.7-7.3c0.5,0.3,1.1,1.6,1.4,2.8c0.5,1.6-0.4,3.1-3.3,6.1c-2.2,2.101-3.8,4.4-3.7,5
	c0.1,0.7-0.5,1.101-1.3,0.9c-1.2-0.3-1.2-0.101-0.3,0.899c0.9,0.9,0.8,1.7-0.3,3.4c-0.8,1.3-1.3,2.9-1.2,3.6
	c0.2,0.801-0.3,1.301-1.1,1.101c-1.1-0.2-1.2,0-0.3,1c0.9,1.1,1,6.5,0.1,7.6c-0.1,0.101-0.2,1-0.3,2c-0.1,0.9-0.5,2.2-0.9,2.9
	c-0.4,0.6-0.3,1.399,0.2,1.7c1.1,0.699,1.1,6.5,0,7.199C41.792,77.3,41.091,77,40.792,76.4z"/>
<path fill="#444A54" d="M85.692,74.1c-0.301-0.699-0.4-3.1-0.2-5.199l0.3-3.9h9h9v5v5l-8.8,0.3C88.091,75.5,86.091,75.3,85.692,74.1
	z"/>
<path fill="#444A54" d="M52.691,72.1c-0.3-0.8-0.4-2.699-0.2-4.3c0.3-2.8,0.3-2.8,8.4-3.1c6.3-0.2,8.4,0.1,9.4,1.2
	c2.4,3,0.6,4.3-5.5,3.8c-4.7-0.4-6.2-0.101-8.6,1.7C53.792,73.2,53.191,73.3,52.691,72.1z"/>
<path fill="#E9583F" d="M102.992,175.8c-0.9-1.1-1.5-3.399-1.4-5.7c0.101-2.899,0.601-4,2.3-4.6c1.2-0.5,2.5-1.4,2.9-1.9
	c0.3-0.6,1.7-1.1,3-1.1c2.7,0,7.5,6.4,7.5,9.9C117.292,177,106.391,179.5,102.992,175.8z M110.792,170c0-2.8-2.9-2.5-3.3,0.3
	c-0.3,1.9,0,2.3,1.5,2C109.992,172.1,110.792,171.1,110.792,170z"/>
<path fill="#E9583F" d="M60.392,152.9c-1.1-1.4-2.3-4.2-2.7-6.101c-0.7-3.8,1.2-11.2,3.2-12c0.7-0.2,3.5,0.7,6.3,2.2l5.2,2.6
	l-0.3,6.101l-0.3,6l-4.7,1.899l-4.7,1.801L60.392,152.9z"/>
<path fill="#E9583F" d="M89.591,153.5l-4.3-1.9v-6c0-6,0-6.1,4-8.1c2.1-1.1,4.6-2,5.4-2c2.1,0,4.6,5.1,4.6,9.2
	c0,3.399-2.9,10-4.6,10.399C94.192,155.2,91.891,154.5,89.591,153.5z"/>
<path fill="#E9583F" d="M73.691,150.1c-0.3-0.8-0.4-3.1-0.2-5.199l0.3-3.9h5h5l-0.3,4c-0.101,2.2-0.5,4.6-0.7,5.3
	C82.192,152,74.392,151.9,73.691,150.1z"/>
<path fill="#FFE1AE" d="M70.492,137.4c-3.8-2.5-4.3-6.7-0.7-6c1.1,0.199,4.9,0.399,8.5,0.399c3.6,0,7.4-0.2,8.5-0.399
	c3.2-0.601,3.2,3.399-0.1,6C82.992,140.3,74.992,140.3,70.492,137.4z"/>
<path fill="#FFE1AE" d="M69.992,119.1c-4.4-1.6-11.7-6.199-11.7-7.5c0-1.3,2.1-2.699,5.8-3.899c2.9-1,3.4-0.9,4.7,1.2
	c2,3,5.7,4.6,10.7,4.6c3.3,0,4.6-0.6,7.2-3.3c3.1-3.3,3.199-3.4,7.1-2c2.2,0.7,4.3,1.7,4.7,2.1c1.1,1.101-7.101,6.9-12.3,8.7
	C81.091,120.8,74.992,120.8,69.992,119.1z"/>
<path fill="#FFE1AE" d="M52.591,106.3c-1.6-1.8-4.2-5.1-5.7-7.3c-2.5-3.8-2.6-4.5-2.6-18c0-20.5,2.6-32.8,8.3-39.9l2.4-3l2.8,2.2
	c2.6,2.101,3.7,2.2,17.4,1.9c14.1-0.2,14.8-0.101,19.6,2.5c6.5,3.5,14,10.8,15.3,15c0.601,1.8,1.3,10.7,1.7,19.8l0.6,16.5
	l-5.699,6.9l-5.601,6.8l-2.8-3c-1.5-1.7-5.5-4.4-8.8-6.101c-6-3-6.101-3.1-5.601-6.8c0.301-2.899,0.2-3.3-0.5-1.8
	c-1.6,3.6-3.899,4.9-6.5,3.7c-3.2-1.5-4-4.5-2.2-8.101c2.1-4,2-7.899-0.4-12.399c-1.1-2-2-5-2-6.5s-0.5-3.3-1.2-4
	c-1.4-1.4-16.5-1.7-18.6-0.4c-1.1,0.8-1.5,6.601-1.2,19.101c0,4.3,2.1,7.6,6.1,9.6c2.9,1.5,3,1.8,2.3,6.3c-0.6,4-2.8,10.2-3.7,10.2
	C55.792,109.5,54.292,108,52.591,106.3z M95.992,83c0.3-0.9-0.2-2.4-1.2-3.5c-2.1-2.3-1.3-2.8,5.5-3.2l4.5-0.3l0.3-5.4
	c0.2-3.699-0.1-5.699-1-6.199c-0.7-0.5-4.899-0.9-9.3-0.9s-8.6,0.4-9.3,0.9c-0.9,0.5-1.2,2.5-1,6.199c0.3,4.9,0.5,5.4,2.8,5.7
	c4.8,0.601,5.3,1,3.6,3.3c-0.8,1.2-1.199,2.801-0.899,3.5C90.692,85,95.192,84.9,95.992,83z"/>
<path fill="#FFE1AE" d="M60.792,102.5c-0.9-1.5,0.5-7.1,1.8-7.4c0.7-0.199,2.8-0.8,4.7-1.5c3-1,3.7-0.899,4.8,0.601
	c0.6,0.899,1.2,2,1.2,2.5C73.292,98.1,61.392,103.6,60.792,102.5z"/>
<path fill="#FFE1AE" d="M75.792,100.6c-0.3-0.5-0.2-1.199,0.3-1.5c1.2-0.699,4.7-0.1,4.7,0.9
	C80.792,101.2,76.492,101.6,75.792,100.6z"/>
<path fill="#FFE1AE" d="M113.692,97.2c-0.301-0.8-0.4-4.101-0.2-7.3c0.2-4.4,0.7-5.9,1.8-5.9c1.2,0,1.5,1.4,1.5,6.9
	c0,4.699-0.4,7.1-1.2,7.3C114.891,98.5,114.091,98,113.692,97.2z"/>
<path fill="#FFE1AE" d="M39.992,96.9c-1.1-1.101-0.8-12.2,0.3-12.9c1.4-0.9,2,1.1,2.3,7.4C42.792,96.4,41.691,98.6,39.992,96.9z"/>
<path fill="#FFE1AE" d="M58.191,92c-3.6-1.9-6.1-6.1-6.1-10.1c0-4.7,0.8-5.4,5.6-5.4c5.2,0,6.1,0.8,4,3.1c-2.2,2.4-1.1,4.9,2.1,4.9
	c1.9,0,2.5-0.5,2.5-2.3c0-1.3-0.5-2.8-1.1-3.4c-1.4-1.399-0.3-2,4.6-2.399c3.7-0.4,4-0.2,4.9,2.899c1.2,4.3-1.1,9.5-5.6,12.2
	C65.292,93.8,61.792,94,58.191,92z"/>
<path d="M16.992,235.8c-0.8-1.6,9.2-87.7,10.5-90.1c1.7-3.2,5.6-4.8,14.3-5.601c8.8-0.899,10.5-1.399,10.5-3.1
	c0-0.7,1.2-2.3,2.7-3.5c2.6-2,4.3-2.1,8.7-0.4c1.2,0.5,1.6,0,1.6-1.699c0-1.301-0.4-2.801-0.8-3.4c-1.6-2.2-10.2-7.4-10.7-6.5
	c-1.4,2.2-6.3,1-8.9-2.1c-2.3-2.801-2.6-3.9-2.6-11.5c0-7.4-0.2-8.4-1.8-8.4c-3.2,0-4.2-2.2-4.2-9.2c0-5.6,0.3-7,1.9-8
	c1.7-1,1.7-1.5,0.6-4.3c-0.8-1.7-2.1-6.9-3.1-11.5c-2.1-10.4-1.4-19,2-25.7c2.6-5.2,9.9-12.6,13.5-13.8c1.2-0.3,3-2.4,4.1-4.5
	c3.9-7.7,12.9-12,24.9-12c8.199,0,18.6,2.2,24,5c16.5,8.4,24,32.5,17.5,56c-0.9,3-2.2,6.6-3.101,7.8
	c-1.3,2.101-1.3,2.601,0.101,4.101c2.399,2.6,2.199,13.199-0.2,15.399c-1,1-2.601,1.7-3.4,1.7c-1,0-1.8,1.3-2.2,3.4
	c-1.399,7.3-10.1,17.699-18.3,22c-2.6,1.3-3.3,2.3-3.3,4.6c0,3.3,0.2,3.4,4.5,2.1c3.8-1.1,7.2,0.2,8.6,3.2
	c1,2.101,2.101,2.5,9.7,3.5c10.4,1.3,13.601,2.4,15.601,5.4c1.6,2.5,12.1,89.1,11.1,90.899C140.091,236.7,17.591,236.9,16.992,235.8
	z M34.792,221.8c-0.3-6.5-0.8-26.6-1.1-44.7c-0.6-31.399-0.7-32.699-2.4-31c-1.5,1.601-2.5,8.801-5.9,41.4
	c-2.3,21.7-4.5,41-4.8,42.8l-0.5,3.2h7.6h7.6L34.792,221.8z M67.191,232.8l2.4-0.6l-0.6-19.101c-0.6-19.6-2.2-30.699-6.6-45.1
	c-2.6-8.4-3-9.2-5.6-9.6c-2.7-0.5-5.5-6.5-5.5-11.7v-4.3l-5.7,0.6c-10.1,1.1-9.3,0.1-8.8,13.3c0.3,6.4,0.8,26.4,1.1,44.5l0.6,32.7
	h13.2C58.892,233.5,65.892,233.2,67.191,232.8z M84.292,221.7c0-6.4,0.7-17.4,1.5-24.3c1.3-11.7,6.3-33.801,8.5-37.801
	c0.8-1.6,0.2-2.1-4.9-4c-6.699-2.399-15.3-2.699-20.2-0.699c-1.9,0.699-4.1,1.6-5.1,1.899c-1.5,0.5-1.4,1.3,0.9,8.4
	c5.2,16.5,8.3,37.8,8.3,58v10.3h5.5h5.5V221.7z M113.391,232.5h5.7l0.601-35.7c0.3-19.7,0.8-39.7,1-44.5l0.5-8.7l-5.7-0.6
	c-3.101-0.4-6.5-0.9-7.4-1.1c-1.5-0.5-1.8,0.199-1.8,4.1c0,6.4-2.2,11.3-5.5,12.1c-3,0.7-3.6,2-7.1,14.9
	c-4,15.1-7.801,52.5-5.9,58.5c0.7,2.2,0.9,2.3,10.4,1.6C103.492,232.8,110.292,232.5,113.391,232.5z M137.292,231.3
	c0-4.8-9.7-84.5-10.4-85.6c-0.399-0.7-1.1-1.2-1.5-1.2c-0.5,0-1.1,12.9-1.5,28.8c-0.3,15.8-0.8,35.8-1.1,44.5l-0.6,15.7h7.6
	C136.891,233.5,137.292,233.4,137.292,231.3z M65.792,152.6l5-1.8l0.2-5.2l0.2-5.199l-5.2-2.5c-9.1-4.2-11.1-2.9-11.1,7.1
	C54.892,154.8,56.392,155.9,65.792,152.6z M101.692,152.3c0.899-3.7,0.699-12.8-0.4-14.899c-1.4-2.5-3.4-2.4-9.8,0.6l-5.3,2.5
	l0.3,5.2c0.3,5.2,0.3,5.3,4.8,7C97.792,155.1,100.891,155,101.692,152.3z M82.292,146c0-4.4,0-4.5-3.4-4.5c-2.8,0-3.5,0.4-4,2.6
	c-1.1,4.4,0.1,6.4,4,6.4C82.292,150.5,82.292,150.5,82.292,146z M85.391,137.2c0.9-0.7,1.801-2.8,2-4.7l0.4-3.6l-5.2,1
	c-3.5,0.6-6.8,0.6-9.8-0.101l-4.5-1v3.101c0,2.3,0.7,3.5,2.8,4.8C74.292,138.6,83.091,139,85.391,137.2z M89.992,124.4
	c7-2.7,14.3-9.301,17.3-15.7c3.4-7.2,4.2-15,3.2-32.7c-0.7-13.1-1.3-16.7-3-20c-2.9-5.6-7.7-9.9-14.601-13.1
	c-5.699-2.601-6.199-2.601-18.5-2c-10.2,0.5-13.1,0.399-15.4-0.801c-2.6-1.399-2.9-1.399-4.8,0.5c-3.3,3.301-5.8,9.9-7.5,20.2
	c-1.3,8-1.5,12.5-0.7,26.101c0.8,15.3,1.1,16.699,3.8,22.1c1.7,3.2,3.4,5.8,4,5.9c0.9,0.1,3.7-9.2,4.9-16.301
	c0.5-3.199,0.2-3.8-2.3-5.3c-5.6-3.2-6.6-6.1-6.3-17.7c0.2-5.8,0.8-11.1,1.4-11.8c1.4-1.7,18.9-1.8,20.6-0.1
	c0.7,0.7,1.2,2.7,1.2,4.5s0.9,4.7,2,6.5c2.4,3.899,2.6,9.2,0.5,13.2c-1.8,3.399-1.2,6.3,1.5,7.1c2.5,0.8,3.9-0.1,5-3.1
	c0.5-1.301,1.4-2.4,2-2.4c1.9,0,2.3,3,0.7,5.4c-1.5,2.3-1.5,2.399,2.1,3.5c4.7,1.399,13.2,7.699,13.2,9.6c0,2.4-2.7,2.9-6.7,1.4
	c-3.5-1.4-3.7-1.301-6.8,1.8c-2.9,2.899-4,3.3-8.5,3.3c-4.7,0-5.6-0.4-8.4-3.3c-3-3.2-3.2-3.3-6.7-1.9c-2.8,1-4,2.3-5.2,5.3
	l-1.5,3.801l4.8,3c2.7,1.699,6.4,3.399,8.2,4C75.392,127.1,83.891,126.6,89.992,124.4z M52.292,119.1c0-0.199-1.6-2.699-3.5-5.6
	c-3-4.4-3.5-4.8-3.5-2.7c0,4.8,2,8.7,4.6,8.7C51.191,119.5,52.292,119.3,52.292,119.1z M84.391,109.6c2-1.6,2.2-2.3,1.301-3.8
	c-0.801-1.3-2.601-1.899-7.101-2.1c-7-0.3-9.3,1.2-7.1,4.7C73.691,111.9,80.792,112.6,84.391,109.6z M71.892,97.5
	c1.6,0,1.8-1.2,0.4-2.6c-1.6-1.601-10,0.699-10,2.699c0,1-0.3,2.5-0.6,3.4c-0.5,1.2,0.4,1,4.1-1
	C68.492,98.6,71.191,97.5,71.892,97.5z M79.492,99.3c-0.9-0.899-1.5-0.899-2.4,0c-0.9,0.9-0.7,1.2,1.2,1.2
	C80.192,100.5,80.391,100.2,79.492,99.3z M42.191,94.8c0-1-0.4-3.6-0.8-5.8c-0.9-4-0.9-3.9-1,1.8c0,3.2,0.3,5.7,0.9,5.7
	S42.292,95.7,42.191,94.8z M116.292,91c0-3-0.4-5.5-1-5.5c-0.5,0-1,2.5-1,5.5s0.5,5.5,1,5.5C115.891,96.5,116.292,94,116.292,91z
	 M67.892,91c10.1-4.2,6.4-19.5-4.8-19.5c-10.3,0-13.7,15.5-4.3,19.6C62.691,92.8,63.591,92.8,67.892,91z M119.292,66.4
	c2.6-13.5,0.5-28.301-5.4-37.9c-5.899-9.6-17-14.3-34.1-14.3c-15-0.101-22.5,5-22.5,15.1c0,8.3,0.1,8.3,16.8,8
	c14.101-0.3,14.9-0.2,20.3,2.4c13,6,18.4,14.399,19.601,30.3l0.6,10l1.9-4.2C117.492,73.5,118.792,69.3,119.292,66.4z M45.091,50.8
	c1.2-4,3.5-8.5,5.4-10.8c3.5-4.2,4.7-9.014,1.8-9.014c-2.3,0-8.9,5.514-11.2,9.915c-3.1,5.899-3.6,19.1-1.2,28.8l1.9,7.3l0.6-9.7
	C42.792,62,43.992,54.6,45.091,50.8z M64.392,68.2c2.7,0,4.9-0.3,4.9-0.8s-3.6-0.9-8-0.9h-8v3v3.1l3.1-2.3
	C58.691,68.6,60.691,68,64.392,68.2z"/>
<path d="M77.292,225c-1-1.1-1-1.9-0.2-2.7c1.5-1.5,4.4-0.2,4,1.9C80.692,226.5,78.892,226.9,77.292,225z"/>
<path d="M76.691,211c-0.4-0.9-0.2-2.1,0.4-2.7c1.5-1.5,4.4-0.1,4,1.9C80.692,212.5,77.492,213.1,76.691,211z"/>
<path d="M76.691,195.4c-0.3-0.601,0-1.7,0.8-2.5c1.3-1.301,1.6-1.301,2.7,0c0.699,0.8,1,2,0.6,2.6
	C79.992,196.8,77.591,196.8,76.691,195.4z"/>
<path d="M77.292,180c-1-1.1-1-1.9-0.2-2.7c1.5-1.5,4.4-0.2,4,1.9C80.692,181.5,78.892,181.9,77.292,180z"/>
<path d="M77.292,165c-1-1.1-1-1.9-0.2-2.7c1.5-1.5,4.4-0.2,4,1.9C80.692,166.5,78.892,166.9,77.292,165z"/>
<path d="M98.792,179.5c-0.3-0.5-0.3-1.5,0.1-2.2c0.4-0.6,0.601-3.5,0.5-6.399c-0.199-5.2-0.199-5.301,3.9-7.9
	c5.9-3.7,9.6-3.1,13.2,2c2.3,3.4,2.7,4.9,2.5,9.5l-0.3,5.5l-9.601,0.3C103.192,180.5,99.192,180.2,98.792,179.5z M112.992,175.9
	c2.899-0.801,3.899-4.101,1.899-6.301c-0.899-1-1.6-2.199-1.6-2.8c0-0.6-0.7-1.6-1.6-2.399c-2.5-2.101-8.101,1.399-8.7,5.5
	C102.091,175.8,105.591,177.9,112.992,175.9z"/>
<path d="M106.391,172.1c-0.899-1.1-1-2-0.1-3.5c1.3-2.6,4.6-2.699,5.9-0.3C114.192,172.1,109.091,175.4,106.391,172.1z"/>
<path d="M90.492,84.9c-2.601-1.801-2.8-3.101-0.5-5.601c1.5-1.7,1.5-1.8-1.3-1.8c-1.7,0-3.5-0.5-4.2-1.2c-1.601-1.6-1.601-11,0-12.6
	c0.8-0.8,4.6-1.2,10.3-1.2s9.5,0.4,10.3,1.2c1.601,1.6,1.601,11,0,12.6c-0.7,0.7-3.399,1.2-6.2,1.2c-4.699,0-4.8,0.1-3.3,1.8
	c2.2,2.4,2.101,3.5-0.1,5.5C93.192,86.9,93.292,86.9,90.492,84.9z M102.292,70.5v-4h-8h-8v3.3c0,1.9,0.3,3.7,0.7,4
	c0.3,0.4,3.899,0.7,8,0.7h7.3V70.5z"/>
<path fill="#FFFFFF" d="M72.892,233.3c-0.3-0.7-0.7-7.899-1-16.1c-0.9-22.101-4-41.3-9-55.4c-1.7-4.8-1.5-5.1,5.4-7.6
	c6.2-2.3,14.3-2.101,21,0.399c3,1.101,5.8,2.301,6.2,2.5c0.399,0.2-0.4,3.7-1.8,7.601c-4.601,13.7-8,37.399-8.7,61.3l-0.2,8
	l-5.8,0.3C74.992,234.5,73.191,234.2,72.892,233.3z M80.292,224c0-0.8-0.7-1.5-1.5-1.5c-1.6,0-2,1.2-0.8,2.3
	C79.091,226,80.292,225.6,80.292,224z M80.292,210c0-0.8-0.7-1.5-1.5-1.5s-1.5,0.7-1.5,1.5s0.7,1.5,1.5,1.5S80.292,210.8,80.292,210
	z M80.292,194.5c0-0.5-0.7-1-1.5-1s-1.5,0.5-1.5,1c0,0.6,0.7,1,1.5,1S80.292,195.1,80.292,194.5z M80.292,179c0-0.8-0.7-1.5-1.5-1.5
	c-1.6,0-2,1.2-0.8,2.3C79.091,181,80.292,180.6,80.292,179z M80.292,164c0-0.8-0.7-1.5-1.5-1.5s-1.5,0.7-1.5,1.5s0.7,1.5,1.5,1.5
	S80.292,164.8,80.292,164z"/>
<path fill="#FFFFFF" d="M71.792,109.5c-2.8-2.9-2.8-3-1-5c2.5-2.8,12.4-2.9,14.8-0.2c2.3,2.5,2.101,3.7-0.899,6.101
	C80.692,113.6,75.292,113.2,71.792,109.5z"/>
<path fill="#FFE1AE" d="M57.691,76.5c0,0,10.032-0.116,10.716,0.392S62.091,80.4,57.691,76.5z"/>
<path fill="#FFE1AE" d="M87.587,77.72c0,0,10.032-0.116,10.716,0.392S91.987,81.62,87.587,77.72z"/>
<rect x="57.899" y="77.708" fill="#FFE1AE" width="10.769" height="9.573"/>
<rect x="87.584" y="78.51" fill="#FFE1AE" width="10.769" height="9.573"/>
<circle cx="63.045" cy="82.453" r="2.854"/>
<circle cx="94.895" cy="82.495" r="2.854"/>
<g>
</g>
<g>
</g>
<g>
</g>
<g>
</g>
<g>
</g>
<g>
</g>
</svg>
