<?xml version="1.0" encoding="UTF-8" ?>
<!DOCTYPE svg PUBLIC "-//W3C//DTD SVG 1.1//EN" "http://www.w3.org/Graphics/SVG/1.1/DTD/svg11.dtd">
<svg width="32pt" height="32pt" viewBox="0 0 32 32" version="1.1" xmlns="http://www.w3.org/2000/svg">
<path fill="#ffffff" d=" M 0.00 0.00 L 14.69 0.00 C 7.13 0.51 0.64 6.88 0.00 14.44 L 0.00 0.00 Z" />
<path fill="#171516" d=" M 14.69 0.00 L 17.47 0.00 C 25.00 0.62 31.46 7.01 32.00 14.57 L 32.00 17.48 C 31.31 23.93 26.45 29.92 19.97 31.17 C 20.11 28.41 19.97 25.64 19.30 22.95 C 21.79 22.30 24.73 21.38 25.59 18.63 C 27.34 14.47 24.15 10.52 24.44 6.31 C 22.94 6.92 21.43 7.50 19.92 8.06 C 17.31 7.77 14.69 7.77 12.08 8.06 C 10.56 7.50 9.04 6.91 7.54 6.31 C 7.41 7.77 7.29 9.24 7.16 10.71 C 5.67 13.56 5.22 17.23 7.14 20.00 C 8.46 22.01 11.01 22.36 13.10 23.12 C 12.24 24.57 11.07 26.30 9.15 25.30 C 7.54 23.96 6.08 22.37 4.06 21.64 C 6.05 24.48 7.86 28.50 12.07 27.68 C 12.05 28.84 12.03 30.01 12.03 31.18 C 5.49 29.89 0.58 23.83 0.00 17.29 L 0.00 14.44 C 0.64 6.88 7.13 0.51 14.69 0.00 Z" />
<path fill="#ffffff" d=" M 17.47 0.00 L 32.00 0.00 L 32.00 14.57 C 31.46 7.01 25.00 0.62 17.47 0.00 Z" />
<path fill="#ffffff" d=" M 7.54 6.31 C 9.04 6.91 10.56 7.50 12.08 8.06 C 14.69 7.77 17.31 7.77 19.92 8.06 C 21.43 7.50 22.94 6.92 24.44 6.31 C 24.15 10.52 27.34 14.47 25.59 18.63 C 24.73 21.38 21.79 22.30 19.30 22.95 C 19.97 25.64 20.11 28.41 19.97 31.17 C 26.45 29.92 31.31 23.93 32.00 17.48 L 32.00 32.00 L 0.00 32.00 L 0.00 17.29 C 0.58 23.83 5.49 29.89 12.03 31.18 C 12.03 30.01 12.05 28.84 12.07 27.68 C 7.86 28.50 6.05 24.48 4.06 21.64 C 6.08 22.37 7.54 23.96 9.15 25.30 C 11.07 26.30 12.24 24.57 13.10 23.12 C 11.01 22.36 8.46 22.01 7.14 20.00 C 5.22 17.23 5.67 13.56 7.16 10.71 C 7.29 9.24 7.41 7.77 7.54 6.31 Z" />
</svg>
