<?xml version="1.0" encoding="utf-8"?>
<!-- Generator: Adobe Illustrator 16.0.0, SVG Export Plug-In . SVG Version: 6.00 Build 0)  -->
<!DOCTYPE svg PUBLIC "-//W3C//DTD SVG 1.1//EN" "http://www.w3.org/Graphics/SVG/1.1/DTD/svg11.dtd">
<svg version="1.1" id="Layer_1" xmlns="http://www.w3.org/2000/svg" xmlns:xlink="http://www.w3.org/1999/xlink" x="0px" y="0px"
	 width="166.542px" height="253.834px" viewBox="0 0 166.542 253.834" enable-background="new 0 0 166.542 253.834"
	 xml:space="preserve">
<g>
	<path fill="#FBD26F" d="M99.792,24.101c-1.1-0.8-1.4-1.6-0.8-1.899c0.6-0.4,1.8,0,2.8,0.7c1.1,0.8,1.4,1.6,0.8,1.899
		C101.992,25.201,100.792,24.801,99.792,24.101z"/>
	<path fill="#FBD26F" d="M93.792,21.501c-0.4-0.6-1-0.8-1.5-0.5s-1.1,0.1-1.4-0.4c-0.399-0.5-0.199-1.199,0.301-1.5
		c0.5-0.399,1.199-0.199,1.6,0.4s1,0.8,1.5,0.5s1.1-0.1,1.4,0.4c0.399,0.5,0.199,1.199-0.301,1.5
		C94.891,22.301,94.192,22.101,93.792,21.501z"/>
	<path fill="#FBD26F" d="M51.892,19.601c-0.4-0.5-0.2-1.199,0.4-1.6c0.5-0.3,1-0.3,1,0.1c0,0.301,0.6,0.101,1.4-0.5
		c1-0.8,1.6-0.899,2.1-0.1c0.3,0.5,0.4,1.1,0.1,1.1c-0.3,0.101-0.9,0.2-1.3,0.301c-0.5,0.1-1.3,0.5-2,0.899
		C52.992,20.201,52.191,20.101,51.892,19.601z"/>
	<path fill="#FBD26F" d="M59.792,17.601c-0.7-1.199,1.2-2.399,2.5-1.6c1.1,0.7,0.4,2.5-1,2.5
		C60.792,18.501,60.191,18.101,59.792,17.601z"/>
	<path fill="#FBD26F" d="M75.792,17.601c-0.7-1.199,1.2-2.399,2.5-1.6c1.1,0.7,0.4,2.5-1,2.5
		C76.792,18.501,76.191,18.101,75.792,17.601z"/>
	<path fill="#CF8F32" d="M62.492,139.301c-0.7-0.7-1.2-0.899-1.2-0.5c0,0.4-1.4,0-3-0.8c-1.7-0.9-2.8-2-2.5-2.5
		c0.4-0.6,1.9-0.3,3.8,0.7c1.8,0.899,3.7,1.7,4.2,1.7c1.3,0.1,1.9,2,0.8,2.3C64.091,140.401,63.191,140.001,62.492,139.301z"/>
	<path fill="#CF8F32" d="M100.792,136.501c-0.3-0.5,1.2-1.8,3.4-3c2.3-1.1,4.199-1.6,4.6-1c0.3,0.5-1.2,1.8-3.4,3
		C103.091,136.601,101.192,137.101,100.792,136.501z"/>
	<path fill="#CF8F32" d="M51.392,133.101c-1.3-1.3-1.8-2.6-1.3-3c0.5-0.3,1.9,0.5,3.1,1.801c1.3,1.3,1.8,2.6,1.3,3
		C53.992,135.201,52.591,134.401,51.392,133.101z"/>
	<path fill="#CF8F32" d="M59.392,128.101c-1.3-1.3-1.8-2.6-1.3-3c0.5-0.3,1.9,0.5,3.1,1.801c1.3,1.3,1.8,2.6,1.3,3
		C61.992,130.201,60.591,129.401,59.392,128.101z"/>
	<path fill="#CF8F32" d="M105.891,129.701c-0.3-0.5,0.301-1.7,1.301-2.601c1.1-1,2.199-1.3,2.5-0.8c0.3,0.5-0.301,1.7-1.301,2.601
		C107.292,129.901,106.192,130.201,105.891,129.701z"/>
	<path fill="#CF8F32" d="M113.692,124.401c-0.301-0.5-0.9-0.7-1.4-0.4s-1.1,0.1-1.4-0.4c-0.399-0.5-0.199-1.199,0.301-1.5
		c0.5-0.399,1.199-0.199,1.6,0.4s1.5,0.4,3.1-0.7c1.7-1.1,2.801-1.3,3.5-0.6c0.7,0.7,0.101,1.5-2,2.6
		C115.591,124.701,114.091,124.901,113.692,124.401z"/>
	<path fill="#CF8F32" d="M37.792,122.501c-0.4-0.6-1-0.8-1.5-0.5s-1.1,0.1-1.4-0.4c-0.4-0.5-0.2-1.199,0.3-1.5
		c0.5-0.399,1.2-0.199,1.6,0.4s1,0.8,1.5,0.5s1.1-0.1,1.4,0.4c0.4,0.5,0.2,1.199-0.3,1.5
		C38.892,123.301,38.191,123.101,37.792,122.501z"/>
	<path fill="#CF8F32" d="M128.891,119.701c-0.3-0.5,0.301-1.7,1.301-2.601c1.1-1,2.199-1.3,2.5-0.8c0.3,0.5-0.301,1.7-1.301,2.601
		C130.292,119.901,129.192,120.201,128.891,119.701z"/>
	<path fill="#CF8F32" d="M49.191,119.001c-0.4-1.9-0.2-4.5,0.4-4.5c0.4,0,0.7,0.3,0.8,0.8c0,0.4,0.5,1.2,1,1.8
		c0.5,0.601,0.6,1.4,0.2,1.7C50.792,119.601,49.292,119.701,49.191,119.001z"/>
	<path fill="#CF8F32" d="M42.992,116.401c-2.1-1.101-3.5-2.4-3.2-3c0.4-0.5,1.1-0.7,1.6-0.301c0.5,0.301,0.9,0.2,0.8-0.3
		c-0.4-2,0.3-2.2,2.9-0.899c1.9,1,2.8,2.199,2.7,3.5C47.591,118.401,47.191,118.501,42.992,116.401z"/>
	<path fill="#CF8F32" d="M30.191,117.101c-0.1-0.3-0.2-0.899-0.3-1.3c-0.1-0.5-0.4-1.3-0.8-1.899c-1-1.5,2-5.4,3.6-4.801
		c0.7,0.301,1.9-0.199,2.6-1c0.7-0.899,1.7-1.3,2.2-1c1.3,0.9-2.1,4.4-3.7,3.801c-1.8-0.7-3.8,2.899-2.4,4.3c0.8,0.8,0.7,1.3,0,1.7
		C30.792,117.301,30.191,117.401,30.191,117.101z"/>
	<path fill="#CF8F32" d="M53.792,116.601c-0.7-1.199,1.2-2.399,2.5-1.6c1.1,0.7,0.4,2.5-1,2.5
		C54.792,117.501,54.191,117.101,53.792,116.601z"/>
	<path fill="#CF8F32" d="M114.792,115.501c-0.3-0.5-0.4-1.1-0.1-1.1c1.699-0.4,2.6-0.7,2.899-0.9c0.101-0.1,1.2-0.3,2.4-0.4
		c2.6-0.3,6.3-3.3,6-4.899c-0.101-0.601,0.5-1.2,1.3-1.2c2.3-0.2,5.1,1.5,4.5,2.6c-0.4,0.5-1.3,0.5-2.6-0.1
		c-1.7-1-2.301-0.7-2.101,1.1c0.2,1.5-4,4.2-6.5,4.301c-1.6,0.1-3.3,0.5-4,0.899C115.992,116.201,115.192,116.101,114.792,115.501z"
		/>
	<path fill="#CF8F32" d="M24.392,97.101c-0.7-0.8-0.8-1.699-0.3-2c0.6-0.3,1.5,0.101,2.1,0.801c0.7,0.8,0.8,1.699,0.3,2
		C25.892,98.201,24.992,97.801,24.392,97.101z"/>
	<path fill="#CF8F32" d="M20.292,90.501c-1.1-2.2-1.8-4-1.4-4s0.1-0.6-0.5-1.4c-0.8-1-0.9-1.6-0.1-2.1c0.5-0.3,1.1-0.4,1.1-0.1
		c0.1,0.3,0.2,0.899,0.3,1.399c0.1,0.4,1.2,2.601,2.4,4.9c1.3,2.399,1.8,4.399,1.2,4.8C22.792,94.301,21.492,92.801,20.292,90.501z"
		/>
	<path fill="#CF8F32" d="M70.792,91.501c-0.4-0.6-0.3-1.6,0.3-2.2c0.6-0.6,1.2-0.6,1.7,0.2c0.4,0.6,0.3,1.6-0.3,2.2
		C71.892,92.301,71.292,92.301,70.792,91.501z"/>
	<path fill="#CF8F32" d="M114.692,91.401c-0.601-1-0.7-1,2.5-1.301c1.399-0.199,3.399-1.5,4.6-3.1c1.3-1.6,2.5-2.3,2.9-1.7
		c1,1.7-3.601,6.3-6.7,6.601C116.492,92.101,114.992,91.801,114.692,91.401z"/>
	<path fill="#CF8F32" d="M113.692,86.101c-0.4-1-0.2-2.199,0.399-2.8c0.8-0.8,1.3-0.7,1.8,0.601c0.4,1,0.2,2.199-0.399,2.8
		C114.692,87.501,114.192,87.401,113.692,86.101z"/>
	<path fill="#CF8F32" d="M68.191,80.101c-0.1-0.3-0.2-0.899-0.3-1.3c-0.1-0.5-0.7-1.8-1.4-3c-0.7-1.3-0.8-2.399-0.3-2.8
		c0.6-0.3,1.5,0.4,2.1,1.5s0.8,2,0.4,2c-0.3,0-0.1,0.6,0.5,1.4c0.8,1,0.9,1.6,0.1,2.1C68.792,80.301,68.191,80.401,68.191,80.101z"
		/>
	<path fill="#CF8F32" d="M122.692,69.101c-0.801-2.1,0.3-4.899,1.6-4.1c0.5,0.3,1,1.5,1,2.5
		C125.292,70.001,123.492,71.101,122.692,69.101z"/>
	<path fill="#CF8F32" d="M61.792,65.501c-0.8-1.6-1.3-3-0.9-3s0.1-0.7-0.6-1.5s-0.9-1.5-0.5-1.5s0.2-0.6-0.4-1.4
		c-0.8-1-0.9-1.6-0.1-2.1c0.5-0.3,1.1-0.4,1.1-0.1c0.4,1.6,0.7,2.6,0.9,3.1c0.1,0.3,0.3,0.8,0.4,1.3c0.1,0.4,1,2.101,1.9,3.9
		c1,1.899,1.3,3.399,0.7,3.8C63.792,68.301,62.691,67.201,61.792,65.501z"/>
	<path fill="#CF8F32" d="M17.892,66.601c-0.4-0.5-0.2-1.199,0.4-1.6s0.8-1,0.5-1.5s-0.1-1.1,0.4-1.4c0.5-0.399,1.2-0.199,1.5,0.301
		c0.4,0.5,0.2,1.199-0.4,1.6s-0.8,1-0.5,1.5s0.1,1.1-0.4,1.4C18.892,67.301,18.191,67.101,17.892,66.601z"/>
	<path fill="#CF8F32" d="M101.192,64.801c-0.101-0.399-0.101-1.2,0-1.6c0.1-0.4-0.801-0.3-1.801,0.3c-1.199,0.6-2.199,0.6-2.6,0.1
		c-0.3-0.6,0.3-1.5,1.3-2c1.5-0.8,2.3-0.6,3.601,0.801c1.1,1.3,1.399,2.1,0.699,2.6C101.792,65.301,101.192,65.301,101.192,64.801z"
		/>
	<path fill="#CF8F32" d="M104.192,63.001c-0.5-2.3-0.2-4.5,0.6-4.4c0.6,0.101,0.9,0.5,0.7,1.101c-0.101,0.5,0.2,0.7,0.7,0.399
		c0.5-0.399,1.199-0.199,1.6,0.301c0.3,0.6-0.4,1.5-1.5,2.1S104.292,63.301,104.192,63.001z"/>
	<path fill="#CF8F32" d="M120.992,60.101c-0.9-1.3-2.4-2.3-3.4-2.199c-1.1,0.1-1.7-0.601-1.7-2.101c0-1.3,0.4-2.3,0.9-2.3
		c0.6,0,1,0.4,1,0.9c0,1.199,1.4,2.6,2.7,2.6c1.6,0,4.1,4.2,3,4.9C122.891,62.201,121.792,61.401,120.992,60.101z"/>
	<path fill="#CF8F32" d="M95.692,60.001c-0.4-1,0.3-2.6,1.6-4c2.4-2.5,5-2.4,2.9,0.1c-0.601,0.7-1.5,1.2-1.9,0.9
		c-0.5-0.3-0.6,0.3-0.3,1.4C98.591,60.701,96.492,62.201,95.692,60.001z"/>
	<path fill="#CF8F32" d="M110.891,57.601c-1.1-1.3-1.399-2.1-0.699-2.6c1.1-0.6,1.5,0.1,1.199,1.8c-0.1,0.5,0.301,0.601,0.801,0.3
		c0.5-0.399,1.199-0.199,1.5,0.301C114.891,59.301,112.492,59.401,110.891,57.601z"/>
	<path fill="#CF8F32" d="M61.292,55.001c-0.7-0.8-1.6-1.3-2-1c-0.5,0.3-1.1,0.1-1.4-0.4c-0.4-0.5-0.2-1.199,0.3-1.5
		c0.5-0.399,1.2-0.199,1.6,0.4s1,0.8,1.5,0.5c0.4-0.3,1.3,0.2,1.9,0.9c0.7,0.8,0.8,1.699,0.3,2
		C62.892,56.201,61.992,55.801,61.292,55.001z"/>
	<path fill="#CF8F32" d="M70.792,45.601c-0.3-0.6,0.4-1.5,1.5-2.1s2-0.8,2-0.4c0,0.301,0.7,0.101,1.5-0.6s1.5-0.9,1.5-0.5
		s0.6,0.2,1.4-0.4c1-0.8,1.6-0.899,2.1-0.1c0.3,0.5,0.4,1.1,0.1,1.1c-1.6,0.4-2.6,0.7-3.1,0.9c-0.3,0.1-0.8,0.3-1.2,0.4
		c-0.5,0.1-1.8,0.699-3,1.399C72.292,46.001,71.191,46.101,70.792,45.601z"/>
	<path fill="#CF8F32" d="M105.792,44.701c-0.2-0.3,0-1.2,0.5-2.2c0.7-1.4,3.2-1.8,5.8-1.1c0.2,0.1-0.1,0.899-0.6,1.8
		C110.591,44.701,106.891,45.701,105.792,44.701z"/>
	<path fill="#CF8F32" d="M58.892,42.601c-1.1-1.3-1.4-2.1-0.7-2.6c1.1-0.6,1.5,0.1,1.2,1.8c-0.1,0.5,0.3,0.601,0.8,0.3
		c0.5-0.399,1.2-0.199,1.5,0.301C62.892,44.301,60.492,44.401,58.892,42.601z"/>
	<path fill="#CF8F32" d="M93.792,43.101c-1.1-0.8-1.4-1.6-0.8-1.899c0.6-0.4,1.8,0,2.8,0.7c1.1,0.8,1.4,1.6,0.8,1.899
		C95.992,44.201,94.792,43.801,93.792,43.101z"/>
	<path fill="#CF8F32" d="M61.191,41.001c-0.1-0.5-0.1-1.3,0-1.7c0-0.5-0.3-0.7-0.8-0.5c-0.5,0.101-0.8-0.2-0.7-0.8
		c0.1-1.1,3.5-1.5,4.1-0.5c0.2,0.4-0.2,1.6-1,2.6S61.292,41.601,61.191,41.001z"/>
	<path fill="#CF8F32" d="M107.391,38.301c-1-2.6-0.5-4.1,1.101-3.2c0.6,0.4,0.8,0.2,0.399-0.399c-0.3-0.601-0.199-1.3,0.301-1.7
		c0.6-0.3,1.5,0.4,2.1,1.5c1,1.8,0.7,2.4-1.2,2.1c-0.399,0-0.5,0.5-0.2,1.301c0.301,0.8,0.101,1.699-0.5,2.1
		C108.792,40.301,107.891,39.601,107.391,38.301z"/>
	<path fill="#CF8F32" d="M65.191,36.301c-0.9-3.3-0.3-5.1,2.2-6.399c1.8-0.9,3-1,3.4-0.4c0.3,0.5-0.6,1.5-2,2.2
		c-1.4,0.6-2.4,1.7-2.1,2.399c0.3,0.801,0.1,1.601-0.4,1.9C65.691,36.401,65.292,36.501,65.191,36.301z"/>
	<path fill="#CF8F32" d="M112.891,32.601c-2.1-2.1-3.399-4.1-2.899-4.399c0.6-0.4,2.7,1.1,4.7,3.2c2.1,2.1,3.399,4.1,2.899,4.399
		C116.992,36.201,114.891,34.701,112.891,32.601z"/>
	<path fill="#CF8F32" d="M101.792,33.601c-0.6-1.1,0.1-1.5,1.8-1.199c0.5,0.1,0.601-0.301,0.3-0.801
		c-0.399-0.5-0.199-1.199,0.301-1.5c1.899-1.199,2,1.2,0.199,2.801C103.091,34.001,102.292,34.301,101.792,33.601z"/>
	<path fill="#CF8F32" d="M96.792,32.601c-0.7-1.199,1.2-2.399,2.5-1.6c1.1,0.7,0.4,2.5-1,2.5
		C97.792,33.501,97.192,33.101,96.792,32.601z"/>
	<path fill="#CF8F32" d="M76.792,31.601c-0.7-1.199,1.2-2.399,2.5-1.6c1.1,0.7,0.4,2.5-1,2.5
		C77.792,32.501,77.191,32.101,76.792,31.601z"/>
	<path fill="#CF8F32" d="M87.792,31.501c-0.8-1.2,2-2.4,3.5-1.5c0.6,0.3,0.8,1.1,0.5,1.6C90.992,32.801,88.591,32.801,87.792,31.501
		z"/>
	<path fill="#CF8F32" d="M72.792,29.601c-0.7-1.199,1.2-2.399,2.5-1.6c1.1,0.7,0.4,2.5-1,2.5
		C73.792,30.501,73.191,30.101,72.792,29.601z"/>
	<path fill="#CF8F32" d="M93.792,29.601c-0.7-1.199,1.2-2.399,2.5-1.6c1.1,0.7,0.4,2.5-1,2.5
		C94.792,30.501,94.192,30.101,93.792,29.601z"/>
	<path fill="#E7CAA2" d="M77.892,183.601c-0.4-0.5-0.2-1.199,0.4-1.6c0.5-0.3,1-0.3,1,0.1c0,0.301,0.6,0.101,1.4-0.5
		c1-0.8,1.6-0.899,2.1-0.1c0.3,0.5,0.4,1.1,0.1,1.1c-0.3,0.101-0.899,0.2-1.3,0.301c-0.5,0.1-1.3,0.5-2,0.899
		C78.992,184.201,78.191,184.101,77.892,183.601z"/>
	<path fill="#E7CAA2" d="M79.891,141.601c-0.399-0.6-1.2-0.8-1.899-0.5c-1.5,0.5-5.4-2.1-4.1-2.8c0.5-0.3,2-0.1,3.4,0.4
		c1.4,0.6,4.3,1.1,6.5,1.2c2.2,0,4.2,0.6,4.5,1.1C88.992,142.301,80.692,142.901,79.891,141.601z"/>
	<path fill="#E7CAA2" d="M90.792,140.601c-0.7-1.199,1.2-2.399,2.5-1.6c1.1,0.7,0.4,2.5-1,2.5
		C91.792,141.501,91.192,141.101,90.792,140.601z"/>
	<path fill="#E7CAA2" d="M79.792,130.501c-0.3-0.5,0-1.3,0.8-1.6c2.3-0.801,8.2,0,8.2,1.1
		C88.792,131.401,80.591,131.901,79.792,130.501z"/>
	<path fill="#E7CAA2" d="M71.992,128.401c-2.1-1.101-3.5-2.4-3.2-2.9c0.6-1,8.6,2.3,8.6,3.6
		C77.492,130.601,75.892,130.401,71.992,128.401z"/>
	<path fill="#E7CAA2" d="M90.792,129.501c-0.3-0.6,0.6-1.4,2.2-2c1.5-0.5,4-1.6,5.5-2.4c2.899-1.6,4.7-0.6,2.5,1.301
		c-1.3,1-8.101,4.1-9.101,4.1C91.591,130.501,91.091,130.001,90.792,129.501z"/>
	<path fill="#E7CAA2" d="M63.292,122.001c-2.2-2.2-3-3.9-2.4-4.4c0.5-0.6,2.1,0.5,4.2,2.9
		C69.191,125.401,67.691,126.601,63.292,122.001z"/>
	<path fill="#E7CAA2" d="M102.891,123.701c-0.3-0.5,0.5-1.9,1.801-3.101c1.3-1.3,2.6-1.8,3-1.3c0.3,0.5-0.5,1.9-1.801,3.101
		C104.591,123.701,103.292,124.201,102.891,123.701z"/>
	<path fill="#E7CAA2" d="M77.792,120.101c-1.1-0.8-1.4-1.6-0.8-1.899c0.6-0.4,1.8,0,2.8,0.7c1.1,0.8,1.4,1.6,0.8,1.899
		C79.992,121.201,78.792,120.801,77.792,120.101z"/>
	<path fill="#E7CAA2" d="M107.992,117.901c-0.8-0.801,4.399-9.5,5.399-8.9c0.5,0.4,0,2.4-1.1,4.5
		C110.292,117.501,108.992,118.801,107.992,117.901z"/>
	<path fill="#E7CAA2" d="M88.692,115.301c-0.601-0.899-0.4-1,2.6-1.1c1.1-0.101,1.9,0.3,1.8,0.8
		C92.692,116.201,89.391,116.401,88.692,115.301z"/>
	<path fill="#E7CAA2" d="M94.891,110.701c-0.3-0.601,0.101-1.5,0.801-2.101c0.8-0.699,1.699-0.8,2-0.3
		c0.3,0.601-0.101,1.5-0.801,2.101C96.091,111.101,95.192,111.201,94.891,110.701z"/>
	<path fill="#E7CAA2" d="M80.891,105.601c-1-1.1-1.3-2.199-0.8-2.5c0.5-0.3,1.7,0.301,2.601,1.301c1,1.1,1.3,2.199,0.8,2.5
		C82.992,107.201,81.792,106.601,80.891,105.601z"/>
	<path fill="#E7CAA2" d="M86.891,85.701c-0.3-0.601,0.101-1.5,0.801-2.101c0.8-0.699,1.699-0.8,2-0.3
		c0.3,0.601-0.101,1.5-0.801,2.101C88.091,86.101,87.192,86.201,86.891,85.701z"/>
	<path fill="#E7CAA2" d="M76.792,83.501c-0.4-0.6-1-0.8-1.5-0.5s-1.1,0.1-1.4-0.4c-0.4-0.5-0.2-1.199,0.3-1.5
		c0.5-0.399,1.2-0.199,1.6,0.4s1,0.8,1.5,0.5s1.1-0.1,1.4,0.4c0.4,0.5,0.2,1.199-0.3,1.5C77.892,84.301,77.191,84.101,76.792,83.501
		z"/>
	<path fill="#E7CAA2" d="M66.292,68.601c-0.6-1.199-0.6-2.199-0.1-2.6c0.6-0.3,1.5,0.3,2.1,1.4c0.6,1.199,0.6,2.199,0.1,2.6
		C67.792,70.301,66.892,69.701,66.292,68.601z"/>
	<path fill="#E7CAA2" d="M93.992,55.801c-0.4-0.6,0-1.8,0.7-2.8c0.8-1.1,1.6-1.4,1.899-0.8c0.4,0.6,0,1.8-0.7,2.8
		C95.091,56.101,94.292,56.401,93.992,55.801z"/>
	<path fill="#E7CAA2" d="M25.892,53.701c-0.3-0.601,0.1-1.5,0.8-2.101c0.8-0.699,1.7-0.8,2-0.3c0.3,0.601-0.1,1.5-0.8,2.101
		C27.091,54.101,26.191,54.201,25.892,53.701z"/>
	<path fill="#E7CAA2" d="M90.792,19.501c-0.4-0.6-1-0.8-1.5-0.5s-1.1,0.1-1.4-0.4c-0.399-0.5-0.199-1.199,0.301-1.5
		c0.5-0.399,1.199-0.199,1.6,0.4s1,0.8,1.5,0.5s1.1-0.1,1.4,0.4c0.399,0.5,0.199,1.199-0.301,1.5
		C91.891,20.301,91.192,20.101,90.792,19.501z"/>
	<path fill="#AE3929" d="M49.892,240.301c-0.3-0.7-0.7-4.399-1.1-8.3c-0.3-3.8-2.4-14.7-4.5-24.2c-3.9-16.6-4-17.8-4-35
		c0-13.6,0.3-18.399,1.4-19.8c1.3-1.8,1.5-1.6,3.8,2.1c4.2,6.601,4.9,8.2,3.8,8.9c-0.5,0.3-1.7-0.9-2.6-2.6
		c-2.9-5.601-3.8-1.4-3,13.8c0.9,17.6,1.8,22,7.1,33.3c4.1,8.9,7,16.7,9.5,26.1l1.1,3.9h24.9c21.5,0,25-0.2,25-1.5
		c0-3.3,6.5-21.5,10.9-30.5l4.6-9.5l0.4-17.2c0.399-18.7-0.4-28-2.101-25c-1.3,2.5-3.1,1.101-1.8-1.399c0.6-1.101,1.5-1.7,2-1.4
		s1.1,0.1,1.5-0.5s1-0.8,1.4-0.5c1.5,0.9,3.6,20,3.6,33c0,12.1-0.3,13.9-3.9,26.5c-2.3,7.8-4.1,16.9-4.5,21.5l-0.6,8l-6,0.6
		c-3.3,0.4-19.6,0.7-36.3,0.801C57.091,241.501,50.091,241.201,49.892,240.301z"/>
	<path fill="#AE3929" d="M81.992,212.301c-1-0.5-1.5-1.399-1.2-1.899c0.4-0.601,1.3-0.601,2.3,0c1.3,0.8,2.4,0.3,4.8-2
		c1.801-1.7,3.4-2.7,3.801-2.101c0.6,1-4.7,6.5-6.7,6.8C84.192,213.201,82.891,212.801,81.992,212.301z"/>
	<path fill="#AE3929" d="M75.892,206.601c-1-1.1-1.3-2.199-0.8-2.5c0.5-0.3,1.7,0.301,2.6,1.301c1,1.1,1.3,2.199,0.8,2.5
		C77.992,208.201,76.792,207.601,75.892,206.601z"/>
	<path fill="#AE3929" d="M72.392,202.101c-0.7-0.8-0.8-1.699-0.3-2c0.6-0.3,1.5,0.101,2.1,0.801c0.7,0.8,0.8,1.699,0.3,2
		C73.892,203.201,72.992,202.801,72.392,202.101z"/>
	<path fill="#AE3929" d="M93.992,201.901c-0.9-0.9,10.399-17.5,11.5-16.801c1,0.601,1,0.601-5.4,10.2
		C94.992,202.801,94.992,202.901,93.992,201.901z"/>
	<path fill="#AE3929" d="M60.492,184.301c-2.3-3.5-1.8-6.3,0.5-3.2c2.6,3.4,3.3,5.301,2.4,5.801
		C62.892,187.201,61.591,186.101,60.492,184.301z"/>
	<path fill="#AE3929" d="M105.992,183.901c-0.8-1.301,3.3-7.5,4.399-6.801c0.9,0.5,0.2,2.4-2.399,5.801
		C107.192,183.901,106.292,184.401,105.992,183.901z"/>
	<path fill="#AE3929" d="M56.292,177.601c-0.6-1.199-0.6-2.199-0.1-2.6c0.6-0.3,1.5,0.3,2.1,1.4c0.6,1.199,0.6,2.199,0.1,2.6
		C57.792,179.301,56.892,178.701,56.292,177.601z"/>
	<path fill="#AE3929" d="M110.992,175.801c-0.4-0.6,0-1.8,0.7-2.8c0.8-1.1,1.6-1.4,1.899-0.8c0.4,0.6,0,1.8-0.7,2.8
		C112.091,176.101,111.292,176.401,110.992,175.801z"/>
	<path fill="#AE3929" d="M53.292,172.601c-0.6-1.199-0.6-2.199-0.1-2.6c0.6-0.3,1.5,0.3,2.1,1.4c0.6,1.199,0.6,2.199,0.1,2.6
		C54.792,174.301,53.892,173.701,53.292,172.601z"/>
	<path fill="#AE3929" d="M50.292,167.601c-0.6-1.199-0.6-2.199-0.1-2.6c0.6-0.3,1.5,0.3,2.1,1.4c0.6,1.199,0.6,2.199,0.1,2.6
		C51.792,169.301,50.892,168.701,50.292,167.601z"/>
	<path fill="#AE3929" d="M115.992,167.801c-0.8-1.3,5.3-11.399,6.399-10.7c0.601,0.301-0.199,2.601-1.699,5.2
		C117.391,168.001,116.692,168.901,115.992,167.801z"/>
	<path fill="#D6722B" d="M69.892,107.601c-0.4-0.5-0.2-1.199,0.4-1.6s0.8-1,0.5-1.5s-0.1-1.1,0.4-1.4c0.5-0.399,1.2-0.199,1.5,0.301
		c0.4,0.5,0.2,1.199-0.4,1.6s-0.8,1-0.5,1.5s0.1,1.1-0.4,1.4C70.892,108.301,70.191,108.101,69.892,107.601z"/>
	<path fill="#D6722B" d="M29.392,103.101c-1.8-1.899-2.9-3.6-2.3-3.899c0.5-0.4,2.3,0.899,4.1,2.7c1.8,1.899,2.9,3.6,2.3,3.899
		C32.992,106.201,31.191,104.901,29.392,103.101z"/>
	<path fill="#D6722B" d="M70.191,86.101c-0.1-0.3-0.2-0.899-0.3-1.3c-0.1-0.5-0.5-1.3-0.9-2c-0.4-0.6-0.3-1.399,0.3-1.8
		c0.5-0.3,1.1-0.4,1.1-0.1c0.1,0.3,0.2,0.899,0.3,1.399c0.1,0.4,0.5,1.2,0.9,1.9c0.4,0.6,0.3,1.399-0.3,1.8
		C70.792,86.301,70.191,86.401,70.191,86.101z"/>
	<path fill="#FDDCAD" d="M84.992,182.801c-0.4-0.6,0-1.8,0.7-2.8c0.8-1.1,1.6-1.4,1.899-0.8c0.4,0.6,0,1.8-0.7,2.8
		C86.091,183.101,85.292,183.401,84.992,182.801z"/>
	<path fill="#FDDCAD" d="M88.891,182.701c-0.3-0.5,0.301-1.7,1.301-2.601c1.1-1,2.199-1.3,2.5-0.8c0.3,0.5-0.301,1.7-1.301,2.601
		C90.292,182.901,89.192,183.201,88.891,182.701z"/>
	<path fill="#FDDCAD" d="M72.792,175.101c-1.1-0.8-1.4-1.6-0.8-1.899c0.6-0.4,1.8,0,2.8,0.7c1.1,0.8,1.4,1.6,0.8,1.899
		C74.992,176.201,73.792,175.801,72.792,175.101z"/>
	<path fill="#FDDCAD" d="M87.792,141.601c-0.7-1.199,1.2-2.399,2.5-1.6c1.1,0.7,0.4,2.5-1,2.5
		C88.792,142.501,88.192,142.101,87.792,141.601z"/>
	<path fill="#FDDCAD" d="M76.492,129.301c-0.7-0.7-1.2-0.899-1.2-0.5c0,0.8-5.5-1.8-7.7-3.5c-0.7-0.6-1-1.399-0.8-1.899
		c0.3-0.4,2.7,0.399,5.3,2c2.6,1.5,5,2.8,5.5,2.899c0.8,0.2,1.1,1.2,0.5,1.8C77.792,130.301,77.091,129.901,76.492,129.301z"/>
	<path fill="#FDDCAD" d="M88.792,129.501c-0.3-0.5-0.3-1.1,0.2-1.2c1.2-0.2,2.7-0.5,3.6-0.8c0.4-0.1,1-0.3,1.5-0.4
		c0.4-0.1,1.7-0.699,2.9-1.399c1.3-0.7,2.399-0.8,2.8-0.3c0.3,0.6-0.4,1.5-1.5,2.1s-2,0.8-2,0.4c0-0.301-0.7-0.101-1.5,0.6
		s-1.5,0.9-1.5,0.4c0-0.4-0.5-0.301-1.2,0.399C90.591,130.801,89.591,130.801,88.792,129.501z"/>
	<path fill="#FDDCAD" d="M100.992,124.801c-0.4-0.6,1.1-2.7,3.2-4.7c2.1-2.1,4.1-3.399,4.399-2.899c0.4,0.6-1.1,2.7-3.2,4.7
		C103.292,124.001,101.292,125.301,100.992,124.801z"/>
	<path fill="#FDDCAD" d="M63.792,117.601c-0.3-0.6,0.3-1.5,1.4-2.1c1.2-0.6,2.2-0.6,2.6-0.1c0.3,0.6-0.3,1.5-1.4,2.1
		C65.191,118.101,64.191,118.101,63.792,117.601z"/>
	<path fill="#FDDCAD" d="M100.891,112.401c-5-3.9-2-12.9,4.301-12.9c3.199,0,7.1,4.3,7.1,8s-0.3,4.6-1.3,4.2
		c-0.4-0.101-1.8,0.399-3,1.3C105.192,115.001,104.091,114.901,100.891,112.401z"/>
	<path fill="#FDDCAD" d="M87.292,104.501c-0.6-2.3-0.4-6.2,0.2-6.6c0.399-0.301,1.2,0.399,1.7,1.399c0.699,1.4,0.6,2.4-0.4,3.8
		C87.992,104.201,87.292,104.801,87.292,104.501z"/>
	<path fill="#FDDCAD" d="M98.891,96.701c-0.3-0.601,0.101-1.5,0.801-2.101c0.8-0.699,1.699-0.8,2-0.3
		c0.3,0.601-0.101,1.5-0.801,2.101C100.091,97.101,99.192,97.201,98.891,96.701z"/>
	<path fill="#FDDCAD" d="M99.992,90.801c-0.4-0.6,0-1.8,0.7-2.8c0.8-1.1,1.6-1.4,1.899-0.8c0.4,0.6,0,1.8-0.7,2.8
		C101.091,91.101,100.292,91.401,99.992,90.801z"/>
	<path fill="#FDDCAD" d="M102.292,69.601c-0.6-1.199-0.6-2.199-0.1-2.6c0.6-0.3,1.5,0.3,2.1,1.4c0.6,1.199,0.6,2.199,0.1,2.6
		C103.792,71.301,102.891,70.701,102.292,69.601z"/>
	<path fill="#FDDCAD" d="M22.892,57.701c-0.3-0.601,0.1-1.5,0.8-2.101c0.8-0.699,1.7-0.8,2-0.3c0.3,0.601-0.1,1.5-0.8,2.101
		C24.091,58.101,23.191,58.201,22.892,57.701z"/>
	<path fill="#FDDCAD" d="M75.892,46.601c-0.4-0.5-0.2-1.199,0.4-1.6c0.5-0.3,1-0.3,1,0.1c0,0.301,0.6,0.101,1.4-0.5
		c1-0.8,1.6-0.899,2.1-0.1c0.3,0.5,0.4,1.1,0.1,1.1c-0.3,0.101-0.899,0.2-1.3,0.301c-0.5,0.1-1.3,0.5-2,0.899
		C76.992,47.201,76.191,47.101,75.892,46.601z"/>
	<path fill="#FDDCAD" d="M48.792,20.601c-0.3-0.6,0.4-1.5,1.5-2.1s2-0.8,2-0.4c0,0.301,0.6,0.101,1.4-0.5c1-0.8,1.6-0.899,2.1-0.1
		c0.3,0.5,0.4,1.1,0.1,1.1c-0.3,0.101-0.9,0.2-1.3,0.301c-0.5,0.1-1.8,0.699-3,1.399C50.292,21.001,49.191,21.101,48.792,20.601z"/>
	<path fill="#FDDCAD" d="M57.792,17.601c-0.7-1.199,1.2-2.399,2.5-1.6c1.1,0.7,0.4,2.5-1,2.5
		C58.792,18.501,58.191,18.101,57.792,17.601z"/>
	<path fill="#413E41" d="M115.891,106.701c-0.3-0.5,0.301-1.7,1.301-2.601c1.1-1,2.199-1.3,2.5-0.8c0.3,0.5-0.301,1.7-1.301,2.601
		C117.292,106.901,116.192,107.201,115.891,106.701z"/>
	<path fill="#DCB993" d="M76.292,140.201c-1.4-0.7-2.5-1.9-2.5-2.601c0-1,2.4-1.3,10.5-1.3c8.9,0,10.5,0.2,10.8,1.601
		c0.2,1-0.7,2-2.3,2.6C89.091,141.901,79.292,141.701,76.292,140.201z"/>
	<path fill="#DCB993" d="M73.292,133.801c-5-1.8-17.7-13.399-16.6-15.2c1.2-2,3.8-1.199,7.7,2.4c6.6,6,11.5,7.9,19.9,7.9
		c11.9,0,20.3-5,26.1-15.601c2.601-4.6,4.601-5,4.101-0.8c-0.9,7-11.7,18.6-19.9,21.4C88.792,135.901,79.191,135.801,73.292,133.801
		z"/>
	<path fill="#EEB037" d="M63.292,139.601c-6.8-2.1-14.1-8.199-15.5-12.8c-0.4-1.399-1.7-2.5-3.3-2.8c-7.5-1.6-10.3-2.8-12.6-5.6
		c-3.1-3.601-3.3-6-0.7-8.301c1.9-1.699,2.2-1.6,8.7,2.301c3.8,2.3,8.5,4.399,10.6,4.699c3.1,0.5,4.3,1.5,6.7,5.301
		c3.1,4.8,6.2,7.6,11.9,10.5c2.7,1.399,3.3,2.199,3,4.399c-0.2,2.2-0.8,2.7-3.3,2.9C67.191,140.301,64.691,140.001,63.292,139.601z"
		/>
	<path fill="#EEB037" d="M96.992,136.801c-1.4-1.3-0.601-2.3,3.2-4.2c5.5-2.8,9.699-7.399,13.199-14.199
		c2.601-5.2,3.2-5.9,5.301-5.301c2.8,0.7,6.6-1.1,6.6-3c0-0.8,0.6-1.8,1.3-2.399c2-1.7,7.7,2.1,7.7,5.1c0,3.5-5.9,8.7-10.6,9.3
		c-7,1-8.4,1.4-8.4,2.801c0,2.5-5.1,7.6-10.1,10.1C100.292,137.601,98.091,138.001,96.992,136.801z"/>
	<path fill="#EEB037" d="M44.392,113.501c-8.6-4.1-20-15.4-24-24c-6.2-13.1-5.3-21.2,4-33.5c5.2-7,14.9-22.5,14.9-23.9
		c0-2,7-10.1,10.6-12.199c15.7-9.2,50.7-2.301,65,12.8c5.4,5.7,7,9.7,5.9,14.8c-0.8,3.5-4.1,8-6,8c-0.8,0-4.8,1.8-9,4
		s-8.1,3.8-8.6,3.5c-0.5-0.4-0.9-1.8-0.9-3.2c0-1.7,1.5-3.8,4.9-6.899c9.3-8.4,11.5-15.5,6.1-19.601c-2.7-2-10.3-3.7-9.8-2.2
		c0.2,0.5-0.101,1-0.7,1.101c-0.5,0.1-0.9-0.5-0.7-1.3c0.2-1-0.8-1.4-3.8-1.4c-2.7,0-3.9,0.4-3.7,1.3c0.101,0.8-1.3,1.2-4.8,1.2
		s-4.9-0.4-4.8-1.2c0.7-3.3-10.7-0.3-15.3,4c-3.6,3.4-5.7,9-3.3,8.5c1-0.2,1.4,0.8,1.4,3.2c0,2.3-0.4,3.4-1.2,3.3
		c-0.7-0.2-1.3,0.3-1.3,1.101c0,2.399,3.6,12.6,7.4,21.1c4.6,10.4,7,21.1,6.3,28.2C71.492,114.801,59.191,120.501,44.392,113.501z"
		/>
	<path fill="#EEB037" d="M115.591,91.301c-0.5-0.7-1.5-4.6-2.1-8.6c-1.5-9.3-3.3-12.601-8.3-15.8c-4.801-3-4.4-3.801,3.5-7.801
		c6.6-3.3,11.1-3.199,13.8,0.4c1.399,2,2,5.1,2.5,14.2l0.6,11.7l-3.5,3.5C118.192,92.801,117.091,93.201,115.591,91.301z"/>
	<path fill="#EEB037" d="M61.992,54.801c-0.4-0.6,0-1.8,0.7-2.8c0.8-1.1,1.6-1.4,1.9-0.8c0.4,0.6,0,1.8-0.7,2.8
		C63.091,55.101,62.292,55.401,61.992,54.801z"/>
	<path fill="#EEB037" d="M84.792,41.601c-0.7-1.3,1.7-2.399,4-1.899c0.9,0.1,1.6,0.8,1.6,1.3
		C90.391,42.401,85.591,42.901,84.792,41.601z"/>
	<path fill="#EEB037" d="M62.892,37.701c-0.3-0.601,0.1-1.5,0.8-2.101c0.8-0.699,1.7-0.8,2-0.3c0.3,0.601-0.1,1.5-0.8,2.101
		C64.091,38.101,63.191,38.201,62.892,37.701z"/>
	<path fill="#EEB037" d="M66.792,34.601c-0.3-0.6,0.3-1.5,1.4-2.1c1.2-0.6,2.2-0.6,2.6-0.1c0.3,0.6-0.3,1.5-1.4,2.1
		C68.191,35.101,67.191,35.101,66.792,34.601z"/>
	<path fill="#EEB037" d="M103.792,34.501c-0.4-0.6-1-0.8-1.5-0.5s-1.1,0.1-1.4-0.4c-0.399-0.5-0.199-1.199,0.301-1.5
		c0.5-0.399,1.199-0.199,1.6,0.4s1,0.8,1.5,0.5s1.1-0.1,1.4,0.4c0.399,0.5,0.199,1.199-0.301,1.5
		C104.891,35.301,104.192,35.101,103.792,34.501z"/>
	<path fill="#AB6B46" d="M125.891,218.601c-0.399-0.5-0.199-1.199,0.4-1.6s0.8-1,0.5-1.5s-0.1-1.1,0.4-1.4
		c0.5-0.399,1.199-0.199,1.5,0.301c0.399,0.5,0.199,1.199-0.4,1.6s-0.8,1-0.5,1.5s0.1,1.1-0.4,1.4
		C126.891,219.301,126.192,219.101,125.891,218.601z"/>
	<path fill="#AB6B46" d="M127.891,211.601c-0.399-0.5-0.199-1.199,0.4-1.6s0.8-1,0.5-1.5s-0.1-1.1,0.4-1.4
		c0.5-0.399,1.199-0.199,1.5,0.301c0.399,0.5,0.199,1.199-0.4,1.6s-0.8,1-0.5,1.5s0.1,1.1-0.4,1.4
		C128.891,212.301,128.192,212.101,127.891,211.601z"/>
	<path fill="#AB6B46" d="M79.792,207.501c-3.4-3.5-1.9-4.8,1.6-1.4c3.301,3.2,5.601,2.4,3.301-1.1c-1-1.6-1.2-2.5-0.4-3
		c0.6-0.3,0.8-1,0.5-1.5s-0.1-1.1,0.4-1.4c0.5-0.399,1.199-0.199,1.5,0.301c0.399,0.5,0.199,1.199-0.4,1.6c-0.7,0.4-0.7,1.2,0,2.6
		c0.6,1,0.8,1.9,0.4,1.9c-0.301,0-0.101,0.6,0.5,1.4c0.899,1.1,0.899,1.6-0.101,2.199C84.591,210.601,82.292,210.101,79.792,207.501
		z"/>
	<path fill="#AB6B46" d="M31.892,189.701c-0.3-0.5,0.3-1.7,1.3-2.601c1.1-1,2.2-1.3,2.5-0.8c0.3,0.5-0.3,1.7-1.3,2.601
		C33.292,189.901,32.191,190.201,31.892,189.701z"/>
	<path fill="#AB6B46" d="M85.192,189.101c-0.101-0.3-0.2-0.899-0.301-1.3c-0.1-0.5-0.5-1.3-0.899-2c-0.4-0.6-0.3-1.399,0.3-1.8
		c0.5-0.3,1-0.3,1,0.1c0,0.301,0.6,0.101,1.4-0.5c1-0.8,1.6-0.899,2.1-0.1c0.3,0.5,0.4,1.1,0.1,1.1c-0.3,0.101-1,0.301-1.6,0.4
		c-0.5,0.1-1.3,0.3-1.6,0.4c-0.4,0-0.101,0.699,0.5,1.5c0.8,1,0.899,1.6,0.1,2.1C85.792,189.301,85.192,189.401,85.192,189.101z"/>
	<path fill="#AB6B46" d="M75.792,180.501c-1.6-1.7-1.6-1.9,0.3-2.9c1.5-0.8,2.3-0.6,3.7,0.9c1.6,1.7,1.6,1.9-0.3,2.9
		C77.992,182.201,77.191,182.001,75.792,180.501z"/>
	<path fill="#AB6B46" d="M70.691,177.101c-1-0.8-2.2-1.399-2.6-1.5c-0.5,0-0.8-0.3-0.8-0.6c0-0.4,0.6-0.6,1.3-0.4
		c0.1,0,1,0.2,2.1,0.4c2.4,0.5,4.1,2.1,2.9,2.8C72.992,178.201,71.792,177.801,70.691,177.101z"/>
	<path fill="#AB6B46" d="M99.091,175.801c-0.7-1.399-0.3-3.3,0.601-3.3c1.199-0.1,1.699,2.8,0.6,3.5
		C99.792,176.301,99.292,176.201,99.091,175.801z"/>
	<path fill="#AB6B46" d="M107.992,175.801c-0.4-0.6,0-1.8,0.7-2.8c0.8-1.1,1.6-1.4,1.899-0.8c0.4,0.6,0,1.8-0.7,2.8
		C109.091,176.101,108.292,176.401,107.992,175.801z"/>
	<path fill="#AB6B46" d="M56.392,173.101c-0.7-0.8-0.8-1.699-0.3-2c0.6-0.3,1.5,0.101,2.1,0.801c0.7,0.8,0.8,1.699,0.3,2
		C57.892,174.201,56.992,173.801,56.392,173.101z"/>
	<path fill="#AB6B46" d="M129.792,157.501c-0.3-0.5-0.2-1,0.2-1.2c1.3-0.7,3.3-0.3,3.6,0.601
		C133.891,158.101,130.492,158.601,129.792,157.501z"/>
	<path fill="#AB6B46" d="M36.892,156.701c-0.3-0.5,0.3-1.7,1.3-2.601c1.1-1,2.2-1.3,2.5-0.8c0.3,0.5-0.3,1.7-1.3,2.601
		C38.292,156.901,37.191,157.201,36.892,156.701z"/>
	<path fill="#AB6B46" d="M70.691,139.101c-0.8-2.1,0.3-4.899,1.6-4.1c0.5,0.3,1,1.5,1,2.5
		C73.292,140.001,71.492,141.101,70.691,139.101z"/>
	<path fill="#AB6B46" d="M93.692,139.101c-0.4-1-0.2-2.199,0.399-2.8c0.8-0.8,1.3-0.7,1.8,0.601c0.4,1,0.2,2.199-0.399,2.8
		C94.692,140.501,94.192,140.401,93.692,139.101z"/>
	<path fill="#AB6B46" d="M89.192,137.801c-0.101-0.399-0.101-1.1,0-1.5c0-0.399-0.5-0.5-1.301-0.2c-1.699,0.7-3-1.199-1.5-2.199
		c0.601-0.301,2,0.3,3.101,1.399c1.3,1.3,1.6,2.2,0.899,2.601C89.792,138.301,89.192,138.301,89.192,137.801z"/>
	<path fill="#AB6B46" d="M79.792,135.601c-0.7-1.199,1.2-2.399,2.5-1.6c1.1,0.7,0.4,2.5-1,2.5
		C80.792,136.501,80.192,136.101,79.792,135.601z"/>
	<path fill="#AB6B46" d="M74.492,134.301c-0.7-0.7-1.2-0.899-1.2-0.5c0,0.4-0.9,0.3-1.9-0.3c-1.4-0.7-2.2-0.7-2.6,0
		c-1.2,1.9-2.5,0-1.5-2.1c1-1.801,1.2-1.801,4.3-0.2c1.8,0.899,3.5,1.7,4,1.8c0.4,0,0.7,0.4,0.8,0.8
		C76.492,135.301,75.691,135.501,74.492,134.301z"/>
	<path fill="#AB6B46" d="M91.792,134.501c-0.3-0.5-0.4-1.1-0.1-1.1c0.3-0.101,0.899-0.2,1.399-0.301c0.4-0.1,2.101-1,3.9-1.899
		c3.1-1.601,3.3-1.601,4.3,0.2c1,2.1-0.3,4-1.5,2.1c-0.4-0.7-1.2-0.7-2.6,0c-1,0.6-1.9,0.8-1.9,0.4c0-0.301-0.6-0.101-1.4,0.5
		C92.891,135.201,92.292,135.301,91.792,134.501z"/>
	<path fill="#AB6B46" d="M63.992,131.801c-0.4-0.6,0-1.8,0.7-2.8c0.8-1.1,1.6-1.4,1.9-0.8c0.4,0.6,0,1.8-0.7,2.8
		C65.091,132.101,64.292,132.401,63.992,131.801z"/>
	<path fill="#AB6B46" d="M102.292,130.601c-0.6-1.199-0.6-2.199-0.1-2.6c0.6-0.3,1.5,0.3,2.1,1.4c0.6,1.199,0.6,2.199,0.1,2.6
		C103.792,132.301,102.891,131.701,102.292,130.601z"/>
	<path fill="#AB6B46" d="M46.292,125.001c-0.6-0.7-1.7-1.2-2.5-0.9c-1.6,0.7-2.9-1.199-1.5-2.1c0.6-0.4,1.7-0.2,2.4,0.4
		c0.7,0.6,1.5,0.899,1.8,0.6c0.3-0.3,1.1,0.1,1.7,0.9c0.7,0.8,0.8,1.699,0.3,2C47.892,126.201,46.992,125.801,46.292,125.001z"/>
	<path fill="#AB6B46" d="M118.792,122.601c-0.7-1.199,1.2-2.399,2.5-1.6c1.1,0.7,0.4,2.5-1,2.5
		C119.792,123.501,119.192,123.101,118.792,122.601z"/>
	<path fill="#AB6B46" d="M110.992,121.401c-1.601-0.9-1.601-1.2-0.2-4c1.4-2.5,1.8-2.801,3.6-1.801c2,1,1.9,2.2-0.199,2.5
		c-0.5,0.101-1.2,0.2-1.5,0.301c-0.4,0-0.101,0.699,0.5,1.5C114.692,121.701,113.292,122.601,110.992,121.401z"/>
	<path fill="#AB6B46" d="M80.992,120.901c-0.8-1.301,0.8-3.7,2.7-4c0.8-0.101,2,0.399,2.699,1.199c0.801,1,1.5,1.101,2.4,0.4
		s1.5-0.7,1.9-0.1c0.399,0.5,0.199,1.199-0.4,1.6c-0.5,0.3-1,0.3-1-0.1c0-0.301-0.6-0.101-1.4,0.5c-1,0.899-1.6,0.8-2.6-0.4
		c-1.1-1.4-1.4-1.3-2.5,0.1C82.192,121.101,81.292,121.401,80.992,120.901z"/>
	<path fill="#AB6B46" d="M57.892,117.601c-1-1.1-1.3-2.199-0.8-2.5c0.5-0.3,1.7,0.301,2.6,1.301c1,1.1,1.3,2.199,0.8,2.5
		C59.992,119.201,58.792,118.601,57.892,117.601z"/>
	<path fill="#AB6B46" d="M118.891,114.801c-0.399-0.5-1.199-0.8-1.699-0.8s-0.9-0.3-0.9-0.7c0-0.8,0.3-0.899,1.8-0.7
		c0.4,0.101,1.2,0.2,1.7,0.301c1.3,0.1,1.9,2,0.8,2.3C120.091,115.401,119.292,115.201,118.891,114.801z"/>
	<path fill="#AB6B46" d="M69.892,110.201c-1.3-1-1.5-1.601-0.8-2.101c0.7-0.399,1.2-0.399,1.2,0c0,0.301,0.6,0.101,1.4-0.5
		c1.9-1.6,2.9,0.2,1.3,2.301C71.892,111.301,71.492,111.401,69.892,110.201z"/>
	<path fill="#AB6B46" d="M82.792,109.601c-0.7-1.199,1.2-2.399,2.4-1.699c0.5,0.3,1.399-0.101,2.1-0.9s1.6-1.2,2.2-0.9
		c0.5,0.301,0.399,1.2-0.3,2c-0.601,0.7-1.5,1.2-1.9,0.9c-0.5-0.3-1.1-0.1-1.5,0.5C84.992,110.801,83.591,110.801,82.792,109.601z"
		/>
	<path fill="#AB6B46" d="M77.191,105.301c-1.1-4.2-0.1-5.399,2.6-3.399c1.8,1.3,1.8,1.399-0.3,2.5
		C78.292,105.001,77.292,105.401,77.191,105.301z"/>
	<path fill="#AB6B46" d="M73.792,98.501c-0.4-0.6-0.3-1.6,0.3-2.2c0.6-0.6,1.2-0.6,1.7,0.2c0.4,0.6,0.3,1.6-0.3,2.2
		C74.892,99.301,74.292,99.301,73.792,98.501z"/>
	<path fill="#AB6B46" d="M116.292,93.601c-0.6-1.199-0.6-2.199-0.1-2.6c0.6-0.3,1.5,0.3,2.1,1.4c0.6,1.199,0.6,2.199,0.1,2.6
		C117.792,95.301,116.891,94.701,116.292,93.601z"/>
	<path fill="#AB6B46" d="M70.892,89.601c-0.7-1.1,2.8-4.3,3.7-3.399c1.2,1.1,0.8,2.2-1.2,3.3
		C72.292,90.001,71.191,90.101,70.892,89.601z"/>
	<path fill="#AB6B46" d="M123.792,83.201c-0.9-2.2-0.2-6.2,1-6c0.6,0.1,1.1,1.399,1.3,2.899
		C126.492,83.301,124.692,85.701,123.792,83.201z"/>
	<path fill="#AB6B46" d="M110.792,81.601c-0.3-0.6,0.3-1.5,1.4-2.1c1.199-0.6,2.199-0.6,2.6-0.1c0.3,0.6-0.3,1.5-1.4,2.1
		C112.192,82.101,111.192,82.101,110.792,81.601z"/>
	<path fill="#AB6B46" d="M106.391,71.101c-0.699-0.8-0.8-1.699-0.3-2c0.601-0.3,1.5,0.101,2.101,0.801c0.699,0.8,0.8,1.699,0.3,2
		C107.891,72.201,106.992,71.801,106.391,71.101z"/>
	<path fill="#AB6B46" d="M63.792,69.601c-0.3-0.5-0.1-1.199,0.4-1.5c1-0.699,0.9-2.5-0.2-4.3c-0.4-0.6-0.3-1.399,0.3-1.8
		c0.5-0.3,1.1-0.4,1.1-0.1c0.1,0.3,0.2,0.899,0.3,1.399c0.1,0.4,0.7,1.7,1.4,2.9c1.1,1.899,1,2.399-0.7,3.3
		C65.191,70.101,64.191,70.101,63.792,69.601z"/>
	<path fill="#AB6B46" d="M100.992,67.801c-0.4-0.6,0-1.8,0.7-2.8c0.8-1.1,1.6-1.4,1.899-0.8c0.4,0.6,0,1.8-0.7,2.8
		C102.091,68.101,101.292,68.401,100.992,67.801z"/>
	<path fill="#AB6B46" d="M98.192,63.801c-0.101-0.399-0.101-1.2,0-1.6c0.1-0.4-0.801-0.3-1.801,0.3c-1.199,0.6-2.199,0.6-2.6,0.1
		c-0.3-0.6,0.3-1.5,1.3-2c1.5-0.8,2.3-0.6,3.601,0.801c1.1,1.3,1.399,2.1,0.699,2.6C98.792,64.301,98.192,64.301,98.192,63.801z"/>
	<path fill="#AB6B46" d="M105.792,58.601c-0.3-0.6,0.3-1.5,1.4-2.1c1.199-0.6,2.199-0.6,2.6-0.1c0.3,0.6-0.3,1.5-1.4,2.1
		C107.192,59.101,106.192,59.101,105.792,58.601z"/>
	<path fill="#AB6B46" d="M114.692,57.301c-0.601-0.899-0.4-1,2.6-1.1c1.1-0.101,1.9,0.3,1.8,0.8
		C118.692,58.201,115.391,58.401,114.692,57.301z"/>
	<path fill="#AB6B46" d="M60.792,55.601c-0.6-1.1,0.1-1.5,1.8-1.199c0.5,0.1,0.6-0.301,0.3-0.801c-0.4-0.5-0.2-1.199,0.3-1.5
		c1.9-1.199,2,1.2,0.2,2.801C62.091,56.001,61.292,56.301,60.792,55.601z"/>
	<path fill="#AB6B46" d="M57.792,52.601c-0.3-0.6,0.3-1.5,1.4-2.1c1.2-0.6,2.2-0.6,2.6-0.1c0.3,0.6-0.3,1.5-1.4,2.1
		C59.191,53.101,58.191,53.101,57.792,52.601z"/>
	<path fill="#AB6B46" d="M65.292,51.601c-1-2-0.7-2.5,1.3-2.199c0.5,0.1,0.6-0.301,0.3-0.801c-0.4-0.5-0.2-1.199,0.3-1.6
		c0.6-0.3,1.5,0.3,2,1.3c0.8,1.5,0.6,2.3-0.9,3.7C66.591,53.601,66.392,53.601,65.292,51.601z"/>
	<path fill="#AB6B46" d="M100.891,50.701c-0.3-0.601,0.101-1.5,0.801-2.101c0.8-0.699,1.699-0.8,2-0.3
		c0.3,0.601-0.101,1.5-0.801,2.101C102.091,51.101,101.192,51.201,100.891,50.701z"/>
	<path fill="#AB6B46" d="M94.891,46.701c-0.3-0.5,0-1.7,0.7-2.601c1.2-1.6,1.4-1.6,2.601-0.3c1,1.3,0.899,1.7-0.801,2.601
		C96.292,47.001,95.192,47.101,94.891,46.701z"/>
	<path fill="#AB6B46" d="M108.792,41.101c-1.1-0.8-1.4-1.6-0.8-1.899c0.6-0.4,1.8,0,2.8,0.7c1.1,0.8,1.4,1.6,0.8,1.899
		C110.992,42.201,109.792,41.801,108.792,41.101z"/>
	<path fill="#AB6B46" d="M106.192,36.101c-0.5-2.3-0.2-4.6,0.5-4.8c1.199-0.399,1.5,4.101,0.399,4.8
		C106.692,36.401,106.292,36.401,106.192,36.101z"/>
	<path fill="#AB6B46" d="M70.292,31.601c-0.6-1.199-0.6-2.199-0.1-2.6c0.6-0.3,1.5,0.3,2.1,1.4c0.6,1.199,0.6,2.199,0.1,2.6
		C71.792,33.301,70.892,32.701,70.292,31.601z"/>
	<path fill="#AB6B46" d="M75.292,30.601c-0.6-1.199-0.6-2.199-0.1-2.6c0.6-0.3,1.5,0.3,2.1,1.4c0.6,1.199,0.6,2.199,0.1,2.6
		C76.792,32.301,75.892,31.701,75.292,30.601z"/>
	<path fill="#AB6B46" d="M90.891,31.701c-0.899-1.5,2.101-4.9,3.4-3.601c0.7,0.7,0.5,1.5-0.9,2.801
		C92.391,31.801,91.192,32.201,90.891,31.701z"/>
	<path fill="#FFD058" d="M21.892,59.701c-0.3-0.601,0.1-1.5,0.8-2.101c0.8-0.699,1.7-0.8,2-0.3c0.3,0.601-0.1,1.5-0.8,2.101
		C23.091,60.101,22.191,60.201,21.892,59.701z"/>
	<path fill="#FFD058" d="M60.992,53.801c-0.4-0.3-0.7-3.5-0.7-6.899c0-5.601,0.3-6.7,3-9.801c5-5.6,9.9-6.899,24.2-6.399
		c9.6,0.3,13.2,0.8,16.2,2.3c7.199,3.6,7.3,7.2,0.5,14.8c-4.4,5.101-5.9,5.2-5.9,0.7c0-9.6-23.6-8.1-32.3,2.1
		C62.492,54.701,62.091,54.901,60.992,53.801z"/>
	<path fill="#FFD058" d="M33.992,42.801c-0.4-0.6,0-1.8,0.7-2.8c0.8-1.1,1.6-1.4,1.9-0.8c0.4,0.6,0,1.8-0.7,2.8
		C35.091,43.101,34.292,43.401,33.992,42.801z"/>
	<path fill="#FFD058" d="M37.992,35.801c-0.4-0.6,0-1.8,0.7-2.8c0.8-1.1,1.6-1.4,1.9-0.8c0.4,0.6,0,1.8-0.7,2.8
		C39.091,36.101,38.292,36.401,37.992,35.801z"/>
	<path fill="#FFD058" d="M103.792,26.101c-1.1-0.8-1.4-1.6-0.8-1.899c0.6-0.4,1.8,0,2.8,0.7c1.1,0.8,1.4,1.6,0.8,1.899
		C105.992,27.201,104.792,26.801,103.792,26.101z"/>
	<path fill="#FFD058" d="M95.891,22.801c-0.399-0.5-1.199-0.899-1.699-0.899c-0.5-0.101-1.101-0.301-1.4-0.4s-0.9-0.3-1.5-0.4
		c-0.5,0-1-0.399-1-0.8c0-0.5,0-1.1,0-1.399c0-0.4,0.7-0.101,1.5,0.6s1.5,0.9,1.5,0.5s0.6-0.3,1.3,0.3
		c0.601,0.601,1.5,1.101,2,1.101c0.8,0.1,1.101,1.1,0.5,1.699C96.792,23.301,96.292,23.201,95.891,22.801z"/>
	<path fill="#444B54" d="M116.891,110.601c-3.3-3.6,1-9.399,5.301-7.199c2.699,1.5,3.399,4.1,1.6,6.699
		C121.891,113.001,119.192,113.201,116.891,110.601z"/>
	<path d="M77.292,118.501c-2.2-2.2-2.5-3.6-0.9-4.5c0.6-0.4,2,0.3,3.1,1.5c1.6,1.8,2.8,2.1,5.5,1.7c2-0.4,4.1-1.4,4.8-2.4
		c1.1-1.399,1.6-1.5,2.6-0.6c1,1,0.801,1.8-1.1,3.8C88.192,121.301,80.391,121.601,77.292,118.501z"/>
	<path d="M93.692,109.401c-1-1.7,1.3-3.601,2.699-2.2c1.2,1.2,0.4,3.3-1.1,3.3C94.792,110.501,94.091,110.001,93.692,109.401z"/>
	<path d="M79.292,107.501c-2.1-2.1-2.6-5.5-1-6.5c0.5-0.3,1.5,0.5,2.1,1.9c1.801,3.899,4,4.1,6.9,0.6c1.4-1.7,2.9-2.8,3.3-2.4
		c2.5,2.5-2.1,8.4-6.6,8.4C82.492,109.501,80.391,108.601,79.292,107.501z"/>
	<path d="M94.192,94.901c-1.4-1.7-0.5-4,2.399-5.801c1.3-0.8,2.2-0.6,3.9,1.101c2.1,2.2,2.1,2.3,0.3,4.3
		C98.591,96.901,95.992,97.101,94.192,94.901z"/>
	<path d="M87.992,88.801c-1.601-1.5-0.5-4.399,2.3-5.8c7.4-3.8,21.9,1.1,16.4,5.6c-1.2,1-2.2,0.9-5.101-0.5
		c-3.6-1.699-8.7-1.5-9.8,0.5C91.091,89.701,88.891,89.801,87.992,88.801z"/>
	<path fill="#FFE1AE" d="M30.591,238.901c-0.6-1.601,5.3-74.9,6.6-81.2c0.3-1.8,1.1-3.3,1.6-3.2c0.6,0,1,7.3,1,19.8
		c0,18.8,0.2,20.3,3.2,32.2c2.9,11.2,5.6,31.3,4.6,33.3c-0.2,0.4-4,0.7-8.4,0.7C32.892,240.501,31.091,240.201,30.591,238.901z"/>
	<path fill="#FFE1AE" d="M124.591,238.901c-1.2-3.2,0.7-17.2,3.8-27.4c2.7-8.9,3.2-12.6,3.601-24.1c0.3-7.801,0-17.4-0.601-22.4
		c-0.8-6-0.899-9.1-0.199-9.8c0.699-0.7,1.199-0.601,1.6,0.399c0.8,2.2,10.3,83.301,9.8,84.2c-0.2,0.4-4.2,0.7-8.899,0.7
		C126.891,240.501,125.091,240.201,124.591,238.901z"/>
	<path fill="#FFE1AE" d="M73.691,128.201c-5.1-2.5-12.4-8.2-12.4-9.8c0-0.5,1.5-1.5,3.3-2.301c6.9-2.899,10.1-10.199,9.5-22
		c-0.3-7.5-0.5-7.3,4.5-5.899c1.101,0.399,1.7,0,1.7-1c0-1.8-1.6-3.2-5.3-4.3c-2.3-0.801-3.4-2.4-6.3-9.4c-6.3-15.3-6.3-17.1-0.4-23
		c6.6-6.6,20.5-9.5,26.5-5.6c2.9,1.899,2.8,1.3,0.9,12.3c-1,5.6,0.199,8.1,4.5,9.3c8.3,2.2,10.6,6.1,13.6,22.9
		c2.8,15,0.8,22.5-8.3,31.8c-5.4,5.6-11.9,8.5-20.2,9C79.891,130.501,77.892,130.201,73.691,128.201z M90.692,117.901
		c1.699-1.7,2.1-3.4,0.8-3.4c-0.5,0-1.7,0.9-2.7,2c-2.3,2.6-6.5,2.6-9.9-0.1c-2.8-2.2-3.6-1.101-1,1.5c1,1,3.3,1.6,6.4,1.6
		S89.692,118.901,90.692,117.901z M108.091,110.901c4.101-2.801,1.9-9.4-3.2-9.4c-3.1,0-4.6,1.8-4.6,5.7
		C100.292,112.001,103.992,113.801,108.091,110.901z M88.692,106.301c2.8-3.899,1.8-5.399-1.101-1.899c-3.2,3.699-5.5,3.5-7.8-0.801
		c-1.1-2-1.4-2.199-1.5-0.8c0,1,0.5,2.7,1,3.8C80.792,109.401,86.692,109.201,88.692,106.301z M101.292,90.501
		c1.537-2-2.1-0.5-3.5-0.5s-2.1,0.8-2.3,2.8c-0.3,2.3,0,2.7,2.3,2.7S101.591,92.801,101.292,90.501z M93.292,86.801
		c2.8-1.3,3.8-1.399,6.4-0.399c5.899,2.399,6.6,2.5,6.6,0.399c0-2.5-3.8-4.3-9-4.3c-5,0-9,1.8-9,4.2
		C88.292,88.901,89.091,89.001,93.292,86.801z"/>
	<path fill="#FFE1AE" d="M117.992,101.801c-1.2-1.2-0.7-7,0.6-8.2c1.9-1.5,2.7-0.399,2.7,3.4
		C121.292,100.201,119.292,103.101,117.992,101.801z"/>
	<path fill="#FFE1AE" d="M65.691,16.401c-0.6-1,0.6-1.5,3.6-1.4c1.4,0,2.5,0.4,2.5,1C71.792,17.101,66.392,17.401,65.691,16.401z"/>
	<path fill="#FFFFFF" d="M46.792,21.501c-0.7-1.1,4.2-4.5,8.5-5.8c6.4-2,14.7-2.4,21.9-1.2c3.9,0.6,7.4,1.6,7.7,2.1
		c0.301,0.5,1,0.7,1.5,0.4c0.5-0.4,1.5-0.3,2.2,0.2c0.601,0.399,1.5,0.8,2,0.899c0.4,0.101,0.9,0.301,1.2,0.4s1,0.3,1.5,0.4
		c0.6,0,1,0.399,1,0.899c0,0.4,0,1,0,1.3c0,0.4-0.7,0.101-1.5-0.6s-1.5-0.9-1.5-0.5s-0.6,0.2-1.3-0.4c-0.8-0.6-1.7-0.8-2-0.5
		c-0.3,0.301-1.101,0.301-1.8-0.199c-0.7-0.4-2.5-0.801-4-0.9c-1.601-0.2-5.2-0.6-8.101-0.9c-6.8-0.899-17.8,0.7-22.9,3.2
		C48.992,21.401,46.992,21.901,46.792,21.501z"/>
	<path fill="#E9583F" d="M59.292,238.001c-0.6-1.5-1-2.9-1-3.3c0-2.3-5.7-18.2-9.5-26.3c-2.5-5.2-5-12.2-5.6-15.5
		c-1.6-7.9-1.8-36.9-0.3-38.4c0.8-0.8,7.3,6.5,11.4,13.373c22.4,7.427,29.343,10.255,30.9,21.227
		c0.379,2.673,7.426-14.825,28.559-23.139c5.3-8.8,12.141-14.961,12.841-14.961c2,0,2.8,8.5,2.5,27.5l-0.3,18.5l-4.7,9.6
		c-2.5,5.2-6,14.2-7.8,20c-1.7,5.7-3.5,11.101-3.9,11.9c-0.699,1.3-4.899,1.5-26.5,1.8l-25.6,0.2L59.292,238.001z"/>
	<path fill="#FFE1AE" d="M71.892,175.101c-2.6,0.2-12.381-6.89-20.8-12.3c-3.3-5.6-5.7-10.6-5.4-11.1c0.3-0.5,6.6-1.5,14-2.2
		l13.5-1.2l0.3-4.7c0.3-4,0.6-4.5,2.3-4.199c1.1,0.199,5.8,0.399,10.5,0.5l8.5,0.1l0.5,4l0.5,4l12.7,1c7,0.6,13.2,1.5,13.7,2
		c0.699,0.7-0.9,4.3-5.2,11.5l-5.943,5.373l-6.812,3.323c-9,0.2-14.846,6.005-19.545,13.904c-1,1.7-0.4-0.8-1.9-3.6"/>
	<path d="M38.792,242.701c-5.5-0.101-10.3-0.601-10.7-1c-0.9-0.9,5.8-81.4,7.2-86.4c0.7-2.5,2-4.3,3.8-5.1c1.5-0.8,9.4-2,17.5-2.7
		c12.6-1.1,14.8-1.5,14.5-2.9c-0.2-1-1.8-1.8-4.9-2.199c-8.3-1.2-16.4-6.7-20.1-13.7c-1.2-2.3-2.4-3.2-4.3-3.2
		c-5.8,0-12.3-4.6-14.4-10.1c-0.7-2-0.5-3.301,0.8-5.5l1.7-2.9l-4.8-6.1c-9.6-12.2-12.9-24.601-9.4-35.2c1-2.8,4.8-9.3,8.6-14.4
		c3.7-5.1,9-13.2,11.6-18.1c8.7-16.101,13.9-20,28.1-21.4c16.2-1.5,39.8,6.4,50.8,17.2c8,7.9,10.3,14.8,7.1,22
		c-1.199,2.8-1.1,3.2,1.101,5.6c3.2,3.5,4.2,8.301,4.3,20c0,8.101-0.3,10-2,12.2c-1.4,1.8-2,4-2,8v5.5l5.4,2.5
		c5.6,2.7,7.6,5,7.6,8.7c0,5.2-7.6,11-14.4,11c-3,0-3.899,0.6-6,3.8c-3.3,5.2-5.6,7-12.3,9.7c-4.7,1.9-5.899,2.9-6.1,4.9
		c-0.4,3.1-0.3,3.1,18.3,4.6c13.5,1,14.1,1.1,16.6,3.9c1.5,1.6,3,4.6,3.301,6.699c2.199,14.2,9.6,82.801,8.899,83.5
		C143.792,242.401,58.392,243.301,38.792,242.701z M45.892,229.801c-0.4-5.399-2.1-15.6-3.8-22.8c-2.7-10.9-3.3-15.7-3.7-29.5
		l-0.6-16.5l-2.8,33c-1.6,18.2-3.1,35.8-3.4,39.3l-0.6,6.2h7.8h7.8L45.892,229.801z M114.391,238.901l6.601-0.7l0.6-7.601
		c0.3-4.3,2.2-13,4.3-20.1c3.5-11.8,3.7-13.3,3.801-26.5c0-13.2-1.801-31.5-3.301-31.5c-0.3,0-3.5,5-7.1,11.2
		c-21.9,9-30.5,22.299-34.9,26.899c-4.199-10.5-17.5-17.3-34.2-24.1l-7.4-12.5l-0.3,18.2c-0.2,18.2-0.2,18.3,3.8,35.6
		c2.2,9.5,4.3,20.601,4.6,24.5l0.7,7.2h28.101C95.192,239.501,110.792,239.201,114.391,238.901z M141.192,236.301
		c0-1.8-1.5-15.399-3.301-30.3l-3.199-27l-0.7,9c-0.4,5.2-2.101,14.3-4.101,21.5c-1.899,6.9-3.699,16.4-4.1,21.3l-0.7,8.7h8.101h8.1
		L141.192,236.301z M64.292,175.501 M116.391,161.901c3.2-5.4,5.4-10.101,4.801-10.301c-0.601-0.199-6.7-0.8-13.7-1.5l-12.7-1.1
		l-0.3-6.1l-0.3-6.101l-4.9,1c-3.3,0.601-6.7,0.601-10.1,0l-5-1l0.6,5.101c0.5,3.899,0.3,5.5-0.7,6.399c-0.8,0.601-7,1.7-13.9,2.3
		c-6.8,0.7-12.7,1.5-13.1,1.801c-0.4,0.3,1.8,5,4.9,10.3C82.792,187.501,116.391,161.901,116.391,161.901z M133.992,173.301
		c-0.2-1.3-0.4-0.5-0.4,1.7c-0.1,2.2,0.101,3.2,0.4,2.3C134.192,176.301,134.192,174.501,133.992,173.301z M71.292,137.701
		c0-1.101-2-3.2-5-5.101c-2.8-1.8-6.9-5.699-9.2-8.699c-2.2-3-4.8-5.4-5.8-5.4c-2.6,0-8.9-2.8-13.8-6.2c-4-2.7-4.6-2.899-5.9-1.5
		c-3.8,3.8,1.7,9.9,10.1,11.2c4.3,0.7,7.6,2.9,7.6,5c0,2.2,4.1,6.5,8.3,8.7C65.691,139.801,71.292,140.601,71.292,137.701z
		 M107.091,132.801c2.7-1.5,4.9-3.7,5.7-5.7c1.8-4.399,3.1-5.199,8.9-6c5.8-0.699,9.199-2.699,10.899-6.3c1-2.3,0.8-2.8-1.7-4.899
		l-2.8-2.4l-2.2,3.2c-1.8,2.7-2.8,3.3-5.6,3.3c-3.1,0-3.7,0.5-5.2,3.9c-2.7,5.8-7.399,11.199-12.899,14.699
		c-2.7,1.801-4.9,3.4-4.9,3.7C97.292,137.201,102.992,135.201,107.091,132.801z M96.391,131.801c6.301-2.8,11.601-7.7,14.5-13.5
		c2.101-4.2,2.5-6.399,2.601-15.1c0.2-10.7-2.101-24.601-4.8-29.9c-1.4-2.6-3-3.7-10.601-6.6c-3.899-1.601-5.6-7.7-3.399-12
		c2.199-4.3,2-7.9-0.5-9.3c-3.4-1.801-14.7-0.7-20.2,2c-9.6,4.6-10.7,11-4.6,25.8c2.7,6.5,3.9,8.3,5.9,8.8c4.9,1.3,7.8,5.9,4.6,7.1
		c-0.8,0.301-2.3,0.101-3.3-0.399c-1.7-0.9-1.8-0.5-1.5,6.8c0.3,6.1,0,8.7-1.6,12.2c-2.3,5.3-7.3,9.399-12.6,10.5l-3.8,0.8l4.2,4.8
		c4,4.5,9.2,7.9,15,9.8C80.391,135.001,91.492,134.001,96.391,131.801z M63.792,113.501c10.7-5.2,10.9-19.6,0.4-44.1
		c-2.8-6.801-5.6-15.101-6.2-18.5c-3.2-18.9,13.3-27.101,43-21.301c6.399,1.301,10.3,4.601,10.3,8.9c0,4.4-2,7.7-8.4,14
		c-5.199,5-6.8,8.2-4.8,9.4c0.4,0.199,3.2-1.101,6.2-3c2.9-1.801,6.9-3.7,8.7-4c3.399-0.601,4.899-2.4,6.3-7.5
		c3.3-11.4-14.1-25.601-38-31c-6.9-1.601-21-1.2-26.6,0.699c-6.7,2.2-8.4,4-15.2,16.301c-3.3,5.8-8.3,13.699-11.2,17.5
		c-6.7,9-8.7,12.8-10,19.199c-3.2,15.4,10.7,36.4,28.9,43.5C53.292,116.001,58.691,115.901,63.792,113.501z M122.091,110.601
		c2.101-1.3,1.101-5.5-1.5-5.899c-3-0.4-4.899,3.1-2.7,5.2C119.692,111.701,120.292,111.801,122.091,110.601z M118.992,95.801
		c-0.3-1-0.5-0.2-0.5,1.7s0.2,2.7,0.5,1.8C119.192,98.301,119.192,96.701,118.992,95.801z M123.391,85.701
		c1.301-3.4,0.2-20.5-1.699-24.9c-1.7-4.3-5-4.3-13.301-0.2l-6.199,3.101l2.8,1.8c6.6,4,8.399,7.6,10.8,22.3l0.6,3.7l3-1.5
		C120.992,89.101,122.792,87.201,123.391,85.701z M78.591,42.001c11.2-3,18.2-1.1,21.2,5.8l1.2,2.9l3.2-4
		c4.399-5.601,5-9.4,1.8-11.4c-5.601-3.7-25.2-5-34.3-2.3c-7,2-9.6,5.2-10.2,12c-0.7,8.5,0,8.9,5.6,3.5
		C70.992,44.801,73.292,43.501,78.591,42.001z"/>
</g>
<g>
</g>
<g>
</g>
<g>
</g>
<g>
</g>
<g>
</g>
<g>
</g>
</svg>
