<?xml version="1.0" encoding="utf-8"?>
<!-- Generator: Adobe Illustrator 16.0.0, SVG Export Plug-In . SVG Version: 6.00 Build 0)  -->
<!DOCTYPE svg PUBLIC "-//W3C//DTD SVG 1.1//EN" "http://www.w3.org/Graphics/SVG/1.1/DTD/svg11.dtd">
<svg version="1.1" id="Layer_1" xmlns="http://www.w3.org/2000/svg" xmlns:xlink="http://www.w3.org/1999/xlink" x="0px" y="0px"
	 width="163.417px" height="245.5px" viewBox="0 0 163.417 245.5" enable-background="new 0 0 163.417 245.5" xml:space="preserve">
<path fill="#557B8E" d="M80.276,203.004c-0.101-0.3-0.2-0.899-0.301-1.3c-0.1-0.5-0.5-1.399-0.899-2c-0.5-0.7-0.5-1.3-0.101-1.3
	c0.301,0,0.101-0.6-0.5-1.4c-0.8-1-0.899-1.6-0.1-2.1c0.5-0.3,1.1-0.4,1.1-0.1c0.101,0.3,0.301,1.1,0.4,1.6c0.1,0.6,0.3,1.3,0.4,1.6
	c0,0.4,0.699,0.101,1.5-0.5c1-0.8,1.6-0.899,2.1-0.1c0.3,0.5,0.4,1.1,0.1,1.1c-0.3,0.101-1,0.301-1.6,0.4c-0.5,0.1-1.3,0.3-1.6,0.4
	c-0.4,0-0.101,0.699,0.5,1.5c0.8,1,0.899,1.6,0.1,2.1C80.875,203.205,80.276,203.305,80.276,203.004z"/>
<path fill="#557B8E" d="M75.276,187.004c-0.101-0.3-0.2-0.899-0.301-1.3c-0.1-0.5-0.5-1.3-0.899-2c-0.4-0.6-0.3-1.399,0.3-1.8
	c0.5-0.3,1.1-0.4,1.1-0.1c0.101,0.3,0.2,0.899,0.301,1.399c0.1,0.4,0.5,1.2,0.899,1.9c0.4,0.6,0.3,1.399-0.3,1.8
	C75.875,187.205,75.276,187.305,75.276,187.004z"/>
<path fill="#557B8E" d="M71.276,174.004c-0.101-0.3-0.2-0.899-0.301-1.3c-0.1-0.5-0.5-1.3-0.899-2c-0.4-0.6-0.3-1.399,0.3-1.8
	c0.5-0.3,1.1-0.4,1.1-0.1c0.101,0.3,0.2,0.899,0.301,1.399c0.1,0.4,0.5,1.2,0.899,1.9c0.4,0.6,0.3,1.399-0.3,1.8
	C71.875,174.205,71.276,174.305,71.276,174.004z"/>
<path fill="#557B8E" d="M67.276,161.004c-0.101-0.3-0.2-0.899-0.301-1.3c-0.1-0.5-0.5-1.3-0.899-2c-0.4-0.6-0.3-1.399,0.3-1.8
	c0.5-0.3,1.1-0.4,1.1-0.1c0.101,0.3,0.2,0.899,0.301,1.399c0.1,0.4,0.5,1.2,0.899,1.9c0.4,0.6,0.3,1.399-0.3,1.8
	C67.875,161.205,67.276,161.305,67.276,161.004z"/>
<path fill="#557B8E" d="M91.975,159.504c-0.399-0.5-0.199-1.199,0.4-1.6s0.8-1,0.5-1.5s-0.1-1.1,0.4-1.4
	c0.5-0.399,1.199-0.199,1.5,0.301c0.399,0.5,0.199,1.199-0.4,1.6s-0.8,1-0.5,1.5s0.1,1.1-0.4,1.4
	C92.975,160.205,92.276,160.004,91.975,159.504z"/>
<path fill="#557B8E" d="M73.875,152.504c-0.7-1.199,1.2-2.399,2.5-1.6c1.1,0.7,0.4,2.5-1,2.5
	C74.875,153.405,74.276,153.004,73.875,152.504z"/>
<path fill="#53BDE2" d="M79.975,201.305c-3.399-9.301-15.5-50.601-15.199-51.5c0.399-1,1.5-0.9,5.199,0.199
	c5.9,1.801,16.7,1.7,21.7,0c2-0.8,3.9-1.1,4.101-0.699c0.6,1.1-12.9,51-14.101,52.199C80.675,202.504,80.375,202.405,79.975,201.305
	z"/>
<path fill="#A3A565" d="M68.875,123.405c-0.4-0.6-0.3-1.6,0.3-2.2c0.601-0.6,1.2-0.6,1.7,0.2c0.4,0.6,0.3,1.6-0.3,2.2
	C69.975,124.205,69.375,124.205,68.875,123.405z"/>
<path fill="#A3A565" d="M79.276,124.004c-0.101-0.3-0.2-0.899-0.301-1.3c-0.1-0.5-0.5-1.399-0.899-2.1c-1-1.5,1.6-2.7,4.1-1.7
	c1.601,0.6,1.601,0.7,0,1.9c-1,0.699-1.5,1.5-1.2,1.8c0.301,0.399,0.101,0.899-0.5,1.3
	C79.875,124.205,79.276,124.305,79.276,124.004z"/>
<path fill="#A3A565" d="M86.975,122.504c-0.399-0.5-0.199-1.199,0.4-1.6s0.8-1,0.5-1.5s-0.1-1.1,0.4-1.4
	c0.5-0.399,1.199-0.199,1.5,0.301c0.399,0.5,0.199,1.199-0.4,1.6s-0.8,1-0.5,1.5s0.1,1.1-0.4,1.4
	C87.975,123.205,87.276,123.004,86.975,122.504z"/>
<path fill="#A3A565" d="M64.875,117.004c-1.1-0.8-1.4-1.6-0.8-1.899c0.6-0.4,1.8,0,2.8,0.7c1.1,0.8,1.4,1.6,0.8,1.899
	C67.076,118.105,65.875,117.705,64.875,117.004z"/>
<path fill="#A3A565" d="M48.375,100.504c-0.6-1.199-0.6-2.199-0.1-2.6c0.6-0.3,1.5,0.3,2.1,1.4c0.6,1.199,0.6,2.199,0.1,2.6
	C49.875,102.205,48.975,101.605,48.375,100.504z"/>
<path fill="#A3A565" d="M83.975,89.605c-0.3-0.5,0.301-1.7,1.301-2.601c1.1-1,2.199-1.3,2.5-0.8c0.3,0.5-0.301,1.7-1.301,2.601
	C85.375,89.805,84.276,90.105,83.975,89.605z"/>
<path fill="#A3A565" d="M71.975,84.504c-0.6-1.3,0-3.1,0.9-3c0.6,0.101,0.9,0.5,0.7,1c-0.101,0.601,0.399,0.9,1.2,0.7
	c0.8-0.2,1.399,0.101,1.3,0.7C75.875,84.905,72.475,85.405,71.975,84.504z"/>
<path fill="#724829" d="M68.975,133.705c-1.1-1.1-0.6-9.899,0.7-11.5c0.9-1.2,2.2-1.399,5.7-0.899c2.5,0.3,7,0.3,10-0.101
	c3-0.399,5.9-0.3,6.4,0.2c1.899,1.8-0.5,3.9-5.7,5c-4.9,1-7.3,0.9-12.9-0.7c-1.5-0.399-1.8,0.2-1.8,3.601
	C71.375,133.105,70.375,135.004,68.975,133.705z"/>
<path fill="#724829" d="M65.675,117.004c-10.3-5.199-17.899-14.8-19.8-24.8c-1-5.5,0.8-5.3,5,0.7c10,14.6,24.6,21.3,37.4,17
	c6.8-2.2,15.6-8.9,20.8-15.6l4.3-5.5l0.2-18.5c0.3-21,2-25.2,2.8-6.9c0.5,11.5,0.5,11.6,3,11.6c2.4,0,2.5,0.2,2.5,7.101
	c0,3.899,0.3,6.899,0.7,6.7c0.399-0.2,0.899,0,1.2,0.5c1,1.6-1.101,2.199-2.301,0.699c-0.6-0.699-2.199-1.3-3.5-1.3
	c-2,0-2.5,0.601-3,3.9c-1,6.1-4.899,12.899-10.399,18c-7.7,7.2-12.2,9.1-22.7,9.6C73.175,120.605,72.675,120.504,65.675,117.004z"/>
<path fill="#5386C6" d="M78.276,196.004c-0.101-0.3-0.2-0.899-0.301-1.3c-0.1-0.5-0.5-1.399-0.899-2c-0.5-0.7-0.5-1.3-0.101-1.3
	c0.301,0,0.101-0.6-0.5-1.4c-0.8-1-0.899-1.6-0.1-2.1c0.5-0.3,1.1-0.4,1.1-0.1c0.4,1.6,0.7,2.6,0.9,3.1c0.1,0.3,0.3,0.8,0.4,1.3
	c0.1,0.4,0.5,1.2,0.899,1.9c0.4,0.6,0.3,1.399-0.3,1.8C78.875,196.205,78.276,196.305,78.276,196.004z"/>
<path fill="#5386C6" d="M74.276,183.004c-0.101-0.3-0.2-0.899-0.301-1.3c-0.1-0.5-0.5-1.399-0.899-2c-0.5-0.7-0.5-1.3-0.101-1.3
	c0.301,0,0.101-0.6-0.5-1.4c-0.8-1-0.899-1.6-0.1-2.1c0.5-0.3,1.1-0.4,1.1-0.1c0.4,1.6,0.7,2.6,0.9,3.1c0.1,0.3,0.3,0.8,0.4,1.3
	c0.1,0.4,0.5,1.2,0.899,1.9c0.4,0.6,0.3,1.399-0.3,1.8C74.875,183.205,74.276,183.305,74.276,183.004z"/>
<path fill="#5386C6" d="M69.276,167.004c-0.101-0.3-0.2-0.899-0.301-1.3c-0.1-0.5-0.5-1.3-0.899-2c-0.4-0.6-0.3-1.399,0.3-1.8
	c0.5-0.3,1.1-0.4,1.1-0.1c0.101,0.3,0.2,0.899,0.301,1.399c0.1,0.4,0.5,1.2,0.899,1.9c0.4,0.6,0.3,1.399-0.3,1.8
	C69.875,167.205,69.276,167.305,69.276,167.004z"/>
<path fill="#5386C6" d="M65.276,154.004c-0.101-0.3-0.2-0.899-0.301-1.3c-0.1-0.5-0.5-1.3-0.899-2c-0.4-0.6-0.3-1.399,0.3-1.8
	c0.5-0.3,1.1-0.4,1.1-0.1c0.101,0.3,0.2,0.899,0.301,1.399c0.1,0.4,0.5,1.2,0.899,1.9c0.4,0.6,0.3,1.399-0.3,1.8
	C65.875,154.205,65.276,154.305,65.276,154.004z"/>
<path fill="#5386C6" d="M90.776,151.205c-0.601-0.899-0.4-1,2.6-1.1c1.1-0.101,1.9,0.3,1.8,0.8
	C94.776,152.105,91.475,152.305,90.776,151.205z"/>
<path fill="#482312" d="M53.776,65.004c-0.301-0.699-0.4-3.3-0.2-5.699l0.3-4.4h9h9l0.5,4c1,6.8,0.1,7.5-9.6,7.5
	C56.475,66.405,54.175,66.004,53.776,65.004z"/>
<path fill="#482312" d="M88.675,65.205c-0.899-1.3-0.8-6.899,0.2-9.6c0.3-0.9,2.8-1.2,9.2-1l8.8,0.3v5.5v5.5l-8.6,0.3
	C92.175,66.405,89.375,66.105,88.675,65.205z"/>
<path fill="#945B31" d="M70.076,148.905c-6.101-1.7-7.2-2.7-9.101-8.2c-1.8-5.1-1.399-6.3,1.7-6.3c5.5,0,6.601-1,6.9-5.9
	c0.3-4.3,0.5-4.6,2.8-4.1c3.2,0.6,13.8,0.6,17,0c2.4-0.5,2.5-0.2,2.8,4.3c0.3,4.101,0.601,4.7,2.601,4.7c1.199,0,3,0.6,3.899,1.3
	c1.5,1,1.5,1.7,0.5,5.2c-1.5,5.3-2.5,6.5-7.3,8.6C87.175,150.705,77.175,150.905,70.076,148.905z"/>
<path fill="#945B31" d="M75.076,112.305c-8.7-2.101-18.7-9.7-26.4-20.101l-3.5-4.8l0.4-23.3c0.399-21.3,0.6-23.7,2.7-29
	c4.199-10.7,11.8-16.601,24.5-18.8c18.8-3.2,34.699,4.5,40.1,19.6c1.5,4.1,1.9,9.1,2.3,28.3l0.4,23.3l-2.8,4
	c-1.5,2.2-5.7,6.7-9.2,10.101C93.776,110.705,83.875,114.405,75.076,112.305z M88.276,103.305c1.199-1.101,2.6-3.2,3.199-4.601
	c2-5.2,1.801-5.3-11.1-5.3c-7.6,0-12,0.4-12,1c0,2.4,3,7.9,5.1,9.4C76.975,106.205,85.375,105.905,88.276,103.305z M83.975,89.605
	c1.601-1,3.4-4.7,3.4-6.9c0-1.3-0.6-0.899-1.9,1.3c-1.1,1.801-2.399,3.5-3,3.9c-1.899,1.1-5.199-0.6-7.199-3.8
	c-1.601-2.7-1.9-2.9-1.9-1.101c0,3.301,3.8,7.4,6.8,7.4C81.675,90.405,83.375,90.004,83.975,89.605z M67.975,73.905
	c0.4-0.8,0.4-2.1,0.101-2.7c-0.2-0.7-0.601-1.7-0.8-2.3c-0.101-0.5,1-1.2,2.699-1.5c2.9-0.5,2.9-0.6,2.9-7v-6.5h-10h-10l-0.3,5.9
	c-0.3,6.699,0.3,7.6,5.899,7.6c4.301,0,5.101,0.7,3.7,3c-0.6,0.9-0.8,2.5-0.5,3.4C62.475,75.805,67.276,75.905,67.975,73.905z
	 M98.776,73.805c0.3-0.801,0.199-2.4-0.4-3.301c-1.2-2.399-0.4-3.1,3.9-3.1c5.6,0,6.199-0.9,5.899-7.6l-0.3-5.9h-10h-10v6.5
	c0,6.4,0,6.5,2.9,7c1.699,0.3,2.899,0.7,2.899,1c-0.1,0.3-0.5,1.3-0.8,2.3c-0.4,0.9-0.5,2.4-0.1,3.2
	C93.475,75.905,97.975,75.805,98.776,73.805z"/>
<path fill="#945B31" d="M39.776,88.105c-0.301-0.8-0.4-4.101-0.2-7.3c0.2-4.4,0.7-5.9,1.8-5.9c1.2,0,1.5,1.4,1.5,6.9
	c0,4.699-0.4,7.1-1.2,7.3C40.975,89.405,40.175,88.905,39.776,88.105z"/>
<path fill="#945B31" d="M117.776,88.105c-0.301-0.8-0.4-4.101-0.2-7.3c0.2-4.4,0.7-5.9,1.8-5.9c1.2,0,1.5,1.4,1.5,6.9
	c0,4.699-0.4,7.1-1.2,7.3C118.975,89.405,118.175,88.905,117.776,88.105z"/>
<path d="M26.875,234.605c-4.9-0.2-9.3-0.601-9.7-1c-0.399-0.4,1.5-21.4,4.2-46.601c5.5-49.699,5.7-50.8,11.8-52
	c5.2-1.1,20.7-2.699,25.2-2.699c7.7,0,8-0.301,8-7c0-3.2-0.4-5.9-0.8-5.9c-0.5,0-3-1.4-5.601-3.2c-6.3-4.1-12-11.399-14.699-18.8
	c-1.5-4.2-2.7-6-3.9-6c-3.4,0-5-3.3-5-10.2c0-5,0.4-6.899,1.8-8.1c1-1,2.3-1.7,2.9-1.7c0.6,0,1.2-5.3,1.6-13.2
	c1-20.899,4.9-31.7,13.9-38.899c6.8-5.301,13.399-7.301,24.3-7.2c19,0.1,30.2,8.7,35,26.899c0.9,3.2,1.9,12.101,2.2,19.7
	c0.5,12.3,0.8,13.7,2.399,13.7c2.601,0,3.9,3.1,3.9,9.5c0,6.8-1.3,9.5-4.5,9.5c-1.8,0-2.5,0.7-3,3.3c-1.8,8-10,18.601-18.2,23.4
	c-4.2,2.399-4.3,2.6-4.3,7.899v5.4h4.5c8.2,0,31,3.1,33.2,4.6c1.2,0.801,2.6,2.2,3.2,3.101c1.5,2.899,11.6,93.2,10.5,94.2
	C144.975,234.205,47.175,235.305,26.875,234.605z M34.776,193.205c-0.301-21.1-0.9-42.1-1.301-46.8c-0.6-8.3-0.699-8.4-2.3-6
	c-1.2,1.9-2.8,13.3-6.2,45.5c-2.5,23.7-4.6,43.6-4.6,44.3c0,0.8,2.2,1.2,7.6,1.2h7.5L34.776,193.205z M79.375,220.905v-10.6
	l-10.2-14.2c-5.6-7.8-12.1-16.8-14.5-20.101l-4.3-5.8l1.8-3c1.5-2.6,1.5-3,0.2-3.8c-4.4-2.6-5-3.7-6.7-14.5l-1.899-11l-3.301-0.3
	l-3.3-0.3l0.601,39.8c0.399,21.899,0.899,43.1,1.199,47.1l0.601,7.2h19.899h19.9V220.905z M123.776,209.205
	c0.3-12.3,0.899-33.399,1.199-47l0.601-24.6l-6.601-0.7c-3.699-0.4-6.899-0.5-7.1-0.3c-0.3,0.2-0.8,5-1.1,10.6
	c-0.7,10-0.801,10.3-4,13.2c-2.7,2.4-3.101,3-1.9,4c3.2,2.6,2.6,4.8-4.6,17.1c-15.301,26.2-16.9,29.301-16.9,31.7
	c0,2.4,0.1,2.4,1.3,0.8c1.601-2.199,5.5-1.8,7.101,0.7c2.399,3.9-4.4,7.9-7.101,4.101c-1.1-1.5-1.3-0.801-1.3,5.399v7.2h19.9h19.899
	L123.776,209.205z M142.875,228.705c-0.3-1.6-2.5-20.8-5-42.8c-4.4-39.4-5.7-47.5-7.5-47.5c-1.6,0-1.9,5.4-2.5,49.3l-0.7,43.7h8.101
	h8.1L142.875,228.705z M88.375,175.105c3.4-13.2,5.9-24.101,5.7-24.3c-0.2-0.301-1.7,0-3.3,0.699c-3.801,1.4-14.9,1.4-20.301-0.1
	c-2.399-0.6-4.5-1-4.699-0.8c-0.101,0.2,3.1,11.5,7.3,25.1c4.3,13.601,8,24.4,8.399,24
	C81.875,199.205,84.975,188.205,88.375,175.105z M67.975,172.805c-4-13.7-8.199-27.7-9.1-31.101l-1.7-6.2l-4.7,0.601
	c-2.5,0.3-4.8,0.7-4.899,0.899c-0.2,0.101,0.399,5.101,1.399,10.9c1.7,9.6,2.101,10.8,4.4,12c4.8,2.5,5.5,4.1,3.1,7.1
	c-1.199,1.5-1.699,3.2-1.3,3.9c2,3.4,19.601,27.4,19.9,27.1C75.276,197.905,72.076,186.504,67.975,172.805z M95.675,182.805
	c4.3-7.301,7.7-13.5,7.7-13.9s-0.9-1.9-2.1-3.3l-2.101-2.7l3.5-3c3.3-2.9,3.601-3.6,4.2-10.5c0.3-4.1,0.8-9,1.1-10.7
	c0.5-3.1,0.301-3.3-2.399-3.3h-3l-3.601,14.3c-1.899,7.8-5.5,21.8-7.899,31c-2.5,9.3-4.101,16.5-3.7,16
	C87.776,196.305,91.475,190.004,95.675,182.805z M93.076,147.004c2.5-1.199,3.6-2.699,4.6-6.399l1.4-4.7l-4.101-1l-4.1-1l0.2-6.4
	c0.3-5.199,0-6.199-1.2-5.699c-3.4,1.3-11.3,1.699-15.2,0.8l-4.3-1v5.7c0,6.699-1.1,8.1-6.1,8.1h-3.7l1.399,4.7
	c0.801,2.6,1.801,5.1,2.2,5.5c0.4,0.399,3.2,1.399,6.2,2.3C77.175,149.805,88.675,149.405,93.076,147.004z M95.776,115.805
	c6.6-3.2,11.3-8.101,15.3-15.601l2.8-5.3v-26c0-21.9-0.3-26.9-1.7-31.6c-4.399-14.101-13.1-20.801-27.8-21.7
	c-15.9-0.9-26.7,3.6-32.2,13.399c-4.6,8.301-5.8,16.301-5.8,40.2c0,23.601,0.9,28.2,6.9,36.3
	C62.875,118.605,81.076,123.004,95.776,115.805z M120.375,81.905c0-3.7-0.4-6.5-1-6.5s-1,2.8-1,6.5s0.4,6.5,1,6.5
	S120.375,85.605,120.375,81.905z M42.375,81.405c0-3.3-0.4-6-1-6s-1,2.7-1,6s0.4,6,1,6S42.375,84.705,42.375,81.405z"/>
<path d="M75.475,105.705c-4.3-2.2-7.1-6-7.399-9.8l-0.2-3l12.3-0.3c13.8-0.3,14.5,0.1,12.101,6.5
	C89.576,106.004,81.875,109.105,75.475,105.705z M87.076,101.205c1.3-1.2,2.3-3,2.3-4c0-1.6-1-1.8-9-1.8c-10,0-11.1,0.9-6.5,5.5
	C77.076,104.205,83.675,104.405,87.076,101.205z"/>
<path d="M74.776,87.905c-1.601-1.6-2.4-3.4-2.2-4.8c0.399-2.8,2-2.7,3.5,0.3c2.399,4.9,6.3,4.8,8.899-0.2c1.7-3.2,3.4-2.899,3.4,0.7
	c0,3-4.4,6.5-8.2,6.5C78.375,90.405,76.276,89.405,74.776,87.905z"/>
<path d="M62.576,75.805c-2.4-1.7-2.8-4.4-1-6.2c0.899-0.9,0.2-1.2-3.3-1.2c-2.5,0-5-0.5-5.7-1.2c-1.601-1.6-1.601-12,0-13.6
	c0.8-0.8,4.6-1.2,10.3-1.2c10.9,0,12.5,1,12.5,8.2c0,5-2.1,7.8-5.8,7.8c-1.9,0-2.101,0.3-1.101,1.9
	C70.975,74.205,66.375,78.504,62.576,75.805z M71.375,60.405v-4h-8.5h-8.5v4v4h8.5h8.5V60.405z"/>
<path d="M93.576,75.805c-2.4-1.7-2.8-4.4-1-6.2c0.899-0.9,0.6-1.2-1.3-1.2c-3.801,0-5.9-2.9-5.9-8.2c0-6.7,1.7-7.8,12.6-7.8
	c5.7,0,9.4,0.4,10.2,1.2c1.601,1.6,1.601,12,0,13.6c-0.7,0.7-3.1,1.2-5.5,1.2c-4,0-4.2,0.2-3.2,1.9
	C101.975,74.205,97.375,78.504,93.576,75.805z M106.375,60.405v-4h-8.5h-8.5v4v4h8.5h8.5V60.405z"/>
<path fill="#FFFFFF" d="M73.175,101.405c-1.6-1.6-2.8-3.8-2.6-4.7c0.3-1.6,1.6-1.8,10.3-1.8c9.4,0,10,0.1,9.7,2
	c-0.2,1.1-1.5,3.2-3,4.8C83.776,105.705,77.375,105.605,73.175,101.405z"/>
<path fill="#E5AE89" d="M100.475,22.805c-11.3-6.9-27.699-7.101-39.8-0.301c-6.399,3.5-7.8,2.2-2.1-2c5.8-4.3,12.6-6.1,22.399-6.1
	c9.801,0,17.2,2.3,22.9,7.3C109.076,26.205,107.076,26.805,100.475,22.805z"/>
<g>
</g>
<g>
</g>
<g>
</g>
<g>
</g>
<g>
</g>
<g>
</g>
</svg>
