<?xml version="1.0" encoding="UTF-8" standalone="no"?>
<svg viewBox="0 0 410.82175 363.90472" xmlns="http://www.w3.org/2000/svg">
<g font-family="Adobe Caslon Pro" font-size="45.61736" text-anchor="middle" transform="matrix(1.23879,0,0,1.23879,-472.90589,-435.67242)">
<path d="m561.59569,351.6912c-52.6517,0-95.38646,39.80218-95.38645,88.84053s42.73475,88.84053 95.38645,88.84053c3.15804,0 6.26882-.14981 9.34841-.42958v52.40835h93.38177c.0727-1.42202.12273-2.85709.12273-4.29577 0-29.10922-15.06492-54.94601-38.31414-71.14607 18.94995-16.23948 30.8477-39.52121 30.84769-65.37746 0-49.03836-42.73474-88.84053-95.38646-88.84053z"/>
<path d="m547.55263,530.86555c-88.76776,0-161.25209,50.60992-165.30517,114.08327h330.63079c-4.05308-63.47335-76.55786-114.08327-165.32562-114.08327z" fill="#fff" stroke="#000"/>
<path d="m547.5625,530.875c-42.57446,0-81.42026,11.63068-110.75,30.75v83.3125h221.5v-83.28125c-29.33889-19.13335-68.15801-30.78125-110.75-30.78125z" fill="#333"/>
<path d="m547.56286,530.86555c-23.43824,0-45.74241,3.5388-65.95024,9.90072-.2908,2.52048-.45003,5.07299-.45003,7.67101 0,36.64972 29.75054,66.40025 66.40027,66.40026s66.40027-29.75054 66.40027-66.40026c0-2.59802-.15923-5.15053-.45004-7.67101-20.21485-6.36562-42.50479-9.90072-65.95023-9.90072z" fill="#fca"/>
<path d="m485.71427,325.21933c0,68.6411-55.64461,124.28571-124.28571,124.28571s-124.28571-55.64461-124.28571-124.28571 55.6446-124.28571 124.28571-124.28571 124.28571,55.64461 124.28571,124.28571z" fill="#fca" stroke="#784421" stroke-width="2" transform="matrix(.5944,0,0,.70726,332.72955,228.28166)"/>
<path d="m554.28571,199.50504c0,74.95292-80.58875,135.71427-180,135.71427s-180-60.76135-180-135.71427 80.58874-135.71428 180-135.71428 180,60.76135 180,135.71428z" transform="matrix(.33769,0,0,.22468,434.26337,338.66075)"/>
</g>
</svg>
