<?xml version="1.0" encoding="UTF-8" standalone="no"?>
<svg viewBox="0 0 407.52228 407.53354" xmlns="http://www.w3.org/2000/svg">
<defs>
<linearGradient>
<stop offset="0" stop-color="#40403d"/>
<stop offset=".50304" stop-color="#b3b3b3"/>
<stop offset="1" stop-color="#e6e9e3" stop-opacity=".97351"/>
</linearGradient>
</defs>
<g transform="translate(-141.86944,-244.14825)">
<g transform="translate(362,190)">
<path d="m.46804,65.1193c-23.184,0-44-21.336-44-4.5 0,3.03441-10.38785,3.95185-9.25,6.71875-63.07514,10.384-112.23312,47.32081-140.78125,102.09375-25.90346,2.51226-12.96875,17.78156-12.96875,38.6875 0,14.47583-23.36249,29.17248-8.84375,36.46875-.47812,5.63752-.71875,11.33319-.71875,17.09375 0,110.4 89.6,200 200,200 10.39427,0 20.59441-.8127 30.5625-2.3438-.00263.0923 0,.1884 0,.2813 0,5.796 8.152-3.5 14.5-3.5s8.5,9.296 8.5,3.5c0-1.7485-.45216-3.4245-1.28125-4.875 16.47697-4.4565 28.6229-9.9455 43.125-18.2188 13.65004,3.9461 15.43643,4.0872 20.65625.5938 12.48546-8.35598-6.2187-19.6465 18.5-12.5 6.4463,1.8637-1.9357-5.6658-6.4375-9.4063 5.8425-4.882 11.4071-10.0858 16.6563-15.5937 2.5671,4.4993 2.1103-7.5 7.2812-7.5 8.004,0 5.5-3.168 5.5-12 0-6.2632 10.7235-.6858 5.9688-3.3125 19.2052-27.2197 31.7951-59.4405 35.4062-94.3125 6.5941-3.3161 5.625-18.1219-.375-37.375-6.7336-21.60708 5.728-44-2-44-1.7895,0-3.489.98662-5.0625,2.78125-20.4231-67.69053-69.76592-117.28578-139.0625-133.78125 2.00206-3.55632-5.875-5.42253-5.875-9.5 0-16.836-6.816,4.5-30,4.5z" fill="#d7ded1" fill-opacity=".97647"/>
<path d="m-26.5625,66.625c-4.94042.19218-7.52054,5.87157-11.15625,9.4375-16.42584.76368-33.05879,4.95038-49.125,14.09375-40.52603,23.06359-68.58606,60.0845-87.03125,93.0625-7.6101-.27625-15.18134-2.19873-22.6875-1.9375-8.37232,2.41798-5.00736,11.75885-1.59375,16.9375 3.74254,7.90029 1.79975,17.9659-4.71875,23.84375-6.80685,3.7464-4.63848,12.16175 3.03125,12.3125 .83057.31214 1.62228.47851 2.375.53125-4.15233,11.46733-6.03125,18.59375-6.03125,18.59375s216.36533-190.207 306.875-117.375c0,0-33.43414-30.91989-78.28125-48.4375 .58451-5.48588 3.55313-14.12156-2.5625-17.21875-6.02536,2.92069-12.85079,2.84038-19.375,3.21875-9.62218,1.65115-17.83319-4.35826-26.78125-6.5625-1.07474-.37374-2.03924-.53494-2.9375-.5z" fill="#eef0ec" fill-opacity=".97647" fill-rule="evenodd"/>
<path d="m162.0625,305.125c-109.60156,59.39699-180.30838,128.6899-292.03125,106.0625 0,0 69.28084,45.30693 143.71875,38 1.83337,1.74924 3.53304,3.65324 5.875,4.59375 4.63588.68484 8.78007-2.67308 12-5.59375 .66211-.63602 1.06216-1.35809 1.28125-2.09375 17.63628-4.00997 35.26876-11.3721 52.03125-23.4375 3.29205,2.91932 6.49562,6.16442 10.125,5.375 3.81665-4.94835 8.3887-9.62064 11.8125-14.4375-.27755-2.01374-.82968-5.31655-1.84375-8.1875 5.44501-5.50657 10.74411-11.60243 15.875-18.375 4.13497-2.65385 7.90813-5.92032 11.25-9.53125 2.11101-2.50917 5.33569-5.63661 3.53125-9.1875-.32218-.44945-.79996-.92252-1.28125-1.40625 10.27161-17.18369 19.59609-37.60075 27.65625-61.78125z" fill="#c4ccbd" fill-opacity=".97647" fill-rule="evenodd"/>
</g>
<path d="m551.42856,460.93362a200,200 0 1,1 -400,0 200,200 0 1,1 400,0z" fill="#c4ccbe" transform="matrix(.30544,0,0,.30544,194.4741,315.86271)"/>
<path d="m293.94848,401.67838c-28.20051,4.12019-48.50922,28.37375-48.50893,56.0597 6.4335-23.8853 26.92894-39.8355 52.94938-43.63719 19.19301-2.80415 37.20669.19126 50.78718,12.00326-11.8142-17.48226-32.96373-27.6786-55.22763-24.42577z" fill="#a2ae98"/>
<path d="m290.70064,391.89201c-28.19943,4.12763-50.24714,24.45941-50.23954,52.14536 6.4272-23.88699 26.48128-42.89691 52.50072-46.70545 19.19227-2.80922 37.64389,3.23576 51.22749,15.04417-11.81881-17.47914-31.22564-23.74279-53.48867-20.48408z" fill="#ececec"/>
<path d="m363.15625,455.25c-.23743,6.1563-1.37219,12.20817-3.3125,17.96875 1.49077-.91056 3.09633-1.63315 4.8125-2.125 .16295-5.34605-.32113-10.6828-1.5-15.84375zm12.4375,21.5c-.30814,7.98934-5.26204,15.42933-13.1875,18.5-6.05395,1.94313-11.39084,3.15829-12.03125-4.03125-1.00787,1.34568-2.07144,2.6393-3.1875,3.90625-.68281-.27683-1.3813-.58973-2.03125-.9375 .51732.48382 1.07928.93218 1.65625,1.375-6.50173,7.24685-14.77347,13.11863-24.46875,16.875-18.08672,7.00757-37.41149,5.24139-53.28125-3.25 15.41044,14.41261 40.05067,23.56628 61.03125,15.4375 10.81833-4.19148 19.31382-11.99246 25.1875-21.59375 .84026-3.34572 2.37824-1.77699 9.625-3.84375 8.58948-3.32793 12.68021-13.71364 10.6875-22.4375z" fill="#a2ae98"/>
<path d="m551.42856,460.93362a200,200 0 1,1 -400,0 200,200 0 1,1 400,0z" fill="#c4ccbe" transform="matrix(.13119,0,0,.13119,265.51497,542.97946)"/>
<path d="m308.24019,579.83813c-12.11239,1.76967-20.83519,12.18681-20.83506,24.0782 2.76325-10.25897 11.56624-17.10974 22.74228-18.7426 8.24358-1.20442 15.98064.08214 21.81359,5.15551-5.07431-7.5088-14.15825-11.88823-23.72081-10.49111z" fill="#a2ae98"/>
<path d="m306.84521,575.63479c-12.11193,1.77286-21.58164,10.50556-21.57838,22.39695 2.76055-10.2597 11.37398-18.42465 22.54958-20.06045 8.24327-1.20659 16.16842,1.38979 22.00271,6.46162-5.07629-7.50747-13.41172-10.19777-22.97391-8.79812z" fill="#ececec"/>
<path d="m323.97573,632.8573c11.41423-4.42236 16.84871-18.20704 14.20068-29.79984-.40946,10.61671-6.9911,20.49291-17.52294,24.5734-7.76842,3.00981-16.07254,2.24117-22.88876-1.40597 6.61894,6.19036 17.19965,10.1238 26.21102,6.63241z" fill="#a2ae98"/>
<path d="m317.07373,627.04186c11.88348-2.9368 19.55414-14.1513 18.39997-25.98654-1.75459,10.47871-8.78766,18.31449-19.75248,21.02426-8.08778,1.99876-16.97669,1.3061-23.27447-3.17723 5.77908,6.9809 15.24515,10.45807 24.62698,8.13951z" fill="#ececec"/>
<path d="m551.42856,460.93362a200,200 0 1,1 -400,0 200,200 0 1,1 400,0z" fill="#c4ccbe" transform="matrix(6.261962e-2,0,0,6.261962e-2,192.83892,475.64092)"/>
<path d="m213.23242,493.23421c-5.78146.84469-9.945,5.81697-9.94494,11.49294 1.31895-4.89679 5.52077-8.16678 10.85528-8.94617 3.93481-.57489 7.62784.03921 10.41201,2.46081-2.42206-3.58408-6.75798-5.67446-11.32235-5.00758z" fill="#808080"/>
<path d="m212.56657,491.22788c-5.78124.84621-10.30129,5.01448-10.29974,10.69045 1.31766-4.89713 5.429-8.7944 10.76331-9.5752 3.93465-.57593 7.71747.66337 10.50227,3.08424-2.423-3.58344-6.40164-4.86757-10.96584-4.19949z" fill="#ececec"/>
<path d="m220.74326,518.54118c5.44821-2.11087 8.04218-8.69054 6.77823-14.22398-.19544,5.06753-3.33697,9.78162-8.364,11.7293-3.708,1.43664-7.6717,1.06975-10.9252-.67109 3.15933,2.95477 8.20969,4.83227 12.51097,3.16577z" fill="#808080"/>
<path d="m217.44882,515.76536c5.67219-1.40178 9.33352-6.75466 8.78262-12.40382-.8375,5.00167-4.1945,8.74182-9.4282,10.03524-3.86044.95404-8.10327.62343-11.10931-1.51655 2.75846,3.33211 7.27678,4.99182 11.75489,3.88513z" fill="#ececec"/>
<path d="m551.42856,460.93362a200,200 0 1,1 -400,0 200,200 0 1,1 400,0z" fill="#daded5" transform="matrix(.11832,0,0,.11832,215.45336,297.92826)"/>
<path d="m253.98562,331.1697c-10.92371,1.59599-18.79046,10.99082-18.79035,21.71521 2.49207-9.25217 10.43115-15.43062 20.5104-16.90324 7.43458-1.08621 14.41233.07409 19.67285,4.64957-4.57633-6.77191-12.76879-10.72155-21.3929-9.46154z" fill="#808080"/>
<path d="m252.72754,327.37887c-10.92329,1.59887-19.46366,9.47456-19.46072,20.19896 2.48964-9.25284 10.25776-16.61649 20.33661-18.09177 7.43429-1.08817 14.58169,1.2534 19.84341,5.82749-4.57812-6.77069-12.09552-9.19697-20.7193-7.93468z" fill="#ececec"/>
<path d="m268.17691,378.98568c10.29406-3.98836 15.19521-16.42024 12.80705-26.87534-.36927,9.5748-6.30501,18.48178-15.80327,22.16181-7.00605,2.71444-14.49522,2.02123-20.64251-1.26799 5.96938,5.58285 15.51171,9.13028 23.63873,5.98152z" fill="#808080"/>
<path d="m261.95226,373.74096c10.71726-2.64859 17.63513-12.76253 16.59423-23.43628-1.5824,9.45035-7.92526,16.51714-17.81401,18.96098-7.29407,1.80261-15.31063,1.17793-20.99036-2.86543 5.21193,6.29582 13.74902,9.43175 22.21014,7.34073z" fill="#ececec"/>
<path d="m551.42856,460.93362a200,200 0 1,1 -400,0 200,200 0 1,1 400,0z" fill="#daded5" transform="matrix(6.261962e-2,0,0,6.261962e-2,375.83892,287.64092)"/>
<path d="m396.23242,305.23421c-5.78146.84469-9.945,5.81697-9.94494,11.49294 1.31895-4.89679 5.52077-8.16678 10.85528-8.94617 3.93481-.57489 7.62784.03921 10.41201,2.46081-2.42206-3.58408-6.75798-5.67446-11.32235-5.00758z" fill="#808080"/>
<path d="m395.56657,303.22788c-5.78124.84621-10.30129,5.01448-10.29974,10.69045 1.31766-4.89713 5.429-8.7944 10.76331-9.5752 3.93465-.57593 7.71747.66337 10.50227,3.08424-2.423-3.58344-6.40164-4.86757-10.96584-4.19949z" fill="#ececec"/>
<path d="m403.74326,330.54118c5.44821-2.11087 8.04218-8.69054 6.77823-14.22398-.19544,5.06753-3.33697,9.78162-8.364,11.7293-3.708,1.43664-7.6717,1.06975-10.9252-.67109 3.15933,2.95477 8.20969,4.83227 12.51097,3.16577z" fill="#808080"/>
<path d="m400.44882,327.76536c5.67219-1.40178 9.33352-6.75466 8.78262-12.40382-.8375,5.00167-4.1945,8.74182-9.4282,10.03524-3.86044.95404-8.10327.62343-11.10931-1.51655 2.75846,3.33211 7.27678,4.99182 11.75489,3.88513z" fill="#ececec"/>
<g transform="matrix(.708,.14107,-.16809,.84361,236.98074,12.63953)">
<path d="m551.42856,460.93362a200,200 0 1,1 -400,0 200,200 0 1,1 400,0z" fill="#c4ccbe" transform="matrix(.11832,0,0,.11832,443.45336,470.92826)"/>
<path d="m481.98562,504.1697c-10.92371,1.59599-18.79046,10.99082-18.79035,21.71521 2.49207-9.25217 10.43115-15.43062 20.5104-16.90324 7.43458-1.08621 14.41233.07409 19.67285,4.64957-4.57633-6.77191-12.76879-10.72155-21.3929-9.46154z" fill="#a2ae98"/>
<path d="m480.72754,500.37887c-10.92329,1.59887-19.46366,9.47456-19.46072,20.19896 2.48964-9.25284 10.25776-16.61649 20.33661-18.09177 7.43429-1.08817 14.58169,1.2534 19.84341,5.82749-4.57812-6.77069-12.09552-9.19697-20.7193-7.93468z" fill="#ececec"/>
<path d="m496.17691,551.98568c10.29406-3.98836 15.19521-16.42024 12.80705-26.87534-.36927,9.5748-6.30501,18.48178-15.80327,22.16181-7.00605,2.71444-14.49522,2.02123-20.64251-1.26799 5.96938,5.58285 15.51171,9.13028 23.63873,5.98152z" fill="#a2ae98"/>
<path d="m489.95226,546.74096c10.71726-2.64859 17.63513-12.76253 16.59423-23.43628-1.5824,9.45035-7.92526,16.51714-17.81401,18.96098-7.29407,1.80261-15.31063,1.17793-20.99036-2.86543 5.21193,6.29582 13.74902,9.43175 22.21014,7.34073z" fill="#ececec"/>
</g>
<path d="m551.42856,460.93362a200,200 0 1,1 -400,0 200,200 0 1,1 400,0z" fill="#c4ccbe" transform="matrix(9.872422e-2,0,0,9.872422e-2,321.40307,432.04583)"/>
<path d="m369.09375,480.75c-.30814,7.98934-13.51204,11.42933-22.9375,10-11.12625,7.74327-17.65125,9.76699-32.8125,15.9375-21.58672,4.25757-39.41149-2.00861-55.28125-10.5 15.41044,14.41261 40.05067,23.56628 61.03125,15.4375 10.81833-4.19148 21.31382-8.49246 27.1875-18.09375 3.09026.40428 5.12824,1.97301 10.625,1.65625 3.58948.42207 12.18021,1.28636 12.1875-14.4375z" fill="#ececec"/>
<path d="m551.42856,460.93362a200,200 0 1,1 -400,0 200,200 0 1,1 400,0z" fill="#c4ccbe" transform="matrix(.12384,0,0,.12384,336.6211,481.08603)"/>
<path d="m376.95364,515.88055c-11.43408,1.67056-19.66838,11.50432-19.66826,22.72977 2.6085-9.68445 10.91851-16.15156 21.46867-17.69298 7.78193-1.13696 15.08569.07755 20.59199,4.8668-4.79014-7.0883-13.36536-11.22247-22.3924-9.90359z" fill="#a2ae98"/>
<path d="m375.63678,511.91261c-11.43364,1.67357-20.37303,9.91722-20.36995,21.14267 2.60596-9.68513 10.73701-17.39283 21.28676-18.93703 7.78163-1.13901 15.26296,1.31196 20.77052,6.09976-4.79201-7.08703-12.66064-9.62667-21.68733-8.3054z" fill="#ececec"/>
<path d="m391.80796,565.93055c10.77501-4.1747 15.90515-17.18741 13.40541-28.13099-.38653,10.02215-6.59958,19.34527-16.54162,23.19724-7.33337,2.84126-15.17245,2.11566-21.60694-1.32723 6.24826,5.84368 16.23643,9.55685 24.74315,6.26098z" fill="#a2ae98"/>
<path d="m385.29249,560.44079c11.21798-2.77234 18.45906-13.35881 17.36953-24.53125-1.65633,9.89188-8.29553,17.28885-18.6463,19.84686-7.63486,1.88683-16.02597,1.23296-21.97106-2.9993 5.45544,6.58996 14.39139,9.8724 23.24783,7.68369z" fill="#ececec"/>
<path d="m551.42856,460.93362a200,200 0 1,1 -400,0 200,200 0 1,1 400,0z" fill="#e2e4df" fill-opacity=".97647" transform="matrix(9.7159055e-2,-1.7509736e-2,7.9451606e-3,4.408656e-2,261.21901,274.57436)"/>
<path d="m295.09328,281.25825c-8.86319,2.21131-14.69236,6.8762-13.9721,10.87227 1.42515-3.81632 7.52969-7.29343 15.70771-9.3338 6.0322-1.50499 11.84013-2.10529 16.46724-1.1789-4.21276-1.84607-11.20549-2.10536-18.20285-.35957z" fill="#808080"/>
<path d="m293.8056,280.03191c-8.86265,2.21232-15.34699,6.41084-14.62441,10.40649 1.4231-3.8162 7.30766-7.70964 15.48518-9.75094 6.03184-1.50568 12.0584-1.69092 16.6864-.76523-4.21414-1.84535-10.55023-1.63692-17.54717.10968z" fill="#ececec"/>
<path d="m309.95786,296.97512c8.18548-3.00956 11.3754-8.36722 8.7122-11.90955 .33973,3.62239-3.93647,7.81972-11.48917,10.59662-5.57096,2.04828-11.76749,2.89831-17.03641,2.58244 5.27684,1.19685 13.35106,1.1065 19.81338-1.26951z" fill="#808080"/>
<path d="m304.49409,295.94204c8.62298-2.57297 13.62464-7.36538 12.05311-11.18856-.66483,3.75554-5.39893,7.32744-13.35529,9.70151-5.86872,1.75114-12.49373,2.70475-17.42935,2.03868 4.70273,1.57461 11.92382,1.47969 18.73153-.55163z" fill="#ececec"/>
<path d="m551.42856,460.93362a200,200 0 1,1 -400,0 200,200 0 1,1 400,0z" fill="#c4ccbe" transform="matrix(4.3894585e-2,-1.9239269e-2,4.46159e-2,.10179,178.48338,545.14039)"/>
<path d="m205.3137,567.47354c-3.45081,3.14938-2.82663,12.51131 1.21749,21.73788-2.56437-8.36522-1.94885-14.97174 1.23519-17.87767 2.34858-2.14344 5.37483-2.27983 9.05183.80121-4.25142-5.08197-8.78015-7.14782-11.50451-4.66142z" fill="#a2ae98"/>
<path d="m203.41747,564.41671c-3.44957,3.1518-3.64814,11.3163.39702,20.54241-2.56552-8.36539-2.46036-15.96379.72253-18.87193 2.34774-2.14509 5.88237-1.29278 9.55929,1.78688-4.25162-5.08064-7.95547-5.94566-10.67884-3.45736z" fill="#ececec"/>
<path d="m228.60957,606.30377c2.31506-5.10525-.55458-16.59783-5.38311-25.20441 3.47358,8.29761 4.63019,16.92582 2.4941,21.63639-1.57562,3.47458-4.61546,4.09599-8.13641,2.26577 4.31985,3.83245 9.19771,5.33276 11.02542,1.30225z" fill="#a2ae98"/>
<path d="m224.32252,602.80372c2.97729-4.02141 1.7299-13.84771-2.68124-22.86148 2.97658,8.3878 3.28824,15.49904.54111,19.20957-2.02631,2.73692-5.23597,3.50306-8.86783.94799 4.30769,4.56901 8.65743,5.87876 11.00796,2.70392z" fill="#ececec"/>
<g transform="matrix(.9134,-.24403,.21007,.78629,-32.95478,180.35187)">
<path d="m551.42856,460.93362a200,200 0 1,1 -400,0 200,200 0 1,1 400,0z" fill="#c4ccbe" transform="matrix(.17954,0,0,.17954,370.23554,308.37337)"/>
<path d="m428.70685,358.81605c-16.57633,2.42186-28.51385,16.67816-28.51368,32.95204 3.78163-14.03984 15.8289-23.41541 31.12379-25.65005 11.2817-1.64829 21.87018.11242 29.85283,7.05554-6.94442-10.27612-19.37617-16.26955-32.46294-14.35753z" fill="#a2ae98"/>
<path d="m426.79776,353.06359c-16.5757,2.42624-29.5354,14.37731-29.53094,30.65119 3.77793-14.04084 15.56577-25.21492 30.86007-27.45359 11.28126-1.65127 22.12717,1.90199 30.11165,8.843-6.94713-10.27428-18.35452-13.95607-31.44078-12.0406z" fill="#ececec"/>
<path d="m450.2416,431.37506c15.62086-6.05219 23.05819-24.91712 19.43424-40.78236-.56036,14.52941-9.56762,28.04543-23.98089,33.62975-10.63142,4.11906-21.99596,3.06713-31.32425-1.92413 9.05831,8.47177 23.53846,13.85486 35.8709,9.07674z" fill="#a2ae98"/>
<path d="m440.79593,423.41638c16.26305-4.01914 26.76067-19.36667 25.18114-35.5637-2.40123,14.34056-12.02629,25.06417-27.03211,28.77261-11.06849,2.73538-23.23333,1.78745-31.85211-4.34819 7.90892,9.55367 20.86364,14.31233 33.70308,11.13928z" fill="#ececec"/>
<g transform="matrix(.10015,0,0,.10015,386.40102,347.3708)">
<path d="m329.55682,392.22677c-32.31431,4.72123-55.5856,32.51282-55.58527,64.23751 7.37201-27.36961 30.85725-45.64658 60.67348-50.00284 21.99282-3.21322 42.63428.21916 58.19585,13.75425-13.53762-20.03252-37.77238-31.71627-63.28406-27.98892z" fill="#a2ae98"/>
<path d="m325.83519,381.01279c-32.31307,4.72976-57.57703,28.02748-57.56833,59.75217 7.36479-27.37155 30.34429-49.15458 60.15937-53.5187 21.99197-3.21902 43.13526,3.70778 58.70039,17.23877-13.5429-20.02895-35.78074-27.20632-61.29143-23.47224z" fill="#ececec"/>
<path d="m371.5372,533.67508c30.45169-11.79829 44.9502-48.57404 37.88558-79.50213-1.09238,28.32399-18.65135,54.67244-46.74894,65.55865-20.72514,8.0298-42.87946,5.97915-61.06425-3.75094 17.65848,16.51507 45.88644,27.009 69.92761,17.69442z" fill="#a2ae98"/>
<path d="m353.12357,518.16023c31.70359-7.835 52.1679-37.75385 49.08874-69.32875-4.68103,27.95585-23.44435,48.86071-52.69707,56.09003-21.57717,5.33242-45.29162,3.48451-62.09328-8.47646 15.41784,18.62415 40.67209,27.9008 65.70161,21.71518z" fill="#ececec"/>
</g>
<g transform="matrix(7.2157589e-2,0,0,7.2157589e-2,413.72842,346.20968)">
<path d="m329.55682,392.22677c-32.31431,4.72123-55.5856,32.51282-55.58527,64.23751 7.37201-27.36961 30.85725-45.64658 60.67348-50.00284 21.99282-3.21322 42.63428.21916 58.19585,13.75425-13.53762-20.03252-37.77238-31.71627-63.28406-27.98892z" fill="#a2ae98"/>
<path d="m325.83519,381.01279c-32.31307,4.72976-57.57703,28.02748-57.56833,59.75217 7.36479-27.37155 30.34429-49.15458 60.15937-53.5187 21.99197-3.21902 43.13526,3.70778 58.70039,17.23877-13.5429-20.02895-35.78074-27.20632-61.29143-23.47224z" fill="#ececec"/>
<path d="m371.5372,533.67508c30.45169-11.79829 44.9502-48.57404 37.88558-79.50213-1.09238,28.32399-18.65135,54.67244-46.74894,65.55865-20.72514,8.0298-42.87946,5.97915-61.06425-3.75094 17.65848,16.51507 45.88644,27.009 69.92761,17.69442z" fill="#a2ae98"/>
<path d="m353.12357,518.16023c31.70359-7.835 52.1679-37.75385 49.08874-69.32875-4.68103,27.95585-23.44435,48.86071-52.69707,56.09003-21.57717,5.33242-45.29162,3.48451-62.09328-8.47646 15.41784,18.62415 40.67209,27.9008 65.70161,21.71518z" fill="#ececec"/>
</g>
</g>
<path d="m551.42856,460.93362a200,200 0 1,1 -400,0 200,200 0 1,1 400,0z" fill="#c4ccbe" transform="matrix(7.9762398e-2,0,0,7.375889e-2,275.25793,400.89839)"/>
<path d="m301.23437,421.62131c-7.3642.99495-12.66755,6.85174-12.66748,13.5374 1.68003-5.76787 7.03214-9.61955 13.82703-10.53759 5.01201-.67715 9.71604.04619 13.26241,2.89856-3.08513-4.22164-8.60805-6.68388-14.42196-5.89837z" fill="#a2ae98"/>
<path d="m300.38623,419.25808c-7.36391.99674-13.12137,5.9065-13.1194,12.59215 1.67838-5.76827 6.91525-10.35882 13.70988-11.27851 5.0118-.67838 9.83021.78138 13.37738,3.63289-3.08633-4.22089-8.15416-5.73345-13.96786-4.94653z" fill="#ececec"/>
<path d="m310.80138,451.43008c6.93971-2.48636 10.24381-10.23648 8.63384-16.75425-.24895,5.96898-4.2505,11.52165-10.65373,13.8158-4.72311,1.6922-9.77191,1.26005-13.91609-.79047 4.02423,3.48039 10.45718,5.69187 15.93598,3.72892z" fill="#a2ae98"/>
<path d="m306.60505,448.16048c7.22501-1.65114 11.88867-7.95623 11.18695-14.61031-1.06677,5.89141-5.34278,10.29688-12.00927,11.82039-4.91727,1.12375-10.32162.73433-14.1506-1.78633 3.51362,3.92485 9.26888,5.87981 14.97292,4.57625z" fill="#ececec"/>
<g transform="matrix(.3876,0,0,.3876,251.06637,351.95025)">
<path d="m551.42856,460.93362a200,200 0 1,1 -400,0 200,200 0 1,1 400,0z" fill="#c4ccbe" transform="matrix(.13119,0,0,.13119,265.51497,542.97946)"/>
<path d="m308.24019,579.83813c-12.11239,1.76967-20.83519,12.18681-20.83506,24.0782 2.76325-10.25897 11.56624-17.10974 22.74228-18.7426 8.24358-1.20442 15.98064.08214 21.81359,5.15551-5.07431-7.5088-14.15825-11.88823-23.72081-10.49111z" fill="#a2ae98"/>
<path d="m306.84521,575.63479c-12.11193,1.77286-21.58164,10.50556-21.57838,22.39695 2.76055-10.2597 11.37398-18.42465 22.54958-20.06045 8.24327-1.20659 16.16842,1.38979 22.00271,6.46162-5.07629-7.50747-13.41172-10.19777-22.97391-8.79812z" fill="#ececec"/>
<path d="m323.97573,632.8573c11.41423-4.42236 16.84871-18.20704 14.20068-29.79984-.40946,10.61671-6.9911,20.49291-17.52294,24.5734-7.76842,3.00981-16.07254,2.24117-22.88876-1.40597 6.61894,6.19036 17.19965,10.1238 26.21102,6.63241z" fill="#a2ae98"/>
<path d="m317.07373,627.04186c11.88348-2.9368 19.55414-14.1513 18.39997-25.98654-1.75459,10.47871-8.78766,18.31449-19.75248,21.02426-8.08778,1.99876-16.97669,1.3061-23.27447-3.17723 5.77908,6.9809 15.24515,10.45807 24.62698,8.13951z" fill="#ececec"/>
</g>
<g transform="matrix(.2952,0,0,.2952,212.0171,418.67768)">
<path d="m551.42856,460.93362a200,200 0 1,1 -400,0 200,200 0 1,1 400,0z" fill="#c4ccbe" transform="matrix(.13119,0,0,.13119,265.51497,542.97946)"/>
<path d="m308.24019,579.83813c-12.11239,1.76967-20.83519,12.18681-20.83506,24.0782 2.76325-10.25897 11.56624-17.10974 22.74228-18.7426 8.24358-1.20442 15.98064.08214 21.81359,5.15551-5.07431-7.5088-14.15825-11.88823-23.72081-10.49111z" fill="#a2ae98"/>
<path d="m306.84521,575.63479c-12.11193,1.77286-21.58164,10.50556-21.57838,22.39695 2.76055-10.2597 11.37398-18.42465 22.54958-20.06045 8.24327-1.20659 16.16842,1.38979 22.00271,6.46162-5.07629-7.50747-13.41172-10.19777-22.97391-8.79812z" fill="#ececec"/>
<path d="m323.97573,632.8573c11.41423-4.42236 16.84871-18.20704 14.20068-29.79984-.40946,10.61671-6.9911,20.49291-17.52294,24.5734-7.76842,3.00981-16.07254,2.24117-22.88876-1.40597 6.61894,6.19036 17.19965,10.1238 26.21102,6.63241z" fill="#a2ae98"/>
<path d="m317.07373,627.04186c11.88348-2.9368 19.55414-14.1513 18.39997-25.98654-1.75459,10.47871-8.78766,18.31449-19.75248,21.02426-8.08778,1.99876-16.97669,1.3061-23.27447-3.17723 5.77908,6.9809 15.24515,10.45807 24.62698,8.13951z" fill="#ececec"/>
</g>
<g transform="matrix(.2292,0,0,.2292,275.39204,444.62184)">
<path d="m551.42856,460.93362a200,200 0 1,1 -400,0 200,200 0 1,1 400,0z" fill="#c4ccbe" transform="matrix(.13119,0,0,.13119,265.51497,542.97946)"/>
<path d="m308.24019,579.83813c-12.11239,1.76967-20.83519,12.18681-20.83506,24.0782 2.76325-10.25897 11.56624-17.10974 22.74228-18.7426 8.24358-1.20442 15.98064.08214 21.81359,5.15551-5.07431-7.5088-14.15825-11.88823-23.72081-10.49111z" fill="#a2ae98"/>
<path d="m306.84521,575.63479c-12.11193,1.77286-21.58164,10.50556-21.57838,22.39695 2.76055-10.2597 11.37398-18.42465 22.54958-20.06045 8.24327-1.20659 16.16842,1.38979 22.00271,6.46162-5.07629-7.50747-13.41172-10.19777-22.97391-8.79812z" fill="#ececec"/>
<path d="m323.97573,632.8573c11.41423-4.42236 16.84871-18.20704 14.20068-29.79984-.40946,10.61671-6.9911,20.49291-17.52294,24.5734-7.76842,3.00981-16.07254,2.24117-22.88876-1.40597 6.61894,6.19036 17.19965,10.1238 26.21102,6.63241z" fill="#a2ae98"/>
<path d="m317.07373,627.04186c11.88348-2.9368 19.55414-14.1513 18.39997-25.98654-1.75459,10.47871-8.78766,18.31449-19.75248,21.02426-8.08778,1.99876-16.97669,1.3061-23.27447-3.17723 5.77908,6.9809 15.24515,10.45807 24.62698,8.13951z" fill="#ececec"/>
</g>
<g transform="matrix(.47889,-.14303,.11382,.38109,228.17188,414.00547)">
<path d="m551.42856,460.93362a200,200 0 1,1 -400,0 200,200 0 1,1 400,0z" fill="#c4ccbe" transform="matrix(.13119,0,0,.13119,265.51497,542.97946)"/>
<path d="m308.24019,579.83813c-12.11239,1.76967-20.83519,12.18681-20.83506,24.0782 2.76325-10.25897 11.56624-17.10974 22.74228-18.7426 8.24358-1.20442 15.98064.08214 21.81359,5.15551-5.07431-7.5088-14.15825-11.88823-23.72081-10.49111z" fill="#a2ae98"/>
<path d="m306.84521,575.63479c-12.11193,1.77286-21.58164,10.50556-21.57838,22.39695 2.76055-10.2597 11.37398-18.42465 22.54958-20.06045 8.24327-1.20659 16.16842,1.38979 22.00271,6.46162-5.07629-7.50747-13.41172-10.19777-22.97391-8.79812z" fill="#ececec"/>
<path d="m323.97573,632.8573c11.41423-4.42236 16.84871-18.20704 14.20068-29.79984-.40946,10.61671-6.9911,20.49291-17.52294,24.5734-7.76842,3.00981-16.07254,2.24117-22.88876-1.40597 6.61894,6.19036 17.19965,10.1238 26.21102,6.63241z" fill="#a2ae98"/>
<path d="m317.07373,627.04186c11.88348-2.9368 19.55414-14.1513 18.39997-25.98654-1.75459,10.47871-8.78766,18.31449-19.75248,21.02426-8.08778,1.99876-16.97669,1.3061-23.27447-3.17723 5.77908,6.9809 15.24515,10.45807 24.62698,8.13951z" fill="#ececec"/>
</g>
<g transform="matrix(.48375,0,0,.61575,358.13959,66.55053)">
<path d="m551.42856,460.93362a200,200 0 1,1 -400,0 200,200 0 1,1 400,0z" fill="#c4ccbe" transform="matrix(.13119,0,0,.13119,265.51497,542.97946)"/>
<path d="m308.24019,579.83813c-12.11239,1.76967-20.83519,12.18681-20.83506,24.0782 2.76325-10.25897 11.56624-17.10974 22.74228-18.7426 8.24358-1.20442 15.98064.08214 21.81359,5.15551-5.07431-7.5088-14.15825-11.88823-23.72081-10.49111z" fill="#a2ae98"/>
<path d="m306.84521,575.63479c-12.11193,1.77286-21.58164,10.50556-21.57838,22.39695 2.76055-10.2597 11.37398-18.42465 22.54958-20.06045 8.24327-1.20659 16.16842,1.38979 22.00271,6.46162-5.07629-7.50747-13.41172-10.19777-22.97391-8.79812z" fill="#ececec"/>
<path d="m323.97573,632.8573c11.41423-4.42236 16.84871-18.20704 14.20068-29.79984-.40946,10.61671-6.9911,20.49291-17.52294,24.5734-7.76842,3.00981-16.07254,2.24117-22.88876-1.40597 6.61894,6.19036 17.19965,10.1238 26.21102,6.63241z" fill="#a2ae98"/>
<path d="m317.07373,627.04186c11.88348-2.9368 19.55414-14.1513 18.39997-25.98654-1.75459,10.47871-8.78766,18.31449-19.75248,21.02426-8.08778,1.99876-16.97669,1.3061-23.27447-3.17723 5.77908,6.9809 15.24515,10.45807 24.62698,8.13951z" fill="#ececec"/>
</g>
<path d="m346.04342,466.24707c-6.11243,4.22606-8.18347,11.85091-5.15181,17.80969-1.11805-5.90261 1.90567-11.76245 7.54555-15.66181 4.16007-2.87621 8.68069-4.36454 13.13491-3.43036-4.66402-2.36373-10.703-2.05393-15.52865,1.28248z" fill="#a2ae98"/>
<path d="m346.79264,462.58051c-6.85288,2.8738-11.13877,9.10961-9.40168,15.56564 .12378-6.00621 3.98977-11.79862 10.31287-14.45027 4.66399-1.95589 9.69615-1.79672 13.86185.03645-4.07606-3.27523-9.3628-3.42066-14.77304-1.15182z" fill="#ececec"/>
</g>
</svg>
