<?xml version="1.0" encoding="UTF-8" standalone="no"?>
<svg id="svg2" xmlns:rdf="http://www.w3.org/1999/02/22-rdf-syntax-ns#" xmlns="http://www.w3.org/2000/svg" height="128" width="128" version="1.1" xmlns:cc="http://creativecommons.org/ns#" xmlns:dc="http://purl.org/dc/elements/1.1/">
 <defs id="defs4">
  <linearGradient id="linearGradient17207" y2="57.123" gradientUnits="userSpaceOnUse" y1="25.181" gradientTransform="matrix(.87244 0 0 1.1411 .012279 -.0010017)" x2="69.989" x1="-27.906">
   <stop id="stop14505" stop-color="#fff" offset="0"/>
   <stop id="stop14507" stop-color="#fff" stop-opacity="0" offset="1"/>
  </linearGradient>
  <linearGradient id="linearGradient17203" y2="13.092" gradientUnits="userSpaceOnUse" y1="73.606" gradientTransform="matrix(.87036 0 0 1.1439 .012279 -.0010017)" x2="77.54" x1="71.12">
   <stop id="stop7303" stop-color="#d49c56" offset="0"/>
   <stop id="stop7305" stop-color="#d49c56" stop-opacity="0" offset="1"/>
  </linearGradient>
  <linearGradient id="linearGradient17205" y2="90.802" gradientUnits="userSpaceOnUse" y1="104.19" gradientTransform="matrix(1.3411 0 0 .74234 .012279 -.0010017)" x2="71.728" x1="56.976">
   <stop id="stop7271" stop-color="#9f5f09" offset="0"/>
   <stop id="stop7273" stop-color="#9f5f09" stop-opacity="0" offset="1"/>
  </linearGradient>
  <linearGradient id="linearGradient17199" y2="84.408" gradientUnits="userSpaceOnUse" y1="62.567" gradientTransform="matrix(.77612 0 0 1.2828 .012279 -.0010017)" x2="79.192" x1="81.333">
   <stop id="stop10896" stop-color="#d49c56" offset="0"/>
   <stop id="stop10898" stop-color="#d49c56" stop-opacity=".258" offset="1"/>
  </linearGradient>
  <linearGradient id="linearGradient17193" y2="36.351" gradientUnits="userSpaceOnUse" y1="19.993" gradientTransform="matrix(.60981 0 0 1.6326 .012279 -.0010017)" x2="51.125" x1="63.574">
   <stop id="stop6378" stop-color="#da8410" offset="0"/>
   <stop id="stop6380" stop-color="#c97402" stop-opacity="0" offset="1"/>
  </linearGradient>
  <radialGradient id="radialGradient17197" gradientUnits="userSpaceOnUse" cy="72.644" cx="-164.86" gradientTransform="matrix(.10334 .081453 -.21307 .27274 -131.6 63.745)" r="15.009">
   <stop id="stop17174" stop-color="#ffeed6" offset="0"/>
   <stop id="stop17176" stop-color="#ffcd8b" offset="1"/>
  </radialGradient>
  <radialGradient id="radialGradient17201" gradientUnits="userSpaceOnUse" cy="33.695" cx="-165.24" gradientTransform="matrix(.71610 -.017199 .034976 1.4693 -47.343 -19.601)" r="21.607">
   <stop id="stop13599" stop-color="#ffeed6" offset="0"/>
   <stop id="stop13601" stop-color="#ffcd8b" offset="1"/>
  </radialGradient>
 </defs>
 <g id="g3377">
  <path id="path12688" fill-rule="evenodd" fill="#500" d="m7.7084 64.882c8.4756 0.081 18.219-1.873 20.162-10.268 1.9-8.202 0.909-50.655 31.012-51.646 28.887-0.9511 36.429 23.32 38.912 36.612 7.976 42.706-2.512 71.46-62.978 54.153-6.857-3.976-10.973-4.164-15.635-10.479 4.1023 0.11259 6.2489 0.38873 6.8646-3.6723-5.4621 0.22398-10.807-0.2774-12.89-9.8055 9.9576 1.3822 14.53-2.9453 18.778-9.503-5.043 7.957-10.98 12.422-24.225 4.608z"/>
  <path id="path12690" fill-rule="evenodd" fill="url(#linearGradient17193)" d="m28.441 57.189c4.4012-5.9146 5.76-13.277 6.8924-21.94 3.0464 8.4541 3.2849 16.882-2.2299 24.18"/>
  <path id="path12692" d="m3.5976 118.62c2.7803-7.71 4.0113-18.03 13.582-22.805l44.395-13.542 46.365 12.853c8.159 2.9422 12.015 14.888 15.916 23.923-2.5409 1.8322-4.7309 4.5457-7.7525 5.1708h-105.21c-3.4166-1.2735-5.1472-3.5632-7.2978-5.5997z" fill-rule="evenodd" stroke="#000" stroke-width=".99778" fill="#747474"/>
  <path id="path12694" d="m48.5 72.396c0.23665 5.7694 0.86638 11.094-1.8245 15.984l2.46 5.7438 27.172-0.39536 3.3088-7.8941-1.0136-16.493-30.104 3.0543z" fill-rule="evenodd" stroke="url(#linearGradient17199)" stroke-width=".99778" fill="url(#radialGradient17197)"/>
  <path id="path12696" d="m37.954 41.413c0.57938 9.119 0.83348 18.238 2.8669 27.357 0 0 9.2455 10.442 14.406 12.742 5.1605 2.301 6.6048 1.989 11.468-0.07198 4.8626-2.061 16.126-12.095 16.126-12.095 4.841-19.716 6.4971-38.381-15.051-49.387l-15.624 23.325-0.43008-9.071-4.0136 6.9113c-2.717-3.311-7.93-2.211-9.748 0.289z" fill-rule="evenodd" stroke="url(#linearGradient17203)" stroke-width=".99778" fill="url(#radialGradient17201)"/>
  <path id="path12698" fill-rule="evenodd" fill="url(#linearGradient17205)" d="m92.703 63.298c-4.0944 9.7073-15.146 13.559-25.644 11.81 10.169 8.0445 25.307 4.2741 28.887-9.5704"/>
  <path id="path13605" fill-rule="evenodd" fill="url(#linearGradient17207)" d="m37.902 41.461c0.9578 8.9721 1.4492 17.788 3.4644 27.114 5.1348 5.3492 15.631 17.02 21.859 13.462 3.9695-0.90866 5.096-2.2252 7.3759-3.3765-13.705 4.0899-19.041-3.1804-26.105-11.508l-4.6633-27.223-1.9316 1.5308z"/>
  <g id="g39" fill="none" transform="matrix(.99556 0 0 1 .012279 -.0010017)" stroke="#000">
   <path id="path14511" d="m79.7 86.665-2.9458 7.22-15.141 0.19209"/>
   <path id="path14513" d="m46.29 86.86 2.9083 7.4001 12.445-0.22923"/>
  </g>
 </g>
</svg>
