<?xml version="1.0" encoding="UTF-8" standalone="no"?>
<svg viewBox="0 0 404.37225 362.85938" xmlns="http://www.w3.org/2000/svg">
<g font-family="Adobe Caslon Pro" font-size="45.61736" text-anchor="middle" transform="matrix(1.22303,0,0,1.22303,-467.50114,-843.44339)">
<path d="m547.55263,872.23766c-88.76776,0-161.25209,50.60992-165.30517,114.08327h330.63079c-4.05308-63.47335-76.55786-114.08327-165.32562-114.08327z" fill="#3771c8"/>
<path d="m-57.91806,795.73809-24.39449-42.2525-24.39449-42.25249h48.78898 48.78898l-24.39449,42.2525-24.39449,42.25249z" fill="#c87137" fill-opacity=".99608" transform="translate(605.48092,134.12603)"/>
<path d="m594.08481,838.15625c6.2151,12.32245 9.14817,29.37741 7.25,47.78125-1.74365,16.90566-7.23744,31.84017-14.78125,42.53125l-28.53125-16.5 36.0625-73.8125z" fill="#fff" fill-opacity=".99608" opacity=".99"/>
<path d="m501.0625,838.15625c-6.2151,12.32245-9.14817,29.37741-7.25,47.78125 1.74365,16.90566 7.23744,31.84017 14.78125,42.53125l28.53125-16.5-36.0625-73.8125z" fill="#fff" fill-opacity=".99608" opacity=".99"/>
<path d="m465.71428,183.79076c0,80.47577-64.59892,145.71428-144.28572,145.71428s-144.28572-65.23851-144.28572-145.71428 64.59892-145.71428 144.28572-145.71428 144.28572,65.2385 144.28572,145.71428z" transform="matrix(.57079,0,0,.61011,368.77185,666.40181)"/>
<path d="m485.71427,325.21933c0,68.6411-55.64461,124.28571-124.28571,124.28571s-124.28571-55.64461-124.28571-124.28571 55.6446-124.28571 124.28571-124.28571 124.28571,55.64461 124.28571,124.28571z" fill="#c87137" stroke="#deaa87" stroke-width="2" transform="matrix(.5944,0,0,.70726,332.72955,569.65377)"/>
<path d="m554.28571,199.50504c0,74.95292-80.58875,135.71427-180,135.71427s-180-60.76135-180-135.71427 80.58874-135.71428 180-135.71428 180,60.76135 180,135.71428z" transform="matrix(.31983,.10834,-.07209,.2128,460.00295,643.72114)"/>
<path d="m-277.39703,737.87726c0,4.77003-3.86688,8.6369-8.63691,8.6369s-8.6369-3.86687-8.6369-8.6369 3.86687-8.63691 8.6369-8.63691 8.63691,3.86688 8.63691,8.63691z" fill="#fff" fill-opacity=".99608" transform="translate(833.59679,236.81719)"/>
<path d="m-277.39703,737.87726c0,4.77003-3.86688,8.6369-8.63691,8.6369s-8.6369-3.86687-8.6369-8.6369 3.86687-8.63691 8.6369-8.63691 8.63691,3.86688 8.63691,8.63691z" fill="#fff" fill-opacity=".99608" transform="translate(833.59679,208.81719)"/>
</g>
</svg>
