<?xml version="1.0" encoding="UTF-8" standalone="no"?>
<svg width="128" xmlns="http://www.w3.org/2000/svg" xmlns:xlink="http://www.w3.org/1999/xlink" height="128">
 <defs>
  <linearGradient id="linearGradient17207" y2=".59046" x2=".70863" y1="-.26174" x1="-1.9032">
   <stop id="stop14505" stop-color="#fff" offset="0"/>
   <stop id="stop14507" stop-color="#fff" stop-opacity="0" offset="1"/>
  </linearGradient>
  <linearGradient id="linearGradient17195" y2="-.063107" x2=".46868" y1=".93204" x1=".46895">
   <stop id="stop11789" offset="0"/>
   <stop id="stop11791" stop-color="#747474" offset="1"/>
  </linearGradient>
  <linearGradient id="linearGradient17203" y2="-.067449" x2=".61421" y1="1.009" x1=".5">
   <stop id="stop7303" stop-color="#d49c56" offset="0"/>
   <stop id="stop7305" stop-color="#d49c56" stop-opacity="0" offset="1"/>
  </linearGradient>
  <linearGradient id="linearGradient17205" y2=".25687" x2="1.0091" y1=".87820" x1=".32421">
   <stop id="stop7271" stop-color="#9f5f09" offset="0"/>
   <stop id="stop7273" stop-color="#9f5f09" stop-opacity="0" offset="1"/>
  </linearGradient>
  <linearGradient id="linearGradient17199" y2=".70333" x2=".45108" y1=".20425" x1=".5">
   <stop id="stop10896" stop-color="#d49c56" offset="0"/>
   <stop id="stop10898" stop-color="#d49c56" stop-opacity=".258" offset="1"/>
  </linearGradient>
  <linearGradient id="linearGradient17193" y2=".99652" x2=".30422" y1="-.10789" x1="1.1447">
   <stop id="stop6378" stop-color="#da8410" offset="0"/>
   <stop id="stop6380" stop-color="#c97402" stop-opacity="0" offset="1"/>
  </linearGradient>
  <radialGradient id="radialGradient17197" gradientUnits="userSpaceOnUse" cy="72.644" cx="-164.86" gradientTransform="matrix(.10380 .081452 -.21402 .27274 -132.2 63.745)" r="15.009">
   <stop id="stop17174" stop-color="#ffeed6" offset="0"/>
   <stop id="stop17176" stop-color="#ffcd8b" offset="1"/>
  </radialGradient>
  <radialGradient id="radialGradient17201" gradientUnits="userSpaceOnUse" cy="33.695" cx="-165.24" gradientTransform="matrix(.7193 -.017199 .035132 1.4693 -47.567 -19.6)" r="21.607">
   <stop id="stop13599" stop-color="#ffeed6" offset="0"/>
   <stop id="stop13601" stop-color="#ffcd8b" offset="1"/>
  </radialGradient>
 </defs>
 <g fill-rule="evenodd">
  <path id="path12688" fill="#f9f986" d="m7.7305 64.882c8.5134 0.081299 18.3-1.8734 20.252-10.268 1.9076-8.2015 0.91294-50.654 31.15-51.645 29.016-0.95116 36.592 23.32 39.086 36.611 8.0163 42.706-2.5234 71.462-63.259 54.153-6.888-3.9768-11.022-4.164-15.705-10.479 4.1206 0.11259 6.2768 0.38872 6.8952-3.6722-5.4865 0.22398-10.855-0.27739-12.948-9.8053 10.002 1.3822 14.595-2.9453 18.862-9.5029-5.0646 7.9568-11.028 12.421-24.333 4.6074z"/>
  <path id="path12690" fill="url(#linearGradient17193)" d="m28.556 57.189c4.4208-5.9145 5.7857-13.277 6.9232-21.94 3.06 8.454 3.2996 16.882-2.2399 24.18"/>
  <path id="path12692" fill="url(#linearGradient17195)" stroke="#000" d="m3.6013 118.62c2.7927-7.7114 4.0292-18.026 13.643-22.806l44.593-13.541 46.574 12.853c8.1954 2.9422 12.069 14.888 15.987 23.923-2.5522 1.8322-4.752 4.5456-7.7871 5.1707h-105.68c-3.4319-1.2735-5.1702-3.5631-7.3304-5.5996z"/>
  <path id="path12694" fill="url(#radialGradient17197)" stroke="url(#linearGradient17199)" d="m48.704 72.396c0.23771 5.7693 0.87025 11.094-1.8326 15.984l6.5159 36.041 14.966-0.2036 11.606-38.383-1.0181-16.493-30.238 3.0543z"/>
  <path id="path12696" fill="url(#radialGradient17201)" stroke="url(#linearGradient17203)" d="m38.111 41.413c0.58197 9.1189 0.8372 18.238 2.8797 27.357 0 0 9.2868 10.442 14.47 12.742 5.1835 2.301 6.6343 1.989 11.519-0.071983 4.8843-2.061 16.198-12.095 16.198-12.095 4.8626-19.716 6.5261-38.38-15.118-49.386l-15.694 23.325-0.432-9.0709-4.0315 6.9112c-2.7285-3.3124-7.9646-2.2117-9.7908 0.28796z"/>
  <path id="path12698" fill="url(#linearGradient17205)" d="m93.104 63.298c-4.1127 9.7071-15.214 13.559-25.758 11.81 10.214 8.0444 25.42 4.274 29.016-9.5702"/>
  <path id="path13605" fill="url(#linearGradient17207)" d="m38.059 41.461c0.96208 8.972 1.4557 17.788 3.4799 27.114 5.1577 5.3491 15.701 17.02 21.957 13.462 3.9872-0.90865 5.1187-2.2252 7.4088-3.3764-13.766 4.0898-19.126-3.1803-26.222-11.508l-4.6841-27.223-1.9402 1.5308z"/>
  <g stroke="#000" fill="none">
   <path id="path14511" d="m79.7 86.665l-11.25 37.721"/>
   <path id="path14513" d="m46.29 86.86l6.8877 37.627"/>
  </g>
 </g>
</svg>
