<?xml version="1.0" encoding="utf-8"?>
<!-- Generator: Adobe Illustrator 16.0.0, SVG Export Plug-In . SVG Version: 6.00 Build 0)  -->
<!DOCTYPE svg PUBLIC "-//W3C//DTD SVG 1.1//EN" "http://www.w3.org/Graphics/SVG/1.1/DTD/svg11.dtd">
<svg version="1.1" id="Layer_1" xmlns="http://www.w3.org/2000/svg" xmlns:xlink="http://www.w3.org/1999/xlink" x="0px" y="0px"
	 width="135.292px" height="247.583px" viewBox="0 0 135.292 247.583" enable-background="new 0 0 135.292 247.583"
	 xml:space="preserve">
<g>
	<path fill="#E7CAA2" d="M79.5,163.741c-0.3-0.6,0.3-1.5,1.4-2.1c1.199-0.6,2.199-0.6,2.6-0.1c0.3,0.6-0.3,1.5-1.4,2.1
		C80.9,164.241,79.9,164.241,79.5,163.741z"/>
	<path fill="#E7CAA2" d="M65,156.642c-1.1-1.1-2.3-2-2.7-2c-0.5,0-2.8-1.8-5.2-3.9c-3.3-2.8-4.3-4.3-3.7-5.6
		c0.6-1.6,0.8-1.7,2.4-0.1c1,0.899,2.4,1.6,3,1.6c0.6,0,1.5,0.7,1.9,1.5c1.4,2.4,7.5,6.5,9.8,6.5c1.2,0,4.1-1.8,6.6-4
		c2.4-2.2,4.801-4,5.301-4s1.5-0.8,2.199-1.7c1.2-1.7,1.301-1.7,1.9,0c0.7,1.601-0.9,4.7-2.4,4.7c-0.399,0-3,2-5.699,4.5
		C72.9,159.241,68.399,160.042,65,156.642z"/>
	<path fill="#E7CAA2" d="M64.6,136.941c-0.4-0.5-1.2-0.8-1.7-0.8s-0.9-0.3-0.9-0.7c0-0.8,0.3-0.899,1.8-0.7
		c0.4,0.101,1.2,0.2,1.7,0.301c1.3,0.1,1.9,2,0.8,2.3C65.799,137.542,65,137.342,64.6,136.941z"/>
	<path fill="#E7CAA2" d="M73.5,136.642c-0.7-1.2,2-2.4,3.4-1.6c0.5,0.399,1.199,0.199,1.6-0.4s1.1-0.8,1.6-0.4
		c0.5,0.301,0.7,1,0.301,1.5c-0.301,0.5-0.9,0.7-1.4,0.4s-1.1-0.1-1.5,0.5C76.7,137.941,74.299,137.941,73.5,136.642z"/>
	<path fill="#E7CAA2" d="M82.5,128.741c-0.3-0.6,0.3-1.5,1.4-2.1c1.199-0.6,2.199-0.6,2.6-0.1c0.3,0.6-0.3,1.5-1.4,2.1
		C83.9,129.241,82.9,129.241,82.5,128.741z"/>
	<path fill="#E7CAA2" d="M66.2,104.042c-3-2.101-1.8-3.601,1.4-1.9c2.6,1.3,4.7,1.1,7.1-0.7c1.7-1.399,2.5,0.8,0.8,2.2
		C73.2,105.542,68.6,105.741,66.2,104.042z"/>
	<path fill="#E7CAA2" d="M106.599,102.741c-1-1.1-1.3-2.199-0.8-2.5c0.5-0.3,1.7,0.301,2.601,1.301c1,1.1,1.3,2.199,0.8,2.5
		C108.7,104.342,107.5,103.741,106.599,102.741z"/>
	<path fill="#E7CAA2" d="M53.399,83.441c-0.6-0.899-0.4-1,2.6-1.1c1.1-0.101,1.9,0.3,1.8,0.8
		C57.399,84.342,54.1,84.542,53.399,83.441z"/>
	<path fill="#E7CAA2" d="M61.5,74.642c-0.4-0.6-1-0.8-1.5-0.5s-1.1,0.1-1.4-0.4c-0.4-0.5-0.2-1.199,0.3-1.5
		c0.5-0.399,1.2-0.199,1.6,0.4s1,0.8,1.5,0.5s1.1-0.1,1.4,0.4c0.4,0.5,0.2,1.199-0.3,1.5C62.6,75.441,61.899,75.241,61.5,74.642z"/>
	<path fill="#517797" d="M65.5,12.642c-0.3-0.5-0.2-1,0.2-1.2c1.3-0.7,3.3-0.3,3.6,0.6C69.6,13.242,66.2,13.742,65.5,12.642z"/>
	<path fill="#AE3929" d="M35.399,233.142c-0.4-0.8-0.3-2.3,0.1-3.2c0.6-1.7,0.7-1.7,1.9-0.1c1.1,1.399,3.3,1.8,13.4,2
		c16.9,0.399,15.9,2.2-1.3,2.6C38.1,234.642,35.899,234.441,35.399,233.142z"/>
	<path fill="#AE3929" d="M99.5,233.642c-0.3-0.5-0.2-1.1,0.2-1.3c0.8-0.5,7-1,8.8-0.7c0.6,0,4.7,0.2,9.2,0.3
		c4.7,0.101,8.3,0.601,8.3,1.2C126,234.342,100.299,234.842,99.5,233.642z"/>
	<path fill="#AE3929" d="M16.5,229.441c-0.8-2.1,0-7.3,1-7.3c1.3,0,1.8,7.2,0.5,8C17.399,230.441,16.799,230.142,16.5,229.441z"/>
	<path fill="#AE3929" d="M124.4,228.342c-0.7-2-0.2-4.7,1.1-5c1.4-0.3,1.9,4.3,0.6,5.6C125.4,229.642,124.9,229.542,124.4,228.342z"
		/>
	<path fill="#AE3929" d="M32.7,227.042c-1.2-1.2-0.8-4.9,0.9-8.301c1.9-3.8,3.5-3.1,3.2,1.4
		C36.6,223.741,33.899,228.241,32.7,227.042z"/>
	<path fill="#AE3929" d="M108.9,223.642c-1.601-0.9-2.601-9.1-1.301-11.1c1.4-2.301,4.4,2.399,4.4,6.699
		C112,223.941,111.299,224.941,108.9,223.642z"/>
	<path fill="#AE3929" d="M49.899,205.441c-10.9-16.2-14.4-23.3-11.4-22.5c0.6,0.101,0.9,0.601,0.7,1c-0.1,0.5,0.2,0.601,0.7,0.3
		c0.5-0.399,1-1.399,1-2.399c0-1.4,0.5-4.601,1-7.101c0.1-0.199,1,0.4,2.1,1.4c1.9,1.7,1.9,1.9,0.3,3.7c-0.9,1-1.3,2.1-1,2.5
		c0.4,0.399-0.3,1.8-1.5,3.1c-1.7,1.9-1.9,2.4-0.6,1.9c2.2-0.8,3,0.3,1.5,2.1c-1,1.3-0.9,1.5,0.5,1c2.2-0.899,3,0.2,1.5,2
		c-1,1.3-0.9,1.5,0.5,1c2.2-0.899,3,0.2,1.5,2c-1,1.3-0.9,1.5,0.5,1c2.2-0.899,3,0.2,1.5,2c-1,1.3-0.9,1.5,0.5,1
		c2.2-0.899,3,0.2,1.5,2c-1,1.3-0.9,1.5,0.5,1c2.2-0.899,3.1,0.2,1.6,1.9c-1,1.2-0.9,1.399,0.5,1.1c1.1-0.2,2.7,1.2,4.6,4
		c2.6,3.9,2.9,4.101,3.4,2.2c0.3-1.2,1-1.9,1.6-1.5c1.5,0.8,1.4,6.8-0.1,8.3c-0.8,0.8-0.8,1.5,0.1,2.601c0.8,0.899,0.8,1.6,0.2,2
		C62.5,223.441,56.6,215.542,49.899,205.441z"/>
	<path fill="#AE3929" d="M123.4,218.342c-0.7-2-0.2-4.7,1.1-5c1.4-0.3,1.9,4.3,0.6,5.6C124.4,219.642,123.9,219.542,123.4,218.342z"
		/>
	<path fill="#AE3929" d="M78.4,216.441c-0.9-1.5,0.6-2.7,2.8-2.3c1.899,0.4,4.8,2.4,3.8,2.6
		C82.2,217.241,78.799,217.042,78.4,216.441z"/>
	<path fill="#AE3929" d="M17.5,214.342c-0.9-2.2-0.2-6.2,1-6c0.6,0.1,1.1,1.399,1.3,2.899C20.2,214.441,18.399,216.842,17.5,214.342
		z"/>
	<path fill="#AE3929" d="M31.7,214.042c-1.2-1.2-0.8-4.9,0.9-8.301c1.9-3.699,3.4-3.199,3.4,1.2
		C36,210.241,32.899,215.241,31.7,214.042z"/>
	<path fill="#AE3929" d="M83.5,213.241c-1.1-0.8-1.4-1.6-0.8-1.899c0.6-0.4,1.8,0,2.8,0.7c1.1,0.8,1.4,1.6,0.8,1.899
		C85.7,214.342,84.5,213.941,83.5,213.241z"/>
	<path fill="#AE3929" d="M85.599,210.342c-1.399-1.101-0.699-2.5,6.601-13.5c5.899-8.8,7.8-12.601,7-13.4
		c-0.601-0.6-0.8-1.8-0.4-2.7c0.5-1.399,0.3-1.399-1-0.3c-1.2,0.9-1.8,1-2.3,0.2c-0.9-1.4,0.1-2.5,2.3-2.5c0.9,0,1.7-0.7,1.7-1.6
		c0-2,2.4-5.101,3.4-4.4c1.1,0.6,0.699,4.1-0.801,5.8c-0.8,1-0.8,1.7-0.199,2.101c0.6,0.399,0.699,1.399,0.399,2.399
		c-0.6,1.4-0.399,1.5,0.9,0.4c2.1-1.7,3.3,0.1,1.8,2.7c-0.7,1.399-1.6,1.8-2.8,1.399c-1.4-0.6-1.5-0.399-0.5,0.9
		c1.5,1.8,0.7,2.899-1.5,2c-1.4-0.5-1.5-0.3-0.5,1c1.5,1.8,0.7,2.899-1.5,2c-1.4-0.5-1.5-0.3-0.5,1c1.5,1.8,0.7,2.899-1.5,2
		c-1.4-0.5-1.5-0.3-0.5,1c1.5,1.8,0.7,2.899-1.5,2c-1.4-0.5-1.5-0.3-0.5,1c1.5,1.8,0.7,2.899-1.5,2c-1.4-0.5-1.5-0.3-0.5,1
		c1.5,1.8,0.7,2.899-1.5,2c-1.4-0.5-1.5-0.3-0.5,1c1.5,1.8,0.7,2.899-1.5,2c-1.5-0.5-1.5-0.3-0.4,1
		C89.4,210.842,87.799,211.941,85.599,210.342z"/>
	<path fill="#AE3929" d="M122.4,207.342c-0.7-2-0.2-4.7,1.1-5c1.4-0.3,1.9,4.3,0.6,5.6C123.4,208.642,122.9,208.542,122.4,207.342z"
		/>
	<path fill="#AE3929" d="M79.5,205.342c-0.9-2.2-0.2-6.2,1-6c0.6,0.1,1.1,1.399,1.3,2.899C82.2,205.441,80.4,207.842,79.5,205.342z"
		/>
	<path fill="#AE3929" d="M109.599,204.741c-1.6-1.699-2.3-9.1-1-10.399c0.4-0.3,1.5-0.2,2.5,0.399c1.5,0.7,1.9,2.101,1.9,5.9
		C113,206.142,112,207.441,109.599,204.741z"/>
	<path fill="#AE3929" d="M60.399,204.342c-0.7-2-0.2-4.7,1.1-5c1.4-0.3,1.9,4.3,0.6,5.6
		C61.399,205.642,60.899,205.542,60.399,204.342z"/>
	<path fill="#AE3929" d="M30.899,203.441c-1.5-5,0.8-14.7,3.2-13.3c1.4,0.9,1,6.8-0.6,8.9c-0.8,1-1.2,2.199-1,2.699
		c0.3,0.4,0.1,1-0.5,1.4C31.5,203.441,31,203.642,30.899,203.441z"/>
	<path fill="#AE3929" d="M18.5,200.441c-0.9-2.3-0.2-8.3,1-8.3c1.4,0,1.9,7.5,0.6,8.8C19.399,201.642,18.899,201.441,18.5,200.441z"
		/>
	<path fill="#AE3929" d="M121.4,197.342c-0.7-2-0.2-4.7,1.1-5c1.4-0.3,1.9,4.3,0.6,5.6C122.4,198.642,121.9,198.542,121.4,197.342z"
		/>
	<path fill="#AE3929" d="M59.399,195.241c-0.3-0.899-0.4-2.3-0.1-3.1c0.4-0.8,0.2-1.7-0.4-2.1c-0.6-0.301-0.9-1.601-0.8-2.7
		c0.1-1.2-0.1-3-0.5-3.9c-0.4-0.899-0.5-2.1-0.2-2.7c0.4-0.5,0.1-1.3-0.5-1.6c-0.5-0.4-0.8-1.3-0.5-2.1c0.3-0.7,0.1-1.601-0.5-2
		c-0.6-0.301-0.8-1.2-0.5-2c0.3-0.7,0.1-1.601-0.3-1.801c-0.6-0.399-3.3-8-3.6-10.6c-0.1-0.3-1.5-3.3-3.3-6.7
		c-1.8-3.5-2.8-6.5-2.2-6.8c0.8-0.5,6.7,9.6,7.2,12.2c0,0.5,0.8,2.3,1.5,4.2c0.8,1.899,1.6,4.399,1.7,5.6c0.1,1.1,0.6,2.6,1,3.3
		s0.5,1.601,0.1,2.101c-0.3,0.5,0,1.3,0.6,1.6c0.5,0.4,0.8,1.3,0.5,2.1c-0.3,0.7-0.1,1.601,0.5,2c0.5,0.301,0.9,1.301,0.8,2.2
		c-0.1,1,0.1,2.5,0.6,3.5c0.4,0.9,0.5,2.4,0.2,3.2c-0.4,0.8-0.2,1.7,0.3,2c1.3,0.8,1.3,4.2,0,5
		C60.399,196.441,59.7,196.042,59.399,195.241z"/>
	<path fill="#AE3929" d="M80.4,194.241c-0.4-1-0.2-2.199,0.399-2.8c0.8-0.8,1.3-0.7,1.8,0.601c0.4,1,0.2,2.199-0.399,2.8
		C81.4,195.642,80.9,195.542,80.4,194.241z"/>
	<path fill="#AE3929" d="M29.7,188.042c-1.2-1.2-0.8-4.9,0.9-8.301c1.9-3.699,3.4-3.199,3.4,1.2
		C34,184.241,30.899,189.241,29.7,188.042z"/>
	<path fill="#AE3929" d="M81.4,187.241c-0.4-1-0.2-2.199,0.399-2.8c0.8-0.8,1.3-0.7,1.8,0.601c0.4,1,0.2,2.199-0.399,2.8
		C82.4,188.642,81.9,188.542,81.4,187.241z"/>
	<path fill="#AE3929" d="M120.4,187.342c-0.7-2-0.2-4.7,1.1-5c1.4-0.3,1.9,4.3,0.6,5.6C121.4,188.642,120.9,188.542,120.4,187.342z"
		/>
	<path fill="#AE3929" d="M110.7,186.542c-1.2-0.7-1.7-2.301-1.7-5.301c0-5,0.6-5.899,3.1-4.5c1.4,0.7,1.9,2.101,1.9,5.4
		C114,187.042,113.299,187.941,110.7,186.542z"/>
	<path fill="#AE3929" d="M19.5,185.342c-0.9-2.2-0.2-6.2,1-6c0.6,0.1,1.1,1.399,1.3,2.899C22.2,185.441,20.399,187.842,19.5,185.342
		z"/>
	<path fill="#AE3929" d="M82.5,181.642c-0.4-0.6-0.2-1.7,0.4-2.4c0.6-0.699,0.8-1.6,0.399-1.899c-0.3-0.4-0.1-1.3,0.5-2
		c0.7-0.8,0.9-1.7,0.5-2c-0.3-0.4,0-1.3,0.7-2.2c0.7-0.8,0.9-1.5,0.5-1.5s-0.1-0.7,0.6-1.7c0.801-0.899,1.301-1.8,1.2-2
		c-0.2-0.1-0.3-0.399-0.2-0.5c0-0.2,0.2-1.2,0.4-2.399c0.8-4.101,4.5-11.5,5.5-10.9s-2.2,9.8-4.2,12.2c-0.6,0.7-0.7,1.3-0.3,1.3
		s0.2,0.7-0.5,1.5s-0.9,1.5-0.4,1.5c0.4,0,0.301,0.5-0.3,1.1c-0.6,0.601-0.899,1.7-0.7,2.4c0.301,0.7,0.101,1.6-0.5,1.9
		c-0.6,0.399-0.8,1.3-0.5,2c0.301,0.8,0.101,1.699-0.5,2c-0.6,0.399-0.8,1.3-0.5,2C85.299,181.741,83.4,183.042,82.5,181.642z"/>
	<path fill="#AE3929" d="M35.1,174.142l-3.1-3.6l-1,2.6c-0.6,1.4-1.4,2.3-2,2c-1.5-0.9-1.2-4.8,0.6-8.4c1.7-3.3,3.4-3.3,3.4,0
		c0,1.101,0.4,1.801,1,1.4c1.2-0.8,5.2,3.3,4.5,4.6c-0.4,0.5-0.2,1.601,0.5,2.4c0.6,0.8,0.7,1.6,0.1,1.9
		C38.6,177.342,36.799,176.042,35.1,174.142z"/>
	<path fill="#AE3929" d="M119.4,176.342c-0.7-2-0.2-4.7,1.1-5c1.4-0.3,1.9,4.3,0.6,5.6C120.4,177.642,119.9,177.542,119.4,176.342z"
		/>
	<path fill="#AE3929" d="M105.599,171.741c-2.1-2.3-2-4.8,0.301-6c2.399-1.3,3.1-0.5,3.1,3.5S107.799,174.142,105.599,171.741z"/>
	<path fill="#AE3929" d="M20.5,171.441c-0.8-2.1,0-7.3,1-7.3c1.3,0,1.8,7.2,0.5,8C21.399,172.441,20.799,172.142,20.5,171.441z"/>
	<path fill="#AE3929" d="M111.799,167.542c-1-0.601-1.6-2.301-1.6-5.101c-0.101-5.2,0.399-6.1,2.899-4.8c1.4,0.8,1.9,2.1,1.9,5.5
		C115,167.941,114.299,168.941,111.799,167.542z"/>
	<path fill="#AE3929" d="M118.4,166.342c-0.7-2-0.2-4.7,1.1-5c1.4-0.3,1.9,4.3,0.6,5.6C119.4,167.642,118.9,167.542,118.4,166.342z"
		/>
	<path fill="#AE3929" d="M35.6,163.741c-1.6-1.8-2.1-4.3-1-5.399c1.3-1.3,4.4,1.399,4.4,3.8C39,165.342,37.6,166.042,35.6,163.741z"
		/>
	<path fill="#AE3929" d="M27.399,161.342c-1-2.7,2-11.2,3.6-10.2c1.5,0.9,1.2,4.8-0.6,8.3C28.7,162.941,28.2,163.241,27.399,161.342
		z"/>
	<path fill="#AE3929" d="M103.299,161.042c-0.7-1.801,1.601-6.2,3.2-6.301c0.6-0.1,1,1.301,1.1,2.9
		C107.7,161.342,104.4,163.941,103.299,161.042z"/>
	<path fill="#AE3929" d="M21.6,158.941c-1-1-0.7-6.1,0.4-6.8c0.6-0.4,0.8-1,0.5-1.4c-0.6-1,2.6-3.699,4.3-3.699
		c1.4,0.1,1.7,2.1,0.3,2.1c-2.1,0-3.5,2.7-3.3,5.9C24.1,158.342,23,160.342,21.6,158.941z"/>
	<path fill="#AE3929" d="M117.4,156.241c-0.4-1-0.2-2.199,0.399-2.8c0.8-0.8,1.3-0.7,1.8,0.601c0.4,1,0.2,2.199-0.399,2.8
		C118.4,157.642,117.9,157.542,117.4,156.241z"/>
	<path fill="#AE3929" d="M37,154.642c-1.5-0.9-1.6-1.3-1.9-4.9c-0.1-1.199-1-2.1-2.3-2.3c-1.3-0.2-2.1-0.7-1.8-1.3
		c0.6-1.2,6.6-1.3,6.2-0.1c-0.2,0.5,0.3,1.3,1.2,1.8c1.6,0.899,2.2,6.3,0.8,7.2C38.799,155.241,37.799,155.142,37,154.642z"/>
	<path fill="#AE3929" d="M102.299,150.042c-0.3-0.801-0.3-1.801,0.101-2.101c0.3-0.3,0.1-1.2-0.5-1.899
		c-0.601-0.801-0.601-1.4,0-1.801c0.5-0.399,1.3-0.199,1.6,0.4c0.5,0.8,1.1,0.8,2,0c2.4-2,3.5-0.2,1.9,2.9
		C105.7,150.941,103.2,152.241,102.299,150.042z"/>
	<path fill="#AE3929" d="M116.2,150.441c-0.7-0.7-1.2-0.899-1.2-0.5c0,0.4-0.9,0.3-2.1-0.3c-2.4-1.4-2.101-3.2,0.8-3.6
		c2.5-0.4,6.1,3.199,4.7,4.6C117.7,151.342,117,151.241,116.2,150.441z"/>
	<path fill="#AE3929" d="M93.7,149.941c-0.3-0.5,0.6-2.5,2.2-4.3c1.5-1.9,3-2.9,3.3-2.4c0.399,0.5-0.601,2.5-2.101,4.301
		C95.5,149.441,94,150.542,93.7,149.941z"/>
	<path fill="#AE3929" d="M40.5,145.642c-0.8-1.3,2-2.4,4.1-1.6c2,0.8,0.9,2.6-1.6,2.6C42,146.642,40.799,146.142,40.5,145.642z"/>
	<path fill="#FDDCAD" d="M65.6,157.542c-1.4-1.101-2.3-2.5-2-3c0.4-0.601,1.3-0.4,2.4,0.6s3.3,1.6,5.2,1.5c5-0.3,5.5-0.1,3.399,1.5
		C71.899,160.241,68.7,160.042,65.6,157.542z"/>
	<path fill="#FDDCAD" d="M75.599,154.741c-0.399-0.5-0.199-1.199,0.4-1.6c0.5-0.3,1-0.3,1,0.1c0,0.4,0.9-0.1,1.9-1
		c1.1-1,2.199-1.3,2.5-0.8c0.3,0.5-0.101,1.5-0.9,2.2s-1.5,0.9-1.5,0.5s-0.6-0.2-1.4,0.4C76.7,155.342,76,155.342,75.599,154.741z"
		/>
	<path fill="#FDDCAD" d="M59.299,153.441c-0.4-0.7-0.8-1.7-0.8-2.3c0-0.5-0.9-1-1.9-1c-2.2,0-5.2-4-3.7-4.9
		c0.5-0.399,1.5,0.301,2.1,1.4s1.7,1.9,2.5,1.8c0.7-0.2,1.3,0,1.2,0.3c-0.1,0.4,0.6,1.601,1.6,2.7c1.1,1.2,1.4,2.2,0.8,2.601
		C60.6,154.441,59.799,154.142,59.299,153.441z"/>
	<path fill="#FDDCAD" d="M88.7,152.941c-0.4-0.6,0-1.8,0.7-2.8c0.8-1.1,1.6-1.4,1.899-0.8c0.4,0.6,0,1.8-0.7,2.8
		C89.799,153.241,89,153.542,88.7,152.941z"/>
	<path fill="#FDDCAD" d="M80.7,150.042c-1-1.101,0.3-2.4,2.2-2.4c1.1,0,2.1-1,2.5-2.2c0.399-1.7,0.8-2,1.699-1.1
		c0.9,0.899,0.801,1.8-0.5,3.7C85.099,150.441,82.099,151.441,80.7,150.042z"/>
	<path fill="#FDDCAD" d="M66.899,143.241c-0.5-2.3-0.2-4.6,0.5-4.8c1.2-0.399,1.5,4.101,0.4,4.8
		C67.399,143.542,67,143.542,66.899,143.241z"/>
	<path fill="#FDDCAD" d="M63.5,136.642c-0.4-0.6-1-0.8-1.5-0.5s-1.1,0.1-1.4-0.4c-0.4-0.5-0.2-1.199,0.3-1.5
		c0.5-0.399,1.2-0.199,1.6,0.4s1,0.8,1.5,0.5s1.1-0.1,1.4,0.4c0.4,0.5,0.2,1.199-0.3,1.5C64.6,137.441,63.899,137.241,63.5,136.642z
		"/>
	<path fill="#FDDCAD" d="M62.6,114.741c-1-1.1-1.3-2.199-0.8-2.5c0.5-0.3,1.7,0.301,2.6,1.301c1,1.1,1.3,2.199,0.8,2.5
		C64.7,116.342,63.5,115.741,62.6,114.741z"/>
	<path fill="#FDDCAD" d="M97.7,114.941c-0.4-0.6,0-1.8,0.7-2.8c0.8-1.1,1.6-1.4,1.899-0.8c0.4,0.6,0,1.8-0.7,2.8
		C98.799,115.241,98,115.542,97.7,114.941z"/>
	<path fill="#FDDCAD" d="M78.9,113.241c-0.5-2.3-0.2-4.6,0.5-4.8c1.199-0.399,1.5,4.101,0.399,4.8
		C79.4,113.542,79,113.542,78.9,113.241z"/>
	<path fill="#FDDCAD" d="M44.399,107.342c-3.3-2.9-3.5-6.9-0.4-10.3c2.9-2.9,5.9-3.101,9.4-0.301c1.9,1.5,2.6,3,2.6,5.4
		s-0.7,3.9-2.6,5.4C50,110.241,47.7,110.142,44.399,107.342z"/>
	<path fill="#FDDCAD" d="M89.299,108.642c-4.6-1.9-5.7-8.3-2-11.8c3.101-2.9,7.2-2.8,10.2,0.3c3.1,3,3.2,5.7,0.3,8.9
		C95.099,108.941,92.299,109.842,89.299,108.642z"/>
	<path fill="#FDDCAD" d="M63,100.741c-0.6-1.199-0.6-2.199-0.1-2.6c0.6-0.3,1.5,0.3,2.1,1.4c0.6,1.199,0.6,2.199,0.1,2.6
		C64.5,102.441,63.6,101.842,63,100.741z"/>
	<path fill="#FDDCAD" d="M75.7,101.941c-0.4-0.6,0-1.8,0.7-2.8c0.8-1.1,1.6-1.4,1.899-0.8c0.4,0.6,0,1.8-0.7,2.8
		C76.799,102.241,76,102.542,75.7,101.941z"/>
	<path fill="#FDDCAD" d="M60.899,91.941c-0.1-0.399-0.1-1.2,0-1.7s-0.4-0.399-1.3,0.301c-0.8,0.699-1.7,0.8-2,0.3
		c-0.3-0.601,0-1.5,0.8-2.101c1-0.8,1.7-0.6,3,0.801c1.1,1.199,1.4,2.1,0.7,2.6C61.5,92.441,60.899,92.441,60.899,91.941z"/>
	<path fill="#FDDCAD" d="M52.1,90.241c-0.7-0.8-0.8-1.699-0.3-2c0.6-0.3,1.5,0.101,2.1,0.801c0.7,0.8,0.8,1.699,0.3,2
		C53.6,91.342,52.7,90.941,52.1,90.241z"/>
	<path fill="#FDDCAD" d="M42,80.741c-0.6-1.199-0.6-2.199-0.1-2.6c0.6-0.3,1.5,0.3,2.1,1.4c0.6,1.199,0.6,2.199,0.1,2.6
		C43.5,82.441,42.6,81.842,42,80.741z"/>
	<path fill="#FDDCAD" d="M96.099,76.241c-0.699-0.8-0.8-1.699-0.3-2c0.601-0.3,1.5,0.101,2.101,0.801c0.699,0.8,0.8,1.699,0.3,2
		C97.599,77.342,96.7,76.941,96.099,76.241z"/>
	<path fill="#FDDCAD" d="M90.599,56.741c-1-1.1-1.3-2.199-0.8-2.5c0.5-0.3,1.7,0.301,2.601,1.301c1,1.1,1.3,2.199,0.8,2.5
		C92.7,58.342,91.5,57.741,90.599,56.741z"/>
	<path fill="#413E41" d="M64.5,231.441c-1-2.399-0.1-15.3,1-15.3c1.3,0,1.9,14.5,0.6,15.8
		C65.399,232.642,64.899,232.441,64.5,231.441z"/>
	<path fill="#413E41" d="M76.4,205.241c-0.4-1-0.2-2.199,0.399-2.8c0.8-0.8,1.3-0.7,1.8,0.601c0.4,1,0.2,2.199-0.399,2.8
		C77.4,206.642,76.9,206.542,76.4,205.241z"/>
	<path fill="#413E41" d="M63.399,203.241c-0.4-1-0.2-2.199,0.4-2.8c0.8-0.8,1.3-0.7,1.8,0.601c0.4,1,0.2,2.199-0.4,2.8
		C64.399,204.642,63.899,204.542,63.399,203.241z"/>
	<path fill="#413E41" d="M77.5,195.642c-0.4-0.6-0.3-1.6,0.3-2.2c0.601-0.6,1.2-0.6,1.7,0.2c0.4,0.6,0.3,1.6-0.3,2.2
		C78.599,196.441,78,196.441,77.5,195.642z"/>
	<path fill="#413E41" d="M62.5,194.642c-0.4-0.6-0.3-1.6,0.3-2.2c0.6-0.6,1.2-0.6,1.7,0.2c0.4,0.6,0.3,1.6-0.3,2.2
		C63.6,195.441,63,195.441,62.5,194.642z"/>
	<path fill="#413E41" d="M78.5,189.642c-0.4-0.6-0.3-1.6,0.3-2.2c0.601-0.6,1.2-0.6,1.7,0.2c0.4,0.6,0.3,1.6-0.3,2.2
		C79.599,190.441,79,190.441,78.5,189.642z"/>
	<path fill="#413E41" d="M57.899,171.241c-0.1-0.3-0.2-0.899-0.3-1.3c-0.1-0.5-0.5-1.399-0.9-2c-0.5-0.7-0.5-1.3-0.1-1.3
		c0.3,0,0.1-0.6-0.5-1.4c-0.8-1-0.9-1.6-0.1-2.1c0.5-0.3,1.1-0.4,1.1-0.1c0.4,1.6,0.7,2.6,0.9,3.1c0.1,0.3,0.3,0.8,0.4,1.3
		c0.1,0.4,0.5,1.2,0.9,1.9c0.4,0.6,0.3,1.399-0.3,1.8C58.5,171.441,57.899,171.542,57.899,171.241z"/>
	<path fill="#413E41" d="M76.599,167.741c-0.399-0.5-0.199-1.199,0.4-1.6c0.5-0.3,1-0.3,1,0.1c0,0.301,0.6,0.101,1.4-0.5
		c1-0.8,1.6-0.899,2.1-0.1c0.3,0.5,0.4,1.1,0.1,1.1c-0.3,0.101-0.899,0.2-1.3,0.301c-0.5,0.1-1.3,0.5-2,0.899
		C77.7,168.342,76.9,168.241,76.599,167.741z"/>
	<path fill="#413E41" d="M35.5,82.642c-0.4-0.6-0.3-1.6,0.3-2.2c0.6-0.6,1.2-0.6,1.7,0.2c0.4,0.6,0.3,1.6-0.3,2.2
		C36.6,83.441,36,83.441,35.5,82.642z"/>
	<path fill="#413E41" d="M107.5,80.441c-0.9-2.399-0.1-10.3,1-10.3c1.4,0,1.9,9.5,0.6,10.8C108.4,81.642,107.9,81.441,107.5,80.441z
		"/>
	<path fill="#413E41" d="M31.5,77.342c-1-2.4-0.1-10.7,1-10.7c1.4,0,1.9,10,0.6,11.3C32.399,78.642,31.899,78.542,31.5,77.342z"/>
	<path fill="#413E41" d="M36.5,75.642c-0.4-0.6-0.3-1.6,0.3-2.2c0.6-0.6,1.2-0.6,1.7,0.2c0.4,0.6,0.3,1.6-0.3,2.2
		C37.6,76.441,37,76.441,36.5,75.642z"/>
	<path fill="#413E41" d="M99,63.741c-0.6-1.199-0.6-2.199-0.1-2.6c0.6-0.3,1.5,0.3,2.1,1.4c0.6,1.199,0.6,2.199,0.1,2.6
		C100.5,65.441,99.599,64.842,99,63.741z"/>
	<path fill="#413E41" d="M92.599,54.741c-1.5-1.6-2.3-3.1-1.8-3.5c0.5-0.3,2.101,0.801,3.601,2.301c1.5,1.6,2.3,3.1,1.8,3.5
		C95.7,57.342,94.099,56.241,92.599,54.741z"/>
	<path fill="#413E41" d="M33.6,55.741c-0.4-0.5-0.2-1.199,0.4-1.6s0.8-1,0.5-1.5s-0.1-1.1,0.4-1.4c0.5-0.399,1.2-0.199,1.5,0.301
		c0.4,0.5,0.2,1.199-0.4,1.6s-0.8,1-0.5,1.5s0.1,1.1-0.4,1.4C34.6,56.441,33.899,56.241,33.6,55.741z"/>
	<path fill="#413E41" d="M45.6,54.842c-0.3-0.5,0.3-1.7,1.3-2.601c1.1-1,2.2-1.3,2.5-0.8c0.3,0.5-0.3,1.7-1.3,2.601
		C47,55.042,45.899,55.342,45.6,54.842z"/>
	<path fill="#413E41" d="M51.5,49.642c-0.3-0.5,0.8-1.6,2.5-2.5c1.6-0.8,3-1.3,3-0.9c0,0.4,0.6,0.101,1.4-0.5
		c1-0.8,1.6-0.899,2.1-0.1c0.3,0.5,0.4,1.1,0.1,1.1c-0.3,0.101-0.9,0.2-1.3,0.301c-0.5,0.1-2.2,1-4,1.899
		C53.399,49.941,51.899,50.241,51.5,49.642z"/>
	<path fill="#413E41" d="M85.5,49.241c-1.1-0.8-1.4-1.6-0.8-1.899c0.6-0.4,1.8,0,2.8,0.7c1.1,0.8,1.4,1.6,0.8,1.899
		C87.7,50.342,86.5,49.941,85.5,49.241z"/>
	<path fill="#332419" d="M44.899,30.842c-2.2-2.9-3.4-6.601-2.6-8.601c0.4-1.1,2-0.899,8.7,1c13.2,3.801,34.5,2.801,43.9-2.1
		c2.8-1.4,3.199-1.4,3.699,0c0.801,1.9-0.899,6.1-3.899,9.8l-2.2,2.8l-5-2.199c-3.9-1.801-7.4-2.4-15.5-2.7
		c-9.2-0.4-11.5-0.101-17.8,2l-7.3,2.5L44.899,30.842z"/>
	<path fill="#75655C" d="M37.6,45.842c-0.3-0.5,0.3-1.7,1.3-2.601c1.1-1,2.2-1.3,2.5-0.8c0.3,0.5-0.3,1.7-1.3,2.601
		C39,46.042,37.899,46.342,37.6,45.842z"/>
	<path fill="#75655C" d="M47.5,36.642c-0.3-0.5,0.8-1.6,2.5-2.5c1.6-0.8,3-1.3,3-0.9c0,0.4,0.7,0.101,1.5-0.6s1.5-0.9,1.5-0.5
		s0.6,0.2,1.4-0.4c1-0.8,1.6-0.899,2.1-0.1c0.3,0.5,0.4,1.1,0.1,1.1c-1.6,0.4-2.6,0.7-3.1,0.9c-0.3,0.1-0.8,0.3-1.2,0.4
		c-0.5,0.1-2.2,1-4,1.899C49.399,36.941,47.899,37.241,47.5,36.642z"/>
	<path fill="#75655C" d="M88,35.542c-1.9-1.2-3.6-2.101-3.7-2c-0.2,0-0.3-0.101-0.3-0.4s0-0.8,0-1.1c0-0.4,0.7-0.101,1.5,0.6
		s1.5,1,1.5,0.6c0-0.399,1.4,0.101,3,0.9c1.7,0.9,2.8,2,2.5,2.5C91.7,37.941,92.099,37.941,88,35.542z"/>
	<path fill="#75655C" d="M63.5,31.741c-0.7-1.199,1.2-2.399,2.5-1.6c1.1,0.7,0.4,2.5-1,2.5C64.5,32.642,63.899,32.241,63.5,31.741z"
		/>
	<path fill="#75655C" d="M72.5,31.741c-0.7-1.199,1.2-2.399,2.5-1.6c1.1,0.7,0.4,2.5-1,2.5C73.5,32.642,72.9,32.241,72.5,31.741z"/>
	<path fill="#75655C" d="M43.5,17.742c-0.3-0.6,0.4-1.5,1.5-2.1s2-0.8,2-0.4c0,0.3,0.6,0.1,1.4-0.5c1-0.8,1.6-0.9,2.1-0.1
		c0.3,0.5,0.4,1.1,0.1,1.1c-0.3,0.1-0.9,0.2-1.3,0.3c-0.5,0.1-1.8,0.7-3,1.4C45,18.142,43.899,18.242,43.5,17.742z"/>
	<path fill="#75655C" d="M82.5,12.742c-0.7-1.2,1.2-2.4,2.5-1.6c1.1,0.7,0.4,2.5-1,2.5C83.5,13.642,82.9,13.242,82.5,12.742z"/>
	<path fill="#127A93" d="M16.7,234.042c-0.3-0.4-0.4-3.2-0.1-6.301c0.2-3.1,1.6-21.6,2.9-41.1c2.4-33,2.7-35.6,4.7-37.7
		c1.5-1.6,2.5-2,3.3-1.3c0.9,0.7,1.4,0.6,1.8-0.3c0.6-1.7,6.5-2.8,7.3-1.5c0.3,0.5,1.2,0.399,1.9-0.2c0.8-0.6,2.6-1,4.2-0.8
		c2.3,0.2,3.4,1.399,6,6.3c4.4,8.2,8.8,22.1,11.3,35.5c2.5,13.9,3.7,29.5,2.3,30.3c-0.6,0.4-5.8-6.6-11.7-15.399l-10.8-16.101l2.9-3
		l2.8-2.899l-4.3-3.601c-2.4-2-4.8-4.6-5.2-5.7c-0.8-2-0.9-2-1-0.1c0,1.2,1.7,3.5,4.2,5.7l4.3,3.6l-2.4,2.601
		c-1.3,1.399-2.1,3.199-1.8,4c0.3,0.8,6,9.6,12.7,19.6c11.7,17.4,12.1,18.3,11.8,22.8l-0.3,4.7l-13.3,0.3c-13.2,0.3-13.4,0.2-14-2
		l-0.6-2.3l-0.6,2.5c-0.6,2.4-0.9,2.5-9.1,2.8C21.2,234.542,17.1,234.441,16.7,234.042z M34.7,218.941c-0.2-1.6-0.4-0.3-0.4,2.7
		s0.2,4.3,0.4,2.8C34.899,222.842,34.899,220.441,34.7,218.941z M33.7,205.941c-0.2-1.6-0.4-0.3-0.4,2.7s0.2,4.3,0.4,2.8
		C33.899,209.842,33.899,207.441,33.7,205.941z M32.7,192.941c-0.2-1.6-0.4-0.3-0.4,2.7s0.2,4.3,0.4,2.8
		C32.899,196.842,32.899,194.441,32.7,192.941z M31.7,179.941c-0.2-1.6-0.4-0.3-0.4,2.7s0.2,4.3,0.4,2.8
		C31.899,183.842,31.899,181.441,31.7,179.941z M30.7,166.941c-0.2-1.6-0.4-0.3-0.4,2.7s0.2,4.3,0.4,2.8
		C30.899,170.842,30.899,168.441,30.7,166.941z M36.7,159.941c-0.3-1-0.5-0.2-0.5,1.7s0.2,2.7,0.5,1.8
		C36.899,162.441,36.899,160.842,36.7,159.941z M29.7,153.941c-0.2-1.6-0.4-0.3-0.4,2.7s0.2,4.3,0.4,2.8
		C29.899,157.842,29.899,155.441,29.7,153.941z M37.7,149.441c-0.2-1.3-0.4-0.5-0.4,1.7c-0.1,2.2,0.1,3.2,0.4,2.3
		C37.899,152.441,37.899,150.642,37.7,149.441z"/>
	<path fill="#127A93" d="M79.299,233.542c-0.7-0.7-1.3-3.301-1.3-5.801c0-4.199,1.1-6.199,13-24.1l13-19.4l-2.5-2.6l-2.5-2.6l4-3.9
		c3.1-3,4-4.6,3.9-7l-0.2-3l-0.601,3.2c-0.399,2.1-2.1,4.5-4.899,6.899l-4.3,3.7l2.699,2.8l2.7,2.801l-10.8,16.6
		c-7.2,10.9-11.2,16.2-11.9,15.5c-1.199-1.2,0.7-23.6,3-34.7c3.601-17.7,12.101-37.5,16.301-38.1c2.899-0.5,5.1,1.399,5.199,4.7
		c0.101,2.5,0.2,2.5,0.801-0.4c0.5-2.6,1-3,4.1-3c2.9,0,3.6,0.4,3.8,2.3c0.3,2.2,0.5,2.2,1.601,0.601
		c1.199-1.601,1.399-1.601,3,0.699c1.199,1.9,2.5,12.4,5.5,42.9c2.199,22.2,3.699,40.8,3.5,41.2c-0.801,1.2-16.2,1-16.9-0.2
		c-0.5-0.8-1.1-0.7-2.1,0.1C105.299,234.441,80.799,235.241,79.299,233.542z M109.7,215.441c-0.2-1.8-0.4-0.6-0.4,2.7
		s0.2,4.8,0.4,3.3S109.9,217.241,109.7,215.441z M110.7,197.441c-0.2-1.8-0.4-0.6-0.4,2.7s0.2,4.8,0.4,3.3
		S110.9,199.241,110.7,197.441z M111.7,178.941c-0.2-1.6-0.4-0.3-0.4,2.7s0.2,4.3,0.4,2.8
		C111.9,182.842,111.9,180.441,111.7,178.941z M112.7,159.941c-0.2-1.6-0.4-0.3-0.4,2.7s0.2,4.3,0.4,2.8
		C112.9,163.842,112.9,161.441,112.7,159.941z M105.7,156.441c-0.2-1.3-0.4-0.5-0.4,1.7c-0.1,2.2,0.101,3.2,0.4,2.3
		C105.9,159.441,105.9,157.642,105.7,156.441z"/>
	<path fill="#444B54" d="M65,234.441c-1-33.7-2.1-44.3-6.5-60.6c-1.4-5.2-2.3-9.7-2-10.2c0.3-0.4,2.8,0,5.5,1.1
		c6,2.301,13.7,2.5,18.6,0.4c2-0.8,4-1.3,4.4-1c0.5,0.3,0.3,2.7-0.5,5.3c-3.7,12.7-5.7,27.2-6.4,45.7l-0.6,19l-6.2,0.3
		C67.799,234.642,65,234.642,65,234.441z"/>
	<path fill="#20140B" d="M105.299,85.441c-0.6-0.7-1.3-3.6-1.6-6.399c-1.3-11.301-7.2-22.7-14.4-27.7c-4.2-2.9-13.7-5.7-19.5-5.7
		c-17.9,0-28.4,10.5-31.8,31.7c-1.3,7.7-2.3,9.399-4.5,7.2c-1.1-1.101-1.5-4.101-1.6-12.4c0-13.6,2.3-22,8.1-29.4
		c12.1-15.199,41.6-16.899,57.2-3.199c4.399,3.8,9.2,13.1,10.8,20.5c1.3,6.6,0.9,25.8-0.6,26.3
		C106.799,86.542,105.799,86.142,105.299,85.441z"/>
	<path fill="#20140B" d="M51.5,25.542c-7.8-2.301-9.5-3.301-9.5-6c0-2.4,4.5-4.7,12.8-6.4c20.5-4.3,41.601-2,43.8,4.7
		c1.601,5.3-8.699,8.8-27.1,9.399C60.6,27.542,57.399,27.342,51.5,25.542z"/>
	<path d="M14.7,235.941c-0.6-0.899,3.1-59.6,4.9-78.7c1.1-11.899,5-14.1,26.7-14.899c10-0.4,11.7-1.4,11.7-6.8
		c0-3.5-0.4-4.101-3.8-5.801c-3.9-2-12-10-14.1-14l-1.2-2.199l-1.9,2.3l-1.9,2.3l-2.3-2.3c-2.6-2.5-2.5-1.5-2.9-36.2
		c-0.3-25.1,0.7-28.9,11.4-42.3l2.8-3.5l-2-4.101c-2.3-4.3-2.7-10.1-1.1-13.2c2.6-4.7,16.3-8,34-8.2c13.2-0.1,18.5,1.1,22.9,5.2
		c4.1,3.8,4.199,8.6,0.199,15.6l-3,5.2l4,3.899c4.801,4.601,9.2,13.601,10.9,21.9c1.8,8.5,2.1,50,0.4,54.3
		c-1.5,3.8-3.601,4.101-5.9,1c-1.2-1.6-1.9-1.899-2.2-1c-1.399,3.601-8.899,11.4-13.8,14.4c-5.1,3-5.5,3.6-5.5,6.899
		c0,2,0.6,4.101,1.3,4.7c0.8,0.7,7.101,1.3,14.4,1.601c13.899,0.5,18,1.6,20.7,5.899c1.899,2.8,10.199,85.5,8.699,87
		C126.799,236.241,15.5,237.241,14.7,235.941z M33,229.642c0-3.6-4.8-66.9-5.5-72c-0.2-1.9-0.4-4.7-0.5-6.2c0-1.6-0.5-2.8-1-2.8
		c-1.8,0-2.7,4.2-3.4,16c-0.4,6.3-0.9,13.3-1.1,15.5c-0.3,2.2-1,11.4-1.5,20.5c-0.6,9.1-1.3,20-1.6,24.3l-0.6,7.7h7.6H33V229.642z
		 M62,227.642c0-4.7-0.7-6-12.7-24.1l-12.8-19.101l2.7-2.3l2.6-2.3l-4-3.8l-4-3.9l0.7-8.2c0.3-4.5,0.8-10.3,1.2-12.8
		c0.5-4.3,0.4-4.5-2.1-4.5c-2.1,0-2.6,0.5-2.6,2.5c0,3.3,4.9,68.1,5.5,72.5c0.2,1.9,0.4,5.2,0.5,7.3v3.7h12.5H62V227.642z
		 M76.4,217.441c0.699-16.6,2.5-30.7,5.5-43.3c1.1-4.4,1.899-8.1,1.8-8.2c-0.101-0.1-2.7,0.5-5.7,1.3c-5.6,1.5-13.6,0.801-17.9-1.6
		c-1.1-0.5-2.2-1-2.4-1c-0.2,0,0.6,3.6,1.9,7.9c3.3,11.5,5.4,26.399,6.1,44.399l0.6,15.7H71h4.7L76.4,217.441z M107.099,228.441
		c0-2.399,0.2-6.3,0.4-8.8c0.5-5.4,2.2-37.3,3-55.5c0.3-7.1,0.8-14,1.1-15.2c0.301-1.6,0-2.3-1-2.3c-0.8,0-2.199-0.3-3.199-0.7
		c-1.5-0.5-1.601-0.2-1.101,2.601c0.4,1.699,1,7.8,1.3,13.5l0.7,10.3l-4.2,3.3l-4.199,3.4l2.699,2.1c1.801,1.4,2.5,2.8,2.101,3.8
		c-0.3,0.9-6,9.7-12.601,19.601c-11.5,17.1-12.1,18.3-12.1,23.1v5h13.5H107L107.099,228.441z M125,230.642c0-2.9-6.9-73.7-7.7-78.3
		c-0.6-3.9-2.3-6.101-2.3-3c0,1-0.9,17.8-2,37.3s-2,37.9-2,40.8v5.2h7C124.4,232.642,125,232.441,125,230.642z M61.5,209.441
		c-2.4-24.3-6.2-41.1-12.5-54.5c-6.4-13.7-8.9-12.6-10.5,4.3l-1.1,11.601l5.1,4.5l5,4.6l-3.1,2.5l-3.1,2.5l10,15.3
		c5.5,8.5,10.2,15.4,10.4,15.4C61.899,215.642,61.799,212.842,61.5,209.441z M92,198.241l9.3-13.899l-2.7-2c-1.399-1-2.6-2.4-2.6-3
		c0-0.7,2-3,4.5-5.2l4.6-4l-1-8c-0.6-4.4-1.1-9.9-1.3-12.2c-0.1-3.399-0.6-4.3-2-4.3c-1,0-2.1-0.1-2.399-0.2
		c-1.2-0.6-6.5,10.5-9.9,20.4c-1.9,5.7-4.1,14.399-5,19.3c-2,11.5-3.1,29.4-1.8,28C82.299,212.642,86.9,205.842,92,198.241z
		 M81,162.441c3.8-1.899,5.1-3.399,8.1-9.5l3.7-7.1l-3.7-0.5c-2.3-0.2-3.899,0.1-4.399,1c-0.4,0.7-1.3,1.3-1.9,1.3
		c-0.5,0-3.2,1.8-5.8,4s-5.6,4-6.7,4c-2.1,0-10.3-5.6-10.3-7.1c0-0.5-0.6-0.9-1.4-0.9c-0.7,0-1.9-0.6-2.5-1.3
		c-0.9-1.2-7.1-1.2-7.1-0.101c0,2,6.5,12.7,8.5,14C64.799,165.042,74.099,165.842,81,162.441z M73.799,149.042
		c0.4-2.7-2.1-4.7-4.8-3.9c-2,0.6-2.8,4.4-1.3,5.9S73.5,151.142,73.799,149.042z M77.799,140.542c1.5-0.9,2.2-2.4,2.2-4.4v-3h-9.5
		H61v3.2c0,2,0.7,3.7,1.9,4.5C65.299,142.542,74.9,142.342,77.799,140.542z M83.5,127.741c6.3-2.8,11.9-8.1,15.3-14.6
		c2.4-4.5,2.7-6.3,3-17.9c0.2-7.6-0.1-15.399-0.8-19c-2.6-13.3-9.7-23-19.3-26.3c-6.101-2.1-17.4-2.3-23.1-0.399
		c-5.5,1.899-12,8.199-14.6,14.3c-4.7,11-6.6,34.2-3.5,44.5C45.799,126.241,66.2,135.441,83.5,127.741z M35.899,106.642
		c0-1.9-0.4-4.2-0.9-5c-0.7-1-1,0.6-0.9,5.5C34.1,114.342,35.799,113.842,35.899,106.642z M108,106.941c0-4.8-0.3-6.399-1-5.3
		c-1.6,2.4-1.1,12,0.6,12C107.799,113.642,108,110.642,108,106.941z M108,92.642c0-2.2-0.4-4-1-4c-0.5,0-1,1.8-1,4s0.5,4,1,4
		C107.599,96.642,108,94.842,108,92.642z M34.7,89.441c-0.2-1.3-0.4-0.3-0.4,2.2s0.2,3.5,0.4,2.3
		C34.899,92.642,34.899,90.642,34.7,89.441z M107.7,72.941c-0.601-13.2-2.101-19.3-6.9-27.3c-6.8-11.2-16.3-15.5-33.2-14.8
		c-12.6,0.5-18.8,3-24.9,9.8c-6.6,7.3-9.1,15.7-9.2,30.4c0,13.699,1.5,16.3,3.3,5.699c2.6-15,8.8-24.8,18.7-29.6
		c6.3-3,19.5-3.3,26.6-0.6c12.7,4.8,20.5,16.3,23.4,34.399c0.3,2,1.1,3.7,1.7,3.7C107.9,84.642,108.099,81.042,107.7,72.941z
		 M53,29.542c10.3-3.9,26.4-3.5,35.7,0.899c3.399,1.601,3.5,1.601,5.399-0.8c1-1.4,2.4-4.2,3.101-6.3c1-3.3,0.899-4.1-0.9-6.5
		c-2.7-3.7-8-5-19.8-5.1c-10.9-0.1-20.4,1.1-27.7,3.5c-4.6,1.5-5.8,2.8-5.8,6.5c0,2.301,3,9.9,3.9,9.9
		C47.2,31.642,50,30.741,53,29.542z"/>
	<path d="M67.399,115.941c-3.3-0.6-7.1-5-5.6-6.5c0.9-0.899,1.7-0.7,3.2,1c2.6,2.8,7.8,2.9,11.2,0.2c2.6-2,3.8-1.8,3.8,0.6
		C80,114.042,72.299,116.941,67.399,115.941z"/>
	<path d="M65.2,101.342c-2.2-2.3-2.8-4.8-1.5-6.101c0.4-0.3,1.9,0.7,3.4,2.4c3.1,3.3,4.9,3.2,7.4-0.6c0.9-1.4,2-2.2,2.5-1.9
		c1.7,1.1,1.1,4.1-1.3,6.3C72.599,104.342,68,104.342,65.2,101.342z"/>
	<path d="M53,89.142c-2.6-3.2,1.3-8.1,4.8-5.9c3.4,2.2,2.2,7.4-1.8,7.4C55,90.642,53.7,89.941,53,89.142z"/>
	<path d="M81,88.642c-2.4-4.5,4.7-8,7.4-3.7c1.5,2.3-0.301,5.101-3.7,5.5C82.9,90.642,81.799,90.142,81,88.642z"/>
	<path d="M43,80.142c-1.5-1.8-0.1-3.9,4.1-6.1c6.4-3.301,19-0.5,19.7,4.399c0.5,3-2.3,3.9-5.8,1.8c-3.5-2-10-2.1-12.6-0.1
		C45.899,82.042,44.5,82.042,43,80.142z"/>
	<path d="M74.7,80.941c-1.4-1.3-0.601-4.2,1.6-5.8c6.101-4.3,15.8-3.9,20.601,0.9c2.399,2.399,2.399,2.699,0.8,4.3
		c-1.601,1.6-1.9,1.6-4.601,0c-3.6-2.101-11-2.2-13.699-0.2C77.299,81.741,75.7,82.042,74.7,80.941z"/>
	<path fill="#FFE1AE" d="M62,163.542c-2.4-1.101-5.3-2.801-6.3-3.7c-2.5-2.3-7.9-13-7.2-14.2c1.1-1.7,4.4-1.1,5.7,1
		c0.7,1.1,2.1,2,3.1,2c1.1,0,2.1,0.9,2.4,2c0.3,1.1,1.2,2,2.1,2c0.8,0,2.5,1.1,3.8,2.5c1.3,1.4,3.4,2.5,4.7,2.5
		c1.3,0,3.4-1.1,4.7-2.5s2.9-2.5,3.6-2.5c0.601,0,1.4-0.9,1.7-2s1.4-2,2.4-2c1.1,0,2.5-1.1,3.1-2.5c1.3-2.8,1.9-2.9,5.601-1.5
		l2.6,0.9l-2.4,4.5c-1.3,2.399-2.8,5.699-3.399,7.399c-0.7,2.101-2.5,3.7-6.3,5.601C75.4,166.241,68.399,166.441,62,163.542z"/>
	<path fill="#FFE1AE" d="M61.399,140.342c-2.8-2.9-2.6-7.5,0.6-7.2c3.5,0.3,14.686,0.286,17.086-0.014
		c2.9-0.3,2.013,4.614-0.686,7.114C75,143.441,64.299,143.441,61.399,140.342z"/>
	<path fill="#FFE1AE" d="M59.1,129.542c-7.4-3-16.2-11.9-19-19.301c-4.1-10.899-2.2-36.5,3.4-47.6c6.6-13.1,21.4-18.9,36.5-14.4
		c4.2,1.2,6.7,2.9,11.5,7.7c9.1,9.2,10.7,14,11.3,33.8c0.4,15.4,0.4,15.801-2.3,21.801c-3.1,6.8-9.6,13.6-16.6,17.199
		C77.5,132.042,66.299,132.342,59.1,129.542z M77.099,113.642c1-0.6,1.9-1.8,1.9-2.6c0-1.301-0.5-1.2-2.6,0.5
		c-3.5,2.699-8.8,2.699-11.5,0c-2.5-2.5-3.5-1.9-1.9,1c0.9,1.699,2,2.1,6.6,2.1C72.599,114.642,76,114.142,77.099,113.642z
		 M52.1,106.642c1.3-0.7,1.9-2.1,1.9-4.5c0-3.6-2-5.5-5.8-5.5c-4.2,0-6.2,7.1-2.6,9.7C47.799,107.941,49.5,107.941,52.1,106.642z
		 M96.799,104.842c1.601-2.2,1.5-4.7-0.399-6.601c-1.801-1.899-6.5-2.1-8.2-0.399c-1.3,1.3-1.601,5.7-0.4,7.399
		C89.599,107.941,94.5,107.741,96.799,104.842z M75.4,101.441c0.899-1.2,1.6-3.2,1.6-4.3c0-1.7-0.4-1.5-2.6,1.3
		c-1.4,1.7-3.2,3.2-3.9,3.2s-2.5-1.5-3.9-3.2c-2.2-2.8-2.6-3-2.6-1.3c0,3.7,2.8,6.5,6.5,6.5C72.9,103.642,74.4,102.941,75.4,101.441
		z M58.799,86.941c-0.2-2.2-0.8-2.8-2.8-2.8s-2.6,0.6-2.8,2.8c-0.3,2.4,0,2.7,2.8,2.7S59.1,89.342,58.799,86.941z M87.5,88.642
		c0.3-0.6,0.3-1.9,0-3.1c-1-3.101-4.9-2.101-5.3,1.399c-0.3,2.3,0,2.7,2.2,2.7C85.799,89.642,87.2,89.142,87.5,88.642z M48.6,79.142
		c2.5-1.9,9.5-1.9,12,0c2.8,2.1,5.4,1.9,5.4-0.6c0-6-20-6.5-22.3-0.5C42.6,80.842,45.399,81.542,48.6,79.142z M80.7,78.642
		c4.6-2.5,5.7-2.5,11.2,0.1c4.5,2,6.699,1.5,5.6-1.399c-0.9-2.2-5.8-3.7-11.9-3.7c-6.199,0-10,1.8-10.399,4.8
		C74.799,81.142,75.9,81.241,80.7,78.642z"/>
	<path fill="#FFE1AE" d="M32.399,96.342c-0.3-0.8-0.4-3.2-0.2-5.3c0.2-3.101,0.7-3.9,2.3-3.9c1.7,0,2,0.7,2,5c0,3.9-0.4,5-1.8,5.3
		C33.799,97.642,32.7,97.142,32.399,96.342z"/>
	<path fill="#FFE1AE" d="M105.4,96.342c-1-2.8,0-8.2,1.6-8.2c1.1,0,1.5,1.2,1.5,4.4C108.5,96.941,106.599,99.342,105.4,96.342z"/>
	<path fill="#FFFFFF" d="M67.7,151.842c-2.5-2.7-2.1-6,0.8-7.4c2.1-0.899,2.8-0.8,4.5,0.7c2.5,2.3,2.6,4.7,0.2,6.8
		C70.799,154.142,69.7,154.042,67.7,151.842z"/>
	<path fill="#FFFFFF" d="M62.5,147.642c-0.4-0.6-0.3-1.6,0.3-2.2c0.6-0.6,1.2-0.6,1.7,0.2c0.4,0.6,0.3,1.6-0.3,2.2
		C63.6,148.441,63,148.441,62.5,147.642z"/>
	<path fill="#FFFFFF" d="M76.5,147.642c-0.4-0.6-0.3-1.6,0.3-2.2c0.601-0.6,1.2-0.6,1.7,0.2c0.4,0.6,0.3,1.6-0.3,2.2
		C77.599,148.441,77,148.441,76.5,147.642z"/>
	<path fill="#FFFFFF" d="M57.399,144.542c-0.9-1.601,1.2-3.301,3.1-2.5c1.4,0.5,1.5,0.899,0.5,2.1
		C59.5,145.941,58.399,146.042,57.399,144.542z"/>
	<path fill="#FFFFFF" d="M79.4,144.542c-1-1.7,1.3-3.601,2.699-2.2c1.2,1.2,0.4,3.3-1.1,3.3
		C80.5,145.642,79.799,145.142,79.4,144.542z"/>
	<path fill="#FFFFFF" d="M33.299,113.142c-1-2.6-1-10.4,0-13c0.8-2,0.9-2,2.3-0.1c0.8,1.1,1.4,4.1,1.4,6.6s-0.6,5.5-1.4,6.6
		C34.2,115.142,34.1,115.142,33.299,113.142z"/>
	<path fill="#FFFFFF" d="M106.2,113.441c-1.8-1.8-1.5-11.3,0.3-12.8c2-1.6,3,0.9,2.9,7.3
		C109.299,113.241,108.099,115.342,106.2,113.441z"/>
</g>
<g>
</g>
<g>
</g>
<g>
</g>
<g>
</g>
<g>
</g>
<g>
</g>
</svg>
