<?xml version="1.0" encoding="utf-8"?><svg xmlns="http://www.w3.org/2000/svg" xmlns:xlink="http://www.w3.org/1999/xlink" version="1.1" class="page" pageAlignment="none" x="0px" y="0px" width="321px" height="321px" viewBox="0 0 321 321" enable-background="new 0 0 321 321" xml:space="preserve"><title>runeman.org</title><defs/><style type="text/css"/><style type="text/css"/><g type="LAYER" name="workspace" id="workspace" locked="true"/><g transform="matrix(1 0 0 1 -226.94465 -153.73211)" id="layer1"><path id="path3370" width="280" height="80" stroke-width="8" stroke-miterlimit="3" stroke="#ffffff" fill="#360000" d="M250,382.3622 L250,462.3622 L530,462.3622 L530,382.3622 Z "/><path id="path3353" width="160" height="120" stroke-width="4" stroke-miterlimit="3" stroke="#FFFFFF" fill="#F8F8F8" d="M313,420.3622 L310,302.3622 L470,302.3622 L470,422.3622 Z "/><path id="path3355" width="30" height="40" stroke-width="6" stroke-miterlimit="3" stroke="#1EFF00" fill="none" d="M324,368.3622 L334,378.3622 L354,338.3622 "/><path id="path3357" width="70" stroke-width="6" stroke-miterlimit="3" stroke="#CACACA" fill="none" d="M370,342.3622 L440,342.3622 "/><path id="path3359" width="70" stroke-width="6" stroke-miterlimit="3" stroke="#CACACA" fill="none" d="M370,362.3622 L440,362.3622 "/><path id="path3361" width="70" stroke-width="6" stroke-miterlimit="3" stroke="#CACACA" fill="none" d="M370,382.3622 L440,382.3622 "/><path id="path3347" width="160" height="161.02816448000002" stroke-width="4" stroke-miterlimit="3" stroke="#ffffff" fill="#FFCCFD" d="M312,187.3622 L409,237.3622 L446,302.36220000000003 L407,302.36220000000003 L390,279.36220000000003 C390,279.36220000000003 379.63232,277.41344000000004 376,280.36220000000003 C372.23193,283.42116000000004 372,294.36220000000003 372,294.36220000000003 L413,326.36220000000003 C413,326.36220000000003 413.54338,341.81882 410,345.36220000000003 C406.45662,348.90558000000004 393,348.36220000000003 393,348.36220000000003 C363.66667,324.49237000000005 342.33333,311.95002000000005 313,301.36220000000003 L297,251.36220000000003 L286,248.36220000000003 Z "/><path id="path3349" width="81" height="105.00000000000003" stroke-width="8" stroke-miterlimit="3" stroke="#ffffff" fill="#000080" d="M232,240.3622 L264,159.3622 L313,185.3622 L279,264.36220000000003 Z "/><path id="path3372" width="200" stroke-width="10" stroke-miterlimit="3" stroke="#ffffff" fill="none" d="M290,422.3622 L490,422.3622 "/></g></svg>